<svg width="34" height="34" viewBox="0 0 34 34" fill="none" xmlns="http://www.w3.org/2000/svg">
<rect width="34" height="34" rx="17" fill="#D4E9E2"/>
<g clip-path="url(#clip0_1415_15964)">
<path d="M16.7188 8.84375V9.40625H16.4375H16.1562V9.125V8.84375H15.875H15.5938V9.125V9.40625H15.0312H14.4688V10.5312V11.6562H12.2188H9.96875V14.7465V17.8367L9.71914 18.0793C9.4168 18.3711 9.18477 18.7121 9.04766 19.0672C8.85078 19.5699 8.84375 19.6719 8.84375 21.8621V23.873L8.72773 24.0383C8.45 24.4285 8.28125 24.9699 8.28125 25.4762V25.7188H17H25.7188V25.4727C25.7188 25.0859 25.6309 24.7203 25.448 24.3477C25.3109 24.0699 25.2336 23.9645 24.9805 23.7113L24.6781 23.409L24.7977 23.2719C24.9453 23.1031 25.0473 22.9062 25.107 22.6777C25.1773 22.4176 25.1773 19.9566 25.107 19.591C24.9945 19.0074 24.7168 18.5012 24.2809 18.0793L24.0312 17.8367V14.7465V11.6562H21.7812H19.5312V10.5312V9.40625H18.9688H18.4062V9.125V8.84375H18.125H17.8438V9.125V9.40625H17.5625H17.2812V8.84375V8.28125H17H16.7188V8.84375ZM18.9688 10.25V10.5312H17H15.0312V10.25V9.96875H17H18.9688V10.25ZM18.9688 11.375V11.6562H18.4062H17.8438V14.4688V17.2812H17.0105C16.4129 17.2812 16.1035 17.2988 15.9312 17.334C15.6816 17.3867 15.316 17.5414 15.1332 17.668L15.0312 17.7418V14.4195V11.0938H17H18.9688V11.375ZM14.4688 15.3125C14.4688 18.2797 14.4652 18.4133 14.402 18.5398C14.3668 18.6102 14.3176 18.7367 14.293 18.8176L14.2473 18.9617L14.068 18.6664C13.5477 17.8051 12.623 17.2812 11.6246 17.2812C11.368 17.2812 10.9637 17.3551 10.7176 17.45L10.5312 17.5203V14.8695V12.2188H12.5H14.4688V15.3125ZM23.4688 14.8695V17.5203L23.2859 17.45C23.0363 17.3551 22.632 17.2812 22.3754 17.2812C21.377 17.2812 20.4523 17.8051 19.932 18.6664L19.7527 18.9617L19.707 18.8176C19.5629 18.3219 19.127 17.7945 18.6629 17.552L18.4062 17.4184V14.8168V12.2188H20.9375H23.4688V14.8695ZM12.1309 17.8965C12.8797 18.0512 13.5512 18.6629 13.8113 19.4258C13.8852 19.6473 13.8887 19.707 13.8992 21.5105C13.9062 22.5336 13.8957 23.3633 13.8816 23.3563C13.5617 23.198 13.3719 23.1242 13.0801 23.0469C12.7461 22.9555 12.7285 22.9484 12.7004 22.8395C12.6758 22.734 12.6863 22.7129 12.8867 22.5195C13.0309 22.3824 13.1328 22.2383 13.2137 22.0766L13.3262 21.834L13.3367 20.8215L13.3473 19.8125H12.7883C12.0219 19.8125 11.941 19.7844 11.5648 19.4047C11.2027 19.0391 11.1113 18.9898 10.7914 18.9863C10.577 18.9863 10.5207 19.0004 10.3695 19.0918C10.2641 19.1586 10.1586 19.2641 10.0918 19.3695L9.98633 19.5418V20.6879V21.834L10.0988 22.0766C10.1797 22.2383 10.2816 22.3824 10.4258 22.5195C10.6297 22.7129 10.6367 22.7305 10.6121 22.8395C10.5805 22.9484 10.5699 22.9555 10.2324 23.0469C9.94414 23.1207 9.73672 23.2016 9.43437 23.3563C9.4168 23.3633 9.40625 22.5793 9.40625 21.616C9.40625 19.6332 9.41328 19.5629 9.65937 19.0742C10.1094 18.1742 11.1324 17.6891 12.1309 17.8965ZM18.016 17.8965C18.3113 17.9668 18.5539 18.1109 18.7789 18.343C19.0109 18.582 19.127 18.7895 19.1937 19.0742C19.2465 19.2992 19.2676 19.6086 19.2324 19.6438C19.2219 19.6543 19.1305 19.6332 19.0285 19.598C18.902 19.5523 18.7402 19.5348 18.5117 19.5312C17.9457 19.5312 17.5625 19.3871 17.2039 19.0496L17 18.8527L16.7855 19.0531C16.4129 19.3977 16.0543 19.5312 15.4883 19.5312C15.2598 19.5348 15.098 19.5523 14.9715 19.598C14.8695 19.6332 14.7781 19.6543 14.7676 19.6438C14.7324 19.6086 14.7535 19.2992 14.8027 19.0777C14.873 18.7824 15.0172 18.5398 15.2492 18.3148C15.4812 18.0898 15.6957 17.9668 15.9629 17.9C16.2687 17.8262 17.7066 17.8262 18.016 17.8965ZM22.8184 17.8965C23.5672 18.0512 24.2422 18.6664 24.4953 19.4258C24.5691 19.6438 24.5727 19.7246 24.5867 21.043C24.6008 22.5934 24.5938 22.6391 24.3793 22.8852C24.1719 23.1207 24.1051 23.1348 23.7324 23.0363C23.4336 22.9555 23.416 22.9484 23.3879 22.8395C23.3633 22.734 23.3738 22.7129 23.5742 22.5195C23.7184 22.3824 23.8203 22.2383 23.9012 22.0766L24.0137 21.834L24.0242 20.8215L24.0348 19.8125H23.8098C23.3773 19.8125 22.9309 19.6016 22.7199 19.2922C22.632 19.1691 22.625 19.1305 22.625 18.7824V18.4062H22.3438H22.0625V18.7824C22.0625 19.1305 22.0555 19.1691 21.9676 19.2922C21.7566 19.6016 21.3102 19.8125 20.8777 19.8125H20.6527L20.6633 20.8215L20.6738 21.834L20.7863 22.0766C20.8672 22.2383 20.9691 22.3824 21.1133 22.5195C21.3172 22.7164 21.3242 22.7305 21.2961 22.8395C21.268 22.952 21.2539 22.959 20.9516 23.0363C20.6984 23.0996 20.6211 23.1066 20.5402 23.075C20.4031 23.0223 20.1852 22.7621 20.1359 22.5969C20.0691 22.3824 20.0797 19.9391 20.1465 19.6191C20.2766 18.9898 20.7441 18.3887 21.3242 18.0969C21.8059 17.8543 22.3016 17.7875 22.8184 17.8965ZM11.1324 19.7914C11.5191 20.2027 11.9199 20.375 12.4895 20.375H12.7812V20.9938C12.7812 21.3805 12.7637 21.6688 12.7391 21.7602C12.6828 21.9535 12.391 22.2453 12.1977 22.3016C12.0113 22.3578 11.3012 22.3578 11.1148 22.3016C10.9215 22.2453 10.6297 21.9535 10.5734 21.7602C10.5453 21.6617 10.5312 21.3066 10.5312 20.6598V19.7035L10.6191 19.6191C10.7668 19.468 10.8617 19.4996 11.1324 19.7914ZM17.1055 19.707C17.2812 19.8336 17.6539 19.9883 17.8824 20.0375L18.1074 20.0832L18.118 20.8355C18.1285 21.7461 18.1109 21.834 17.8648 22.0801C17.6398 22.3051 17.5098 22.3438 17 22.3438C16.4902 22.3438 16.3602 22.3051 16.1352 22.0801C15.8891 21.834 15.8715 21.7461 15.882 20.8355L15.8926 20.0832L16.1176 20.0375C16.3391 19.9918 16.673 19.8477 16.877 19.7141C17.0105 19.6227 16.9895 19.6227 17.1055 19.707ZM22.523 19.9004C22.7129 20.0762 23.1137 20.2871 23.3316 20.3223L23.4688 20.3469V20.9797C23.4688 21.7461 23.4477 21.841 23.2051 22.0801C22.9836 22.3051 22.8535 22.3438 22.3438 22.3438C21.834 22.3438 21.7039 22.3051 21.4824 22.0801C21.2398 21.841 21.2188 21.7461 21.2188 20.9797V20.3469L21.3629 20.3223C21.5773 20.2871 22.0273 20.048 22.1855 19.8863C22.2594 19.8055 22.3297 19.7422 22.3367 19.7422C22.3473 19.7422 22.4316 19.8125 22.523 19.9004ZM15.3125 20.6562C15.3125 21.2785 15.316 21.2645 15.091 21.1695C14.6516 20.9867 14.648 20.3328 15.084 20.143C15.316 20.041 15.3125 20.034 15.3125 20.6562ZM19.0004 20.1922C19.1727 20.3188 19.2324 20.4383 19.2324 20.6562C19.2324 20.8109 19.2148 20.8883 19.1586 20.9586C19.0602 21.0957 18.9371 21.1801 18.8035 21.2047L18.6875 21.2258V20.6562V20.0832L18.8035 20.1078C18.8633 20.1184 18.9547 20.157 19.0004 20.1922ZM14.8379 21.6617C14.9363 21.7074 15.0875 21.7566 15.1824 21.7672C15.2738 21.7812 15.3477 21.8094 15.3477 21.8305C15.3477 21.8516 15.3934 21.9676 15.4496 22.0836C15.548 22.291 15.7871 22.5758 15.9242 22.6496C15.9805 22.6813 15.984 22.7059 15.9594 22.8184L15.9277 22.952L15.5762 23.0469C15.1578 23.1559 14.9539 23.2438 14.6762 23.4336L14.4688 23.5742V22.4844V21.391L14.5672 21.4859C14.6199 21.5352 14.743 21.616 14.8379 21.6617ZM19.6367 22.8711C19.6859 22.9766 19.7879 23.1453 19.8687 23.2438L20.0164 23.423L19.8441 23.5707L19.6719 23.7184L19.4891 23.5602C19.2395 23.3422 18.8773 23.1664 18.4414 23.0504C18.0863 22.9555 18.0723 22.9484 18.0441 22.8395C18.0195 22.734 18.0301 22.7129 18.227 22.523C18.4203 22.3367 18.6523 21.957 18.6523 21.8305C18.6523 21.8094 18.7262 21.7812 18.8211 21.7672C19.032 21.7391 19.3133 21.609 19.4258 21.4824L19.5137 21.3875L19.5312 22.0344C19.5488 22.6145 19.5594 22.6953 19.6367 22.8711ZM12.1871 23.0926C12.2223 23.2578 12.2188 23.3 12.166 23.4125C11.9832 23.7922 11.4699 23.859 11.2238 23.5355C11.1008 23.3668 11.0832 23.2789 11.1289 23.0785L11.1711 22.9062H11.6562H12.1449L12.1871 23.0926ZM17.5062 22.9836C17.5168 23.0293 17.5273 23.082 17.5273 23.1031C17.5273 23.1523 17.0387 23.8027 17 23.8027C16.9613 23.8027 16.4727 23.1523 16.4727 23.1031C16.4727 23.082 16.4832 23.0293 16.4937 22.9836C16.5148 22.9098 16.5289 22.9062 17 22.9062C17.4711 22.9062 17.4852 22.9098 17.5062 22.9836ZM22.8676 23.0609C22.8887 23.1488 22.9062 23.2754 22.9062 23.3422V23.4688H22.3438H21.7812V23.3422C21.7812 23.2754 21.7988 23.1488 21.8199 23.0609L21.8586 22.9062H22.3438H22.8289L22.8676 23.0609ZM16.5113 24.1367C16.7715 24.4813 16.9895 24.766 17 24.766C17.0105 24.766 17.225 24.4883 17.4746 24.1508C17.7277 23.8098 17.9422 23.5285 17.9527 23.5215C17.9914 23.4934 18.6137 23.6762 18.7824 23.7641C19.0566 23.9012 19.3062 24.1227 19.475 24.3758C19.6191 24.5938 19.7773 24.9734 19.7773 25.1035C19.7773 25.1492 19.4715 25.1562 17 25.1562C14.3773 25.1562 14.2227 25.1527 14.2227 25.093C14.2262 24.9559 14.402 24.5445 14.5496 24.3371C14.7148 24.1051 14.9785 23.8836 15.2352 23.7535C15.3512 23.6938 15.9066 23.518 16.0191 23.5074C16.0332 23.5039 16.2547 23.7887 16.5113 24.1367ZM10.6543 23.6832C10.7422 23.8766 10.9461 24.077 11.1711 24.1965C11.3328 24.2809 11.3996 24.2949 11.6562 24.2949C11.9129 24.2949 11.9797 24.2809 12.1379 24.2C12.3523 24.084 12.5492 23.8906 12.6477 23.6973C12.6863 23.6199 12.725 23.5531 12.7285 23.5461C12.7355 23.5391 12.8656 23.5672 13.0238 23.6094C13.3332 23.6938 13.6426 23.8625 13.843 24.0559L13.9695 24.1789L13.85 24.432C13.7867 24.5691 13.7129 24.7871 13.6883 24.9172L13.6426 25.1562H11.2625C8.54844 25.1562 8.82266 25.1949 8.9457 24.8293C9.09336 24.4074 9.42031 24.0102 9.79648 23.8027C9.96172 23.7148 10.4434 23.5461 10.5523 23.5426C10.5734 23.5391 10.6191 23.6023 10.6543 23.6832ZM21.2574 23.8344C21.3102 24.2141 21.4086 24.5234 21.5879 24.8645L21.7426 25.1562H21.05H20.3574L20.3117 24.9207C20.2871 24.7871 20.2133 24.5691 20.1465 24.4285L20.0305 24.1754L20.1781 24.0383C20.3891 23.8449 20.6281 23.7113 20.934 23.6234C21.0816 23.5812 21.2047 23.5496 21.2082 23.5531C21.2152 23.5566 21.2363 23.6832 21.2574 23.8344ZM24.1156 23.7535C24.5234 23.9609 24.882 24.3652 25.0402 24.7906C25.1844 25.1914 25.2828 25.1562 24.0348 25.1562H22.952L23.1242 24.8117C23.2895 24.4848 23.4055 24.098 23.4512 23.7078L23.4723 23.5461L23.7219 23.6129C23.8555 23.6516 24.0348 23.7148 24.1156 23.7535ZM22.7691 24.2176C22.6883 24.4531 22.5125 24.7977 22.4176 24.9102L22.3438 24.998L22.2699 24.9102C22.175 24.7977 21.9992 24.4531 21.9184 24.2176L21.8551 24.0312H22.3438H22.8324L22.7691 24.2176Z" fill="#1E3932"/>
<path d="M15.5938 11.9375V12.2188H15.875H16.1562V11.9375V11.6562H15.875H15.5938V11.9375Z" fill="#1E3932"/>
<path d="M16.7188 11.9375V12.2188H17H17.2812V11.9375V11.6562H17H16.7188V11.9375Z" fill="#1E3932"/>
<path d="M15.5938 13.0625V13.3438H15.875H16.1562V13.0625V12.7812H15.875H15.5938V13.0625Z" fill="#1E3932"/>
<path d="M16.7188 13.0625V13.3438H17H17.2812V13.0625V12.7812H17H16.7188V13.0625Z" fill="#1E3932"/>
<path d="M15.5938 14.1875V14.4688H15.875H16.1562V14.1875V13.9062H15.875H15.5938V14.1875Z" fill="#1E3932"/>
<path d="M16.7188 14.1875V14.4688H17H17.2812V14.1875V13.9062H17H16.7188V14.1875Z" fill="#1E3932"/>
<path d="M15.5938 15.3125V15.5938H15.875H16.1562V15.3125V15.0312H15.875H15.5938V15.3125Z" fill="#1E3932"/>
<path d="M16.7188 15.3125V15.5938H17H17.2812V15.3125V15.0312H17H16.7188V15.3125Z" fill="#1E3932"/>
<path d="M15.5938 16.4375V16.7188H15.875H16.1562V16.4375V16.1562H15.875H15.5938V16.4375Z" fill="#1E3932"/>
<path d="M16.7188 16.4375V16.7188H17H17.2812V16.4375V16.1562H17H16.7188V16.4375Z" fill="#1E3932"/>
<path d="M11.0938 13.0625V13.3438H11.375H11.6562V13.0625V12.7812H11.375H11.0938V13.0625Z" fill="#1E3932"/>
<path d="M12.2188 13.0625V13.3438H12.5H12.7812V13.0625V12.7812H12.5H12.2188V13.0625Z" fill="#1E3932"/>
<path d="M13.3438 13.0625V13.3438H13.625H13.9062V13.0625V12.7812H13.625H13.3438V13.0625Z" fill="#1E3932"/>
<path d="M11.0938 14.1875V14.4688H11.375H11.6562V14.1875V13.9062H11.375H11.0938V14.1875Z" fill="#1E3932"/>
<path d="M12.2188 14.1875V14.4688H12.5H12.7812V14.1875V13.9062H12.5H12.2188V14.1875Z" fill="#1E3932"/>
<path d="M13.3438 14.1875V14.4688H13.625H13.9062V14.1875V13.9062H13.625H13.3438V14.1875Z" fill="#1E3932"/>
<path d="M11.0938 15.3125V15.5938H11.375H11.6562V15.3125V15.0312H11.375H11.0938V15.3125Z" fill="#1E3932"/>
<path d="M12.2188 15.3125V15.5938H12.5H12.7812V15.3125V15.0312H12.5H12.2188V15.3125Z" fill="#1E3932"/>
<path d="M13.3438 15.3125V15.5938H13.625H13.9062V15.3125V15.0312H13.625H13.3438V15.3125Z" fill="#1E3932"/>
<path d="M11.0938 16.4375V16.7188H11.375H11.6562V16.4375V16.1562H11.375H11.0938V16.4375Z" fill="#1E3932"/>
<path d="M12.2188 16.4375V16.7188H12.5H12.7812V16.4375V16.1562H12.5H12.2188V16.4375Z" fill="#1E3932"/>
<path d="M13.3438 16.4375V16.7188H13.625H13.9062V16.4375V16.1562H13.625H13.3438V16.4375Z" fill="#1E3932"/>
<path d="M18.9688 13.0625V13.3438H19.25H19.5312V13.0625V12.7812H19.25H18.9688V13.0625Z" fill="#1E3932"/>
<path d="M20.0938 13.0625V13.3438H20.375H20.6562V13.0625V12.7812H20.375H20.0938V13.0625Z" fill="#1E3932"/>
<path d="M21.2188 13.0625V13.3438H21.5H21.7812V13.0625V12.7812H21.5H21.2188V13.0625Z" fill="#1E3932"/>
<path d="M22.3438 13.0625V13.3438H22.625H22.9062V13.0625V12.7812H22.625H22.3438V13.0625Z" fill="#1E3932"/>
<path d="M18.9688 14.1875V14.4688H19.25H19.5312V14.1875V13.9062H19.25H18.9688V14.1875Z" fill="#1E3932"/>
<path d="M20.0938 14.1875V14.4688H20.375H20.6562V14.1875V13.9062H20.375H20.0938V14.1875Z" fill="#1E3932"/>
<path d="M21.2188 14.1875V14.4688H21.5H21.7812V14.1875V13.9062H21.5H21.2188V14.1875Z" fill="#1E3932"/>
<path d="M22.3438 14.1875V14.4688H22.625H22.9062V14.1875V13.9062H22.625H22.3438V14.1875Z" fill="#1E3932"/>
<path d="M18.9688 15.3125V15.5938H19.25H19.5312V15.3125V15.0312H19.25H18.9688V15.3125Z" fill="#1E3932"/>
<path d="M20.0938 15.3125V15.5938H20.375H20.6562V15.3125V15.0312H20.375H20.0938V15.3125Z" fill="#1E3932"/>
<path d="M21.2188 15.3125V15.5938H21.5H21.7812V15.3125V15.0312H21.5H21.2188V15.3125Z" fill="#1E3932"/>
<path d="M22.3438 15.3125V15.5938H22.625H22.9062V15.3125V15.0312H22.625H22.3438V15.3125Z" fill="#1E3932"/>
<path d="M18.9688 16.4375V16.7188H19.25H19.5312V16.4375V16.1562H19.25H18.9688V16.4375Z" fill="#1E3932"/>
<path d="M20.0938 16.4375V16.7188H20.375H20.6562V16.4375V16.1562H20.375H20.0938V16.4375Z" fill="#1E3932"/>
<path d="M21.2188 16.4375V16.7188H21.5H21.7812V16.4375V16.1562H21.5H21.2188V16.4375Z" fill="#1E3932"/>
<path d="M22.3438 16.4375V16.7188H22.625H22.9062V16.4375V16.1562H22.625H22.3438V16.4375Z" fill="#1E3932"/>
</g>
<defs>
<clipPath id="clip0_1415_15964">
<rect width="18" height="18" fill="white" transform="translate(8 8)"/>
</clipPath>
</defs>
</svg>
