<svg width="34" height="34" viewBox="0 0 34 34" fill="none" xmlns="http://www.w3.org/2000/svg">
<rect width="34" height="34" rx="17" fill="#D4E9E2"/>
<g clip-path="url(#clip0_5062_8972)">
<path d="M23.3457 8.32339C23.2508 8.34097 23.0434 8.41831 22.8852 8.49214C22.3121 8.76636 21.9008 9.33238 21.8094 9.96519L21.7672 10.25H15.0242H8.28125V15.875V21.5L12.5105 21.507L16.7363 21.5175L16.7609 21.7461C16.8242 22.3332 17.0492 23.0011 17.348 23.5003C18.2199 24.9488 19.7738 25.789 21.4297 25.7046C22.5898 25.6484 23.5602 25.216 24.3863 24.3863C25.216 23.5601 25.6484 22.5898 25.7047 21.4296C25.7715 20.1324 25.2687 18.8843 24.316 17.9738L24.0312 17.7031V14.9468V12.1941L24.2246 12.1519C24.6781 12.05 25.1949 11.6738 25.427 11.28C25.8945 10.482 25.7785 9.51167 25.1387 8.86831C24.6746 8.39722 24.0137 8.19683 23.3457 8.32339ZM24.3266 8.9773C24.6465 9.12496 24.8504 9.32886 25.0086 9.64527C25.1316 9.89839 25.1387 9.93003 25.1387 10.25C25.1387 10.5699 25.1316 10.6015 25.0086 10.8546C24.8504 11.1746 24.6465 11.3714 24.3195 11.5261C24.1051 11.6281 24.0523 11.6386 23.75 11.6386C23.4477 11.6386 23.3949 11.6281 23.1875 11.5296C22.8535 11.3679 22.6496 11.1746 22.4949 10.8546C22.3684 10.6015 22.3613 10.5699 22.3613 10.2535C22.3613 9.94761 22.3719 9.89488 22.4738 9.68042C22.6145 9.3816 22.8148 9.16363 23.0785 9.02652C23.3527 8.87886 23.5074 8.84371 23.8273 8.85777C24.0418 8.86831 24.1508 8.89644 24.3266 8.9773ZM21.9043 10.9144C21.9148 10.9707 21.9816 11.1078 22.0484 11.2203L22.1715 11.4242L21.3172 12.2785C20.6281 12.9711 20.4488 13.1328 20.3926 13.1152C20.2309 13.066 19.9883 13.0554 19.8652 13.0976L19.7352 13.1398L19.4504 12.8586C19.1727 12.5808 19.1691 12.5773 19.2113 12.4648C19.3836 11.9656 18.9477 11.375 18.4062 11.375C18.1848 11.375 18.0055 11.4558 17.8262 11.6386C17.5801 11.8812 17.5027 12.1765 17.6012 12.4648L17.6434 12.5773L16.9437 13.2769C16.3812 13.8394 16.2301 13.9765 16.1738 13.9589C15.8223 13.8535 15.541 13.9203 15.2949 14.1664C14.9398 14.525 14.9398 14.975 15.2949 15.33C15.65 15.6851 16.1 15.6851 16.4586 15.33C16.7047 15.0839 16.7715 14.8027 16.666 14.4511C16.6484 14.3949 16.7855 14.2437 17.348 13.6812L18.0477 12.9816L18.1602 13.0238C18.3078 13.073 18.5047 13.073 18.6523 13.0238C18.7648 12.9816 18.7684 12.9851 19.0461 13.2664C19.3273 13.5441 19.3309 13.5476 19.2887 13.6601C19.1164 14.1593 19.5523 14.75 20.0937 14.75C20.3152 14.75 20.4945 14.6691 20.6773 14.4863C20.9234 14.2402 20.9902 13.9589 20.8848 13.6074C20.8672 13.5511 21.0324 13.3718 21.7215 12.6828L22.5758 11.8285L22.7797 11.9515C22.8922 12.0183 23.0926 12.1027 23.2262 12.1378L23.4687 12.1976V14.7605C23.4687 16.1703 23.4582 17.3164 23.4441 17.3093C22.8395 17 22.4105 16.8558 21.8516 16.7714C20.5191 16.5675 19.1445 17.007 18.1426 17.9562L17.8437 18.2375V17.6187V17H17H16.1562V18.6875V20.375H16.4727H16.7926L16.768 20.6105C16.7574 20.7441 16.7434 20.8707 16.7328 20.8918C16.7223 20.9269 15.9031 20.9375 12.7812 20.9375H8.84375V15.875V10.8125H15.3617H21.8797L21.9043 10.9144ZM18.5996 12.0253C18.6559 12.0781 18.6875 12.1519 18.6875 12.2187C18.6875 12.2855 18.6559 12.3593 18.5996 12.4121C18.5469 12.4683 18.473 12.5 18.4062 12.5C18.3395 12.5 18.2656 12.4683 18.2129 12.4121C18.1566 12.3593 18.125 12.2855 18.125 12.2187C18.125 12.1519 18.1566 12.0781 18.2129 12.0253C18.2656 11.9691 18.3395 11.9375 18.4062 11.9375C18.473 11.9375 18.5469 11.9691 18.5996 12.0253ZM20.2871 13.7128C20.3434 13.7656 20.375 13.8394 20.375 13.9062C20.375 13.973 20.3434 14.0468 20.2871 14.0996C20.2344 14.1558 20.1605 14.1875 20.0937 14.1875C20.027 14.1875 19.9531 14.1558 19.9004 14.0996C19.8441 14.0468 19.8125 13.973 19.8125 13.9062C19.8125 13.8394 19.8441 13.7656 19.9004 13.7128C19.9531 13.6566 20.027 13.625 20.0937 13.625C20.1605 13.625 20.2344 13.6566 20.2871 13.7128ZM16.0684 14.5566C16.2441 14.7289 16.1211 15.0312 15.875 15.0312C15.7309 15.0312 15.5937 14.8941 15.5937 14.75C15.5937 14.6058 15.7309 14.4687 15.875 14.4687C15.9418 14.4687 16.0156 14.5003 16.0684 14.5566ZM20.9234 18.3921C20.9164 18.4132 20.8285 18.4414 20.7266 18.4554C20.4453 18.4941 19.9777 18.6769 19.693 18.8632C18.6102 19.5699 18.1355 20.9445 18.568 22.1328C18.6137 22.2593 18.6383 22.3718 18.6242 22.3859C18.6102 22.3964 18.3957 22.5265 18.1426 22.6707L17.6855 22.9343L17.6047 22.7586C17.1582 21.7742 17.1828 20.5367 17.668 19.5347C18.241 18.3535 19.3555 17.5203 20.6141 17.3375L20.9199 17.2953L20.9305 17.8226C20.934 18.1144 20.934 18.3675 20.9234 18.3921ZM22.291 17.4429C24.1508 17.9597 25.3848 19.8265 25.1176 21.732C25.0754 22.0484 24.9488 22.5054 24.8328 22.7586L24.752 22.9343L24.2879 22.6671C24.0348 22.516 23.8168 22.3859 23.8062 22.3753C23.7957 22.3648 23.8203 22.2699 23.859 22.1644C24.207 21.2574 24.0102 20.1711 23.3633 19.4082C22.9379 18.9089 22.3754 18.582 21.7461 18.4625L21.5176 18.4203L21.507 17.8578L21.5 17.2918L21.7355 17.3234C21.8691 17.341 22.1187 17.3937 22.291 17.4429ZM17.2812 18.2972V19.0285L17.1441 19.3238C17.0668 19.4855 16.993 19.6613 16.9824 19.714C16.9613 19.7984 16.9402 19.8125 16.8383 19.8125H16.7187V18.6875V17.5625H17H17.2812V18.2972ZM21.6934 19.0214C22.4527 19.1796 23.1312 19.8054 23.3738 20.5683C23.4371 20.7687 23.4512 20.8953 23.4512 21.2363C23.4477 21.6019 23.4336 21.6933 23.3562 21.9148C23.2262 22.2804 23.0645 22.5336 22.8008 22.8007C22.5336 23.0679 22.2137 23.2648 21.8691 23.3738C21.6687 23.4371 21.5422 23.4511 21.2012 23.4511C20.8355 23.4476 20.7441 23.4336 20.5227 23.3562C20.1535 23.2226 19.9039 23.0644 19.6191 22.7832C18.9406 22.1082 18.7789 21.0816 19.2148 20.2132C19.6789 19.2957 20.6844 18.8105 21.6934 19.0214ZM19.1832 23.1347C19.8582 23.8449 20.7969 24.1578 21.718 23.982C22.3262 23.866 22.8289 23.5847 23.2684 23.1207L23.5074 22.8675L23.9785 23.1382C24.2387 23.2859 24.4531 23.416 24.4531 23.43C24.4531 23.539 23.9504 24.0804 23.6129 24.33C23.1172 24.7062 22.5547 24.9628 21.9395 25.0929C21.6687 25.1492 20.7687 25.1492 20.498 25.0929C19.6859 24.9207 18.9723 24.5339 18.4133 23.9679C18.1461 23.7007 17.9598 23.4476 17.9949 23.4089C18.016 23.3914 18.9055 22.8746 18.9266 22.8711C18.9301 22.8711 19.0461 22.9906 19.1832 23.1347Z" fill="#0F211E"/>
<path d="M9.40625 11.6562V11.9375H9.6875H9.96875V11.6562V11.375H9.6875H9.40625V11.6562Z" fill="#0F211E"/>
<path d="M10.5312 11.6562V11.9375H12.5H14.4688V11.6562V11.375H12.5H10.5312V11.6562Z" fill="#0F211E"/>
<path d="M9.40625 12.7812V13.0625H9.6875H9.96875V12.7812V12.5H9.6875H9.40625V12.7812Z" fill="#0F211E"/>
<path d="M10.5312 12.7812V13.0625H12.5H14.4688V12.7812V12.5H12.5H10.5312V12.7812Z" fill="#0F211E"/>
<path d="M9.40625 13.9062V14.1875H9.6875H9.96875V13.9062V13.625H9.6875H9.40625V13.9062Z" fill="#0F211E"/>
<path d="M10.5312 13.9062V14.1875H12.5H14.4688V13.9062V13.625H12.5H10.5312V13.9062Z" fill="#0F211E"/>
<path d="M9.40625 15.0312V15.3125H9.6875H9.96875V15.0312V14.75H9.6875H9.40625V15.0312Z" fill="#0F211E"/>
<path d="M10.5312 15.0312V15.3125H12.5H14.4688V15.0312V14.75H12.5H10.5312V15.0312Z" fill="#0F211E"/>
<path d="M13.9062 18.125V20.375H14.75H15.5938V18.125V15.875H14.75H13.9062V18.125ZM15.0312 18.125V19.8125H14.75H14.4688V18.125V16.4375H14.75H15.0312V18.125Z" fill="#0F211E"/>
<path d="M9.40625 18.9688V20.375H10.25H11.0938V18.9688V17.5625H10.25H9.40625V18.9688ZM10.5312 18.9688V19.8125H10.25H9.96875V18.9688V18.125H10.25H10.5312V18.9688Z" fill="#0F211E"/>
<path d="M11.6562 19.25V20.375H12.5H13.3438V19.25V18.125H12.5H11.6562V19.25ZM12.7812 19.25V19.8125H12.5H12.2188V19.25V18.6875H12.5H12.7812V19.25Z" fill="#0F211E"/>
<path d="M20.7979 19.5873C19.9085 19.8264 19.3565 20.751 19.5815 21.6229C19.8171 22.5229 20.7382 23.0819 21.6206 22.8534C22.5206 22.6178 23.0796 21.6967 22.8511 20.8213C22.6155 19.9108 21.6804 19.3483 20.7979 19.5873ZM21.7472 20.2377C21.9827 20.3643 22.0917 20.4768 22.2288 20.7405C22.3062 20.8916 22.3202 20.9655 22.3202 21.2186C22.3237 21.4928 22.3132 21.535 22.2042 21.7389C22.0706 21.985 21.9581 22.0905 21.6944 22.2311C21.5433 22.3084 21.4694 22.3225 21.2163 22.3225C20.9632 22.3225 20.8894 22.3084 20.7382 22.2311C20.4745 22.0905 20.362 21.985 20.2284 21.7389C20.1194 21.535 20.1089 21.4928 20.1124 21.2186C20.1124 20.867 20.1968 20.6561 20.4253 20.4276C20.7769 20.076 21.3007 20.0022 21.7472 20.2377Z" fill="#0F211E"/>
</g>
<defs>
<clipPath id="clip0_5062_8972">
<rect width="18" height="18" fill="white" transform="translate(8 8)"/>
</clipPath>
</defs>
</svg>
