<svg width="65" height="59" viewBox="0 0 65 59" fill="none" xmlns="http://www.w3.org/2000/svg">
<path d="M5.5376 51.3046V17.6084C5.5376 14.847 7.77617 12.6084 10.5376 12.6084H52.1681C54.9295 12.6084 57.1681 14.847 57.1681 17.6084V51.3046M5.5376 51.3046H2.33901C1.5995 51.3046 1 51.9041 1 52.6437V52.6437C1 55.6017 3.39799 57.9997 6.35605 57.9997H56.1657C59.1238 57.9997 61.5217 55.6017 61.5217 52.6437V52.6437C61.5217 51.9041 60.9222 51.3046 60.1827 51.3046H57.1681M5.5376 51.3046H57.1681" stroke="black" stroke-width="1.5" stroke-linecap="round"/>
<path d="M14.5673 44.7612V6.30469H47.7695V44.7612H14.5673Z" fill="white"/>
<path d="M14.5673 44.7612V6.30469H47.7695V44.7612M14.5673 44.7612H47.7695M14.5673 44.7612H12.9775M47.7695 44.7612H49.5428" stroke="black" stroke-width="1.5" stroke-linecap="round"/>
<circle cx="54.587" cy="10.087" r="9.33696" fill="white" stroke="black" stroke-width="1.5"/>
<path fill-rule="evenodd" clip-rule="evenodd" d="M60.7847 6.19763C61.0718 6.46115 61.0718 6.88838 60.7847 7.15189L53.3261 14L49.2152 10.2242C48.9282 9.96068 48.9283 9.53344 49.2153 9.26998C49.5024 9.00651 49.9677 9.00658 50.2547 9.27014L53.3263 12.0913L59.7454 6.19763C60.0324 5.93412 60.4977 5.93412 60.7847 6.19763Z" fill="#0F211E"/>
<circle cx="31.4803" cy="18.6336" r="4.9266" stroke="#FEC93D" stroke-width="1.5"/>
<path d="M38.9463 31.8999V32.085H23.7676V31.8999C23.7676 27.7084 27.1655 24.3105 31.3569 24.3105C35.5484 24.3105 38.9463 27.7084 38.9463 31.8999Z" stroke="#FEC93D" stroke-width="1.5" stroke-linecap="round"/>
<path d="M23.8301 38.1934H39.1322" stroke="#FEC93D" stroke-width="1.5" stroke-linecap="round"/>
</svg>
