<svg width="20" height="20" viewBox="0 0 20 20" fill="none" xmlns="http://www.w3.org/2000/svg">
<g id="outline">
<path id="Mask" fill-rule="evenodd" clip-rule="evenodd" d="M4.16667 10.8333H14.0542L11.0267 14.4666C10.7317 14.82 10.78 15.3458 11.1333 15.64C11.4875 15.935 12.0125 15.8866 12.3075 15.5333L16.4742 10.5333C16.5067 10.4941 16.5225 10.4483 16.5467 10.405C16.5667 10.37 16.5908 10.34 16.6058 10.3016C16.6433 10.2058 16.6658 10.105 16.6658 10.0033C16.6658 10.0025 16.6667 10.0008 16.6667 9.99996C16.6667 9.99913 16.6658 9.99746 16.6658 9.99663C16.6658 9.89496 16.6433 9.79413 16.6058 9.69829C16.5908 9.65996 16.5667 9.62996 16.5467 9.59496C16.5225 9.55163 16.5067 9.50579 16.4742 9.46663L12.3075 4.46663C12.1417 4.26913 11.905 4.16663 11.6667 4.16663C11.4783 4.16663 11.2892 4.22996 11.1333 4.35996C10.78 4.65413 10.7317 5.17996 11.0267 5.53329L14.0542 9.16663H4.16667C3.70667 9.16663 3.33334 9.53996 3.33334 9.99996C3.33334 10.46 3.70667 10.8333 4.16667 10.8333Z" fill="white"/>
<mask id="mask0_1_4674" style="mask-type:alpha" maskUnits="userSpaceOnUse" x="3" y="4" width="14" height="12">
<path id="Mask_2" fill-rule="evenodd" clip-rule="evenodd" d="M4.16667 10.8333H14.0542L11.0267 14.4666C10.7317 14.82 10.78 15.3458 11.1333 15.64C11.4875 15.935 12.0125 15.8866 12.3075 15.5333L16.4742 10.5333C16.5067 10.4941 16.5225 10.4483 16.5467 10.405C16.5667 10.37 16.5908 10.34 16.6058 10.3016C16.6433 10.2058 16.6658 10.105 16.6658 10.0033C16.6658 10.0025 16.6667 10.0008 16.6667 9.99996C16.6667 9.99913 16.6658 9.99746 16.6658 9.99663C16.6658 9.89496 16.6433 9.79413 16.6058 9.69829C16.5908 9.65996 16.5667 9.62996 16.5467 9.59496C16.5225 9.55163 16.5067 9.50579 16.4742 9.46663L12.3075 4.46663C12.1417 4.26913 11.905 4.16663 11.6667 4.16663C11.4783 4.16663 11.2892 4.22996 11.1333 4.35996C10.78 4.65413 10.7317 5.17996 11.0267 5.53329L14.0542 9.16663H4.16667C3.70667 9.16663 3.33334 9.53996 3.33334 9.99996C3.33334 10.46 3.70667 10.8333 4.16667 10.8333Z" fill="white"/>
</mask>
<g mask="url(#mask0_1_4674)">
</g>
</g>
</svg>
