<svg width="28" height="17" viewBox="0 0 28 17" fill="none" xmlns="http://www.w3.org/2000/svg">
<path d="M0.684864 15.6274C0.228287 15.1708 0 14.5897 0 13.8841C0 13.1785 0.228287 12.5974 0.684864 12.1408L12.1408 0.684866C12.3898 0.435824 12.6596 0.259833 12.9502 0.156896C13.2407 0.0539584 13.552 0.00166028 13.8841 0C14.2161 0 14.5382 0.0622599 14.8504 0.186781C15.1625 0.311302 15.4215 0.477331 15.6274 0.684866L27.0833 12.1408C27.5399 12.5974 27.7681 13.1785 27.7681 13.8841C27.7681 14.5897 27.5399 15.1708 27.0833 15.6274C26.6267 16.0839 26.0456 16.3122 25.34 16.3122C24.6344 16.3122 24.0533 16.0839 23.5967 15.6274L13.8841 5.91474L4.17145 15.6274C3.71487 16.0839 3.13377 16.3122 2.42816 16.3122C1.72254 16.3122 1.14144 16.0839 0.684864 15.6274Z" fill="#D3D9DF"/>
</svg>
