<svg width="36" height="34" viewBox="0 0 36 34" fill="none" xmlns="http://www.w3.org/2000/svg">
<rect width="35.5254" height="34" rx="17" fill="#D4E9E2"/>
<path d="M25.1582 11.9498H24.4035V10.3145C24.4035 10.1408 24.2627 10 24.089 10H22.2021C22.0284 10 21.8876 10.1408 21.8876 10.3145V11.9498H17.6525C17.4788 11.9498 17.338 12.0906 17.338 12.2643C17.338 12.438 17.4788 12.5788 17.6525 12.5788H21.8876V18.2995C21.8876 18.3435 21.8967 18.3853 21.9129 18.4233L22.8552 20.6875C22.904 20.8048 23.0185 20.8812 23.1455 20.8812C23.2725 20.8812 23.3871 20.8048 23.4359 20.6876L24.3793 18.4204C24.3954 18.3816 24.4031 18.3407 24.4031 18.2999L24.4035 18.2995V12.5788H25.1582C25.3316 12.5788 25.4727 12.7199 25.4727 12.8933V22.2021C25.4727 22.3755 25.3316 22.5166 25.1582 22.5166H14.5994C14.5157 22.5166 14.4355 22.5499 14.3765 22.6091L13.2232 23.7676V22.831C13.2232 22.6574 13.0824 22.5166 12.9087 22.5166H10.9435C10.7701 22.5166 10.629 22.3755 10.629 22.2021V12.8933C10.629 12.7199 10.7701 12.5788 10.9435 12.5788H14.8241C14.9978 12.5788 15.1385 12.438 15.1385 12.2643C15.1385 12.0906 14.9978 11.9498 14.8241 11.9498H10.9435C10.4232 11.9498 10 12.3731 10 12.8933V22.2021C10 22.7223 10.4232 23.1455 10.9435 23.1455H12.5942V24.5293C12.5942 24.6566 12.671 24.7714 12.7887 24.8199C12.8275 24.836 12.8682 24.8437 12.9086 24.8437C12.9907 24.8437 13.0714 24.8116 13.1316 24.7512L14.73 23.1455H25.1582C25.6785 23.1455 26.1017 22.7223 26.1017 22.2021V12.8933C26.1017 12.3731 25.6785 11.9498 25.1582 11.9498ZM22.5166 10.629H23.7745V17.9851H22.5166V10.629ZM23.1455 19.7482L22.6736 18.6141H23.6175L23.1455 19.7482Z" fill="black"/>
<path d="M12.0098 19.3716H14.0802C14.2538 19.3716 14.3946 19.2308 14.3946 19.0572C14.3946 18.8835 14.2538 18.7427 14.0802 18.7427H12.0098C11.8361 18.7427 11.6953 18.8835 11.6953 19.0572C11.6953 19.2308 11.8361 19.3716 12.0098 19.3716Z" fill="black"/>
<path d="M12.0098 20.8812H20.4328C20.6065 20.8812 20.7473 20.7403 20.7473 20.5667C20.7473 20.393 20.6065 20.2522 20.4328 20.2522H12.0098C11.8361 20.2522 11.6953 20.393 11.6953 20.5667C11.6953 20.7403 11.8361 20.8812 12.0098 20.8812Z" fill="black"/>
<path d="M12.0098 16.3526H17.6024C17.7761 16.3526 17.9169 16.2118 17.9169 16.0381C17.9169 15.8645 17.7761 15.7236 17.6024 15.7236H12.0098C11.8361 15.7236 11.6953 15.8645 11.6953 16.0381C11.6953 16.2118 11.8361 16.3526 12.0098 16.3526Z" fill="black"/>
<path d="M12.0098 17.8621H15.8413C16.015 17.8621 16.1558 17.7213 16.1558 17.5476C16.1558 17.374 16.015 17.2332 15.8413 17.2332H12.0098C11.8361 17.2332 11.6953 17.374 11.6953 17.5476C11.6953 17.7213 11.8361 17.8621 12.0098 17.8621Z" fill="black"/>
<path d="M20.4345 15.7236H19.3653C19.1916 15.7236 19.0508 15.8645 19.0508 16.0381C19.0508 16.2118 19.1916 16.3526 19.3653 16.3526H20.4345C20.6082 16.3526 20.749 16.2118 20.749 16.0381C20.749 15.8645 20.6082 15.7236 20.4345 15.7236Z" fill="black"/>
<path d="M20.4378 17.2332H17.6075C17.4338 17.2332 17.293 17.374 17.293 17.5476C17.293 17.7213 17.4338 17.8621 17.6075 17.8621H20.4378C20.6115 17.8621 20.7523 17.7213 20.7523 17.5476C20.7523 17.374 20.6115 17.2332 20.4378 17.2332Z" fill="black"/>
<path d="M11.6953 14.5286C11.6953 14.7023 11.8361 14.8431 12.0098 14.8431H15.8413C16.015 14.8431 16.1558 14.7023 16.1558 14.5286C16.1558 14.3549 16.015 14.2141 15.8413 14.2141H12.0098C11.8361 14.2141 11.6953 14.3549 11.6953 14.5286Z" fill="black"/>
<path d="M20.4378 14.2141H17.6075C17.4338 14.2141 17.293 14.3549 17.293 14.5286C17.293 14.7023 17.4338 14.8431 17.6075 14.8431H20.4378C20.6115 14.8431 20.7523 14.7023 20.7523 14.5286C20.7523 14.3549 20.6115 14.2141 20.4378 14.2141Z" fill="black"/>
<path d="M20.4372 18.7427H15.8457C15.672 18.7427 15.5312 18.8835 15.5312 19.0572C15.5312 19.2308 15.672 19.3716 15.8457 19.3716H20.4372C20.6109 19.3716 20.7517 19.2308 20.7517 19.0572C20.7517 18.8835 20.6109 18.7427 20.4372 18.7427Z" fill="black"/>
<path d="M16.2364 12.5789C16.3194 12.5789 16.4002 12.5453 16.4587 12.4867C16.5175 12.4283 16.5508 12.3471 16.5508 12.2644C16.5508 12.1817 16.5175 12.1006 16.4587 12.0421C16.4002 11.9836 16.3194 11.95 16.2364 11.95C16.1537 11.95 16.0725 11.9836 16.014 12.0421C15.9555 12.1006 15.9219 12.1817 15.9219 12.2644C15.9219 12.3471 15.9555 12.4283 16.014 12.4867C16.0725 12.5453 16.1537 12.5789 16.2364 12.5789Z" fill="black"/>
</svg>
