<svg width="47" height="48" viewBox="0 0 47 48" fill="none" xmlns="http://www.w3.org/2000/svg">
<path d="M23.35 47.3937C36.2459 47.3937 46.7001 36.92 46.7001 24C46.7001 11.08 36.2459 0.606293 23.35 0.606293C10.4542 0.606293 0 11.08 0 24C0 36.92 10.4542 47.3937 23.35 47.3937Z" fill="#FEC93D"/>
<path d="M23.4549 20.2356C24.7958 20.2344 26.107 20.631 27.2223 21.3753C28.3377 22.1197 29.2072 23.1782 29.7206 24.4169C30.234 25.6557 30.3684 27.0189 30.1066 28.334C29.8449 29.6491 29.1988 30.857 28.2502 31.8047C27.3016 32.7525 26.093 33.3974 24.7777 33.6579C23.4623 33.9185 22.0992 33.7828 20.861 33.2682C19.6227 32.7537 18.565 31.8832 17.8217 30.7672C17.0785 29.6511 16.6831 28.3396 16.6856 26.9987C16.6906 25.2055 17.4056 23.4872 18.6742 22.2198C19.9428 20.9524 21.6617 20.239 23.4549 20.2356ZM17.1853 27.005H21.1204C21.1217 26.9903 21.1217 26.9755 21.1204 26.9607C21.171 26.1573 21.2216 25.3475 21.2786 24.5377C21.2786 24.4301 21.228 24.4175 21.1521 24.3921C20.3861 24.1442 19.6548 23.7998 18.9758 23.3673L18.5456 23.1015C17.663 24.211 17.1834 25.5873 17.1853 27.005ZM29.7309 27.005C29.735 25.6737 29.3114 24.3763 28.5225 23.304H28.4718C27.6421 23.8673 26.7189 24.2786 25.7451 24.5187C25.6502 24.5187 25.6376 24.5946 25.6439 24.6832C25.6945 25.4044 25.7325 26.1193 25.7768 26.8405V26.986L29.7309 27.005ZM21.1331 27.5238H17.236C17.2336 27.5427 17.2336 27.5618 17.236 27.5807V27.6756C17.368 28.8703 17.8376 30.0026 18.5898 30.9401C18.6657 31.035 18.7227 31.016 18.8049 30.9401C19.5434 30.4212 20.3532 30.012 21.209 29.7254C21.2285 29.7211 21.2468 29.7127 21.2629 29.701C21.279 29.6892 21.2926 29.6742 21.3026 29.657C21.3127 29.6398 21.3192 29.6207 21.3216 29.6009C21.324 29.5811 21.3222 29.5611 21.3165 29.542C21.3165 29.3142 21.2596 29.0928 21.2406 28.865C21.19 28.4475 21.1647 27.9793 21.1331 27.5364V27.5238ZM28.4276 30.8199C29.1593 29.8667 29.5988 28.7217 29.6929 27.5238H29.5474H25.9286C25.84 27.5238 25.7768 27.5238 25.7641 27.644C25.7262 28.2387 25.6819 28.8334 25.6312 29.4281C25.6312 29.5166 25.6313 29.5546 25.7325 29.5799C25.88 29.6125 26.0257 29.6526 26.169 29.7001C26.9752 29.9603 27.7368 30.3422 28.4276 30.8326V30.8199ZM25.1694 24.6832C24.0384 24.8743 22.8804 24.8334 21.7657 24.563L21.6266 27.005H25.3023L25.1694 24.6832ZM25.0555 24.215C25.0555 24.1517 25.0555 24.1328 25.0555 24.1138C24.9425 23.221 24.6884 22.3519 24.3027 21.5389C24.1872 21.3072 24.038 21.094 23.8598 20.9062C23.8111 20.8478 23.7502 20.8008 23.6813 20.7685C23.6124 20.7363 23.5373 20.7195 23.4612 20.7195C23.3852 20.7195 23.3101 20.7363 23.2412 20.7685C23.1723 20.8008 23.1114 20.8478 23.0627 20.9062C22.9245 21.035 22.8071 21.1844 22.7147 21.3491C22.2899 22.1573 22.0074 23.0326 21.8796 23.9366C21.8796 24.0568 21.9239 24.0821 22.0125 24.0948C22.5882 24.1581 23.1639 24.2593 23.7396 24.2846C24.1771 24.2866 24.6144 24.2633 25.0492 24.215H25.0555ZM25.0555 29.9595L25.0113 29.9279C24.0085 29.7536 22.9803 29.7924 21.9935 30.0418C21.9049 30.0418 21.8923 30.105 21.9112 30.1809C22.0267 30.9613 22.2569 31.7202 22.5945 32.4332C22.7218 32.6639 22.8792 32.8767 23.0627 33.0658C23.1101 33.1252 23.1703 33.1731 23.2387 33.206C23.3072 33.2389 23.3821 33.256 23.4581 33.256C23.534 33.256 23.609 33.2389 23.6775 33.206C23.7459 33.1731 23.8061 33.1252 23.8535 33.0658C24.004 32.9261 24.1321 32.7639 24.2331 32.585C24.6021 31.8768 24.8562 31.1144 24.986 30.3264C25.0049 30.2252 25.0302 30.086 25.0492 29.9595H25.0555ZM25.1568 29.4407C25.1947 28.8081 25.2327 28.2197 25.277 27.625C25.277 27.5175 25.2074 27.5238 25.1315 27.5238H21.791C21.6898 27.5238 21.6455 27.5618 21.6582 27.6693C21.6582 28.1122 21.7088 28.555 21.7405 28.9979C21.7405 29.1877 21.7847 29.3711 21.81 29.5736C22.908 29.2936 24.0527 29.2484 25.1694 29.4407H25.1568ZM24.4482 20.8113C25.0528 21.8087 25.4368 22.924 25.5743 24.0822C26.516 23.8535 27.4079 23.4547 28.2061 22.9054C27.235 21.7886 25.9029 21.0476 24.4419 20.8113H24.4482ZM24.4482 33.1797C25.5363 33.1417 27.6115 32.0093 28.0606 31.2185C27.3063 30.6629 26.4444 30.2707 25.53 30.067C25.3964 31.1682 25.0321 32.2289 24.4609 33.1797H24.4482ZM18.8998 22.722C19.6604 23.2443 20.4939 23.6515 21.3735 23.9303C21.5147 22.835 21.8832 21.7812 22.4554 20.8366C21.0955 21.0474 19.8469 21.7118 18.9125 22.722H18.8998ZM19.0137 31.4146C19.5515 32.1675 21.7594 33.3126 22.43 33.1544C21.8874 32.2559 21.5303 31.2577 21.3798 30.2189C20.5422 30.5028 19.7496 30.9055 19.0263 31.4146H19.0137Z" fill="white"/>
<path d="M34.3423 13.1121H13.1484V39.9998H34.3423V13.1121Z" stroke="white" stroke-width="1.92" stroke-miterlimit="10"/>
<path d="M21.374 12.7958C21.374 12.7958 13.1495 13.4284 13.1495 12.1631C13.1495 10.8978 9.98623 8.99985 32.7617 8.99985V13.4284" stroke="white" stroke-width="2" stroke-miterlimit="10"/>
<path d="M32.1285 15.3264H15.0469V17.857H32.1285V15.3264Z" fill="white"/>
</svg>
