<svg width="34" height="34" viewBox="0 0 34 34" fill="none" xmlns="http://www.w3.org/2000/svg">
<rect width="34" height="34" rx="17" fill="#D4E9E2"/>
<path d="M15.7126 9.16367C15.2134 9.24805 14.7775 9.48359 14.3802 9.88086C14.0567 10.2043 13.8739 10.4996 13.7403 10.9004C13.6595 11.1535 13.6489 11.252 13.6314 11.8391L13.6173 12.5H11.4517C9.85909 12.5 9.2544 12.5105 9.14542 12.5422C8.94151 12.602 8.66026 12.8938 8.60401 13.0977C8.56886 13.2207 8.56183 14.4371 8.56886 18.5328L8.5794 23.8062L8.70948 24.0734C8.86768 24.3934 9.07159 24.5902 9.39854 24.7449L9.63409 24.8574H16.9993H24.3646L24.6001 24.7449C24.9271 24.5902 25.131 24.3934 25.2892 24.0734L25.4192 23.8062L25.4298 18.5328C25.4368 14.5531 25.4298 13.2172 25.3982 13.1047C25.3735 13.0168 25.2927 12.8832 25.2013 12.7812C24.9411 12.4895 25.0325 12.5 22.5505 12.5H20.3814L20.3673 11.8391C20.3497 11.252 20.3392 11.1535 20.2583 10.9004C20.1247 10.4996 19.9419 10.2043 19.6185 9.88086C19.2985 9.56094 19.0032 9.37461 18.5989 9.24102C18.3177 9.14609 18.3177 9.14609 17.1048 9.13906C16.4368 9.13555 15.811 9.14609 15.7126 9.16367ZM18.4794 9.79648C18.8169 9.92656 19.0173 10.0531 19.2353 10.2746C19.4603 10.5031 19.5798 10.6965 19.6958 11.0129C19.8259 11.375 19.8259 11.375 19.4954 11.375C19.281 11.375 19.2142 11.3645 19.2142 11.3258C19.2142 11.3012 19.1579 11.1676 19.0911 11.034C18.9399 10.7316 18.729 10.5277 18.4126 10.3801L18.1771 10.2676H16.9993H15.8216L15.586 10.3801C15.2696 10.5277 15.0587 10.7316 14.9075 11.034C14.8407 11.1676 14.7845 11.3012 14.7845 11.3258C14.7845 11.3645 14.7177 11.375 14.5032 11.375C14.1728 11.375 14.1728 11.375 14.3028 11.0129C14.4224 10.6895 14.5419 10.4996 14.7845 10.257C15.0341 10.0109 15.3153 9.85273 15.6704 9.75781C15.9024 9.69453 16.0325 9.69102 17.0872 9.69805C18.2368 9.70859 18.2509 9.70859 18.4794 9.79648ZM18.1032 10.8547C18.2966 10.9109 18.5884 11.2027 18.6446 11.3961C18.6692 11.4805 18.6868 11.7477 18.6868 12.0219V12.5H16.9993H15.3118V12.0219C15.3118 11.7477 15.3294 11.4805 15.354 11.3961C15.4067 11.2168 15.7021 10.9145 15.8743 10.8582C16.0536 10.802 17.9134 10.7984 18.1032 10.8547ZM14.7493 12.2188V12.5H14.4681H14.1868V12.2188V11.9375H14.4681H14.7493V12.2188ZM19.8118 12.2188V12.5H19.5306H19.2493V12.2188V11.9375H19.5306H19.8118V12.2188ZM24.7899 13.1504L24.8778 13.2383L24.8638 14.8309C24.8497 16.55 24.8462 16.5746 24.6423 17.102C24.3048 17.9527 23.5771 18.6805 22.7263 19.018C22.2095 19.2184 22.1532 19.2254 20.6485 19.2395L19.2493 19.2535V19.5348V19.8125H20.5079C22.111 19.8125 22.4732 19.7598 23.1446 19.4434L23.4681 19.2887V21.0113V22.734L23.3802 22.8184L23.2958 22.9062H16.9993H10.7028L10.6185 22.8184L10.5306 22.734V21.0078V19.2852L10.7696 19.4012C10.8997 19.468 11.1071 19.5559 11.2302 19.598C11.754 19.7773 11.8384 19.7844 13.336 19.802L14.7493 19.8195V19.5383V19.2535L13.3536 19.2395C12.0669 19.2289 11.9333 19.2219 11.6872 19.1516C10.4462 18.8105 9.56729 17.9352 9.21925 16.6871C9.14893 16.4375 9.14542 16.3215 9.13136 14.8309L9.12081 13.2383L9.2087 13.1504L9.29659 13.0625H16.9993H24.7021L24.7899 13.1504ZM9.69737 18.6313L9.96808 18.909V20.825C9.96808 22.2242 9.97862 22.7797 10.0103 22.8852C10.0665 23.0785 10.3583 23.3703 10.5517 23.4266C10.6642 23.4582 12.1548 23.4688 17.0064 23.4688C24.129 23.4688 23.5208 23.4934 23.795 23.1875C23.8794 23.0961 23.9673 22.9555 23.9884 22.8781C24.02 22.7797 24.0306 22.2031 24.0306 20.825V18.909L24.3048 18.6313C24.4524 18.4766 24.6423 18.248 24.7267 18.125L24.8743 17.9035V20.7441C24.8743 22.8711 24.8638 23.6199 24.8321 23.7289C24.7759 23.9223 24.4841 24.2141 24.2907 24.2703C24.0798 24.3336 9.91886 24.3336 9.70792 24.2703C9.51456 24.2141 9.22276 23.9223 9.16651 23.7289C9.13487 23.6199 9.12433 22.8711 9.12433 20.7441V17.9035L9.2755 18.125C9.35636 18.248 9.5462 18.4766 9.69737 18.6313Z" fill="#1E3932"/>
<path d="M16.5816 15.0875C15.9875 15.2457 15.5234 15.7203 15.3652 16.3215C15.3195 16.4902 15.3125 16.9262 15.3125 19.0672V21.609L15.4004 21.6934L15.4848 21.7812H17H18.5152L18.5996 21.6934L18.6875 21.609V19.0988C18.6875 17.5379 18.6734 16.5148 18.6523 16.3988C18.4766 15.4672 17.4922 14.8414 16.5816 15.0875ZM17.5309 15.7379C17.7664 15.8645 17.8754 15.977 18.009 16.2406C18.0898 16.3988 18.1039 16.4727 18.118 16.8488L18.132 17.2812H17H15.868L15.882 16.8488C15.8961 16.4727 15.9102 16.3988 15.991 16.2406C16.1211 15.984 16.2301 15.868 16.441 15.752C16.6906 15.6184 16.7996 15.5938 17.0809 15.6113C17.2602 15.6219 17.3656 15.65 17.5309 15.7379ZM18.125 18.125V18.4062H17H15.875V18.125V17.8438H17H18.125V18.125ZM18.125 20.0938V21.2188H17H15.875V20.0938V18.9688H17H18.125V20.0938Z" fill="#1E3932"/>
<path d="M16.5254 19.9004C16.4691 19.9531 16.4375 20.027 16.4375 20.0938C16.4375 20.1605 16.4691 20.2344 16.5254 20.2871C16.6062 20.3715 16.6344 20.375 17 20.375C17.3656 20.375 17.3937 20.3715 17.4746 20.2871C17.5309 20.2344 17.5625 20.1605 17.5625 20.0938C17.5625 20.027 17.5309 19.9531 17.4746 19.9004C17.3937 19.816 17.3656 19.8125 17 19.8125C16.6344 19.8125 16.6062 19.816 16.5254 19.9004Z" fill="#1E3932"/>
</svg>
