<svg width="64" height="58" viewBox="0 0 64 58" fill="none" xmlns="http://www.w3.org/2000/svg">
<path d="M32.368 18.375H27.1289V31.5H32.368V18.375Z" fill="#FEC93D"/>
<path d="M42.8485 18.375H37.6094V31.5H42.8485V18.375Z" fill="#FEC93D"/>
<path d="M53.325 26.25L48.0859 31.5V18.375H53.325V26.25Z" fill="#FEC93D"/>
<path d="M59.8733 10.5H20.5802C20.2328 10.5 19.8997 10.3617 19.654 10.1156C19.4084 9.86944 19.2704 9.5356 19.2704 9.1875V3.9375C19.2704 2.89321 18.8564 1.89169 18.1195 1.15326C17.3827 0.41484 16.3832 0 15.3411 0H0.933594V2.625H1.06454C1.32793 3.90624 1.96745 5.07936 2.90097 5.99377C3.83448 6.90818 5.01939 7.52216 6.30362 7.75688C6.58142 9.26091 7.37481 10.6205 8.54664 11.6006C9.71847 12.5808 11.1951 13.12 12.7215 13.125H16.6508V31.5H19.2704V12.8888C19.6904 13.0416 20.1333 13.1215 20.5802 13.125H59.8733C60.2207 13.125 60.5538 13.2633 60.7994 13.5094C61.0451 13.7556 61.1831 14.0894 61.1831 14.4375V23.625C61.0904 24.9725 60.5978 26.2615 59.7685 27.3263L51.4777 36.5138C50.5645 37.4146 49.363 37.9631 48.0854 38.0625H20.5802C19.538 38.0625 18.5386 38.4773 17.8017 39.2158C17.0648 39.9542 16.6508 40.9557 16.6508 42V44.7563C15.4918 44.9937 14.4186 45.5412 13.5452 46.3408C12.6718 47.1404 12.0309 48.1621 11.6904 49.2974C11.35 50.4327 11.3228 51.6392 11.6118 52.7887C11.9007 53.9383 12.4951 54.9879 13.3316 55.8262C14.1681 56.6644 15.2155 57.26 16.3627 57.5495C17.5098 57.8391 18.7138 57.8119 19.8468 57.4707C20.9797 57.1296 21.9994 56.4873 22.7973 55.6121C23.5952 54.7369 24.1416 53.6614 24.3785 52.5H35.1186C35.4432 54.0934 36.3466 55.5093 37.6538 56.4732C38.9609 57.4371 40.5787 57.8802 42.1934 57.7168C43.8081 57.5533 45.3047 56.7949 46.3931 55.5885C47.4814 54.3821 48.084 52.8138 48.084 51.1875C48.084 49.5612 47.4814 47.9929 46.3931 46.7865C45.3047 45.5801 43.8081 44.8217 42.1934 44.6582C40.5787 44.4948 38.9609 44.9379 37.6538 45.9018C36.3466 46.8657 35.4432 48.2816 35.1186 49.875H24.3785C24.1219 48.6138 23.5007 47.4561 22.5925 46.546C21.6842 45.6359 20.5289 45.0135 19.2704 44.7563V42C19.2704 41.6519 19.4084 41.3181 19.654 41.0719C19.8997 40.8258 20.2328 40.6875 20.5802 40.6875H48.0854C50.1052 40.6023 52.0165 39.7479 53.4292 38.2987L61.72 29.1112C62.9842 27.5541 63.7145 25.6304 63.8026 23.625V14.4375C63.8026 13.3932 63.3887 12.3917 62.6518 11.6533C61.9149 10.9148 60.9154 10.5 59.8733 10.5ZM3.78889 2.625H15.3411C15.6885 2.625 16.0216 2.76328 16.2672 3.00942C16.5128 3.25556 16.6508 3.5894 16.6508 3.9375V5.25H7.48245C6.67177 5.24772 5.88167 4.99423 5.22041 4.52428C4.55915 4.05432 4.05911 3.39091 3.78889 2.625ZM12.7215 10.5C11.9109 10.4977 11.1208 10.2442 10.4595 9.77428C9.79824 9.30432 9.29819 8.64091 9.02797 7.875H16.6508V10.5H12.7215ZM41.5365 47.25C42.3136 47.25 43.0733 47.4809 43.7195 47.9136C44.3657 48.3462 44.8694 48.9612 45.1668 49.6807C45.4642 50.4002 45.542 51.1919 45.3904 51.9557C45.2387 52.7195 44.8645 53.421 44.315 53.9717C43.7654 54.5224 43.0653 54.8974 42.3031 55.0493C41.5409 55.2013 40.7508 55.1233 40.0328 54.8253C39.3148 54.5273 38.7012 54.0226 38.2694 53.3751C37.8377 52.7275 37.6072 51.9663 37.6072 51.1875C37.6072 50.1432 38.0211 49.1417 38.758 48.4033C39.4949 47.6648 40.4944 47.25 41.5365 47.25ZM21.8899 51.1875C21.8899 51.9663 21.6595 52.7275 21.2277 53.3751C20.7959 54.0226 20.1823 54.5273 19.4643 54.8253C18.7463 55.1233 17.9563 55.2013 17.1941 55.0493C16.4318 54.8974 15.7317 54.5224 15.1822 53.9717C14.6326 53.421 14.2584 52.7195 14.1068 51.9557C13.9552 51.1919 14.033 50.4002 14.3304 49.6807C14.6278 48.9612 15.1315 48.3462 15.7776 47.9136C16.4238 47.4809 17.1835 47.25 17.9606 47.25C19.0027 47.25 20.0022 47.6648 20.7391 48.4033C21.476 49.1417 21.8899 50.1432 21.8899 51.1875Z" fill="#1E3932"/>
<path d="M41.535 53.1562C41.9235 53.1562 42.3034 53.0408 42.6265 52.8244C42.9496 52.6081 43.2014 52.3006 43.3501 51.9409C43.4988 51.5812 43.5377 51.1853 43.4619 50.8034C43.3861 50.4215 43.199 50.0707 42.9242 49.7954C42.6494 49.5201 42.2994 49.3325 41.9183 49.2566C41.5372 49.1806 41.1421 49.2196 40.7831 49.3686C40.4241 49.5176 40.1173 49.77 39.9014 50.0937C39.6856 50.4175 39.5703 50.7981 39.5703 51.1875C39.5703 51.7096 39.7773 52.2104 40.1457 52.5796C40.5142 52.9488 41.0139 53.1562 41.535 53.1562ZM41.535 50.5312C41.6645 50.5312 41.7911 50.5697 41.8988 50.6418C42.0065 50.7139 42.0904 50.8164 42.14 50.9364C42.1895 51.0563 42.2026 51.1882 42.1773 51.3155C42.152 51.4428 42.0897 51.5597 41.9981 51.6515C41.9065 51.7433 41.7898 51.8058 41.6627 51.8311C41.5357 51.8565 41.404 51.8435 41.2844 51.7938C41.1647 51.7441 41.0624 51.66 40.9905 51.5521C40.9185 51.4442 40.8801 51.3173 40.8801 51.1875C40.8801 51.0135 40.949 50.8465 41.0719 50.7235C41.1947 50.6004 41.3613 50.5312 41.535 50.5312Z" fill="#1E3932"/>
<path d="M15.9961 51.1875C15.9961 51.5769 16.1113 51.9575 16.3272 52.2813C16.5431 52.605 16.8499 52.8574 17.2089 53.0064C17.5679 53.1554 17.963 53.1944 18.3441 53.1184C18.7252 53.0425 19.0752 52.855 19.35 52.5796C19.6247 52.3043 19.8119 51.9535 19.8877 51.5716C19.9635 51.1897 19.9245 50.7938 19.7758 50.4341C19.6271 50.0744 19.3754 49.7669 19.0523 49.5505C18.7292 49.3342 18.3493 49.2188 17.9608 49.2188C17.4397 49.2188 16.94 49.4262 16.5715 49.7954C16.2031 50.1646 15.9961 50.6654 15.9961 51.1875ZM18.6156 51.1875C18.6156 51.3173 18.5772 51.4442 18.5052 51.5521C18.4333 51.66 18.331 51.7441 18.2114 51.7938C18.0917 51.8435 17.96 51.8565 17.833 51.8311C17.706 51.8058 17.5892 51.7433 17.4976 51.6515C17.4061 51.5598 17.3437 51.4428 17.3184 51.3155C17.2931 51.1882 17.3062 51.0563 17.3557 50.9364C17.4053 50.8164 17.4892 50.7139 17.5969 50.6418C17.7046 50.5697 17.8312 50.5312 17.9608 50.5312C18.1344 50.5312 18.301 50.6004 18.4239 50.7235C18.5467 50.8465 18.6156 51.0135 18.6156 51.1875Z" fill="#1E3932"/>
</svg>
