<svg width="47" height="48" viewBox="0 0 47 48" fill="none" xmlns="http://www.w3.org/2000/svg">
<path d="M23.35 47.5749C36.2459 47.5749 46.7001 37.1012 46.7001 24.1812C46.7001 11.2612 36.2459 0.787476 23.35 0.787476C10.4542 0.787476 0 11.2612 0 24.1812C0 37.1012 10.4542 47.5749 23.35 47.5749Z" fill="#FEC93D"/>
<path d="M22.1792 25.2998C23.7732 25.2998 25.0655 24.0076 25.0655 22.4136C25.0655 20.8196 23.7732 19.5273 22.1792 19.5273C20.5852 19.5273 19.293 20.8196 19.293 22.4136C19.293 24.0076 20.5852 25.2998 22.1792 25.2998Z" fill="white"/>
<path d="M11.1579 22.4137C11.0814 19.5049 12.1635 16.6848 14.1662 14.5738C16.1689 12.4628 18.9282 11.2339 21.837 11.1573C24.7459 11.0808 27.5659 12.1629 29.6769 14.1656C31.7879 16.1683 33.0168 18.9276 33.0934 21.8364H31.0326L33.6995 27.1702L36.3664 21.8364H34.2479C34.1713 18.6214 32.8208 15.5685 30.4933 13.3493C28.1658 11.13 25.052 9.92628 21.837 10.0028C18.622 10.0794 15.5691 11.4299 13.3499 13.7574C11.1307 16.0849 9.92689 19.1987 10.0034 22.4137C10.0507 25.604 11.3352 28.6513 13.586 30.9128C15.8368 33.1744 18.8779 34.4734 22.0679 34.5359V33.3814C19.1808 33.3291 16.4274 32.155 14.391 30.1078C12.3545 28.0606 11.195 25.301 11.1579 22.4137Z" fill="white"/>
<path d="M29.6823 22.4135H28.5278C28.5262 23.6397 28.1695 24.8392 27.501 25.8672C26.8324 26.8951 25.8805 27.7074 24.7603 28.2061C23.6401 28.7047 22.3994 28.8684 21.1882 28.6772C19.977 28.4861 18.847 27.9483 17.9348 27.1289C17.0226 26.3095 16.3671 25.2435 16.0476 24.0596C15.7281 22.8758 15.7583 21.6247 16.1343 20.4576C16.5104 19.2905 17.2164 18.2572 18.167 17.4827C19.1176 16.7081 20.2721 16.2253 21.4911 16.0927V17.5762L25.6704 15.4865L21.4911 13.3969V14.9382C20.0424 15.0713 18.6637 15.6227 17.5226 16.5252C16.3816 17.4278 15.5276 18.6425 15.0644 20.0216C14.6012 21.4007 14.5488 22.8847 14.9137 24.293C15.2785 25.7013 16.0449 26.9732 17.1195 27.9538C18.1941 28.9345 19.5305 29.5817 20.9662 29.8166C22.4019 30.0516 23.875 29.8641 25.2061 29.2771C26.5372 28.69 27.669 27.7287 28.4637 26.5102C29.2584 25.2916 29.6818 23.8683 29.6823 22.4135Z" fill="white"/>
<path d="M30.8365 31.0723C30.1515 31.0723 29.4819 31.2754 28.9123 31.656C28.3427 32.0366 27.8988 32.5775 27.6367 33.2104C27.3745 33.8433 27.306 34.5397 27.4396 35.2115C27.5732 35.8834 27.9031 36.5005 28.3875 36.9849C28.8719 37.4693 29.489 37.7991 30.1608 37.9328C30.8327 38.0664 31.5291 37.9978 32.1619 37.7357C32.7948 37.4735 33.3358 37.0296 33.7163 36.46C34.0969 35.8905 34.3 35.2208 34.3 34.5358C34.3 33.6172 33.9351 32.7363 33.2856 32.0868C32.636 31.4372 31.7551 31.0723 30.8365 31.0723ZM30.8365 36.8448C30.3799 36.8448 29.9334 36.7094 29.5537 36.4557C29.174 36.202 28.8781 35.8413 28.7033 35.4194C28.5286 34.9975 28.4828 34.5333 28.5719 34.0854C28.661 33.6375 28.8809 33.226 29.2038 32.9031C29.5267 32.5802 29.9382 32.3603 30.3861 32.2712C30.834 32.1821 31.2983 32.2278 31.7202 32.4026C32.1421 32.5773 32.5027 32.8733 32.7564 33.253C33.0101 33.6327 33.1455 34.0791 33.1455 34.5358C33.1455 35.1482 32.9023 35.7355 32.4692 36.1685C32.0362 36.6015 31.4489 36.8448 30.8365 36.8448Z" fill="white"/>
<path d="M30.8381 35.6903C31.4757 35.6903 31.9926 35.1735 31.9926 34.5358C31.9926 33.8982 31.4757 33.3813 30.8381 33.3813C30.2005 33.3813 29.6836 33.8982 29.6836 34.5358C29.6836 35.1735 30.2005 35.6903 30.8381 35.6903Z" fill="white"/>
</svg>
