<svg width="74" height="58" viewBox="0 0 74 58" fill="none" xmlns="http://www.w3.org/2000/svg">
<path d="M66.9066 27.7415C67.198 26.6138 67.3463 25.4538 67.3477 24.289C67.3459 22.0296 66.7849 19.8059 65.7146 17.8161C64.6444 15.8263 63.0983 14.1324 61.2143 12.8854C59.3302 11.6384 57.1668 10.8771 54.917 10.6695C52.6672 10.4619 50.401 10.8144 48.3206 11.6955C47.1193 7.88877 44.5965 4.63703 41.2077 2.5274C37.8189 0.417768 33.7875 -0.410718 29.8414 0.19157C25.8953 0.793858 22.2946 2.78721 19.6895 5.81169C17.0843 8.83617 15.6464 12.6924 15.6353 16.6842C15.6354 17.2229 15.6659 17.7612 15.7266 18.2964C15.1913 18.2361 14.653 18.2057 14.1144 18.2052C10.4839 18.2052 7.00219 19.6474 4.43509 22.2145C1.86798 24.7816 0.425781 28.2633 0.425781 31.8938C0.425781 35.5242 1.86798 39.0059 4.43509 41.573C7.00219 44.1401 10.4839 45.5823 14.1144 45.5823H20.1982V42.5404H14.1144C11.2907 42.5404 8.58268 41.4187 6.58604 39.4221C4.5894 37.4254 3.46769 34.7174 3.46769 31.8938C3.46769 29.0701 4.5894 26.3621 6.58604 24.3654C8.58268 22.3688 11.2907 21.2471 14.1144 21.2471C15.144 21.2508 16.168 21.3993 17.1563 21.6882L19.6811 22.4486L19.0727 19.8782C18.5873 18.0824 18.4731 16.2066 18.737 14.3651C19.0008 12.5237 19.6372 10.7554 20.6073 9.16816C21.5774 7.58092 22.8609 6.20806 24.3793 5.13342C25.8977 4.05877 27.6192 3.30489 29.4387 2.9178C31.2582 2.53072 33.1376 2.51857 34.9619 2.88206C36.7863 3.24556 38.5174 3.97706 40.0496 5.03195C41.5818 6.08684 42.883 7.44299 43.8735 9.01754C44.8641 10.5921 45.5233 12.352 45.811 14.1898L46.2217 16.38L48.1077 15.2241C50.0213 14.0607 52.253 13.5304 54.4854 13.7086C56.7178 13.8868 58.8372 14.7643 60.5421 16.2165C62.2469 17.6687 63.4505 19.6215 63.9815 21.7971C64.5125 23.9727 64.3439 26.2604 63.4997 28.3347L62.7088 30.2663L64.7925 30.4337C66.3203 30.5563 67.7455 31.251 68.7831 32.3789C69.8208 33.5068 70.3945 34.9848 70.3896 36.5175C70.3896 38.131 69.7487 39.6784 68.6077 40.8194C67.4668 41.9603 65.9193 42.6013 64.3058 42.6013H53.6591V45.6432H64.3058C66.48 45.6184 68.5739 44.8182 70.2104 43.3865C71.8469 41.9549 72.9184 39.986 73.2321 37.8345C73.5458 35.6829 73.0809 33.4901 71.9212 31.6508C70.7615 29.8116 68.9832 28.4468 66.9066 27.8024V27.7415Z" fill="#1E3932"/>
<path d="M46.0565 30.373H27.805C26.5949 30.373 25.4343 30.8538 24.5786 31.7095C23.7229 32.5652 23.2422 33.7258 23.2422 34.9359V53.1873C23.2422 54.3975 23.7229 55.5581 24.5786 56.4138C25.4343 57.2695 26.5949 57.7502 27.805 57.7502H46.0565C47.2666 57.7502 48.4272 57.2695 49.2829 56.4138C50.1386 55.5581 50.6193 54.3975 50.6193 53.1873V34.9359C50.6193 33.7258 50.1386 32.5652 49.2829 31.7095C48.4272 30.8538 47.2666 30.373 46.0565 30.373ZM47.5774 53.1873C47.5774 53.5907 47.4172 53.9776 47.1319 54.2628C46.8467 54.548 46.4599 54.7083 46.0565 54.7083H27.805C27.4017 54.7083 27.0148 54.548 26.7296 54.2628C26.4444 53.9776 26.2841 53.5907 26.2841 53.1873V34.9359C26.2841 34.5325 26.4444 34.1457 26.7296 33.8605C27.0148 33.5752 27.4017 33.415 27.805 33.415H46.0565C46.4599 33.415 46.8467 33.5752 47.1319 33.8605C47.4172 34.1457 47.5774 34.5325 47.5774 34.9359V53.1873Z" fill="#1E3932"/>
<path d="M44.5338 36.457H29.3242V39.4989H44.5338V36.457Z" fill="#1E3932"/>
<path d="M44.5338 42.541H29.3242V45.5829H44.5338V42.541Z" fill="#1E3932"/>
<path d="M44.5338 48.624H29.3242V51.6659H44.5338V48.624Z" fill="#1E3932"/>
<path d="M21.7188 16.6838C21.7188 13.8601 22.8405 11.1521 24.8371 9.15546C26.8337 7.15882 29.5418 6.03711 32.3654 6.03711V16.6838H21.7188Z" fill="#FEC93D"/>
</svg>
