<svg width="58" height="72" viewBox="0 0 58 72" fill="none" xmlns="http://www.w3.org/2000/svg">
<path fill-rule="evenodd" clip-rule="evenodd" d="M3.73735 9.20982C3.46126 9.20982 3.18788 9.26422 2.93282 9.3699C2.67776 9.47559 2.44602 9.63049 2.25084 9.82576C2.05567 10.021 1.90087 10.2528 1.79531 10.5079C1.68974 10.7631 1.63547 11.0365 1.6356 11.3126V60.8353C1.63547 61.1114 1.68974 61.3848 1.79531 61.6399C1.90087 61.895 2.05567 62.1268 2.25084 62.3221C2.44602 62.5173 2.67776 62.6723 2.93282 62.7779C3.18788 62.8836 3.46127 62.938 3.73735 62.938H35C34 57 34.5406 52.6396 40 49C43 47 47.4366 48.0578 47.4366 47.5V11.3133C47.4363 10.7557 47.2146 10.221 46.8202 9.82683C46.4259 9.43263 45.8911 9.21118 45.3335 9.21118H34.9515V7.57558H45.3335C46.3247 7.57558 47.2754 7.96924 47.9765 8.67001C48.6776 9.37078 49.0717 10.3213 49.0722 11.3126V48C46.5 48 40.7011 48.7989 40 49.5C32 55 35.5 63 36 64.5736H3.73735C3.24641 64.5736 2.76027 64.4769 2.30673 64.289C1.85318 64.101 1.4411 63.8256 1.09403 63.4784C0.74696 63.1311 0.471705 62.7189 0.283988 62.2653C0.0962889 61.8117 -0.000209715 61.3258 3.42201e-07 60.8349L4.07194e-07 11.3133C-0.000178519 10.8225 0.0963193 10.3361 0.283988 9.88256C0.471705 9.42892 0.74696 9.01671 1.09403 8.66948C1.4411 8.32225 1.85318 8.0468 2.30673 7.85887C2.76028 7.67095 3.24641 7.57422 3.73735 7.57422H13.7254V9.20982H3.73735Z" fill="white"/>
<path fill-rule="evenodd" clip-rule="evenodd" d="M19.2277 2.35419C20.1396 1.13717 21.7671 0 24.5349 0C27.3021 0 28.9473 1.13677 29.8798 2.34674C30.3342 2.93637 30.605 3.52373 30.763 3.96426C30.7742 3.99564 30.7849 4.02634 30.7951 4.0563H35.807V12.3052H13.2656V4.05357H18.3512C18.3593 4.02849 18.3677 4.00291 18.3764 3.97685C18.5252 3.5354 18.7842 2.9461 19.2277 2.35419ZM19.8006 4.98143C19.8006 4.98151 19.8006 4.98158 19.8006 4.98165L19.708 5.68917H14.9012V10.6696H34.1714V5.6919H29.4657L29.3604 5.00147C29.3604 5.00143 29.3604 5.00138 29.3604 5.00133C29.36 4.99893 29.3589 4.99312 29.3572 4.98411C29.3536 4.96571 29.3471 4.93414 29.3368 4.8913C29.3161 4.8054 29.2804 4.6755 29.2234 4.51635C29.1086 4.19631 28.9114 3.7696 28.5842 3.34516C27.9537 2.52698 26.7823 1.6356 24.5349 1.6356C22.2883 1.6356 21.1434 2.52522 20.5366 3.33499C20.2208 3.75646 20.0338 4.18056 19.9264 4.49915C19.873 4.65754 19.8404 4.78682 19.8217 4.87227C19.8123 4.91489 19.8065 4.94626 19.8034 4.9645C19.8019 4.97332 19.801 4.97904 19.8006 4.98143ZM29.3606 5.00245C29.3606 5.00268 29.3606 5.00261 29.3605 5.00222L29.3606 5.00245Z" fill="white"/>
<path d="M13.4696 20.1274H8.24244C7.90144 20.1274 7.625 20.4039 7.625 20.7449V25.972C7.625 26.313 7.90144 26.5894 8.24244 26.5894H13.4696C13.8106 26.5894 14.087 26.313 14.087 25.972V20.7449C14.087 20.4039 13.8106 20.1274 13.4696 20.1274Z" fill="#FEC93D"/>
<path fill-rule="evenodd" clip-rule="evenodd" d="M8.43248 20.9452V25.7716H13.2589V20.9452H8.43248ZM6.79688 20.7448C6.79688 19.9521 7.43945 19.3096 8.23212 19.3096H13.4592C14.2519 19.3096 14.8945 19.9521 14.8945 20.7448V25.9719C14.8945 26.7646 14.2519 27.4072 13.4592 27.4072H8.23212C7.43945 27.4072 6.79688 26.7646 6.79688 25.9719V20.7448Z" fill="#FEC93D"/>
<path d="M13.4696 34.7349H8.24244C7.90144 34.7349 7.625 35.0113 7.625 35.3523V40.5794C7.625 40.9204 7.90144 41.1969 8.24244 41.1969H13.4696C13.8106 41.1969 14.087 40.9204 14.087 40.5794V35.3523C14.087 35.0113 13.8106 34.7349 13.4696 34.7349Z" fill="#FEC93D"/>
<path fill-rule="evenodd" clip-rule="evenodd" d="M8.43248 35.5526V40.379H13.2589V35.5526H8.43248ZM6.79688 35.3522C6.79688 34.5596 7.43945 33.917 8.23212 33.917H13.4592C14.2519 33.917 14.8945 34.5596 14.8945 35.3522V40.5793C14.8945 41.372 14.2519 42.0146 13.4592 42.0146H8.23212C7.43945 42.0146 6.79688 41.372 6.79688 40.5793V35.3522Z" fill="#FEC93D"/>
<path d="M13.4696 49.3433H8.24244C7.90144 49.3433 7.625 49.6197 7.625 49.9607V55.1878C7.625 55.5288 7.90144 55.8053 8.24244 55.8053H13.4696C13.8106 55.8053 14.087 55.5288 14.087 55.1878V49.9607C14.087 49.6197 13.8106 49.3433 13.4696 49.3433Z" fill="#FEC93D"/>
<path fill-rule="evenodd" clip-rule="evenodd" d="M8.43248 50.161V54.9874H13.2589V50.161H8.43248ZM6.79688 49.9606C6.79688 49.168 7.43945 48.5254 8.23212 48.5254H13.4592C14.2519 48.5254 14.8945 49.168 14.8945 49.9606V55.1877C14.8945 55.9804 14.2519 56.623 13.4592 56.623H8.23212C7.43945 56.623 6.79688 55.9804 6.79688 55.1877V49.9606Z" fill="#FEC93D"/>
<path d="M37.0475 19.0303H20.9695C20.365 19.0303 19.875 19.5203 19.875 20.1248C19.875 20.7292 20.365 21.2193 20.9695 21.2193H37.0475C37.6519 21.2193 38.142 20.7292 38.142 20.1248C38.142 19.5203 37.6519 19.0303 37.0475 19.0303Z" fill="white"/>
<path d="M37.0475 25.4937H20.9695C20.365 25.4937 19.875 25.9837 19.875 26.5881C19.875 27.1926 20.365 27.6826 20.9695 27.6826H37.0475C37.6519 27.6826 38.142 27.1926 38.142 26.5881C38.142 25.9837 37.6519 25.4937 37.0475 25.4937Z" fill="white"/>
<path d="M37.0475 33.6851H20.9695C20.365 33.6851 19.875 34.1751 19.875 34.7795C19.875 35.384 20.365 35.874 20.9695 35.874H37.0475C37.6519 35.874 38.142 35.384 38.142 34.7795C38.142 34.1751 37.6519 33.6851 37.0475 33.6851Z" fill="white"/>
<path d="M37.0475 40.0601H20.9695C20.365 40.0601 19.875 40.5501 19.875 41.1545C19.875 41.759 20.365 42.249 20.9695 42.249H37.0475C37.6519 42.249 38.142 41.759 38.142 41.1545C38.142 40.5501 37.6519 40.0601 37.0475 40.0601Z" fill="white"/>
<path d="M30.2025 48.2583H20.9695C20.365 48.2583 19.875 48.7483 19.875 49.3528C19.875 49.9573 20.365 50.4473 20.9695 50.4473H30.2025C30.8069 50.4473 31.297 49.9573 31.297 49.3528C31.297 48.7483 30.8069 48.2583 30.2025 48.2583Z" fill="white"/>
<path d="M30.2025 54.7192H20.9695C20.365 54.7192 19.875 55.2093 19.875 55.8137C19.875 56.4182 20.365 56.9082 20.9695 56.9082H30.2025C30.8069 56.9082 31.297 56.4182 31.297 55.8137C31.297 55.2093 30.8069 54.7192 30.2025 54.7192Z" fill="white"/>
<path fill-rule="evenodd" clip-rule="evenodd" d="M45.6925 48.5023C39.8405 48.5023 35.0965 53.2463 35.0965 59.0983C35.0965 64.9503 39.8405 69.6943 45.6925 69.6943C51.5445 69.6943 56.2885 64.9503 56.2885 59.0983C56.2885 53.2463 51.5445 48.5023 45.6925 48.5023ZM33.4609 59.0983C33.4609 52.343 38.9372 46.8667 45.6925 46.8667C52.4478 46.8667 57.9241 52.343 57.9241 59.0983C57.9241 65.8536 52.4478 71.3299 45.6925 71.3299C38.9372 71.3299 33.4609 65.8536 33.4609 59.0983Z" fill="white"/>
<path fill-rule="evenodd" clip-rule="evenodd" d="M52.1294 54.7967C52.4488 55.116 52.4488 55.6338 52.1294 55.9532L43.8296 64.253L39.2551 59.6768C38.9357 59.3574 38.9358 58.8396 39.2553 58.5203C39.5747 58.201 40.0925 58.2011 40.4118 58.5205L43.8298 61.9397L50.9729 54.7967C51.2923 54.4773 51.8101 54.4773 52.1294 54.7967Z" fill="#FEC93D"/>
</svg>
