<svg width="58" height="60" viewBox="0 0 58 60" fill="none" xmlns="http://www.w3.org/2000/svg">
<path d="M29.1892 14.5946C29.1892 22.655 22.655 29.1892 14.5946 29.1892C6.53422 29.1892 0 22.655 0 14.5946C0 6.53422 6.53422 0 14.5946 0C22.655 0 29.1892 6.53422 29.1892 14.5946Z" fill="white"/>
<path d="M14.5586 9.88885V7.2973H16.1192V9.88885H19.803V11.7724H13.4751C12.941 11.7724 12.557 11.874 12.3346 12.0772C12.2181 12.181 12.1273 12.3036 12.0675 12.4376C12.0078 12.5717 11.9803 12.7145 11.9868 12.8578C11.9739 13.1531 12.0942 13.4414 12.3232 13.6641C12.5475 13.8791 12.9771 13.9866 13.612 13.9866H16.2997C16.9625 13.9711 17.6242 14.0423 18.2614 14.1979C18.7113 14.3083 19.1264 14.5028 19.476 14.7672C19.766 14.9985 19.979 15.2905 20.0938 15.6138C20.2106 15.951 20.2689 16.3009 20.2668 16.6524C20.2727 17.0607 20.2028 17.4672 20.0596 17.857C19.9309 18.2066 19.7046 18.5247 19.4 18.7843C19.0668 19.0572 18.6671 19.2647 18.2291 19.3923C17.678 19.5486 17.0992 19.6228 16.5183 19.6116H16.1382V21.8919H14.5776V19.5971H9.87494V17.7038H16.5278C17.0765 17.7038 17.463 17.6028 17.6873 17.4006C17.9167 17.1878 18.0376 16.9066 18.0238 16.6185C18.0309 16.3305 17.9155 16.05 17.6987 15.8283C17.482 15.6068 17.0487 15.4993 16.3986 15.5058H13.6709C13.011 15.5216 12.3525 15.447 11.7206 15.2848C11.2688 15.166 10.8565 14.9582 10.5174 14.6785C10.2269 14.4296 10.0145 14.123 9.89966 13.7867C9.78191 13.4369 9.72366 13.0747 9.72667 12.711C9.72667 11.8531 10.0137 11.1693 10.5935 10.6613C11.1732 10.1533 12.1141 9.89691 13.4447 9.89691L14.5586 9.88885Z" fill="#FEC93D"/>
<path fill-rule="evenodd" clip-rule="evenodd" d="M14.5946 2.12801C7.7095 2.12801 2.12801 7.70949 2.12801 14.5946C2.12801 21.4797 7.7095 27.0612 14.5946 27.0612C21.4797 27.0612 27.0612 21.4797 27.0612 14.5946C27.0612 7.70949 21.4797 2.12801 14.5946 2.12801ZM0 14.5946C0 6.53422 6.53423 0 14.5946 0C22.655 0 29.1892 6.53422 29.1892 14.5946C29.1892 22.655 22.655 29.1892 14.5946 29.1892C6.53423 29.1892 0 22.655 0 14.5946Z" fill="#FEC93D"/>
<path d="M57.5642 45.4054C57.5642 53.4658 51.03 60 42.9696 60C34.9092 60 28.375 53.4658 28.375 45.4054C28.375 37.345 34.9092 30.8108 42.9696 30.8108C51.03 30.8108 57.5642 37.345 57.5642 45.4054Z" fill="white"/>
<path d="M47.0283 39.7297V40.6511V41.5724L42.6432 41.5724C41.672 41.5724 40.9634 41.8431 40.5175 42.3844C40.0814 42.9153 39.8634 43.7898 39.8634 45.0078C39.8634 46.2154 40.0814 47.0899 40.5175 47.6312C40.9535 48.1622 41.6621 48.4276 42.6432 48.4276H47.0283V49.349V50.2703H42.6432C41.1765 50.2703 40.0517 49.8382 39.2688 48.9742C38.4959 48.0997 38.1094 46.7776 38.1094 45.0078C38.1094 43.2276 38.4959 41.9055 39.2688 41.0415C40.0517 40.167 41.1765 39.7297 42.6432 39.7297L47.0283 39.7297Z" fill="#FEC93D"/>
<path d="M42.1641 38.1081H42.9749V41.3513H42.1641V38.1081Z" fill="#FEC93D"/>
<path d="M42.1641 49.4595H42.9749V52.7027H42.1641V49.4595Z" fill="#FEC93D"/>
<path d="M44.5938 38.1081H45.4046V41.3513H44.5938V38.1081Z" fill="#FEC93D"/>
<path d="M43.7812 49.4595H45.4029V52.7027H43.7812V49.4595Z" fill="#FEC93D"/>
<path fill-rule="evenodd" clip-rule="evenodd" d="M42.9696 32.9388C36.0845 32.9388 30.503 38.5203 30.503 45.4054C30.503 52.2905 36.0845 57.872 42.9696 57.872C49.8547 57.872 55.4362 52.2905 55.4362 45.4054C55.4362 38.5203 49.8547 32.9388 42.9696 32.9388ZM28.375 45.4054C28.375 37.345 34.9092 30.8108 42.9696 30.8108C51.03 30.8108 57.5642 37.345 57.5642 45.4054C57.5642 53.4658 51.03 60 42.9696 60C34.9092 60 28.375 53.4658 28.375 45.4054Z" fill="#FEC93D"/>
<path fill-rule="evenodd" clip-rule="evenodd" d="M7.60171 37.803L14.2251 31.1185C14.6315 30.7083 15.2905 30.7083 15.6969 31.1185L22.3203 37.803C22.7268 38.2132 22.7268 38.8782 22.3203 39.2884C21.9139 39.6986 21.2549 39.6986 20.8485 39.2884L16.0018 34.397L16.0018 44.1155L26.7563 44.1155L26.7563 46.2162L13.9203 46.2162L13.9203 34.397L9.07357 39.2884C8.66713 39.6986 8.00815 39.6986 7.60171 39.2884C7.19526 38.8782 7.19526 38.2132 7.60171 37.803Z" fill="#0F211E"/>
<path fill-rule="evenodd" clip-rule="evenodd" d="M50.7733 20.5754L44.1499 27.2599C43.7435 27.6701 43.0845 27.6701 42.6781 27.2599L36.0547 20.5754C35.6482 20.1652 35.6482 19.5002 36.0547 19.09C36.4611 18.6798 37.1201 18.6798 37.5265 19.09L42.3732 23.9814L42.3732 14.2629L31.6187 14.2629L31.6187 12.1622L44.4547 12.1622L44.4547 23.9814L49.3014 19.09C49.7079 18.6798 50.3668 18.6798 50.7733 19.09C51.1797 19.5002 51.1797 20.1652 50.7733 20.5754Z" fill="#0F211E"/>
</svg>
