<svg width="74" height="62" viewBox="0 0 74 62" fill="none" xmlns="http://www.w3.org/2000/svg">
<path fill-rule="evenodd" clip-rule="evenodd" d="M26.7295 0.552056C10.8537 10.7477 2.034 22.6146 0.270362 36.1526C-2.47522 57.2282 16.3722 67.5441 25.9221 58.2753C35.4719 49.0066 29.7473 37.2419 22.8323 34.0261C15.9173 30.8101 11.6885 31.9302 12.4262 27.6326C13.1638 23.3353 23.0018 11.4204 31.6449 5.87146C32.2183 5.38384 32.4365 4.43769 31.8844 3.71986C31.5211 3.24784 30.8088 2.32203 29.7473 0.942382C28.8191 -0.264062 27.9299 -0.218903 26.7295 0.552056Z" fill="white"/>
<path fill-rule="evenodd" clip-rule="evenodd" d="M68.5263 0.552056C52.6507 10.7477 43.8309 22.6146 42.0672 36.1526C39.3217 57.2282 58.1692 67.5441 67.719 58.2753C77.2688 49.0066 71.5443 37.2419 64.6293 34.0261C57.7143 30.8101 53.4853 31.9302 54.2232 27.6326C54.9608 23.3353 64.7988 11.4204 73.4419 5.87146C74.0153 5.38384 74.2335 4.43769 73.6812 3.71986C73.3181 3.24784 72.6058 2.32203 71.5443 0.942382C70.6161 -0.264062 69.7269 -0.218903 68.5263 0.552056Z" fill="white"/>
</svg>
