<svg width="34" height="34" viewBox="0 0 34 34" fill="none" xmlns="http://www.w3.org/2000/svg">
<rect width="34" height="34" rx="17" fill="#D4E9E2"/>
<g clip-path="url(#clip0_1415_15575)">
<path d="M23.3457 8.32345C23.2508 8.34103 23.0434 8.41838 22.8852 8.4922C22.3121 8.76642 21.9008 9.33244 21.8094 9.96525L21.7672 10.25H15.0242H8.28125V15.875V21.5L12.5105 21.507L16.7363 21.5176L16.7609 21.7461C16.8242 22.3332 17.0492 23.0012 17.348 23.5004C18.2199 24.9488 19.7738 25.7891 21.4297 25.7047C22.5898 25.6485 23.5602 25.216 24.3863 24.3863C25.216 23.5602 25.6484 22.5899 25.7047 21.4297C25.7715 20.1324 25.2687 18.8844 24.316 17.9738L24.0312 17.7031V14.9469V12.1942L24.2246 12.152C24.6781 12.05 25.1949 11.6738 25.427 11.2801C25.8945 10.482 25.7785 9.51174 25.1387 8.86838C24.6746 8.39728 24.0137 8.19689 23.3457 8.32345ZM24.3266 8.97736C24.6465 9.12502 24.8504 9.32892 25.0086 9.64533C25.1316 9.89845 25.1387 9.93009 25.1387 10.25C25.1387 10.5699 25.1316 10.6016 25.0086 10.8547C24.8504 11.1746 24.6465 11.3715 24.3195 11.5262C24.1051 11.6281 24.0523 11.6387 23.75 11.6387C23.4477 11.6387 23.3949 11.6281 23.1875 11.5297C22.8535 11.368 22.6496 11.1746 22.4949 10.8547C22.3684 10.6016 22.3613 10.5699 22.3613 10.2535C22.3613 9.94767 22.3719 9.89494 22.4738 9.68048C22.6145 9.38166 22.8148 9.16369 23.0785 9.02658C23.3527 8.87892 23.5074 8.84377 23.8273 8.85783C24.0418 8.86838 24.1508 8.8965 24.3266 8.97736ZM21.9043 10.9145C21.9148 10.9707 21.9816 11.1078 22.0484 11.2203L22.1715 11.4242L21.3172 12.2785C20.6281 12.9711 20.4488 13.1328 20.3926 13.1153C20.2309 13.066 19.9883 13.0555 19.8652 13.0977L19.7352 13.1399L19.4504 12.8586C19.1727 12.5809 19.1691 12.5774 19.2113 12.4649C19.3836 11.9656 18.9477 11.375 18.4062 11.375C18.1848 11.375 18.0055 11.4559 17.8262 11.6387C17.5801 11.8813 17.5027 12.1766 17.6012 12.4649L17.6434 12.5774L16.9437 13.277C16.3812 13.8395 16.2301 13.9766 16.1738 13.959C15.8223 13.8535 15.541 13.9203 15.2949 14.1664C14.9398 14.525 14.9398 14.975 15.2949 15.3301C15.65 15.6852 16.1 15.6852 16.4586 15.3301C16.7047 15.084 16.7715 14.8028 16.666 14.4512C16.6484 14.3949 16.7855 14.2438 17.348 13.6813L18.0477 12.9817L18.1602 13.0238C18.3078 13.0731 18.5047 13.0731 18.6523 13.0238C18.7648 12.9817 18.7684 12.9852 19.0461 13.2664C19.3273 13.5442 19.3309 13.5477 19.2887 13.6602C19.1164 14.1594 19.5523 14.75 20.0937 14.75C20.3152 14.75 20.4945 14.6692 20.6773 14.4863C20.9234 14.2403 20.9902 13.959 20.8848 13.6074C20.8672 13.5512 21.0324 13.3719 21.7215 12.6828L22.5758 11.8285L22.7797 11.9516C22.8922 12.0184 23.0926 12.1028 23.2262 12.1379L23.4687 12.1977V14.7606C23.4687 16.1703 23.4582 17.3164 23.4441 17.3094C22.8395 17 22.4105 16.8559 21.8516 16.7715C20.5191 16.5676 19.1445 17.007 18.1426 17.9563L17.8437 18.2375V17.6188V17H17H16.1562V18.6875V20.375H16.4727H16.7926L16.768 20.6106C16.7574 20.7442 16.7434 20.8707 16.7328 20.8918C16.7223 20.927 15.9031 20.9375 12.7812 20.9375H8.84375V15.875V10.8125H15.3617H21.8797L21.9043 10.9145ZM18.5996 12.0254C18.6559 12.0781 18.6875 12.152 18.6875 12.2188C18.6875 12.2856 18.6559 12.3594 18.5996 12.4121C18.5469 12.4684 18.473 12.5 18.4062 12.5C18.3395 12.5 18.2656 12.4684 18.2129 12.4121C18.1566 12.3594 18.125 12.2856 18.125 12.2188C18.125 12.152 18.1566 12.0781 18.2129 12.0254C18.2656 11.9692 18.3395 11.9375 18.4062 11.9375C18.473 11.9375 18.5469 11.9692 18.5996 12.0254ZM20.2871 13.7129C20.3434 13.7656 20.375 13.8395 20.375 13.9063C20.375 13.9731 20.3434 14.0469 20.2871 14.0996C20.2344 14.1559 20.1605 14.1875 20.0937 14.1875C20.027 14.1875 19.9531 14.1559 19.9004 14.0996C19.8441 14.0469 19.8125 13.9731 19.8125 13.9063C19.8125 13.8395 19.8441 13.7656 19.9004 13.7129C19.9531 13.6567 20.027 13.625 20.0937 13.625C20.1605 13.625 20.2344 13.6567 20.2871 13.7129ZM16.0684 14.5567C16.2441 14.7289 16.1211 15.0313 15.875 15.0313C15.7309 15.0313 15.5937 14.8942 15.5937 14.75C15.5937 14.6059 15.7309 14.4688 15.875 14.4688C15.9418 14.4688 16.0156 14.5004 16.0684 14.5567ZM20.9234 18.3922C20.9164 18.4133 20.8285 18.4414 20.7266 18.4555C20.4453 18.4942 19.9777 18.677 19.693 18.8633C18.6102 19.5699 18.1355 20.9445 18.568 22.1328C18.6137 22.2594 18.6383 22.3719 18.6242 22.386C18.6102 22.3965 18.3957 22.5266 18.1426 22.6707L17.6855 22.9344L17.6047 22.7586C17.1582 21.7742 17.1828 20.5367 17.668 19.5348C18.241 18.3535 19.3555 17.5203 20.6141 17.3375L20.9199 17.2953L20.9305 17.8227C20.934 18.1145 20.934 18.3676 20.9234 18.3922ZM22.291 17.443C24.1508 17.9598 25.3848 19.8266 25.1176 21.732C25.0754 22.0485 24.9488 22.5055 24.8328 22.7586L24.752 22.9344L24.2879 22.6672C24.0348 22.516 23.8168 22.386 23.8062 22.3754C23.7957 22.3649 23.8203 22.2699 23.859 22.1645C24.207 21.2574 24.0102 20.1711 23.3633 19.4082C22.9379 18.909 22.3754 18.582 21.7461 18.4625L21.5176 18.4203L21.507 17.8578L21.5 17.2918L21.7355 17.3235C21.8691 17.341 22.1187 17.3938 22.291 17.443ZM17.2812 18.2973V19.0285L17.1441 19.3238C17.0668 19.4856 16.993 19.6613 16.9824 19.7141C16.9613 19.7985 16.9402 19.8125 16.8383 19.8125H16.7187V18.6875V17.5625H17H17.2812V18.2973ZM21.6934 19.0215C22.4527 19.1797 23.1312 19.8055 23.3738 20.5684C23.4371 20.7688 23.4512 20.8953 23.4512 21.2363C23.4477 21.602 23.4336 21.6934 23.3562 21.9149C23.2262 22.2805 23.0645 22.5336 22.8008 22.8008C22.5336 23.068 22.2137 23.2649 21.8691 23.3738C21.6687 23.4371 21.5422 23.4512 21.2012 23.4512C20.8355 23.4477 20.7441 23.4336 20.5227 23.3563C20.1535 23.2227 19.9039 23.0645 19.6191 22.7832C18.9406 22.1082 18.7789 21.0817 19.2148 20.2133C19.6789 19.2957 20.6844 18.8106 21.6934 19.0215ZM19.1832 23.1348C19.8582 23.8449 20.7969 24.1578 21.718 23.982C22.3262 23.866 22.8289 23.5848 23.2684 23.1207L23.5074 22.8676L23.9785 23.1383C24.2387 23.286 24.4531 23.416 24.4531 23.4301C24.4531 23.5391 23.9504 24.0805 23.6129 24.3301C23.1172 24.7063 22.5547 24.9629 21.9395 25.093C21.6687 25.1492 20.7687 25.1492 20.498 25.093C19.6859 24.9207 18.9723 24.534 18.4133 23.968C18.1461 23.7008 17.9598 23.4477 17.9949 23.409C18.016 23.3914 18.9055 22.8746 18.9266 22.8711C18.9301 22.8711 19.0461 22.9906 19.1832 23.1348Z" fill="#1E3932"/>
<path d="M9.40625 11.6562V11.9375H9.6875H9.96875V11.6562V11.375H9.6875H9.40625V11.6562Z" fill="#1E3932"/>
<path d="M10.5312 11.6562V11.9375H12.5H14.4688V11.6562V11.375H12.5H10.5312V11.6562Z" fill="#1E3932"/>
<path d="M9.40625 12.7812V13.0625H9.6875H9.96875V12.7812V12.5H9.6875H9.40625V12.7812Z" fill="#1E3932"/>
<path d="M10.5312 12.7812V13.0625H12.5H14.4688V12.7812V12.5H12.5H10.5312V12.7812Z" fill="#1E3932"/>
<path d="M9.40625 13.9062V14.1875H9.6875H9.96875V13.9062V13.625H9.6875H9.40625V13.9062Z" fill="#1E3932"/>
<path d="M10.5312 13.9062V14.1875H12.5H14.4688V13.9062V13.625H12.5H10.5312V13.9062Z" fill="#1E3932"/>
<path d="M9.40625 15.0312V15.3125H9.6875H9.96875V15.0312V14.75H9.6875H9.40625V15.0312Z" fill="#1E3932"/>
<path d="M10.5312 15.0312V15.3125H12.5H14.4688V15.0312V14.75H12.5H10.5312V15.0312Z" fill="#1E3932"/>
<path d="M13.9062 18.125V20.375H14.75H15.5938V18.125V15.875H14.75H13.9062V18.125ZM15.0312 18.125V19.8125H14.75H14.4688V18.125V16.4375H14.75H15.0312V18.125Z" fill="#1E3932"/>
<path d="M9.40625 18.9688V20.375H10.25H11.0938V18.9688V17.5625H10.25H9.40625V18.9688ZM10.5312 18.9688V19.8125H10.25H9.96875V18.9688V18.125H10.25H10.5312V18.9688Z" fill="#1E3932"/>
<path d="M11.6562 19.25V20.375H12.5H13.3438V19.25V18.125H12.5H11.6562V19.25ZM12.7812 19.25V19.8125H12.5H12.2188V19.25V18.6875H12.5H12.7812V19.25Z" fill="#1E3932"/>
<path d="M20.8019 19.5875C19.9124 19.8266 19.3604 20.7512 19.5854 21.6231C19.821 22.5231 20.7421 23.0821 21.6245 22.8535C22.5245 22.618 23.0835 21.6969 22.855 20.8215C22.6194 19.911 21.6843 19.3485 20.8019 19.5875ZM21.7511 20.2379C21.9866 20.3645 22.0956 20.477 22.2327 20.7406C22.3101 20.8918 22.3241 20.9656 22.3241 21.2188C22.3276 21.493 22.3171 21.5352 22.2081 21.7391C22.0745 21.9852 21.962 22.0906 21.6983 22.2313C21.5472 22.3086 21.4733 22.3227 21.2202 22.3227C20.9671 22.3227 20.8933 22.3086 20.7421 22.2313C20.4784 22.0906 20.3659 21.9852 20.2323 21.7391C20.1233 21.5352 20.1128 21.493 20.1163 21.2188C20.1163 20.8672 20.2007 20.6563 20.4292 20.4278C20.7808 20.0762 21.3046 20.0024 21.7511 20.2379Z" fill="#1E3932"/>
</g>
<defs>
<clipPath id="clip0_1415_15575">
<rect width="18" height="18" fill="white" transform="translate(8 8)"/>
</clipPath>
</defs>
</svg>
