<svg width="97" height="64" viewBox="0 0 97 64" fill="none" xmlns="http://www.w3.org/2000/svg">
<path d="M39 16C44.3143 7.58733 53.6955 2 64.3818 2C80.9503 2 94.3818 15.4315 94.3818 32C94.3818 48.5685 80.9503 62 64.3818 62C54.5668 62 45.8528 57.2867 40.3796 50" stroke="white" stroke-width="4" stroke-linecap="round" stroke-linejoin="round"/>
<path d="M42 22H12" stroke="#FEC93D" stroke-width="4" stroke-linecap="round"/>
<path d="M42 42H12" stroke="#FEC93D" stroke-width="4" stroke-linecap="round"/>
<path d="M32 32H2" stroke="#FEC93D" stroke-width="4" stroke-linecap="round"/>
<path d="M64.6269 21.6822V16H67.736V21.6822H75.0753V25.8122H62.4682C61.4041 25.8122 60.6391 26.0349 60.196 26.4804C59.9639 26.708 59.783 26.9767 59.6639 27.2706C59.5449 27.5646 59.4902 27.8778 59.503 28.1918C59.4774 28.8393 59.7171 29.4716 60.1733 29.9598C60.6202 30.4312 61.476 30.667 62.7409 30.667H68.0958C69.4163 30.6329 70.7345 30.7891 72.004 31.1302C72.9004 31.3722 73.7273 31.7987 74.4239 32.3783C75.0016 32.8856 75.426 33.5258 75.6547 34.2347C75.8875 34.9741 76.0036 35.7412 75.9993 36.5118C76.0111 37.407 75.8718 38.2984 75.5865 39.1532C75.3301 39.9197 74.8794 40.6172 74.2724 41.1863C73.6087 41.7847 72.8123 42.2397 71.9396 42.5193C70.8417 42.862 69.6886 43.0247 68.5313 43.0002H67.7739V48H64.6647V42.9684H55.2956V38.8172H68.5502C69.6434 38.8172 70.4135 38.5957 70.8603 38.1525C71.3172 37.6858 71.5582 37.0694 71.5306 36.4376C71.5448 35.8061 71.3149 35.1911 70.883 34.705C70.4513 34.2194 69.5879 33.9836 68.2927 33.9978H62.8583C61.5437 34.0326 60.2316 33.8691 58.9728 33.5134C58.0727 33.2529 57.2513 32.7973 56.5756 32.1839C55.9969 31.6383 55.5738 30.966 55.3449 30.2285C55.1103 29.4617 54.9942 28.6675 55.0002 27.8701C55.0002 25.989 55.5721 24.4897 56.7271 23.3759C57.8822 22.2621 59.7568 21.6999 62.4077 21.6999L64.6269 21.6822Z" fill="#FEC93D"/>
</svg>
