<svg width="34" height="34" viewBox="0 0 34 34" fill="none" xmlns="http://www.w3.org/2000/svg">
<rect width="34" height="34" rx="17" fill="#D4E9E2"/>
<path d="M11.475 8.04922C11.0566 8.16524 10.7121 8.46406 10.5187 8.87188L10.4062 9.10742V17V24.8926L10.5187 25.1281C10.7121 25.5395 11.0074 25.7961 11.4469 25.9332C11.6508 25.9965 11.8687 26 16.991 26C21.3961 26 22.3559 25.9895 22.5035 25.9508C22.9359 25.8348 23.2805 25.5465 23.4773 25.1281L23.5898 24.8926L23.6004 18.916L23.6074 12.943L21.1465 10.4785L18.6855 8.01758L15.1629 8.01055C12.3926 8.00703 11.6016 8.01406 11.475 8.04922ZM18.1582 10.3695C18.1582 11.3539 18.1723 12.1098 18.1934 12.2223C18.3059 12.8059 18.7559 13.2805 19.3219 13.4105C19.4133 13.4316 20.1621 13.4492 21.1922 13.4492H22.9043V19.0637C22.9043 24.4391 22.9008 24.6887 22.8375 24.8223C22.7637 24.9805 22.623 25.1352 22.4648 25.2195C22.3664 25.2758 21.9234 25.2793 16.998 25.2793C12.0727 25.2793 11.6297 25.2758 11.5312 25.2195C11.373 25.1352 11.2324 24.9805 11.1586 24.8223C11.0953 24.6887 11.0918 24.3758 11.0918 16.9965V9.31484L11.1797 9.13555C11.2711 8.95273 11.4539 8.79453 11.6402 8.73828C11.6965 8.72422 13.1871 8.70664 14.952 8.70664L18.1582 8.70312V10.3695ZM22.0535 12.7391C21.8742 12.7461 21.2133 12.7461 20.584 12.7391C19.5469 12.7285 19.4309 12.7215 19.3184 12.6617C19.1461 12.5703 19.0406 12.4684 18.9633 12.3172C18.9 12.1941 18.8965 12.0922 18.8965 10.7176V9.24805L20.6367 10.9883L22.377 12.7285L22.0535 12.7391Z" fill="#1E3932"/>
<path d="M13.9762 17.0844C13.8777 17.1406 13.8004 17.2672 13.7969 17.3797C13.7969 17.4887 13.8883 17.6574 13.9691 17.7031C14.0641 17.7524 19.9281 17.7524 20.023 17.7031C20.1004 17.6574 20.1953 17.4887 20.1953 17.3867C20.1953 17.2707 20.1039 17.1231 20.002 17.0774C19.8613 17.0141 14.0922 17.0211 13.9762 17.0844Z" fill="#1E3932"/>
<path d="M14.0248 18.6523C13.7963 18.7438 13.7295 19.0461 13.9018 19.2184L14.0037 19.3203H16.999H19.9943L20.0963 19.2184C20.2369 19.0777 20.2369 18.9055 20.0963 18.7508L19.9943 18.6348L17.0447 18.6277C15.424 18.6242 14.0635 18.6348 14.0248 18.6523Z" fill="#1E3932"/>
<path d="M14.0224 20.2484C13.7799 20.3539 13.7236 20.6105 13.8994 20.8039L14.0013 20.9199H16.9967H19.992L20.0939 20.8039C20.2697 20.607 20.2099 20.3504 19.9638 20.2484C19.7916 20.1781 14.1877 20.1781 14.0224 20.2484Z" fill="#1E3932"/>
<path d="M13.9023 21.9183C13.7617 22.059 13.7617 22.2312 13.9023 22.3859L14.0043 22.5019L16.0223 22.5125C17.4918 22.5195 18.0613 22.509 18.1352 22.4808C18.3602 22.3859 18.4094 22.0976 18.2336 21.9183L18.1316 21.8164H16.068H14.0043L13.9023 21.9183Z" fill="#1E3932"/>
</svg>
