<svg width="34" height="34" viewBox="0 0 34 34" fill="none" xmlns="http://www.w3.org/2000/svg">
<rect width="34" height="34" rx="17" fill="#D4E9E2"/>
<g clip-path="url(#clip0_1415_16024)">
<path d="M11.7422 8.65039L11.6543 8.73477V10.0531V11.3715L10.6418 11.382L9.6293 11.3926L9.36211 11.5227C9.04219 11.6809 8.84531 11.8848 8.69062 12.2117L8.57812 12.4473V18.4098V24.3687L8.7082 24.6359C8.86641 24.9559 9.07031 25.1527 9.39727 25.3074L9.63281 25.4199H16.7344C23.5828 25.4199 23.843 25.4164 24.0293 25.3531C24.6656 25.1387 25.0945 24.7203 25.3406 24.077L25.418 23.873L25.4285 19.3977L25.4355 14.9258L25.3512 14.8379C25.2633 14.75 25.2563 14.75 24.6445 14.75H24.0293V13.291V11.8285L23.8781 11.6633C23.7937 11.5719 23.168 10.8793 22.4859 10.127C21.8039 9.37109 21.1992 8.71367 21.143 8.65742L21.041 8.5625H16.432H11.8266L11.7422 8.65039ZM20.6543 10.584V12.0465L20.7422 12.1309L20.8266 12.2188H22.1484H23.4668V17.7031V23.1875H22.7637H22.0605L22.0535 19.5031L22.043 15.8223L21.9305 15.5867C21.7758 15.2598 21.5789 15.0559 21.259 14.8977L20.9918 14.7676L17.9402 14.75C15.075 14.7324 14.8887 14.7289 14.8289 14.6691C14.7727 14.6129 14.7656 14.5039 14.748 13.5266L14.7305 12.4438L14.6004 12.1766C14.4422 11.8566 14.2383 11.6598 13.9113 11.5051L13.6758 11.3926L12.948 11.382L12.2168 11.368V10.2465V9.125H16.4355H20.6543V10.584ZM22.1941 10.6438C22.6828 11.1781 23.0801 11.6246 23.0801 11.6352C23.0801 11.6492 22.6617 11.6562 22.1484 11.6562H21.2168V10.6121C21.2168 9.73672 21.2238 9.575 21.2625 9.61719C21.2906 9.64531 21.709 10.1094 22.1941 10.6438ZM13.602 11.9797C13.7953 12.0359 14.0871 12.3277 14.1434 12.5211C14.1715 12.6195 14.1855 12.9746 14.1855 13.625C14.1855 14.2754 14.1996 14.6305 14.2277 14.7289C14.284 14.9223 14.5758 15.2141 14.7691 15.2703C14.8781 15.302 15.6445 15.3125 17.8418 15.3125C20.0391 15.3125 20.8055 15.323 20.9145 15.3547C21.1078 15.4109 21.3996 15.7027 21.4559 15.8961C21.4875 16.0051 21.498 16.9578 21.498 19.8371C21.498 22.393 21.5121 23.7008 21.5367 23.8414C21.5824 24.098 21.7723 24.4988 21.941 24.7027L22.0711 24.8574L15.975 24.868C11.25 24.875 9.84375 24.868 9.7207 24.8328C9.5168 24.7766 9.225 24.4953 9.16523 24.2914C9.10547 24.0805 9.10547 12.732 9.16523 12.5211C9.21797 12.3418 9.51328 12.0395 9.68555 11.9832C9.86836 11.927 13.4086 11.9234 13.602 11.9797ZM24.866 19.5594L24.8555 23.8063L24.7254 24.0734C24.5672 24.3934 24.3633 24.5902 24.0363 24.7449C23.8219 24.8469 23.7691 24.8574 23.4668 24.8574C23.1645 24.8574 23.1117 24.8469 22.8973 24.7449C22.5809 24.5973 22.3699 24.3934 22.2188 24.091C22.152 23.9574 22.0957 23.8238 22.0957 23.7992C22.0957 23.757 22.2539 23.75 22.9746 23.75H23.857L23.9414 23.6621L24.0293 23.5777V19.4434V15.3125H24.4512H24.873L24.866 19.5594Z" fill="#1E3932"/>
<path d="M13.4316 10.3379C13.3754 10.3906 13.3438 10.4645 13.3438 10.5312C13.3438 10.598 13.3754 10.6719 13.4316 10.7246L13.516 10.8125H16.7188H19.9215L20.0059 10.7246C20.0621 10.6719 20.0938 10.598 20.0938 10.5312C20.0938 10.4645 20.0621 10.3906 20.0059 10.3379L19.9215 10.25H16.7188H13.516L13.4316 10.3379Z" fill="#1E3932"/>
<path d="M15.4004 11.4629C15.3441 11.5156 15.3125 11.5895 15.3125 11.6562C15.3125 11.723 15.3441 11.7969 15.4004 11.8496L15.4848 11.9375H17.7031H19.9215L20.0059 11.8496C20.0621 11.7969 20.0938 11.723 20.0938 11.6562C20.0938 11.5895 20.0621 11.5156 20.0059 11.4629L19.9215 11.375H17.7031H15.4848L15.4004 11.4629Z" fill="#1E3932"/>
<path d="M15.4004 12.5879C15.3441 12.6406 15.3125 12.7145 15.3125 12.7812C15.3125 12.848 15.3441 12.9219 15.4004 12.9746L15.4848 13.0625H17.7031H19.9215L20.0059 12.9746C20.0621 12.9219 20.0938 12.848 20.0938 12.7812C20.0938 12.7145 20.0621 12.6406 20.0059 12.5879L19.9215 12.5H17.7031H15.4848L15.4004 12.5879Z" fill="#1E3932"/>
<path d="M15.4004 13.7129C15.3441 13.7656 15.3125 13.8395 15.3125 13.9062C15.3125 13.973 15.3441 14.0469 15.4004 14.0996L15.4848 14.1875H18.8281H22.1715L22.2559 14.0996C22.3719 13.9871 22.3719 13.8254 22.2559 13.7129L22.1715 13.625H18.8281H15.4848L15.4004 13.7129Z" fill="#1E3932"/>
<path d="M18.7754 15.9629C18.7191 16.0156 18.6875 16.0895 18.6875 16.1563C18.6875 16.2231 18.7191 16.2969 18.7754 16.3496C18.8598 16.4375 18.8668 16.4375 19.5312 16.4375C20.4348 16.4375 20.375 16.3778 20.375 17.2813C20.375 17.9457 20.375 17.9528 20.4629 18.0371C20.5754 18.1531 20.7371 18.1531 20.8496 18.0371C20.9375 17.9528 20.9375 17.9457 20.9375 17.2778C20.9375 16.4692 20.9164 16.3778 20.6738 16.1387C20.4348 15.8961 20.3434 15.875 19.5348 15.875C18.8668 15.875 18.8598 15.875 18.7754 15.9629Z" fill="#1E3932"/>
<path d="M9.77539 22.1504C9.6875 22.2348 9.6875 22.2418 9.6875 22.9098C9.6875 23.7184 9.70859 23.8098 9.95117 24.0488C10.1902 24.2914 10.2816 24.3125 11.0902 24.3125C11.7582 24.3125 11.7652 24.3125 11.8496 24.2246C11.9656 24.1121 11.9656 23.9504 11.8496 23.8379C11.7652 23.75 11.7582 23.75 11.0938 23.75C10.1902 23.75 10.25 23.8098 10.25 22.9062C10.25 22.2418 10.25 22.2348 10.1621 22.1504C10.1094 22.0941 10.0355 22.0625 9.96875 22.0625C9.90195 22.0625 9.82812 22.0941 9.77539 22.1504Z" fill="#1E3932"/>
</g>
<defs>
<clipPath id="clip0_1415_16024">
<rect width="18" height="18" fill="white" transform="translate(8 8)"/>
</clipPath>
</defs>
</svg>
