<svg width="74" height="75" viewBox="0 0 74 75" fill="none" xmlns="http://www.w3.org/2000/svg">
<path d="M31.5473 32.0125C31.5473 32.7987 31.564 33.5862 31.5421 34.3724C31.5189 35.2179 31.0163 35.767 30.2752 35.8056C29.4916 35.8469 28.9322 35.3468 28.8239 34.4858C28.7891 34.21 28.7943 33.9291 28.7943 33.6507C28.7917 31.0098 28.793 28.369 28.7943 25.7281C28.7943 25.3196 28.7866 24.9123 28.7994 24.505C28.8355 23.3038 29.3163 22.8334 30.5033 22.827C31.341 22.8231 32.1775 22.8205 33.0153 22.8282C34.9498 22.8476 36.5634 24.1132 37.0094 25.9524C37.4399 27.7284 36.5995 29.5289 34.8647 30.4079C34.3634 30.6618 34.3466 30.8384 34.7075 31.2251C35.3803 31.9481 36.026 32.6969 36.664 33.4496C37.2452 34.134 37.2349 34.9485 36.6704 35.4667C36.0904 35.9989 35.2398 35.919 34.6212 35.2372C33.813 34.3466 33.032 33.4329 32.2368 32.5307C32.0692 32.3399 31.894 32.1556 31.7225 31.9687C31.6645 31.9829 31.6053 31.9984 31.5473 32.0125ZM31.5537 26.803C31.5537 27.7327 32.0091 28.1748 32.9199 28.1293C33.7319 28.088 34.3028 27.6253 34.3724 26.95C34.4394 26.303 33.9265 25.7281 33.13 25.5567C31.7689 25.2642 31.5537 25.4356 31.5537 26.803Z" fill="#FEC93D"/>
<path d="M28.0768 47.4068C28.0768 48.2304 28.0833 48.9947 28.0755 49.759C28.0652 50.7217 27.5497 51.2888 26.7119 51.2747C25.9038 51.2618 25.4051 50.7037 25.4038 49.7706C25.3973 46.4441 25.396 43.1163 25.4038 39.7898C25.4063 38.7819 25.8987 38.3063 26.9194 38.2973C27.8203 38.2883 28.7225 38.287 29.6234 38.2973C31.5064 38.3218 33.1355 39.6132 33.5647 41.4099C33.99 43.1872 33.1381 45.0225 31.4265 45.8667C30.8839 46.1335 30.8942 46.3113 31.2757 46.7109C31.9124 47.3772 32.5092 48.0835 33.1123 48.782C33.7928 49.5708 33.8225 50.4008 33.2038 50.9447C32.58 51.4938 31.7487 51.3623 31.0695 50.5954C30.2717 49.6958 29.4842 48.7885 28.6864 47.8889C28.5382 47.7213 28.4145 47.5112 28.0755 47.4056L28.0768 47.4068ZM29.1582 43.5996C29.2226 43.5996 29.2871 43.6009 29.3515 43.5996C30.2949 43.5712 30.9638 43.0106 30.9381 42.2695C30.9084 41.4382 30.1196 40.9536 28.8244 40.9716C28.3286 40.9785 28.0833 41.418 28.0884 42.2901C28.0884 42.3765 28.0884 42.4616 28.0897 42.5479C28.109 43.5377 28.1838 43.6112 29.1595 43.6009L29.1582 43.5996Z" fill="#FEC93D"/>
<path d="M48.8157 51.2764C48.2988 51.2635 47.9199 51.0212 47.6622 50.5804C47.608 50.4889 47.5694 50.3871 47.5268 50.2891C47.1067 49.2967 46.3626 48.8005 45.2945 48.8005C44.587 48.8005 43.8781 48.8147 43.1705 48.7992C42.7684 48.7902 42.5287 48.9539 42.3998 49.3328C42.2683 49.7182 42.1291 50.1035 41.9513 50.4696C41.6033 51.1874 40.8596 51.4697 40.1714 51.1746C39.5205 50.8949 39.1841 50.1821 39.4561 49.4591C40.7295 46.0643 42.0209 42.6772 43.3226 39.294C43.5778 38.6302 44.1062 38.29 44.8306 38.299C45.6258 38.308 46.0911 38.7604 46.3566 39.4641C47.4856 42.4542 48.612 45.4456 49.7385 48.437C49.8815 48.8185 50.0426 49.1962 50.147 49.588C50.3842 50.4773 49.7295 51.2931 48.8157 51.2777V51.2764ZM44.8898 43.3165C44.8318 43.3152 44.7726 43.3139 44.7146 43.3126C44.5509 43.7263 44.382 44.1375 44.2235 44.5525C43.6165 46.1545 43.6783 46.2241 45.4221 46.0385C45.7392 46.005 45.8591 45.8954 45.7456 45.5913C45.4634 44.8322 45.1747 44.0756 44.8886 43.3178L44.8898 43.3165Z" fill="#FEC93D"/>
<path d="M39.0693 29.306C39.0693 27.6962 39.0629 26.0852 39.0719 24.4754C39.0784 23.3103 39.5604 22.8321 40.7165 22.8282C42.0259 22.8231 43.3354 22.8192 44.6449 22.8308C45.5625 22.8386 46.118 23.3592 46.1142 24.1751C46.109 24.9858 45.5522 25.4897 44.6268 25.5013C43.8973 25.5116 43.1666 25.5129 42.4371 25.5013C42.0401 25.4962 41.8339 25.6521 41.8339 26.0658C41.8378 28.3986 41.5981 27.9334 43.5945 27.981C43.8948 27.9875 44.1964 27.972 44.4954 27.9888C45.2468 28.03 45.81 28.5945 45.8203 29.3021C45.8319 30.0316 45.2519 30.6245 44.467 30.6515C43.8239 30.6734 43.1782 30.676 42.535 30.6541C42.053 30.6373 41.821 30.8023 41.8262 31.3153C41.8468 33.4883 41.6174 33.099 43.5584 33.1364C43.9876 33.1441 44.418 33.1222 44.8459 33.148C45.6089 33.1931 46.1206 33.7499 46.1116 34.4949C46.1026 35.2115 45.6038 35.7837 44.8717 35.7979C43.3702 35.8275 41.8661 35.8288 40.3633 35.8005C39.5668 35.785 39.0835 35.2192 39.0745 34.3299C39.0577 32.6557 39.0693 30.9815 39.0693 29.306Z" fill="#FEC93D"/>
<path d="M51.599 35.815C50.9765 35.815 50.354 35.8188 49.7315 35.815C48.5806 35.8072 48.0985 35.3303 48.0947 34.1588C48.0869 31.6262 48.0921 29.0923 48.0921 26.5585C48.0921 25.8071 48.0792 25.0557 48.0985 24.3043C48.1243 23.3454 48.636 22.8402 49.5897 22.8324C50.9636 22.8208 52.3375 22.8195 53.7115 22.8324C54.5853 22.8415 55.1305 23.3647 55.1369 24.1548C55.1421 24.9461 54.5969 25.481 53.7347 25.499C52.9833 25.5145 52.2319 25.5158 51.4805 25.5016C51.0448 25.4939 50.8528 25.6743 50.8541 26.1112C50.8657 28.3641 50.6324 27.9401 52.5979 27.9827C52.9201 27.9891 53.2436 27.9711 53.5632 27.993C54.3017 28.0432 54.8611 28.6451 54.8444 29.3475C54.8276 30.0332 54.2876 30.6132 53.5761 30.6467C52.8905 30.6789 52.2022 30.6738 51.5153 30.6557C51.0526 30.6441 50.8489 30.8246 50.8515 31.295C50.867 33.4937 50.6427 33.0994 52.5618 33.1367C53.0129 33.1458 53.4653 33.12 53.9138 33.1509C54.6394 33.2012 55.1356 33.7567 55.1369 34.4746C55.1369 35.1924 54.6433 35.7634 53.9177 35.7982C53.1469 35.8343 52.3723 35.8059 51.599 35.8059C51.599 35.8085 51.599 35.8111 51.599 35.8137V35.815Z" fill="#FEC93D"/>
<path d="M20.2451 29.2894C20.2451 27.6577 20.24 26.0273 20.2464 24.3956C20.2516 23.3014 20.7207 22.8348 21.8188 22.8284C23.0844 22.822 24.3514 22.8207 25.617 22.8297C26.5102 22.8361 27.1147 23.3865 27.1159 24.1624C27.1159 24.9395 26.5128 25.4873 25.6209 25.5002C24.9133 25.5105 24.2044 25.5131 23.4969 25.5002C23.0857 25.4937 22.9156 25.6742 22.9208 26.0814C22.9452 28.1707 22.6797 27.8265 24.555 27.8588C24.8978 27.8652 25.2458 27.842 25.5835 27.8858C26.2756 27.976 26.7628 28.5302 26.7757 29.194C26.7886 29.8462 26.3697 30.3707 25.6995 30.5305C25.0641 30.6826 24.4171 30.6027 23.7753 30.6169C22.971 30.6336 22.9272 30.6684 22.9246 31.4508C22.9208 32.3736 22.9272 33.2964 22.922 34.2192C22.9156 35.2425 22.4207 35.8161 21.5662 35.8071C20.7362 35.7967 20.2528 35.2335 20.249 34.2463C20.2425 32.594 20.2477 30.9417 20.2477 29.2894H20.2451Z" fill="#FEC93D"/>
<path d="M18.5679 45.7581C18.5679 44.4267 18.5395 43.094 18.5795 41.7627C18.5988 41.1247 18.3604 40.9004 17.7507 40.9649C17.4749 40.9932 17.1914 40.9829 16.9143 40.9546C16.2015 40.8785 15.7195 40.3063 15.7388 39.5845C15.7582 38.8963 16.2454 38.3227 16.9426 38.3124C18.9184 38.2828 20.8955 38.2828 22.8713 38.3111C23.6047 38.3215 24.0918 38.9027 24.0944 39.6271C24.0957 40.3527 23.6098 40.8953 22.8803 40.9571C22.5813 40.9829 22.2771 40.9919 21.9794 40.9649C21.4098 40.9133 21.2345 41.1621 21.2383 41.715C21.2577 44.3996 21.2499 47.0856 21.2435 49.7703C21.2409 50.6235 20.8246 51.1609 20.1248 51.2627C19.2625 51.3878 18.5885 50.8065 18.5769 49.8824C18.5588 48.5085 18.5717 47.1333 18.5717 45.7581H18.5691H18.5679Z" fill="#FEC93D"/>
<path d="M52.079 44.7904C52.079 43.1394 52.0726 41.4884 52.079 39.8374C52.0829 38.863 52.583 38.2985 53.4169 38.2998C54.2482 38.3011 54.7495 38.8669 54.7521 39.8413C54.7585 42.4576 54.7547 45.074 54.756 47.6903C54.756 48.6054 54.7624 48.608 55.7033 48.6028C56.175 48.6002 56.648 48.5822 57.1184 48.6118C57.8543 48.6582 58.3493 49.1944 58.3583 49.9123C58.3673 50.6276 57.8814 51.2334 57.1622 51.2566C55.8773 51.2978 54.5884 51.2965 53.3034 51.2591C52.5559 51.2372 52.0919 50.6804 52.0855 49.8723C52.0726 48.1788 52.0816 46.484 52.0803 44.7904H52.079Z" fill="#FEC93D"/>
<path d="M38.1092 44.8539C38.1092 46.4417 38.1092 48.0283 38.1092 49.6161C38.1092 50.0556 38.0409 50.4732 37.7445 50.8199C37.0872 51.5855 35.8538 51.3741 35.4723 50.432C35.3653 50.1691 35.3408 49.8933 35.3408 49.611C35.3408 46.394 35.3369 43.1758 35.3447 39.9588C35.3473 39.0219 35.7636 38.4367 36.4711 38.3156C37.3823 38.1596 38.0873 38.7899 38.1002 39.8351C38.1221 41.508 38.1067 43.181 38.1067 44.8539H38.1092Z" fill="#FEC93D"/>
<path d="M69.7042 37.5054C69.7042 35.4872 72.3025 33.2651 71.9697 31.3382C71.6207 29.3577 68.4158 28.1607 67.7448 26.3143C67.063 24.4357 68.7433 21.4568 67.7555 19.75C66.757 18.0271 63.3319 18.0002 62.0596 16.4813C60.782 14.9623 61.3456 11.5862 59.8264 10.3087C58.3125 9.03666 55.0807 10.1746 53.3575 9.17622C51.6503 8.18861 51.0276 4.81789 49.1487 4.13623C47.3019 3.4653 44.6661 5.6391 42.6851 5.29022C40.7632 4.95207 39.0239 2 37 2C34.9761 2 33.2421 4.95207 31.3149 5.29022C29.3339 5.6391 26.6981 3.4653 24.8513 4.13623C22.9724 4.81789 22.3497 8.18861 20.6425 9.17622C18.9193 10.1746 15.6929 9.03666 14.1736 10.3087C12.6544 11.5862 13.218 14.9623 11.9404 16.4813C10.668 17.9949 7.24302 18.0271 6.2445 19.75C5.25671 21.4568 6.93702 24.4357 6.25523 26.3143C5.58418 28.1607 2.37389 29.3577 2.03031 31.3382C1.6921 33.2598 4.29577 35.4819 4.29577 37.5C4.29577 39.5181 1.69747 41.7402 2.03031 43.6618C2.37926 45.6424 5.58418 46.8393 6.25523 48.6857C6.93702 50.5643 5.25671 53.5432 6.2445 55.25C7.24302 56.9729 10.668 56.9998 11.9404 58.5187C13.218 60.0377 12.6544 63.4138 14.1736 64.6913C15.6875 65.9633 18.9193 64.8254 20.6425 65.8238C22.3497 66.8114 22.9724 70.1821 24.8513 70.8638C26.6981 71.5347 29.3339 69.3609 31.3149 69.7098C33.2368 70.0479 34.9761 73 37 73C39.0239 73 40.7579 70.0479 42.6851 69.7098C44.6661 69.3609 47.3019 71.5347 49.1487 70.8638C51.0276 70.1821 51.6503 66.8114 53.3575 65.8238C55.0807 64.8254 58.3071 65.9633 59.8264 64.6913C61.3456 63.4138 60.782 60.0377 62.0596 58.5187C63.3319 57.0051 66.757 56.9729 67.7555 55.25C68.7433 53.5432 67.063 50.5643 67.7448 48.6857C68.4158 46.8393 71.6261 45.6424 71.9697 43.6618C72.3079 41.7402 69.7042 39.5181 69.7042 37.5V37.5054Z" stroke="white" stroke-width="3" stroke-linejoin="round"/>
</svg>
