<svg width="64" height="73" viewBox="0 0 64 73" fill="none" xmlns="http://www.w3.org/2000/svg">
<path fill-rule="evenodd" clip-rule="evenodd" d="M31.7809 18.3699C21.6842 18.3699 13.4991 26.555 13.4991 36.6517C13.4991 46.7485 21.6842 54.9335 31.7809 54.9335C41.8777 54.9335 50.0627 46.7485 50.0627 36.6517C50.0627 26.555 41.8777 18.3699 31.7809 18.3699ZM11.9219 36.6517C11.9219 25.6839 20.8131 16.7927 31.7809 16.7927C42.7488 16.7927 51.64 25.6839 51.64 36.6517C51.64 47.6196 42.7488 56.5108 31.7809 56.5108C20.8131 56.5108 11.9219 47.6196 11.9219 36.6517Z" fill="#0F211E"/>
<path fill-rule="evenodd" clip-rule="evenodd" d="M49.6643 30.8237H13.8828V29.2464H49.6643V30.8237Z" fill="#0F211E"/>
<path fill-rule="evenodd" clip-rule="evenodd" d="M49.6646 43.5693H13.7109V41.992H49.6646V43.5693Z" fill="#0F211E"/>
<path fill-rule="evenodd" clip-rule="evenodd" d="M32.5695 17.5812V55.7221H30.9922V17.5812H32.5695Z" fill="#0F211E"/>
<path fill-rule="evenodd" clip-rule="evenodd" d="M30.3366 16.8853C30.3373 16.8851 30.3379 16.8848 30.6315 17.6167C30.9251 18.3487 30.9257 18.3485 30.9262 18.3482L30.9272 18.3479L30.9285 18.3473L30.9289 18.3472C30.9282 18.3474 30.9257 18.3485 30.9213 18.3504C30.9125 18.3542 30.8964 18.3613 30.8735 18.372C30.8275 18.3934 30.7543 18.4291 30.6575 18.4814C30.464 18.5859 30.1766 18.7564 29.8263 19.0104C29.1263 19.5181 28.1725 20.3607 27.2109 21.6813C25.2938 24.3138 23.3038 28.9039 23.3038 36.6517C23.3038 44.4171 25.0939 49.0016 26.8144 51.6197C27.6765 52.9314 28.5291 53.7622 29.1504 54.2588C29.4614 54.5073 29.7155 54.6729 29.8849 54.7734C29.9696 54.8236 30.0332 54.8575 30.0722 54.8775C30.0858 54.8844 30.0963 54.8896 30.1038 54.8932C30.1071 54.8948 30.1098 54.8961 30.1119 54.897C30.1152 54.8986 30.117 54.8994 30.117 54.8994L30.1158 54.8989L30.1142 54.8982L30.1132 54.8977C30.1126 54.8975 30.112 54.8972 29.7956 55.6196C29.4792 56.342 29.4785 56.3417 29.4778 56.3414L29.4763 56.3407L29.4727 56.3391L29.4636 56.335C29.4566 56.3318 29.4479 56.3278 29.4375 56.3229C29.4167 56.3131 29.3892 56.2997 29.3554 56.2824C29.2878 56.2479 29.1949 56.1979 29.0806 56.1301C28.8519 55.9946 28.5371 55.7878 28.1657 55.4909C27.4218 54.8964 26.4544 53.9438 25.4963 52.486C23.5767 49.5649 21.7266 44.6654 21.7266 36.6517C21.7266 28.6203 23.7948 23.6929 25.9359 20.7528C27.0033 19.287 28.0786 18.3295 28.9004 17.7336C29.311 17.4358 29.6577 17.2287 29.9081 17.0935C30.0332 17.0259 30.1343 16.9763 30.2073 16.9423C30.2438 16.9253 30.2733 16.9122 30.2952 16.9027C30.3062 16.898 30.3152 16.8941 30.3224 16.8912L30.3316 16.8874L30.3352 16.8859L30.3366 16.8853ZM30.929 18.3471L30.9289 18.3472C30.9291 18.3471 30.9291 18.3471 30.929 18.3471Z" fill="#0F211E"/>
<path fill-rule="evenodd" clip-rule="evenodd" d="M33.2139 18.3776C33.2144 18.3779 33.215 18.3781 33.5469 17.6628C33.8788 16.9474 33.8794 16.9476 33.88 16.9479L33.8815 16.9486L33.8849 16.9502L33.8937 16.9544C33.9005 16.9577 33.9092 16.9619 33.9195 16.9671C33.9403 16.9774 33.9681 16.9915 34.0024 17.0098C34.0711 17.0463 34.166 17.0993 34.2833 17.1708C34.5179 17.3138 34.8423 17.5311 35.226 17.8396C35.9941 18.4571 36.9974 19.438 37.9929 20.9151C39.9885 23.8764 41.9195 28.7822 41.9195 36.6517C41.9195 44.5167 40.0437 49.4144 38.104 52.3697C37.1362 53.8443 36.1602 54.8233 35.412 55.44C35.0382 55.748 34.722 55.965 34.4929 56.1081C34.3784 56.1796 34.2856 56.2326 34.2184 56.2692C34.1847 56.2875 34.1574 56.3017 34.137 56.3121C34.1267 56.3173 34.1182 56.3216 34.1115 56.3249L34.1027 56.3292L34.0993 56.3308L34.0978 56.3315C34.0972 56.3318 34.0965 56.3321 33.7585 55.6196C33.4205 54.9071 33.4199 54.9073 33.4194 54.9076L33.4184 54.9081L33.417 54.9087L33.4162 54.9091C33.4166 54.909 33.4186 54.9079 33.4223 54.906C33.4298 54.9023 33.4439 54.895 33.4642 54.8839C33.505 54.8617 33.5706 54.8245 33.6576 54.7701C33.8317 54.6614 34.0915 54.4844 34.4089 54.2228C35.043 53.7002 35.9101 52.8379 36.7854 51.5043C38.5319 48.8433 40.3423 44.257 40.3423 36.6517C40.3423 29.0509 38.4813 24.4622 36.6849 21.7966C35.7844 20.4603 34.8917 19.5946 34.2378 19.0689C33.9105 18.8058 33.6424 18.6273 33.4622 18.5175C33.3722 18.4626 33.3041 18.4249 33.2617 18.4023C33.2405 18.391 33.2257 18.3835 33.2177 18.3796C33.2138 18.3776 33.2115 18.3765 33.211 18.3763L33.2109 18.3762C33.2109 18.3762 33.2112 18.3764 33.2117 18.3766L33.213 18.3772L33.2139 18.3776Z" fill="#0F211E"/>
<path d="M31.7697 72.0177C34.3133 72.0177 36.3753 69.9557 36.3753 67.4121C36.3753 64.8685 34.3133 62.8065 31.7697 62.8065C29.2261 62.8065 27.1641 64.8685 27.1641 67.4121C27.1641 69.9557 29.2261 72.0177 31.7697 72.0177Z" fill="#FEC93D"/>
<path fill-rule="evenodd" clip-rule="evenodd" d="M31.7721 63.6215C29.6786 63.6215 27.9814 65.3186 27.9814 67.4122C27.9814 69.5057 29.6785 71.2029 31.7721 71.2029C33.8656 71.2029 35.5628 69.5057 35.5628 67.4122C35.5628 65.3186 33.8656 63.6215 31.7721 63.6215ZM26.3516 67.4122C26.3516 64.4185 28.7784 61.9916 31.7721 61.9916C34.7658 61.9916 37.1926 64.4185 37.1926 67.4122C37.1926 70.4058 34.7658 72.8327 31.7721 72.8327C28.7784 72.8327 26.3516 70.4058 26.3516 67.4122Z" fill="#FEC93D"/>
<path fill-rule="evenodd" clip-rule="evenodd" d="M31.768 57.407C32.2181 57.407 32.583 57.7719 32.583 58.222V62.474C32.583 62.9241 32.2181 63.2889 31.768 63.2889C31.318 63.2889 30.9531 62.9241 30.9531 62.474V58.222C30.9531 57.7719 31.318 57.407 31.768 57.407Z" fill="#FEC93D"/>
<path d="M31.5431 10.0262C34.0867 10.0262 36.1487 7.96416 36.1487 5.42055C36.1487 2.87694 34.0867 0.814941 31.5431 0.814941C28.9995 0.814941 26.9375 2.87694 26.9375 5.42055C26.9375 7.96416 28.9995 10.0262 31.5431 10.0262Z" fill="#FEC93D"/>
<path fill-rule="evenodd" clip-rule="evenodd" d="M31.5377 1.62984C29.4442 1.62984 27.747 3.32699 27.747 5.42053C27.747 7.51407 29.4442 9.21122 31.5377 9.21122C33.6313 9.21122 35.3284 7.51407 35.3284 5.42053C35.3284 3.32699 33.6313 1.62984 31.5377 1.62984ZM26.1172 5.42053C26.1172 2.42685 28.544 0 31.5377 0C34.5314 0 36.9582 2.42685 36.9582 5.42053C36.9582 8.4142 34.5314 10.8411 31.5377 10.8411C28.544 10.8411 26.1172 8.4142 26.1172 5.42053Z" fill="#FEC93D"/>
<path fill-rule="evenodd" clip-rule="evenodd" d="M31.6899 9.57404C32.14 9.57404 32.5048 9.93889 32.5048 10.389V14.641C32.5048 15.0911 32.14 15.4559 31.6899 15.4559C31.2399 15.4559 30.875 15.0911 30.875 14.641V10.389C30.875 9.93889 31.2399 9.57404 31.6899 9.57404Z" fill="#FEC93D"/>
<path fill-rule="evenodd" clip-rule="evenodd" d="M58.233 17.463C56.1395 17.463 54.4423 19.1601 54.4423 21.2537C54.4423 23.3472 56.1395 25.0443 58.233 25.0443C60.3266 25.0443 62.0237 23.3472 62.0237 21.2537C62.0237 19.1601 60.3266 17.463 58.233 17.463ZM52.8125 21.2537C52.8125 18.26 55.2394 15.8331 58.233 15.8331C61.2267 15.8331 63.6536 18.26 63.6536 21.2537C63.6536 24.2473 61.2267 26.6742 58.233 26.6742C55.2394 26.6742 52.8125 24.2473 52.8125 21.2537Z" fill="#FEC93D"/>
<path d="M58.2306 25.8593C60.7742 25.8593 62.8362 23.7973 62.8362 21.2537C62.8362 18.7101 60.7742 16.6481 58.2306 16.6481C55.687 16.6481 53.625 18.7101 53.625 21.2537C53.625 23.7973 55.687 25.8593 58.2306 25.8593Z" fill="#FEC93D"/>
<path fill-rule="evenodd" clip-rule="evenodd" d="M54.8007 23.5542C55.0298 23.9416 54.9016 24.4414 54.5142 24.6705L50.855 26.8353C50.4676 27.0645 49.9678 26.9362 49.7387 26.5489C49.5095 26.1615 49.6378 25.6617 50.0251 25.4326L53.6844 23.2678C54.0717 23.0386 54.5715 23.1669 54.8007 23.5542Z" fill="#FEC93D"/>
<path d="M58.2306 56.7264C60.7742 56.7264 62.8362 54.6644 62.8362 52.1207C62.8362 49.5771 60.7742 47.5151 58.2306 47.5151C55.687 47.5151 53.625 49.5771 53.625 52.1207C53.625 54.6644 55.687 56.7264 58.2306 56.7264Z" fill="#FEC93D"/>
<path fill-rule="evenodd" clip-rule="evenodd" d="M58.233 48.33C56.1395 48.33 54.4423 50.0272 54.4423 52.1207C54.4423 54.2143 56.1395 55.9114 58.233 55.9114C60.3266 55.9114 62.0237 54.2143 62.0237 52.1207C62.0237 50.0272 60.3266 48.33 58.233 48.33ZM52.8125 52.1207C52.8125 49.127 55.2394 46.7002 58.233 46.7002C61.2267 46.7002 63.6536 49.127 63.6536 52.1207C63.6536 55.1144 61.2267 57.5412 58.233 57.5412C55.2394 57.5412 52.8125 55.1144 52.8125 52.1207Z" fill="#FEC93D"/>
<path fill-rule="evenodd" clip-rule="evenodd" d="M49.7387 46.8268C49.9678 46.4395 50.4676 46.3112 50.855 46.5404L54.5142 48.7052C54.9016 48.9343 55.0298 49.4341 54.8007 49.8215C54.5715 50.2088 54.0717 50.3371 53.6844 50.1079L50.0251 47.9431C49.6378 47.714 49.5095 47.2142 49.7387 46.8268Z" fill="#FEC93D"/>
<path d="M5.41811 56.7262C7.96172 56.7262 10.0237 54.6642 10.0237 52.1206C10.0237 49.577 7.96172 47.515 5.41811 47.515C2.8745 47.515 0.8125 49.577 0.8125 52.1206C0.8125 54.6642 2.8745 56.7262 5.41811 56.7262Z" fill="#FEC93D"/>
<path fill-rule="evenodd" clip-rule="evenodd" d="M5.42053 48.33C3.32699 48.33 1.62984 50.0271 1.62984 52.1207C1.62984 54.2142 3.32699 55.9114 5.42053 55.9114C7.51407 55.9114 9.21122 54.2142 9.21122 52.1207C9.21122 50.0271 7.51407 48.33 5.42053 48.33ZM0 52.1207C0 49.127 2.42685 46.7001 5.42053 46.7001C8.4142 46.7001 10.8411 49.127 10.8411 52.1207C10.8411 55.1143 8.4142 57.5412 5.42053 57.5412C2.42685 57.5412 0 55.1143 0 52.1207Z" fill="#FEC93D"/>
<path fill-rule="evenodd" clip-rule="evenodd" d="M13.91 46.8268C14.1392 47.2141 14.011 47.7139 13.6236 47.9431L9.96435 50.1079C9.57699 50.337 9.07721 50.2088 8.84805 49.8214C8.61889 49.434 8.74713 48.9343 9.13449 48.7051L12.7937 46.5403C13.1811 46.3111 13.6809 46.4394 13.91 46.8268Z" fill="#FEC93D"/>
<path d="M5.41811 25.7239C7.96172 25.7239 10.0237 23.6619 10.0237 21.1183C10.0237 18.5747 7.96172 16.5127 5.41811 16.5127C2.8745 16.5127 0.8125 18.5747 0.8125 21.1183C0.8125 23.6619 2.8745 25.7239 5.41811 25.7239Z" fill="#FEC93D"/>
<path fill-rule="evenodd" clip-rule="evenodd" d="M5.42053 17.3276C3.32699 17.3276 1.62984 19.0247 1.62984 21.1183C1.62984 23.2118 3.32699 24.909 5.42053 24.909C7.51407 24.909 9.21122 23.2118 9.21122 21.1183C9.21122 19.0247 7.51407 17.3276 5.42053 17.3276ZM0 21.1183C0 18.1246 2.42685 15.6978 5.42053 15.6978C8.4142 15.6978 10.8411 18.1246 10.8411 21.1183C10.8411 24.112 8.4142 26.5388 5.42053 26.5388C2.42685 26.5388 0 24.112 0 21.1183Z" fill="#FEC93D"/>
<path fill-rule="evenodd" clip-rule="evenodd" d="M8.84805 23.4176C9.07721 23.0302 9.57699 22.902 9.96435 23.1311L13.6236 25.2959C14.011 25.5251 14.1392 26.0249 13.91 26.4122C13.6809 26.7996 13.1811 26.9278 12.7937 26.6987L9.13449 24.5339C8.74713 24.3047 8.61889 23.8049 8.84805 23.4176Z" fill="#FEC93D"/>
<path fill-rule="evenodd" clip-rule="evenodd" d="M5.41648 27.7507C5.86655 27.7507 6.2314 28.1155 6.2314 28.5656V44.2002C6.2314 44.6503 5.86655 45.0151 5.41648 45.0151C4.96641 45.0151 4.60156 44.6503 4.60156 44.2002V28.5656C4.60156 28.1155 4.96641 27.7507 5.41648 27.7507Z" fill="#0F211E"/>
<path fill-rule="evenodd" clip-rule="evenodd" d="M25.0111 9.07399C25.2452 9.45841 25.1233 9.95978 24.7389 10.1938L12.2154 17.8186C11.831 18.0526 11.3296 17.9307 11.0955 17.5463C10.8615 17.1619 10.9834 16.6605 11.3678 16.4265L23.8913 8.80172C24.2757 8.56767 24.7771 8.68957 25.0111 9.07399Z" fill="#0F211E"/>
<path fill-rule="evenodd" clip-rule="evenodd" d="M38.244 9.07399C38.478 8.68957 38.9794 8.56767 39.3638 8.80172L51.8873 16.4265C52.2717 16.6605 52.3936 17.1619 52.1596 17.5463C51.9255 17.9307 51.4241 18.0526 51.0397 17.8186L38.5163 10.1938C38.1318 9.95978 38.0099 9.45841 38.244 9.07399Z" fill="#0F211E"/>
<path fill-rule="evenodd" clip-rule="evenodd" d="M11.0955 55.7571C11.3295 55.3726 11.8309 55.2507 12.2153 55.4847L24.7388 63.1082C25.1232 63.3422 25.2452 63.8436 25.0112 64.228C24.7771 64.6124 24.2758 64.7344 23.8913 64.5004L11.3679 56.8769C10.9834 56.6429 10.8615 56.1415 11.0955 55.7571Z" fill="#0F211E"/>
<path fill-rule="evenodd" clip-rule="evenodd" d="M52.1596 55.7571C52.3936 56.1415 52.2717 56.6429 51.8872 56.8769L39.3638 64.5004C38.9793 64.7344 38.478 64.6124 38.2439 64.228C38.0099 63.8436 38.1319 63.3422 38.5163 63.1082L51.0398 55.4847C51.4242 55.2507 51.9256 55.3726 52.1596 55.7571Z" fill="#0F211E"/>
<path fill-rule="evenodd" clip-rule="evenodd" d="M58.2368 27.7507C58.6869 27.7507 59.0517 28.1155 59.0517 28.5656V44.2002C59.0517 44.6503 58.6869 45.0151 58.2368 45.0151C57.7867 45.0151 57.4219 44.6503 57.4219 44.2002V28.5656C57.4219 28.1155 57.7867 27.7507 58.2368 27.7507Z" fill="#0F211E"/>
</svg>
