<svg width="100" height="107" viewBox="0 0 100 107" fill="none" xmlns="http://www.w3.org/2000/svg">
<path fill-rule="evenodd" clip-rule="evenodd" d="M49.3863 0H49.6137C51.5789 0 53.2163 9.77239e-08 54.5148 0.174884C55.8876 0.358512 57.1271 0.765116 58.1218 1.75977C59.1186 2.7566 59.5252 3.99609 59.7088 5.36674C59.84 6.3286 59.8728 7.47409 59.8815 8.79884C61.2981 8.84474 62.5616 8.93 63.6853 9.07865C66.2473 9.42405 68.3219 10.1498 69.9592 11.785C71.5944 13.4223 72.3201 15.4969 72.6655 18.0589C73 20.551 73 23.7317 73 27.7497V27.9945C73 32.0125 73 35.1954 72.6655 37.6853C72.3201 40.2473 71.5944 42.3219 69.9592 43.9592C68.3219 45.5944 66.2473 46.3201 63.6853 46.6655C61.1932 47 58.0125 47 53.9945 47H45.0055C40.9875 47 37.8047 47 35.3147 46.6655C32.7527 46.3201 30.6781 45.5944 29.0408 43.9592C27.4056 42.3219 26.6799 40.2473 26.3345 37.6853C26 35.1932 26 32.0125 26 27.9945V27.7497C26 23.7317 26 20.5488 26.3345 18.0589C26.6799 15.4969 27.4056 13.4223 29.0408 11.785C30.6781 10.1498 32.7527 9.42405 35.3147 9.07865C36.5772 8.92234 37.8467 8.82895 39.1185 8.79884C39.1272 7.47409 39.1622 6.3286 39.2912 5.36674C39.4748 3.99609 39.8814 2.7566 40.876 1.75977C41.8729 0.765116 43.1124 0.360698 44.483 0.174884C45.7837 9.77239e-08 47.4233 0 49.3863 0ZM42.3997 8.74856C43.226 8.74419 44.0939 8.74419 45.0055 8.74419H53.9945C54.9061 8.74419 55.774 8.74419 56.6003 8.74856C56.5915 7.50251 56.5609 6.56251 56.4604 5.80395C56.3227 4.79619 56.0887 4.36335 55.8046 4.07916C55.5204 3.79498 55.0875 3.56107 54.0776 3.42335C53.0239 3.28344 51.6073 3.27907 49.5 3.27907C47.3927 3.27907 45.9761 3.28344 44.9202 3.42553C43.9125 3.56107 43.4796 3.79498 43.1954 4.08135C42.9113 4.36554 42.6773 4.79619 42.5396 5.80395C42.4391 6.56033 42.4085 7.50033 42.3997 8.74856ZM35.7498 12.3293C33.5506 12.6244 32.2827 13.1797 31.3558 14.1044C30.4333 15.0291 29.878 16.297 29.5829 18.4961C29.2813 20.7412 29.2769 23.7033 29.2769 27.8721C29.2769 32.0409 29.2813 35.003 29.5829 37.2502C29.878 39.4472 30.4333 40.7151 31.358 41.6398C32.2827 42.5645 33.5506 43.1198 35.7498 43.4149C37.997 43.7166 40.9569 43.7209 45.1257 43.7209H53.8699C58.0387 43.7209 61.0008 43.7166 63.248 43.4149C65.445 43.1198 66.7129 42.5645 67.6376 41.6398C68.5623 40.7151 69.1176 39.4472 69.4127 37.248C69.7144 35.003 69.7187 32.0409 69.7187 27.8721C69.7187 23.7033 69.7144 20.7434 69.4127 18.494C69.1176 16.297 68.5623 15.0291 67.6376 14.1044C66.7129 13.1797 65.445 12.6244 63.2459 12.3293C61.0008 12.0276 58.0387 12.0233 53.8699 12.0233H45.1257C40.9569 12.0233 37.9992 12.0276 35.7498 12.3293ZM49.5 17.4884C49.9348 17.4884 50.3519 17.6611 50.6593 17.9686C50.9668 18.2761 51.1395 18.6931 51.1395 19.1279V19.1498C53.5201 19.7487 55.5116 21.6266 55.5116 24.228C55.5116 24.6628 55.3389 25.0798 55.0314 25.3873C54.7239 25.6948 54.3069 25.8675 53.8721 25.8675C53.4373 25.8675 53.0202 25.6948 52.7128 25.3873C52.4053 25.0798 52.2326 24.6628 52.2326 24.228C52.2326 23.3885 51.3013 22.2255 49.5 22.2255C47.6987 22.2255 46.7674 23.3885 46.7674 24.228C46.7674 25.0674 47.6987 26.2326 49.5 26.2326C52.5277 26.2326 55.5116 28.3312 55.5116 31.5162C55.5116 34.1176 53.5201 35.9933 51.1395 36.5944V36.6163C51.1395 37.0511 50.9668 37.4681 50.6593 37.7756C50.3519 38.0831 49.9348 38.2558 49.5 38.2558C49.0652 38.2558 48.6481 38.0831 48.3407 37.7756C48.0332 37.4681 47.8605 37.0511 47.8605 36.6163V36.5944C45.4799 35.9954 43.4884 34.1176 43.4884 31.5162C43.4884 31.0814 43.6611 30.6644 43.9686 30.3569C44.2761 30.0494 44.6931 29.8767 45.1279 29.8767C45.5627 29.8767 45.9798 30.0494 46.2872 30.3569C46.5947 30.6644 46.7674 31.0814 46.7674 31.5162C46.7674 32.3557 47.6987 33.5187 49.5 33.5187C51.3013 33.5187 52.2326 32.3557 52.2326 31.5162C52.2326 30.6768 51.3013 29.5116 49.5 29.5116C46.4723 29.5116 43.4884 27.413 43.4884 24.228C43.4884 21.6266 45.4799 19.7487 47.8605 19.1498V19.1279C47.8605 18.6931 48.0332 18.2761 48.3407 17.9686C48.6481 17.6611 49.0652 17.4884 49.5 17.4884Z" fill="#FEC93D"/>
<path d="M16.6673 48.9543C16.6673 50.2237 16.1522 51.4411 15.2352 52.3387C14.3182 53.2363 13.0746 53.7406 11.7778 53.7406C10.481 53.7406 9.23732 53.2363 8.32035 52.3387C7.40338 51.4411 6.88824 50.2237 6.88824 48.9543C6.88824 47.6849 7.40338 46.4675 8.32035 45.5698C9.23732 44.6722 10.481 44.168 11.7778 44.168C13.0746 44.168 14.3182 44.6722 15.2352 45.5698C16.1522 46.4675 16.6673 47.6849 16.6673 48.9543ZM2 66.9738C2.0419 64.4624 3.09048 62.0677 4.91961 60.3062C6.74874 58.5447 9.21186 57.5575 11.7778 57.5575C14.3437 57.5575 16.8068 58.5447 18.6359 60.3062C20.4651 62.0677 21.5137 64.4624 21.5556 66.9738C18.488 68.3507 15.1524 69.0613 11.7778 69.0568C8.2886 69.0568 4.97675 68.3114 2 66.9738Z" stroke="black" stroke-width="3" stroke-linecap="round" stroke-linejoin="round"/>
<path d="M93.1117 48.9543C93.1117 50.2237 92.5965 51.4411 91.6795 52.3387C90.7626 53.2363 89.5189 53.7406 88.2221 53.7406C86.9253 53.7406 85.6817 53.2363 84.7647 52.3387C83.8477 51.4411 83.3326 50.2237 83.3326 48.9543C83.3326 47.6849 83.8477 46.4675 84.7647 45.5698C85.6817 44.6722 86.9253 44.168 88.2221 44.168C89.5189 44.168 90.7626 44.6722 91.6795 45.5698C92.5965 46.4675 93.1117 47.6849 93.1117 48.9543ZM78.4443 66.9738C78.4862 64.4624 79.5348 62.0677 81.3639 60.3062C83.1931 58.5447 85.6562 57.5575 88.2221 57.5575C90.788 57.5575 93.2511 58.5447 95.0803 60.3062C96.9094 62.0677 97.958 64.4624 97.9999 66.9738C94.9324 68.3507 91.5967 69.0613 88.2221 69.0568C84.7329 69.0568 81.4211 68.3114 78.4443 66.9738Z" stroke="black" stroke-width="3" stroke-linecap="round" stroke-linejoin="round"/>
<path d="M54.8893 80.2016C54.8893 81.743 54.2805 83.2213 53.1968 84.3113C52.1131 85.4012 50.6433 86.0136 49.1107 86.0136C47.5782 86.0136 46.1084 85.4012 45.0247 84.3113C43.941 83.2213 43.3322 81.743 43.3322 80.2016C43.3322 78.6602 43.941 77.1819 45.0247 76.0919C46.1084 75.002 47.5782 74.3896 49.1107 74.3896C50.6433 74.3896 52.1131 75.002 53.1968 76.0919C54.2805 77.1819 54.8893 78.6602 54.8893 80.2016ZM37.5552 102.082C37.6047 99.0329 38.8439 96.1251 41.0056 93.9861C43.1673 91.8471 46.0783 90.6484 49.1107 90.6484C52.1432 90.6484 55.0541 91.8471 57.2158 93.9861C59.3775 96.1251 60.6168 99.0329 60.6663 102.082C57.041 103.754 53.0989 104.617 49.1107 104.612C44.9872 104.612 41.0732 103.707 37.5552 102.082Z" stroke="black" stroke-width="3" stroke-linecap="round" stroke-linejoin="round"/>
<path d="M28.6665 61.0554L35.7776 53.9443M65.9998 53.9443L73.1109 61.0554M49.9998 66.3888V54.8332" stroke="black" stroke-width="3" stroke-linecap="round"/>
</svg>
