<svg width="40" height="40" viewBox="0 0 40 40" fill="none" xmlns="http://www.w3.org/2000/svg">
<rect width="40" height="40" rx="20" fill="#FEC93D"/>
<path d="M18.1258 8.07969C16.457 8.375 14.9617 9.55625 14.3242 11.0844C14.057 11.7359 13.9492 12.2562 13.9211 13.0766C13.893 13.7844 13.8883 13.8219 13.7898 13.8594C13.6117 13.925 13.382 14.1547 13.293 14.3516C13.1758 14.6094 13.1617 16.1094 13.2742 16.3812C13.443 16.775 13.743 16.9531 14.2445 16.9531H14.5914L14.643 17.5766C14.7461 18.7484 15.1867 19.7328 15.9414 20.4688L16.157 20.675V21.6641L16.1523 22.6484L14.1508 23.5109C13.0492 23.9844 11.868 24.5094 11.5211 24.6734C10.9211 24.9594 10.8695 24.9969 10.4383 25.4281C10.0727 25.7984 9.94609 25.9625 9.77266 26.3047C9.34609 27.1391 9.34609 27.1297 9.32266 29.5953L9.30859 31.7609L9.42578 31.8828C9.56641 32.0234 9.73047 32.0328 9.88047 31.9109L9.99297 31.8219L10.0164 29.6703C10.0445 27.5891 10.0445 27.5141 10.1523 27.1953C10.3727 26.5156 10.818 25.9109 11.357 25.5547C11.5539 25.4234 14.1133 24.2656 14.7367 24.0266C14.8258 23.9937 14.8586 24.0266 15.0367 24.3266C15.1445 24.5141 15.2711 24.6875 15.3086 24.7203C15.4867 24.8562 15.7914 24.7437 15.8477 24.5187C15.8711 24.4297 15.8336 24.3125 15.6883 24.05L15.4961 23.7031L15.857 23.5391C16.0586 23.4453 16.2367 23.3797 16.2508 23.3844C16.3211 23.4125 18.543 25.1328 18.5477 25.1609C18.5477 25.1844 17.9992 25.6859 17.207 26.3844C17.1086 26.4734 17.1086 26.4688 16.7523 25.8641C16.3961 25.2594 16.3023 25.1562 16.1102 25.1562C15.9789 25.1562 15.782 25.3578 15.782 25.4937C15.782 25.6016 16.6164 27.0734 16.7805 27.2516C16.8414 27.3219 16.9305 27.3594 17.0289 27.3594C17.1555 27.3594 17.282 27.2656 17.8539 26.7547C18.2195 26.4219 18.5336 26.1687 18.5383 26.1922C18.5477 26.2203 18.318 27.4625 18.032 28.9578C17.4648 31.8828 17.4695 31.8453 17.7227 31.9578C17.8727 32.0281 18.0602 31.9766 18.1445 31.8453C18.182 31.7891 18.393 30.7906 18.618 29.6328C19.0867 27.2 19.1195 27.0406 19.1383 27.1016C19.1477 27.125 19.3539 28.1937 19.6023 29.4688C20.0148 31.6203 20.057 31.7984 20.1695 31.8922C20.357 32.0609 20.568 32.0281 20.6805 31.8125C20.7414 31.6953 20.7039 31.4656 20.2352 29.0187C19.9492 27.5516 19.7055 26.3 19.6914 26.2391L19.668 26.1219L19.8086 26.2391C19.8836 26.3 20.2023 26.5766 20.5117 26.8531C20.9945 27.2844 21.1023 27.3594 21.2336 27.3594C21.3273 27.3594 21.4211 27.3266 21.4633 27.275C21.5055 27.2328 21.9414 26.4969 22.4383 25.6484C22.9352 24.7953 23.3664 24.0734 23.3992 24.0359C23.4555 23.9797 23.6758 24.0641 24.8617 24.5703C25.6305 24.8984 26.3992 25.2406 26.5727 25.325C26.9523 25.5172 27.3789 25.8641 27.5852 26.1594L27.7398 26.375H25.7758C24.1258 26.375 23.7742 26.3844 23.6055 26.4453C23.3617 26.5344 23.1695 26.7031 23.0336 26.9609C22.9305 27.1437 22.9305 27.1906 22.9305 29.1172C22.9305 30.2 22.9445 31.1609 22.968 31.2547C23.0148 31.475 23.3008 31.8031 23.5352 31.9109C23.718 31.9906 23.9148 32 26.8023 32H29.8727L30.1305 31.8687C30.318 31.775 30.4164 31.6859 30.5242 31.5125L30.6648 31.2828V29.1922V27.1016L30.5336 26.8812C30.4492 26.7359 30.3273 26.6141 30.182 26.5297C29.9711 26.4031 29.9289 26.3984 29.2586 26.3797L28.5555 26.3656L28.2977 25.9672C28.0117 25.5266 27.6273 25.1422 27.1961 24.8656C27.0414 24.7672 25.8227 24.2187 24.4914 23.6469L22.0633 22.6109V21.6641V20.7219L22.232 20.5578C22.3258 20.4734 22.4992 20.2719 22.6211 20.1172C23.2445 19.325 23.5445 18.5281 23.6055 17.4922L23.6336 16.9766L24.0367 16.9531C24.543 16.9203 24.7586 16.7984 24.9414 16.4328C25.0586 16.1937 25.0633 16.1516 25.0633 15.4062C25.0633 14.9469 25.0398 14.5578 25.0117 14.4641C24.932 14.225 24.7539 14.0094 24.5523 13.9062L24.3742 13.8172L24.3414 13.1469C24.3273 12.7766 24.2711 12.2844 24.2242 12.0547C23.793 9.97344 22.0492 8.34687 19.9352 8.05156C19.4383 7.98125 18.6039 7.99531 18.1258 8.07969ZM20.0055 8.77812C20.7133 8.90937 21.182 9.10625 21.768 9.50937C22.1336 9.7625 22.6117 10.2406 22.8602 10.6016C23.0711 10.9062 23.4039 11.6234 23.4883 11.9656C23.5773 12.3172 23.657 13.0203 23.6523 13.4609C23.6523 13.8125 23.6289 13.7984 23.4977 13.3297C23.3289 12.7531 22.7664 12.1578 22.1758 11.9375C21.9555 11.8578 21.8852 11.8484 21.7773 11.8906C21.5992 11.9656 21.5102 12.1906 21.5992 12.35C21.6695 12.4766 21.6977 12.4953 22.0305 12.6453C22.3117 12.7719 22.6258 13.0812 22.7711 13.3766L22.8836 13.6016V15.7812C22.8836 18.2281 22.8836 18.2141 22.5273 18.9547C21.8992 20.2625 20.5961 21.0781 19.1383 21.0781C18.2852 21.0781 17.643 20.8812 16.968 20.4125C16.082 19.7984 15.4961 18.8328 15.3648 17.75C15.2945 17.2203 15.2992 14.2391 15.3648 13.8828C15.5102 13.0953 16.1242 12.575 16.907 12.5703C17.2305 12.5703 17.3055 12.5891 17.8445 12.8234C18.6414 13.1656 19.1055 13.2453 19.7195 13.1422C20.2164 13.0578 20.7414 12.8234 20.8305 12.6453C20.8961 12.5094 20.8305 12.2844 20.7039 12.2188C20.568 12.1484 20.4555 12.1625 20.1695 12.2891C19.5648 12.5562 18.9977 12.5422 18.2805 12.2422C17.5633 11.9422 17.3617 11.8812 17.043 11.8531C16.0305 11.7781 15.0133 12.5 14.7273 13.4937C14.6852 13.6437 14.6383 13.7656 14.6242 13.7656C14.6102 13.7656 14.6102 13.4656 14.6195 13.0953C14.6711 11.7641 15.0836 10.7984 15.9742 9.94062C16.4805 9.45781 16.8789 9.20937 17.5539 8.95625C18.2008 8.70781 19.2508 8.63281 20.0055 8.77812ZM14.6102 15.3594V16.25H14.3148C14.1461 16.25 13.9961 16.2266 13.9633 16.1937C13.9258 16.1562 13.907 15.9078 13.907 15.3781C13.907 14.6422 13.9117 14.6141 14.0102 14.5437C14.0758 14.4969 14.2164 14.4688 14.3617 14.4688H14.6102V15.3594ZM24.2664 14.5625C24.3508 14.6469 24.3602 14.7172 24.3602 15.3687C24.3602 16.2359 24.3508 16.25 23.9055 16.25H23.6102V15.3594V14.4688H23.8914C24.1117 14.4688 24.1914 14.4875 24.2664 14.5625ZM17.2445 21.3828C17.9242 21.6922 18.243 21.7578 19.1336 21.7578C20.0242 21.7578 20.343 21.6922 21.0133 21.3828L21.3602 21.2234V22.1047V22.9859L20.3008 23.8016C19.7148 24.2516 19.2086 24.6359 19.1711 24.6547C19.1289 24.6828 18.768 24.4297 18.0133 23.8438C17.0945 23.1312 16.9117 22.9719 16.8883 22.85C16.8602 22.7 16.8461 21.2188 16.8789 21.2188C16.8883 21.2188 17.0523 21.2937 17.2445 21.3828ZM22.4055 23.5156C22.5883 23.5953 22.7477 23.6656 22.757 23.675C22.7664 23.6891 21.2055 26.3891 21.1492 26.4594C21.1305 26.4781 19.7195 25.2125 19.7148 25.1703C19.7055 25.1375 21.9742 23.3797 22.0305 23.375C22.0492 23.375 22.218 23.4406 22.4055 23.5156ZM29.8633 27.1766L29.9852 27.2703V29.1828C29.9852 31.0391 29.9805 31.0953 29.8914 31.1937L29.793 31.2969H26.8305C24.2242 31.2969 23.8539 31.2875 23.7602 31.2219L23.657 31.1516V29.1875V27.2234L23.7602 27.1531C23.8539 27.0875 24.2195 27.0781 26.8023 27.0781C29.6992 27.0781 29.7414 27.0781 29.8633 27.1766Z" fill="white"/>
<path d="M24.5188 27.7437C24.3313 27.8328 24.3125 27.964 24.3125 29.2109C24.3125 30.4719 24.3313 30.589 24.5328 30.6828C24.6922 30.7578 24.7531 30.7484 24.8938 30.6359C25.0109 30.5422 25.0156 30.5234 25.0156 30.0265V29.5156H25.4844H25.9531V30.0265C25.9531 30.5234 25.9578 30.5422 26.075 30.6359C26.2156 30.7484 26.2766 30.7578 26.4359 30.6828C26.6375 30.589 26.6562 30.4719 26.6562 29.2062C26.6562 27.8703 26.6375 27.7672 26.3703 27.7109C26.2625 27.6875 26.1922 27.7015 26.0984 27.7672C25.9813 27.8562 25.9766 27.8844 25.9625 28.339L25.9484 28.8125H25.4844H25.0156V28.3484C25.0156 27.8984 25.0109 27.8797 24.8938 27.7859C24.7578 27.6781 24.6688 27.6687 24.5188 27.7437Z" fill="white"/>
<path d="M27.4766 27.8047L27.3594 27.9172V29.2109V30.5047L27.4766 30.6172C27.6125 30.7578 27.7766 30.7672 27.9266 30.6453C28.0203 30.5703 28.0438 30.5 28.0625 30.2281L28.0859 29.9L28.4281 30.2937C28.6156 30.5093 28.8172 30.6968 28.8781 30.7156C29.1219 30.7765 29.3703 30.5328 29.3094 30.289C29.2953 30.2375 29.1547 30.05 29 29.8765L28.7141 29.5531L28.8969 29.4218C29.4031 29.0562 29.4594 28.4234 29.0281 27.9922C28.7891 27.7531 28.5688 27.6875 28.0203 27.6875C27.6266 27.6875 27.5797 27.6968 27.4766 27.8047ZM28.5312 28.4843C28.5828 28.5359 28.625 28.6109 28.625 28.6484C28.625 28.7843 28.4469 28.9062 28.25 28.9062H28.0625V28.6484V28.3906H28.25C28.3766 28.3906 28.4703 28.4234 28.5312 28.4843Z" fill="white"/>
<path d="M13.3438 28.8922C13.3063 28.9063 13.2359 28.9485 13.1938 28.9907C13.1188 29.0563 13.1094 29.1875 13.1094 30.4344C13.1094 31.7891 13.1094 31.8125 13.2125 31.9063C13.4188 32.0985 13.7328 31.9672 13.7891 31.6625C13.8078 31.5782 13.8125 30.9641 13.8031 30.3032C13.7891 29.1688 13.7844 29.0891 13.6953 29.0047C13.5875 28.9016 13.4469 28.8547 13.3438 28.8922Z" fill="white"/>
</svg>
