<svg width="35" height="38" viewBox="0 0 35 38" fill="none" xmlns="http://www.w3.org/2000/svg">
<path d="M13.3105 17.2978C14.6081 17.2978 15.6601 16.2458 15.6601 14.9482C15.6601 13.6506 14.6081 12.5986 13.3105 12.5986C12.0129 12.5986 10.9609 13.6506 10.9609 14.9482C10.9609 16.2458 12.0129 17.2978 13.3105 17.2978Z" fill="#FEC93D"/>
<path d="M21.1464 17.2978C22.4441 17.2978 23.496 16.2458 23.496 14.9482C23.496 13.6506 22.4441 12.5986 21.1464 12.5986C19.8488 12.5986 18.7969 13.6506 18.7969 14.9482C18.7969 16.2458 19.8488 17.2978 21.1464 17.2978Z" fill="#FEC93D"/>
<path d="M21.1444 21.2129C21.1444 22.2515 20.7318 23.2475 19.9974 23.9819C19.263 24.7163 18.267 25.1288 17.2284 25.1288C16.1899 25.1288 15.1938 24.7163 14.4594 23.9819C13.7251 23.2475 13.3125 22.2515 13.3125 21.2129H21.1444Z" fill="#FEC93D"/>
<path d="M32.0245 36.0936C31.8089 34.0533 31.1737 32.0795 30.1589 30.2964C29.144 28.5133 27.7713 26.9593 26.1271 25.7321C27.8178 23.7944 28.8201 21.3519 28.9779 18.7852C29.8581 18.612 30.6522 18.1419 31.2273 17.4534C31.8024 16.765 32.1237 15.8999 32.1374 15.003C32.1512 14.106 31.8566 13.2315 31.3028 12.5258C30.7491 11.82 29.9699 11.3257 29.0954 11.1256L32.7059 5.25957C33.157 4.77166 33.4413 4.15292 33.5177 3.4928C33.5941 2.83268 33.4586 2.16537 33.1307 1.58733C32.8029 1.0093 32.2998 0.550467 31.6941 0.277179C31.0883 0.0038921 30.4114 -0.069696 29.7611 0.0670422H17.2301C14.2328 0.0616424 11.3467 1.20213 9.16276 3.25505C6.9788 5.30796 5.66214 8.11803 5.48231 11.11C4.59708 11.2897 3.80122 11.77 3.22957 12.4694C2.65792 13.1688 2.34563 14.0443 2.34563 14.9476C2.34563 15.8509 2.65792 16.7264 3.22957 17.4258C3.80122 18.1252 4.59708 18.6054 5.48231 18.7852C5.62909 21.3472 6.61743 23.7892 8.29394 25.7321C6.65696 26.963 5.29172 28.5187 4.28369 30.3016C3.27565 32.0845 2.64653 34.0563 2.43571 36.0936H0V37.66H34.4602V36.0936H32.0245ZM3.91593 14.9476C3.91568 14.4615 4.06619 13.9873 4.34672 13.5903C4.62726 13.1934 5.02402 12.8932 5.48231 12.7312V17.164C5.02402 17.002 4.62726 16.7018 4.34672 16.3048C4.06619 15.9079 3.91568 15.4337 3.91593 14.9476ZM7.04868 11.8148C7.04868 9.11456 8.12137 6.52488 10.0308 4.61549C11.9401 2.7061 14.5298 1.63342 17.2301 1.63342H29.7611C30.1214 1.52182 30.5092 1.53748 30.8594 1.67779C31.2095 1.81809 31.5008 2.07451 31.6844 2.40405C31.868 2.7336 31.9327 3.11624 31.8677 3.48783C31.8028 3.85942 31.612 4.19738 31.3275 4.44505L27.4115 10.8124V12.598H28.1947C28.8179 12.598 29.4155 12.8456 29.8561 13.2862C30.2967 13.7268 30.5443 14.3244 30.5443 14.9476C30.5443 15.5707 30.2967 16.1684 29.8561 16.609C29.4155 17.0496 28.8179 17.2971 28.1947 17.2971H27.4115V18.0803C27.4115 20.7806 26.3388 23.3703 24.4295 25.2797C22.5201 27.1891 19.9304 28.2618 17.2301 28.2618C14.5298 28.2618 11.9401 27.1891 10.0308 25.2797C8.12137 23.3703 7.04868 20.7806 7.04868 18.0803V11.8148ZM4.00991 36.0936C4.22782 34.2613 4.82421 32.4944 5.76123 30.9048C6.69825 29.3152 7.95546 27.9378 9.45307 26.8599C11.5922 28.772 14.3609 29.8291 17.2301 29.8291C20.0993 29.8291 22.868 28.772 25.0071 26.8599C26.5047 27.9378 27.762 29.3152 28.699 30.9048C29.636 32.4944 30.2324 34.2613 30.4503 36.0936H4.00991Z" fill="#0F211E"/>
</svg>
