<svg width="36" height="45" viewBox="0 0 36 45" fill="none" xmlns="http://www.w3.org/2000/svg">
<path d="M14.1582 17.3262C15.458 17.3262 16.5118 16.2725 16.5118 14.9727C16.5118 13.6729 15.458 12.6191 14.1582 12.6191C12.8584 12.6191 11.8047 13.6729 11.8047 14.9727C11.8047 16.2725 12.8584 17.3262 14.1582 17.3262Z" fill="#19A147"/>
<path d="M22.002 17.3262C23.3018 17.3262 24.3555 16.2725 24.3555 14.9727C24.3555 13.6729 23.3018 12.6191 22.002 12.6191C20.7021 12.6191 19.6484 13.6729 19.6484 14.9727C19.6484 16.2725 20.7021 17.3262 22.002 17.3262Z" fill="#19A147"/>
<path d="M22.0014 21.249C22.0014 22.2893 21.5881 23.2871 20.8525 24.0227C20.1168 24.7583 19.1191 25.1716 18.0788 25.1716C17.0385 25.1716 16.0408 24.7583 15.3051 24.0227C14.5695 23.2871 14.1563 22.2893 14.1562 21.249H22.0014Z" fill="#19A147"/>
<path d="M32.899 36.1547C32.683 34.1108 32.0468 32.1338 31.0302 30.3476C30.0136 28.5615 28.6386 27.0049 26.9916 25.7756C28.6852 23.8346 29.6892 21.388 29.8472 18.817C30.7289 18.6435 31.5243 18.1726 32.1004 17.483C32.6765 16.7933 32.9983 15.9268 33.0121 15.0283C33.0259 14.1299 32.7308 13.2539 32.1761 12.5469C31.6214 11.84 30.8408 11.3449 29.9649 11.1444L33.5815 5.26847C34.0334 4.77973 34.3182 4.15994 34.3947 3.49871C34.4712 2.83747 34.3354 2.16903 34.0071 1.59002C33.6787 1.011 33.1747 0.551397 32.568 0.277648C31.9612 0.00389868 31.2831 -0.0698139 30.6317 0.0671556H18.0796C15.0771 0.0617466 12.1862 1.20417 9.99856 3.26055C7.81092 5.31694 6.49203 8.13175 6.31189 11.1288C5.42516 11.3088 4.62796 11.7899 4.05534 12.4905C3.48273 13.191 3.16991 14.068 3.16991 14.9729C3.16991 15.8777 3.48273 16.7547 4.05534 17.4553C4.62796 18.1558 5.42516 18.6369 6.31189 18.817C6.45892 21.3833 7.44893 23.8294 9.12828 25.7756C7.48853 27.0086 6.12098 28.5669 5.11124 30.3528C4.1015 32.1388 3.47132 34.1139 3.26014 36.1547H0.820312V37.7237H35.3388V36.1547H32.899ZM4.74287 14.9729C4.74261 14.486 4.89337 14.0109 5.17439 13.6133C5.4554 13.2157 5.85283 12.915 6.31189 12.7527V17.193C5.85283 17.0307 5.4554 16.73 5.17439 16.3324C4.89337 15.9348 4.74261 15.4598 4.74287 14.9729ZM7.88091 11.8348C7.88091 9.12997 8.95541 6.53591 10.868 4.62329C12.7806 2.71068 15.3747 1.63618 18.0796 1.63618H30.6317C30.9927 1.52439 31.3811 1.54008 31.7319 1.68062C32.0826 1.82117 32.3744 2.07802 32.5583 2.40812C32.7422 2.73822 32.807 3.12151 32.7419 3.49373C32.6768 3.86595 32.4858 4.20448 32.2007 4.45257L28.2782 10.8306V12.6193H29.0627C29.6869 12.6193 30.2855 12.8673 30.7269 13.3087C31.1683 13.75 31.4162 14.3487 31.4162 14.9729C31.4162 15.5971 31.1683 16.1957 30.7269 16.6371C30.2855 17.0784 29.6869 17.3264 29.0627 17.3264H28.2782V18.1109C28.2782 20.8158 27.2037 23.4098 25.2911 25.3224C23.3785 27.235 20.7844 28.3095 18.0796 28.3095C15.3747 28.3095 12.7806 27.235 10.868 25.3224C8.95541 23.4098 7.88091 20.8158 7.88091 18.1109V11.8348ZM4.837 36.1547C5.05528 34.3193 5.65268 32.5493 6.59128 30.957C7.52989 29.3648 8.78923 27.985 10.2894 26.9053C12.4321 28.8207 15.2055 29.8795 18.0796 29.8795C20.9536 29.8795 23.727 28.8207 25.8697 26.9053C27.3699 27.985 28.6292 29.3648 29.5678 30.957C30.5064 32.5493 31.1038 34.3193 31.3221 36.1547H4.837Z" fill="#0F211E"/>
<rect x="15.7266" y="36.1553" width="4.70706" height="2.35353" fill="white"/>
<path d="M17.0373 33.0562L14.9453 41.1759L18.0834 44.0001L21.2214 41.1759L19.1294 33.0562M17.0373 33.0562H19.1294M17.0373 33.0562L15.9913 30.585L17.0373 29.8789H19.1294L20.1754 30.585L19.1294 33.0562" stroke="#0F211E" stroke-width="1.3" stroke-linecap="round" stroke-linejoin="round"/>
</svg>
