<svg width="46" height="63" viewBox="0 0 46 63" fill="none" xmlns="http://www.w3.org/2000/svg">
<path d="M14.7585 56.5439C13.6146 56.5439 12.9575 56.5699 10.923 56.0214C8.49174 55.3659 6.9436 53.9022 6.053 51.5914C5.27065 49.5616 5.27065 47.4083 6.14987 44.3562C6.13424 44.1925 6.10179 44.0309 6.053 43.8737C4.66898 43.8737 3.25728 43.8919 1.85019 43.8737C0.40159 43.8509 0.0786563 43.2842 0.786811 42.0097C2.3099 39.0644 3.38653 36.6419 4.73233 33.412C3.24682 31.1262 3.70729 30.1834 4.19401 27.7597C4.6738 26.4487 4.69435 25.1177 3.80166 23.8477C2.58373 22.1066 2.9205 20.2244 4.20071 18.5561C5.51784 16.8378 7.33551 15.7567 9.31465 14.9852C10.9522 14.3374 12.638 13.8154 14.3571 13.4239C15.3213 13.2076 15.5704 12.7411 15.8449 11.9058C16.62 9.57523 17.4804 7.26742 18.4376 5.00514C18.7813 4.19263 19.4387 3.47571 20.0638 2.81796C22.6012 0.166485 25.6876 0.18469 28.1834 2.87941C30.3425 5.21452 31.5097 8.08221 32.1371 11.1069C32.4646 12.6842 33.1359 13.2714 34.6929 13.6515C36.7943 14.1613 38.8449 15.0329 40.7849 15.9752C41.9032 16.5635 42.8999 17.3532 43.7236 18.3035C45.4721 20.2221 45.5136 22.2818 44.1227 24.4667C43.892 24.84 43.6613 25.3771 43.7513 25.7822C44.637 30.1316 43.8597 34.3102 42.4826 38.4228C40.921 43.0931 38.6443 47.4264 36.0239 51.5914C35.699 52.1341 35.5211 52.7502 35.5072 53.3803C35.4541 55.9954 35.5071 58.615 35.491 61.2278C35.491 62.5501 35.288 62.7481 33.9363 62.7504C28.0196 62.7504 22.103 62.7344 16.1863 62.7504C15.1298 62.7504 14.7446 62.3134 14.7585 61.3143C14.7792 59.1954 14.7585 58.9222 14.7585 56.5439ZM16.6961 56.4346C16.885 56.4861 17.0779 56.5226 17.2727 56.5439C22.3844 56.5439 27.496 56.5302 32.6076 56.5439C33.498 56.5439 33.5465 56.0318 33.4657 55.4378C33.1243 52.9342 33.8002 50.7357 35.3988 48.7829C35.6226 48.4749 35.8201 48.1491 35.9893 47.8088C38.8726 42.8017 41.2531 37.5875 42.0097 31.8135C42.2404 30.0974 42.0443 28.3245 42.0443 26.7882C39.2348 27.7464 36.619 28.7023 33.9571 29.5057C33.0828 29.772 32.6422 30.0906 32.4462 31.0055C31.7934 34.0712 30.79 37.0186 28.7785 39.5107C26.0105 42.9406 22.472 42.9633 19.6556 39.5881C18.0013 37.6205 16.8792 35.2715 16.3939 32.7603C15.9718 30.5298 15.0099 29.5216 12.7032 29.0846C10.5695 28.6772 8.5742 27.5688 6.35978 26.7085C5.80897 27.7597 5.81053 27.7597 5.53981 28.964C5.32649 29.9129 4.774 30.9014 5.53981 31.7971C6.60395 33.412 6.34728 33.6812 6.14987 34.7578C5.00149 37.1802 4.91226 37.4146 3.80166 39.8718C3.66557 40.1154 3.00507 41.4999 2.84821 41.8936C4.1538 41.8936 5.68623 41.8936 6.83266 41.8936C8.07135 41.905 8.34815 42.1758 8.25588 43.3844C8.0529 46.07 7.15476 46.87 7.42392 49.8307C7.69308 51.984 9.06336 53.3298 10.3847 53.8681C11.3625 54.2665 11.9996 54.4064 12.7032 54.4858C14.4112 54.6784 14.8621 54.4858 15.4987 54.4858C15.9767 54.4858 16.6961 54.2166 16.6961 54.9448C16.6961 55.6729 16.6961 55.2216 16.6961 56.4346ZM24.2159 28.964C26.022 28.8343 27.9735 28.6818 29.9273 28.5589C30.6723 28.5111 31.0437 28.2744 31.1498 27.4346C31.6165 23.5513 31.6219 19.6275 31.166 15.743C31.0783 14.9374 30.7623 14.6529 29.9849 14.5732C26.0845 14.1499 22.1489 14.1499 18.2485 14.5732C17.3258 14.6802 16.9913 15.0694 16.9959 15.9388C17.0129 19.7593 17.0129 23.5814 16.9959 27.405C16.9959 28.2289 17.4019 28.5429 18.1862 28.5771C20.1492 28.6795 22.1007 28.8252 24.2159 28.964ZM30.7392 12.5112C30.0472 10.6267 29.4844 8.69672 28.6217 6.91011C28.0032 5.69444 27.1795 4.59153 26.1858 3.64868C24.8894 2.38098 23.4062 2.36732 22.0338 3.55536C19.3119 5.936 18.3823 9.19515 17.6072 12.5112H30.7392ZM14.9153 15.149C12.3249 15.7112 9.81983 16.5146 7.59848 17.9962C6.90291 18.4661 6.28114 19.0343 5.75313 19.6827C4.72434 20.9413 4.71281 22.3 5.78081 23.5222C8.19361 26.2852 11.5637 27.1319 14.9153 27.9876V15.149ZM33.2812 28.1925C35.3918 27.389 37.4655 26.7199 39.417 25.805C40.5072 25.2514 41.4878 24.509 42.3119 23.6133C43.4283 22.4548 43.5022 21.0437 42.5772 19.8784C40.2013 16.881 36.7182 16.0344 33.2812 15.1627V28.1925ZM30.6008 30.6323H17.6187C18.2785 33.5136 19.1342 36.3221 21.0788 38.6732C22.968 40.9491 25.0002 41.0015 26.9701 38.7824C29.0576 36.4268 29.8765 33.5182 30.6008 30.6323ZM16.7745 60.7817H33.5257V58.4284H16.7745V60.7817Z" fill="#0F211E"/>
<path d="M27.8794 12.8841C27.8763 13.9457 27.4539 14.9633 26.7038 15.7159C25.9538 16.4685 24.9366 16.8955 23.873 16.9041C23.3353 16.9144 22.801 16.816 22.3023 16.615C21.8035 16.414 21.3506 16.1145 20.9707 15.7345C20.5909 15.3544 20.2918 14.9017 20.0916 14.4034C19.8914 13.9052 19.7941 13.3716 19.8056 12.8349C19.8121 11.7663 20.2437 10.744 21.0054 9.99293C21.7671 9.24189 22.7965 8.82363 23.8671 8.83015C24.9378 8.83668 25.962 9.26747 26.7145 10.0277C27.4669 10.788 27.8859 11.8155 27.8794 12.8841Z" fill="#FEC93D"/>
</svg>
