<svg width="58" height="72" viewBox="0 0 58 72" fill="none" xmlns="http://www.w3.org/2000/svg">
<path fill-rule="evenodd" clip-rule="evenodd" d="M3.73735 9.20976C3.46126 9.20976 3.18788 9.26416 2.93282 9.36984C2.67776 9.47553 2.44602 9.63043 2.25084 9.8257C2.05567 10.021 1.90087 10.2528 1.79531 10.5079C1.68974 10.763 1.63547 11.0364 1.6356 11.3125V60.8352C1.63547 61.1113 1.68974 61.3847 1.79531 61.6398C1.90087 61.8949 2.05567 62.1268 2.25084 62.322C2.44602 62.5173 2.67776 62.6722 2.93282 62.7779C3.18788 62.8836 3.46127 62.938 3.73735 62.938H45.3335C45.8912 62.938 46.4262 62.7164 46.8206 62.322C47.215 61.9276 47.4366 61.3926 47.4366 60.8348V11.3133C47.4363 10.7556 47.2146 10.221 46.8202 9.82676C46.4259 9.43257 45.8911 9.21112 45.3335 9.21112H34.9515V7.57552H45.3335C46.3247 7.57552 47.2754 7.96918 47.9765 8.66995C48.6776 9.37072 49.0717 10.3212 49.0722 11.3125V60.8348C49.0722 61.8264 48.6783 62.7774 47.9771 63.4785C47.276 64.1797 46.325 64.5736 45.3335 64.5736H3.73735C3.24641 64.5736 2.76028 64.4768 2.30673 64.2889C1.85318 64.101 1.4411 63.8255 1.09403 63.4783C0.74696 63.1311 0.471705 62.7189 0.283988 62.2652C0.0962889 61.8116 -0.000209715 61.3257 3.42201e-07 60.8348C3.42201e-07 60.8348 4.07194e-07 60.8345 4.07194e-07 60.8345V11.3133C4.07194e-07 11.3131 3.42201e-07 11.313 3.42201e-07 11.3129C-0.000178584 10.8221 0.0963192 10.336 0.283988 9.8825C0.471705 9.42886 0.74696 9.01665 1.09403 8.66942C1.4411 8.32219 1.85318 8.04674 2.30673 7.85881C2.76028 7.67088 3.24641 7.57416 3.73735 7.57416H13.7254V9.20976H3.73735Z" fill="#0F211E"/>
<path fill-rule="evenodd" clip-rule="evenodd" d="M19.2277 2.35419C20.1396 1.13717 21.7671 0 24.5349 0C27.3021 0 28.9473 1.13677 29.8798 2.34674C30.3342 2.93637 30.605 3.52373 30.763 3.96426C30.7742 3.99564 30.7849 4.02634 30.7951 4.0563H35.807V12.3052H13.2656V4.05357H18.3512C18.3593 4.02849 18.3677 4.00291 18.3764 3.97685C18.5252 3.5354 18.7842 2.9461 19.2277 2.35419ZM19.8006 4.98143C19.8006 4.98151 19.8006 4.98158 19.8006 4.98165L19.708 5.68917H14.9012V10.6696H34.1714V5.6919H29.4657L29.3604 5.00147C29.3604 5.00143 29.3604 5.00138 29.3604 5.00133C29.36 4.99893 29.3589 4.99312 29.3572 4.98411C29.3536 4.96571 29.3471 4.93414 29.3368 4.8913C29.3161 4.8054 29.2804 4.6755 29.2234 4.51635C29.1086 4.19631 28.9114 3.7696 28.5842 3.34516C27.9537 2.52698 26.7823 1.6356 24.5349 1.6356C22.2883 1.6356 21.1434 2.52522 20.5366 3.33499C20.2208 3.75646 20.0338 4.18056 19.9264 4.49915C19.873 4.65754 19.8404 4.78682 19.8217 4.87227C19.8123 4.91489 19.8065 4.94626 19.8034 4.9645C19.8019 4.97332 19.801 4.97904 19.8006 4.98143ZM29.3606 5.00245C29.3606 5.00268 29.3606 5.00261 29.3605 5.00222L29.3606 5.00245Z" fill="#0F211E"/>
<path d="M13.4696 20.1274H8.24244C7.90144 20.1274 7.625 20.4039 7.625 20.7449V25.972C7.625 26.313 7.90144 26.5894 8.24244 26.5894H13.4696C13.8106 26.5894 14.087 26.313 14.087 25.972V20.7449C14.087 20.4039 13.8106 20.1274 13.4696 20.1274Z" fill="#FEC93D"/>
<path fill-rule="evenodd" clip-rule="evenodd" d="M8.43248 20.9453V25.7717H13.2589V20.9453H8.43248ZM6.79688 20.7449C6.79688 19.9523 7.43945 19.3097 8.23212 19.3097H13.4592C14.2519 19.3097 14.8945 19.9523 14.8945 20.7449V25.972C14.8945 26.7647 14.2519 27.4073 13.4592 27.4073H8.23212C7.43945 27.4073 6.79688 26.7647 6.79688 25.972V20.7449Z" fill="#FEC93D"/>
<path d="M13.4696 34.7347H8.24244C7.90144 34.7347 7.625 35.0112 7.625 35.3522V40.5793C7.625 40.9203 7.90144 41.1967 8.24244 41.1967H13.4696C13.8106 41.1967 14.087 40.9203 14.087 40.5793V35.3522C14.087 35.0112 13.8106 34.7347 13.4696 34.7347Z" fill="#FEC93D"/>
<path fill-rule="evenodd" clip-rule="evenodd" d="M8.43248 35.5526V40.379H13.2589V35.5526H8.43248ZM6.79688 35.3522C6.79688 34.5596 7.43945 33.917 8.23212 33.917H13.4592C14.2519 33.917 14.8945 34.5596 14.8945 35.3522V40.5793C14.8945 41.372 14.2519 42.0146 13.4592 42.0146H8.23212C7.43945 42.0146 6.79688 41.372 6.79688 40.5793V35.3522Z" fill="#FEC93D"/>
<path d="M13.4696 49.3434H8.24244C7.90144 49.3434 7.625 49.6199 7.625 49.9609V55.188C7.625 55.529 7.90144 55.8054 8.24244 55.8054H13.4696C13.8106 55.8054 14.087 55.529 14.087 55.188V49.9609C14.087 49.6199 13.8106 49.3434 13.4696 49.3434Z" fill="#FEC93D"/>
<path fill-rule="evenodd" clip-rule="evenodd" d="M8.43248 50.1612V54.9876H13.2589V50.1612H8.43248ZM6.79688 49.9609C6.79688 49.1682 7.43945 48.5256 8.23212 48.5256H13.4592C14.2519 48.5256 14.8945 49.1682 14.8945 49.9609V55.188C14.8945 55.9807 14.2519 56.6232 13.4592 56.6232H8.23212C7.43945 56.6232 6.79688 55.9807 6.79688 55.188V49.9609Z" fill="#FEC93D"/>
<path d="M37.0475 19.0302H20.9695C20.365 19.0302 19.875 19.5202 19.875 20.1247C19.875 20.7292 20.365 21.2192 20.9695 21.2192H37.0475C37.6519 21.2192 38.142 20.7292 38.142 20.1247C38.142 19.5202 37.6519 19.0302 37.0475 19.0302Z" fill="#0F211E"/>
<path d="M37.0475 25.4936H20.9695C20.365 25.4936 19.875 25.9836 19.875 26.5881C19.875 27.1926 20.365 27.6826 20.9695 27.6826H37.0475C37.6519 27.6826 38.142 27.1926 38.142 26.5881C38.142 25.9836 37.6519 25.4936 37.0475 25.4936Z" fill="#0F211E"/>
<path d="M37.0475 33.6852H20.9695C20.365 33.6852 19.875 34.1753 19.875 34.7797C19.875 35.3842 20.365 35.8742 20.9695 35.8742H37.0475C37.6519 35.8742 38.142 35.3842 38.142 34.7797C38.142 34.1753 37.6519 33.6852 37.0475 33.6852Z" fill="#0F211E"/>
<path d="M37.0475 40.0601H20.9695C20.365 40.0601 19.875 40.5501 19.875 41.1545C19.875 41.759 20.365 42.249 20.9695 42.249H37.0475C37.6519 42.249 38.142 41.759 38.142 41.1545C38.142 40.5501 37.6519 40.0601 37.0475 40.0601Z" fill="#0F211E"/>
<path d="M30.2025 48.2585H20.9695C20.365 48.2585 19.875 48.7485 19.875 49.353C19.875 49.9574 20.365 50.4475 20.9695 50.4475H30.2025C30.8069 50.4475 31.297 49.9574 31.297 49.353C31.297 48.7485 30.8069 48.2585 30.2025 48.2585Z" fill="#0F211E"/>
<path d="M30.2025 54.7191H20.9695C20.365 54.7191 19.875 55.2091 19.875 55.8136C19.875 56.4181 20.365 56.9081 20.9695 56.9081H30.2025C30.8069 56.9081 31.297 56.4181 31.297 55.8136C31.297 55.2091 30.8069 54.7191 30.2025 54.7191Z" fill="#0F211E"/>
<path d="M45.6872 70.5122C51.9909 70.5122 57.101 65.4021 57.101 59.0984C57.101 52.7948 51.9909 47.6846 45.6872 47.6846C39.3836 47.6846 34.2734 52.7948 34.2734 59.0984C34.2734 65.4021 39.3836 70.5122 45.6872 70.5122Z" fill="white"/>
<path fill-rule="evenodd" clip-rule="evenodd" d="M45.6925 48.5024C39.8405 48.5024 35.0965 53.2464 35.0965 59.0984C35.0965 64.9504 39.8405 69.6944 45.6925 69.6944C51.5445 69.6944 56.2885 64.9504 56.2885 59.0984C56.2885 53.2464 51.5445 48.5024 45.6925 48.5024ZM33.4609 59.0984C33.4609 52.3431 38.9372 46.8668 45.6925 46.8668C52.4478 46.8668 57.9241 52.3431 57.9241 59.0984C57.9241 65.8537 52.4478 71.33 45.6925 71.33C38.9372 71.33 33.4609 65.8537 33.4609 59.0984Z" fill="#0F211E"/>
<path fill-rule="evenodd" clip-rule="evenodd" d="M52.1294 54.7964C52.4488 55.1158 52.4488 55.6336 52.1294 55.953L43.8296 64.2527L39.2551 59.6766C38.9357 59.3572 38.9358 58.8394 39.2553 58.52C39.5747 58.2007 40.0925 58.2008 40.4118 58.5202L43.8298 61.9395L50.9729 54.7964C51.2923 54.477 51.8101 54.477 52.1294 54.7964Z" fill="#0F211E"/>
</svg>
