<svg width="16" height="16" viewBox="0 0 16 16" fill="none" xmlns="http://www.w3.org/2000/svg">
<g clip-path="url(#clip0_1415_14858)">
<path d="M13.7448 5.63332C13.0448 2.55332 10.3581 1.16666 7.99811 1.16666C7.99811 1.16666 7.99811 1.16666 7.99144 1.16666C5.63811 1.16666 2.94478 2.54666 2.24478 5.62666C1.46478 9.06666 3.57144 11.98 5.47811 13.8133C6.18478 14.4933 7.09144 14.8333 7.99811 14.8333C8.90478 14.8333 9.81144 14.4933 10.5114 13.8133C12.4181 11.98 14.5248 9.07332 13.7448 5.63332ZM7.99811 8.97332C6.83811 8.97332 5.89811 8.03332 5.89811 6.87332C5.89811 5.71332 6.83811 4.77332 7.99811 4.77332C9.15811 4.77332 10.0981 5.71332 10.0981 6.87332C10.0981 8.03332 9.15811 8.97332 7.99811 8.97332Z" fill="#848690"/>
</g>
<defs>
<clipPath id="clip0_1415_14858">
<rect width="16" height="16" fill="white"/>
</clipPath>
</defs>
</svg>
