<svg width="95" height="20" viewBox="0 0 95 20" fill="none" xmlns="http://www.w3.org/2000/svg">
<path d="M7.20359 14.0529H4.08409V19.7103H0V0.869629H7.58718C12.021 0.869629 14.7005 3.53495 14.7005 7.39249V7.44406C14.7118 11.7888 11.3667 14.0529 7.20359 14.0529ZM10.5882 7.44406C10.5882 5.5812 9.31333 4.57813 7.27128 4.57813H4.08409V10.3501H7.32203C9.36408 10.3501 10.56 9.11203 10.56 7.48418L10.5882 7.44406Z" fill="black"/>
<path d="M25.2505 19.722V18.1728C24.7134 18.7769 24.0517 19.2534 23.3125 19.5684C22.5734 19.8834 21.7748 20.0292 20.9738 19.9954C18.3078 19.9954 16.1133 18.4405 16.1133 15.5985V15.5472C16.1133 12.409 18.465 10.9908 21.8157 10.9908C22.9939 10.9743 24.1658 11.1671 25.2786 11.5604V11.3155C25.2786 9.60684 24.2459 8.68988 22.2422 8.68988C20.8952 8.68947 19.5609 8.95446 18.3134 9.47016L17.3144 6.36041C19.0355 5.56392 20.9124 5.17443 22.8035 5.22131C27.1869 5.22131 29.1176 7.49953 29.1176 11.4066V19.7391L25.2505 19.722ZM25.3291 13.9354C24.5227 13.576 23.6505 13.3936 22.7698 13.4001C21.0524 13.4001 19.9972 14.1006 19.9972 15.3821V15.439C19.9972 16.5382 20.8952 17.1818 22.1861 17.1818C24.0607 17.1818 25.3291 16.1339 25.3291 14.6587V13.9354Z" fill="black"/>
<path d="M40.7971 9.23786C38.136 9.23786 36.509 10.8893 36.509 14.3532V19.7101H32.5117V5.20431H36.5202V8.12735C37.3365 6.12496 38.6503 4.82457 40.9928 4.93389V9.23786H40.7971Z" fill="black"/>
<path d="M50.9518 19.722V18.1734C50.4161 18.7775 49.7559 19.2541 49.0182 19.569C48.2805 19.8839 47.4836 20.0295 46.6843 19.9953C44.024 19.9953 41.8398 18.441 41.8398 15.6001V15.5488C41.8398 12.4118 44.1864 10.9942 47.5299 10.9942C48.7038 10.9777 49.8714 11.1703 50.9798 11.5636V11.3187C50.9798 9.61076 49.9549 8.69415 47.9499 8.69415C46.6057 8.69244 45.274 8.95738 44.0296 9.47413L43.0663 6.35989C44.7859 5.56418 46.6604 5.17489 48.5492 5.22123C52.9232 5.22123 54.8441 7.49857 54.8441 11.4042V19.7334L50.9518 19.722ZM51.0358 13.9376C50.229 13.5789 49.357 13.3966 48.4764 13.4025C46.7962 13.4025 45.7098 14.1028 45.7098 15.3838V15.4407C45.7098 16.5395 46.6058 17.1828 47.8996 17.1828C49.7701 17.1828 51.0358 16.1353 51.0358 14.6607V13.9376Z" fill="black"/>
<path d="M58.5195 19.7102V0H62.4774V19.7102H58.5195Z" fill="black"/>
<path d="M66.1523 19.7102V0H70.3929V19.7102H66.1523Z" fill="black"/>
<path d="M87.0247 13.8577H77.1981C77.3237 14.6885 77.7481 15.4409 78.3877 15.9664C79.0272 16.4919 79.8354 16.7524 80.6528 16.6965C81.2925 16.7061 81.9271 16.5787 82.5162 16.3224C83.1052 16.0661 83.6357 15.6866 84.0739 15.2081L86.364 17.2941C85.674 18.1742 84.7933 18.8766 83.792 19.3455C82.7908 19.8145 81.6966 20.0369 80.5968 19.995C76.3582 19.995 73.2227 16.9378 73.2227 12.5245V12.467C73.2227 8.3352 76.0951 4.92749 80.2049 4.92749C84.9194 4.92749 87.0751 8.68575 87.0751 12.7945V12.8405C87.0751 13.237 87.0527 13.4784 87.0247 13.8577ZM80.2049 8.20879C78.5251 8.20879 77.4612 9.42706 77.1477 11.2889H83.178C82.9429 9.45004 81.8902 8.20879 80.2049 8.20879Z" fill="black"/>
<path d="M90.1836 19.7102V0H94.1414V19.7102H90.1836Z" fill="black"/>
</svg>
