<svg width="153" height="32" viewBox="0 0 153 32" fill="none" xmlns="http://www.w3.org/2000/svg">
<path d="M11.7076 22.2759H6.63763V31.2435H0V1.37866H12.331C19.537 1.37866 23.8918 5.60354 23.8918 11.7183V11.8C23.9102 18.687 18.4736 22.2759 11.7076 22.2759ZM17.2084 11.8C17.2084 8.84712 15.1364 7.25712 11.8176 7.25712H6.63763V16.4065H11.9001C15.2189 16.4065 17.1625 14.444 17.1625 11.8636L17.2084 11.8Z" fill="black"/>
<path d="M41.0377 31.2618V28.8061C40.1648 29.7636 39.0894 30.5189 37.888 31.0182C36.6867 31.5176 35.3889 31.7487 34.087 31.6951C29.7541 31.6951 26.1875 29.2305 26.1875 24.7255V24.6442C26.1875 19.6697 30.0095 17.4217 35.4552 17.4217C37.3701 17.3955 39.2748 17.701 41.0833 18.3245V17.9363C41.0833 15.2279 39.405 13.7744 36.1485 13.7744C33.9593 13.7737 31.7907 14.1938 29.7633 15.0112L28.1396 10.0819C30.9368 8.81933 33.9872 8.20194 37.0607 8.27626C44.1847 8.27626 47.3226 11.8875 47.3226 18.0808V31.2888L41.0377 31.2618ZM41.1654 22.0892C39.8548 21.5195 38.4374 21.2304 37.0059 21.2406C34.2147 21.2406 32.4998 22.3511 32.4998 24.3824V24.4727C32.4998 26.2151 33.9592 27.2352 36.0572 27.2352C39.1039 27.2352 41.1654 25.5741 41.1654 23.2358V22.0892Z" fill="black"/>
<path d="M66.3056 14.6431C61.9806 14.6431 59.3365 17.2607 59.3365 22.7515V31.243H52.8398V8.24934H59.3546V12.8827C60.6812 9.70869 62.8165 7.6474 66.6236 7.82069V14.6431H66.3056Z" fill="black"/>
<path d="M82.8091 31.2618V28.8071C81.9385 29.7647 80.8655 30.52 79.6666 31.0192C78.4677 31.5184 77.1725 31.7491 75.8733 31.695C71.5498 31.695 68 29.2313 68 24.728V24.6468C68 19.6742 71.8138 17.4271 77.2477 17.4271C79.1555 17.4008 81.0532 17.7063 82.8546 18.3295V17.9415C82.8546 15.2341 81.1889 13.7812 77.9304 13.7812C75.7457 13.7784 73.5814 14.1984 71.5589 15.0175L69.9934 10.0811C72.788 8.81976 75.8346 8.20267 78.9043 8.27613C86.0131 8.27613 89.1351 11.886 89.1351 18.0769V31.2799L82.8091 31.2618ZM82.9456 22.0928C81.6344 21.5241 80.2172 21.2352 78.786 21.2445C76.0553 21.2445 74.2895 22.3545 74.2895 24.3851V24.4753C74.2895 26.217 75.7459 27.2368 77.8485 27.2368C80.8886 27.2368 82.9456 25.5763 82.9456 23.2389V22.0928Z" fill="black"/>
<path d="M95.1055 31.2432V0H101.538V31.2432H95.1055Z" fill="black"/>
<path d="M107.516 31.2432V0H114.408V31.2432H107.516Z" fill="black"/>
<path d="M141.435 21.9661H125.465C125.669 23.2831 126.359 24.4757 127.398 25.3087C128.438 26.1417 129.751 26.5546 131.08 26.4659C132.119 26.4811 133.151 26.2792 134.108 25.8729C135.065 25.4667 135.928 24.8652 136.64 24.1067L140.362 27.4133C139.24 28.8083 137.809 29.9217 136.182 30.665C134.554 31.4083 132.776 31.7609 130.989 31.6945C124.1 31.6945 119.004 26.8485 119.004 19.8528V19.7616C119.004 13.2122 123.672 7.81055 130.352 7.81055C138.014 7.81055 141.517 13.7679 141.517 20.2809V20.3537C141.517 20.9823 141.481 21.3649 141.435 21.9661ZM130.352 13.0118C127.622 13.0118 125.893 14.9429 125.383 17.8943H135.184C134.802 14.9794 133.091 13.0118 130.352 13.0118Z" fill="black"/>
<path d="M146.566 31.2432V0H152.999V31.2432H146.566Z" fill="black"/>
</svg>
