<svg width="95" height="21" viewBox="0 0 95 21" fill="none" xmlns="http://www.w3.org/2000/svg">
<path d="M7.20359 14.7587H4.08409V20.4161H0V1.57544H7.58718C12.021 1.57544 14.7005 4.24076 14.7005 8.0983V8.14987C14.7118 12.4946 11.3667 14.7587 7.20359 14.7587ZM10.5882 8.14987C10.5882 6.28701 9.31333 5.28394 7.27128 5.28394H4.08409V11.0559H7.32203C9.36408 11.0559 10.56 9.81784 10.56 8.19L10.5882 8.14987Z" fill="white"/>
<path d="M25.2505 20.4278V18.8786C24.7134 19.4827 24.0517 19.9592 23.3125 20.2742C22.5734 20.5892 21.7748 20.735 20.9738 20.7012C18.3078 20.7012 16.1133 19.1464 16.1133 16.3043V16.253C16.1133 13.1148 18.465 11.6967 21.8157 11.6967C22.9939 11.6801 24.1658 11.8729 25.2786 12.2662V12.0213C25.2786 10.3127 24.2459 9.39569 22.2422 9.39569C20.8952 9.39528 19.5609 9.66028 18.3134 10.176L17.3144 7.06622C19.0355 6.26973 20.9124 5.88024 22.8035 5.92712C27.1869 5.92712 29.1176 8.20534 29.1176 12.1124V20.4449L25.2505 20.4278ZM25.3291 14.6412C24.5227 14.2818 23.6505 14.0994 22.7698 14.1059C21.0524 14.1059 19.9972 14.8064 19.9972 16.0879V16.1448C19.9972 17.2441 20.8952 17.8876 22.1861 17.8876C24.0607 17.8876 25.3291 16.8397 25.3291 15.3645V14.6412Z" fill="white"/>
<path d="M40.7971 9.94368C38.136 9.94368 36.509 11.5951 36.509 15.059V20.4159H32.5117V5.91012H36.5202V8.83316C37.3365 6.83077 38.6503 5.53038 40.9928 5.6397V9.94368H40.7971Z" fill="white"/>
<path d="M50.9518 20.4278V18.8792C50.4161 19.4834 49.7559 19.9599 49.0182 20.2748C48.2805 20.5897 47.4836 20.7353 46.6843 20.7011C44.024 20.7011 41.8398 19.1469 41.8398 16.3059V16.2547C41.8398 13.1177 44.1864 11.7 47.5299 11.7C48.7038 11.6835 49.8714 11.8762 50.9798 12.2694V12.0246C50.9798 10.3166 49.9549 9.39996 47.9499 9.39996C46.6057 9.39825 45.274 9.66319 44.0296 10.1799L43.0663 7.0657C44.7859 6.26999 46.6604 5.8807 48.5492 5.92704C52.9232 5.92704 54.8441 8.20438 54.8441 12.11V20.4392L50.9518 20.4278ZM51.0358 14.6434C50.229 14.2847 49.357 14.1024 48.4764 14.1083C46.7962 14.1083 45.7098 14.8086 45.7098 16.0896V16.1465C45.7098 17.2453 46.6058 17.8886 47.8996 17.8886C49.7701 17.8886 51.0358 16.8411 51.0358 15.3665V14.6434Z" fill="white"/>
<path d="M58.5195 20.416V0.705811H62.4774V20.416H58.5195Z" fill="white"/>
<path d="M66.1523 20.416V0.705811H70.3929V20.416H66.1523Z" fill="white"/>
<path d="M87.0247 14.5635H77.1981C77.3237 15.3944 77.7481 16.1467 78.3877 16.6722C79.0272 17.1977 79.8354 17.4582 80.6528 17.4023C81.2925 17.4119 81.9271 17.2845 82.5162 17.0282C83.1052 16.7719 83.6357 16.3924 84.0739 15.9139L86.364 17.9999C85.674 18.88 84.7933 19.5824 83.792 20.0514C82.7908 20.5203 81.6966 20.7427 80.5968 20.7008C76.3582 20.7008 73.2227 17.6436 73.2227 13.2303V13.1728C73.2227 9.04101 76.0951 5.6333 80.2049 5.6333C84.9194 5.6333 87.0751 9.39156 87.0751 13.5004V13.5463C87.0751 13.9429 87.0527 14.1842 87.0247 14.5635ZM80.2049 8.9146C78.5251 8.9146 77.4612 10.1329 77.1477 11.9948H83.178C82.9429 10.1559 81.8902 8.9146 80.2049 8.9146Z" fill="white"/>
<path d="M90.1836 20.416V0.705811H94.1414V20.416H90.1836Z" fill="white"/>
</svg>
