<svg width="61" height="58" viewBox="0 0 61 58" fill="none" xmlns="http://www.w3.org/2000/svg">
<path d="M58.9052 45.4776L47.7256 32.1249L42.8698 36.2074L37.625 29.9267C41.4387 26.8429 44.2045 22.6522 45.5424 17.9307C45.6045 17.7088 45.6045 17.4742 45.5424 17.2523C44.1991 12.2987 41.2647 7.92542 37.1919 4.8074C33.1192 1.68938 28.1345 0 23.0074 0C17.8802 0 12.8956 1.68938 8.82281 4.8074C4.75005 7.92542 1.81561 12.2987 0.472382 17.2523C0.410248 17.4742 0.410248 17.7088 0.472382 17.9307C1.85847 22.8575 4.8052 27.2004 8.86922 30.3062C12.9332 33.412 17.8947 35.1126 23.0074 35.1522C27.4647 35.1295 31.821 33.8212 35.5547 31.3838L40.8999 37.8152L36.2448 41.7218L47.4245 55.0744C48.1238 55.9132 48.9988 56.5877 49.9876 57.0501C50.9764 57.5124 52.0547 57.7514 53.146 57.75C54.5676 57.7492 55.9593 57.3421 57.1576 56.5766C58.3559 55.8111 59.311 54.719 59.9107 53.4287C60.5103 52.1384 60.7295 50.7035 60.5425 49.2928C60.3555 47.8821 59.7701 46.5541 58.855 45.465L58.9052 45.4776ZM2.93168 17.5664C4.15396 13.1767 6.77819 9.30832 10.4034 6.55237C14.0286 3.79642 18.4554 2.30445 23.0074 2.30445C27.5593 2.30445 31.9862 3.79642 35.6114 6.55237C39.2366 9.30832 41.8608 13.1767 43.0831 17.5664C41.8608 21.9561 39.2366 25.8244 35.6114 28.5804C31.9862 31.3363 27.5593 32.8283 23.0074 32.8283C18.4554 32.8283 14.0286 31.3363 10.4034 28.5804C6.77819 25.8244 4.15396 21.9561 2.93168 17.5664V17.5664ZM47.3617 35.6672L51.1259 40.1265L43.5975 46.5076L39.8333 42.0484L47.3617 35.6672ZM56.3205 54.0947C55.4275 54.8355 54.3058 55.2438 53.146 55.2503C52.4276 55.2474 51.7185 55.0874 51.0683 54.7815C50.4181 54.4755 49.8425 54.0311 49.3818 53.4792L45.1659 48.4546L52.6943 42.0735L56.9228 47.098C57.761 48.1057 58.1724 49.4016 58.0692 50.7088C57.9661 52.0161 57.3565 53.2312 56.3707 54.0947H56.3205Z" fill="#0F211E"/>
<path d="M30.8222 17.3301C30.8222 18.832 30.3766 20.3002 29.5416 21.549C28.7067 22.7978 27.5199 23.7711 26.1314 24.3459C24.743 24.9206 23.2152 25.071 21.7412 24.778C20.2672 24.485 18.9133 23.7618 17.8506 22.6998C16.7879 21.6377 16.0642 20.2846 15.771 18.8116C15.4778 17.3385 15.6283 15.8116 16.2034 14.4241C16.7785 13.0365 17.7524 11.8505 19.002 11.016C20.2516 10.1816 21.7207 9.73627 23.2236 9.73627C23.4429 9.72333 23.6628 9.72333 23.8822 9.73627C23.3378 10.6995 23.1241 11.8144 23.2738 12.9105C23.4234 14.0066 23.9282 15.0235 24.7109 15.8057C25.4937 16.588 26.5113 17.0924 27.608 17.242C28.7048 17.3916 29.8203 17.178 30.7842 16.634C30.8113 16.865 30.8241 17.0975 30.8222 17.3301Z" fill="#FEC93D"/>
</svg>
