<svg width="90" height="77" viewBox="0 0 90 77" fill="none" xmlns="http://www.w3.org/2000/svg">
<path d="M29.6464 49.2271C30.8075 51.0425 31.9649 52.8613 33.1312 54.6705C35.2545 57.9611 37.381 61.2468 39.5108 64.5277C40.9976 66.827 40.0856 69.4584 37.4804 70.2228C35.6339 70.7663 33.8199 71.552 31.8015 71.0946C29.8855 70.6612 28.3818 69.6782 27.3428 67.9953C24.1497 62.8289 20.9422 57.669 17.7687 52.4899C17.3686 51.8365 16.9467 51.5039 16.1312 51.422C10.9927 50.9036 6.77228 46.4966 6.48677 41.3894C6.14717 35.4314 9.1497 31.1706 14.7868 29.5469C23.0463 27.1533 30.8038 23.2829 37.6834 18.1234C40.2664 16.2148 42.7699 14.1917 45.289 12.1827C48.5724 9.55998 52.8831 10.8921 54.0978 14.9397C54.6233 16.6913 55.1337 18.4472 55.6156 20.209C55.7767 20.7682 56.0218 20.9561 56.6226 20.9718C60.4953 21.0744 63.4788 23.3059 64.488 26.7931C65.4971 30.2804 64.2206 33.7249 61.0749 35.8632C60.4615 36.2728 60.3168 36.6196 60.5329 37.305C61.0631 38.976 61.5316 40.6671 62.0016 42.3555C63.1421 46.4525 60.2966 49.8109 56.0752 49.4197C51.2515 48.983 46.4268 48.4138 41.5908 48.2742C37.6661 48.1609 33.7257 48.5994 29.789 48.7924L29.6464 49.2271ZM55.3616 29.4755C54.092 25.0679 52.8227 20.661 51.5535 16.2548C50.7482 13.4589 49.0028 12.8576 46.7306 14.6161C42.1764 18.1639 37.7342 21.8658 32.7388 24.8116C32.4541 24.9798 32.2254 25.5278 32.2446 25.8856C32.5613 32.5028 34.4196 38.9544 37.6714 44.7262C37.7907 44.9118 37.9498 45.0685 38.1373 45.1849C38.3247 45.3013 38.5357 45.3746 38.755 45.3993C44.5508 45.2648 50.2822 46.006 56.024 46.6138C58.7245 46.9004 59.9533 45.4168 59.2036 42.7981C57.9285 38.3548 56.6474 33.9125 55.3603 29.4712L55.3616 29.4755ZM29.4486 26.691C29.0775 26.8258 28.9052 26.8824 28.7387 26.9514C24.3191 28.7345 19.9678 30.7145 15.4668 32.2555C10.2135 34.0552 7.88199 38.5512 9.91695 43.7159C11.3185 47.2718 15.9961 49.6511 19.3468 48.6371C21.8339 47.8834 24.3622 47.2321 26.91 46.7218C29.4579 46.2115 32.1093 45.923 34.8624 45.5189C31.7428 39.698 29.8973 33.2799 29.4486 26.691ZM20.248 51.1026C20.581 51.6845 20.7708 52.0444 20.9846 52.3905C23.524 56.5084 26.1736 60.5643 28.5794 64.7603C31.2475 69.4141 32.8911 68.6915 36.3417 67.6277C37.5608 67.2509 37.7143 66.8783 37.0067 65.7801C33.6596 60.5858 30.297 55.4022 26.9188 50.2293C26.7556 49.9782 26.3028 49.708 26.0665 49.7528C24.1787 50.1451 22.3062 50.6146 20.248 51.1026ZM59.458 33.4034C61.5661 32.377 62.5692 29.5119 61.6981 27.28C60.8084 24.9997 58.5695 23.5018 56.7527 24.0111L59.458 33.4034Z" fill="white"/>
<path d="M81.3857 43.4934C81.7341 44.5577 81.1074 45.4789 80.1783 45.4879C79.9183 45.4932 79.661 45.4336 79.4297 45.3146C75.4449 43.1247 71.4518 40.9464 67.4961 38.7038C66.475 38.1268 66.5506 36.6586 67.608 36.3028C68.0879 36.1413 68.7984 36.2953 69.2746 36.5495C72.5298 38.2927 75.747 40.0982 78.9771 41.8836C79.5644 42.2082 80.1667 42.5122 80.7283 42.8769C80.9694 43.0576 81.1899 43.2644 81.3857 43.4934Z" fill="#FEC93D"/>
<path d="M67.6005 1.76659C68.1067 1.97948 68.6734 2.04682 68.9133 2.36205C69.1846 2.72178 69.4044 3.42012 69.2321 3.7679C68.3536 5.56984 67.3262 7.30754 66.3594 9.06971C65.7993 10.0928 65.253 11.1236 64.6837 12.1471C64.0004 13.3897 63.3012 14.6252 62.6238 15.8638C62.1804 16.6694 61.5533 16.999 60.6762 16.5902C59.9077 16.2269 59.7128 15.3723 60.2062 14.4732C62.3475 10.5863 64.4969 6.70632 66.6546 2.83328C66.8709 2.46819 67.2282 2.18827 67.6005 1.76659Z" fill="#FEC93D"/>
<path d="M67.0165 22.5956C66.5905 22.3456 65.8473 22.1591 65.6644 21.7343C65.5819 21.4529 65.5669 21.156 65.6207 20.8678C65.6744 20.5795 65.7954 20.308 65.9738 20.0753C66.8484 19.1735 67.905 18.4429 68.8967 17.6565C70.8843 16.0825 72.8755 14.5128 74.8703 12.9476C75.7524 12.2579 76.5978 12.266 77.1333 12.9363C77.6688 13.6066 77.4909 14.4124 76.5877 15.1338C73.8212 17.3406 71.0478 19.5424 68.2675 21.7391C67.9489 21.9916 67.5968 22.2002 67.0165 22.5956Z" fill="#FEC93D"/>
<path d="M82.329 29.95C82.7493 31.2637 82.0478 32.1273 80.9151 32.0762C79.7823 32.0251 78.6152 31.8466 77.4657 31.7211C74.8728 31.4362 72.2759 31.1617 69.6844 30.8576C68.5303 30.7242 67.9501 30.125 68.1158 29.2528C68.3061 28.2314 69.0302 27.9879 69.9589 28.0907C73.6666 28.5018 77.3754 28.8846 81.0749 29.3399C81.5894 29.4037 82.0619 29.815 82.329 29.95Z" fill="#FEC93D"/>
</svg>
