<svg width="90" height="77" viewBox="0 0 90 77" fill="none" xmlns="http://www.w3.org/2000/svg">
<path d="M29.6464 49.227C30.8075 51.0424 31.9649 52.8611 33.1312 54.6704C35.2545 57.9609 37.381 61.2467 39.5108 64.5276C40.9976 66.8268 40.0856 69.4583 37.4804 70.2227C35.6339 70.7662 33.8199 71.5519 31.8015 71.0945C29.8855 70.6611 28.3818 69.6781 27.3428 67.9952C24.1497 62.8288 20.9422 57.6689 17.7687 52.4898C17.3686 51.8364 16.9467 51.5038 16.1312 51.4219C10.9927 50.9035 6.77228 46.4965 6.48677 41.3893C6.14717 35.4313 9.1497 31.1705 14.7868 29.5468C23.0463 27.1531 30.8038 23.2828 37.6834 18.1233C40.2664 16.2147 42.7699 14.1916 45.289 12.1826C48.5724 9.55986 52.8831 10.892 54.0978 14.9396C54.6233 16.6911 55.1337 18.4471 55.6156 20.2089C55.7767 20.7681 56.0218 20.956 56.6226 20.9716C60.4953 21.0743 63.4788 23.3057 64.488 26.793C65.4971 30.2803 64.2206 33.7248 61.0749 35.863C60.4615 36.2726 60.3168 36.6194 60.5329 37.3049C61.0631 38.9759 61.5316 40.667 62.0016 42.3554C63.1421 46.4523 60.2966 49.8108 56.0752 49.4195C51.2515 48.9829 46.4268 48.4137 41.5908 48.2741C37.6661 48.1608 33.7257 48.5993 29.789 48.7922L29.6464 49.227ZM55.3616 29.4753C54.092 25.0678 52.8227 20.6609 51.5535 16.2547C50.7482 13.4587 49.0028 12.8575 46.7306 14.616C42.1764 18.1638 37.7342 21.8656 32.7388 24.8115C32.4541 24.9796 32.2254 25.5277 32.2446 25.8855C32.5613 32.5026 34.4196 38.9543 37.6714 44.726C37.7907 44.9116 37.9498 45.0683 38.1373 45.1848C38.3247 45.3012 38.5357 45.3744 38.755 45.3991C44.5508 45.2647 50.2822 46.0059 56.024 46.6137C58.7245 46.9002 59.9533 45.4167 59.2036 42.798C57.9285 38.3547 56.6474 33.9124 55.3603 29.471L55.3616 29.4753ZM29.4486 26.6909C29.0775 26.8257 28.9052 26.8823 28.7387 26.9512C24.3191 28.7343 19.9678 30.7144 15.4668 32.2554C10.2135 34.055 7.88199 38.5511 9.91695 43.7157C11.3185 47.2716 15.9961 49.651 19.3468 48.637C21.8339 47.8833 24.3622 47.232 26.91 46.7217C29.4579 46.2114 32.1093 45.9228 34.8624 45.5188C31.7428 39.6979 29.8973 33.2798 29.4486 26.6909ZM20.248 51.1025C20.581 51.6844 20.7708 52.0443 20.9846 52.3903C23.524 56.5083 26.1736 60.5642 28.5794 64.7602C31.2475 69.414 32.8911 68.6913 36.3417 67.6276C37.5608 67.2508 37.7143 66.8782 37.0067 65.78C33.6596 60.5857 30.297 55.4021 26.9188 50.2292C26.7556 49.9781 26.3028 49.7079 26.0665 49.7527C24.1787 50.145 22.3062 50.6145 20.248 51.1025ZM59.458 33.4033C61.5661 32.3769 62.5692 29.5118 61.6981 27.2798C60.8084 24.9996 58.5695 23.5017 56.7527 24.011L59.458 33.4033Z" fill="black"/>
<path d="M81.3857 43.4934C81.7341 44.5577 81.1074 45.4789 80.1783 45.4879C79.9183 45.4932 79.661 45.4336 79.4297 45.3146C75.4449 43.1247 71.4518 40.9464 67.4961 38.7038C66.475 38.1268 66.5506 36.6586 67.608 36.3028C68.0879 36.1413 68.7984 36.2953 69.2746 36.5495C72.5298 38.2927 75.747 40.0982 78.9771 41.8836C79.5644 42.2082 80.1667 42.5122 80.7283 42.8769C80.9694 43.0576 81.1899 43.2644 81.3857 43.4934Z" fill="#FEC93D"/>
<path d="M67.6005 1.76659C68.1067 1.97948 68.6734 2.04682 68.9133 2.36205C69.1846 2.72178 69.4044 3.42012 69.2321 3.7679C68.3536 5.56984 67.3262 7.30754 66.3594 9.06971C65.7993 10.0928 65.253 11.1236 64.6837 12.1471C64.0004 13.3897 63.3012 14.6252 62.6238 15.8638C62.1804 16.6694 61.5533 16.999 60.6762 16.5902C59.9077 16.2269 59.7128 15.3723 60.2062 14.4732C62.3475 10.5863 64.4969 6.70632 66.6546 2.83328C66.8709 2.46819 67.2282 2.18827 67.6005 1.76659Z" fill="#FEC93D"/>
<path d="M67.0165 22.5955C66.5905 22.3455 65.8473 22.1589 65.6644 21.7342C65.5819 21.4528 65.5669 21.1559 65.6207 20.8676C65.6744 20.5794 65.7954 20.3079 65.9738 20.0752C66.8484 19.1734 67.905 18.4428 68.8967 17.6564C70.8843 16.0824 72.8755 14.5127 74.8703 12.9474C75.7524 12.2578 76.5978 12.2658 77.1333 12.9361C77.6688 13.6064 77.4909 14.4123 76.5877 15.1337C73.8212 17.3404 71.0478 19.5422 68.2675 21.739C67.9489 21.9915 67.5968 22.2001 67.0165 22.5955Z" fill="#FEC93D"/>
<path d="M82.329 29.9501C82.7493 31.2638 82.0478 32.1274 80.9151 32.0763C79.7823 32.0252 78.6152 31.8467 77.4657 31.7212C74.8728 31.4363 72.2759 31.1618 69.6844 30.8578C68.5303 30.7243 67.9501 30.1252 68.1158 29.2529C68.3061 28.2315 69.0302 27.988 69.9589 28.0908C73.6666 28.5019 77.3754 28.8847 81.0749 29.3401C81.5894 29.4038 82.0619 29.8151 82.329 29.9501Z" fill="#FEC93D"/>
<path d="M20.25 51.1028C22.3082 50.6148 24.1807 50.1453 26.0685 49.7529C26.3143 49.7008 26.7576 49.9783 26.9208 50.2295C30.3014 55.4001 33.664 60.5837 37.0087 65.7802C37.7163 66.8784 37.5628 67.2511 36.3436 67.6278C32.8931 68.6916 31.2495 69.4142 28.5814 64.7604C26.175 60.5623 23.526 56.5085 20.9866 52.3906C20.7728 52.0446 20.583 51.6847 20.25 51.1028Z" fill-opacity="1" />
</svg>
