<svg width="40" height="40" viewBox="0 0 40 40" fill="none" xmlns="http://www.w3.org/2000/svg">
<rect width="40" height="40" rx="20" fill="#FEC93D"/>
<path d="M19.8637 8.03444C19.7958 8.0532 19.602 8.14231 19.4325 8.22673L19.1176 8.3862L18.7494 8.25957C18.3085 8.10948 18.2406 8.10479 18.0323 8.22673C17.7077 8.41903 17.5914 8.99591 17.7562 9.61032C17.8434 9.93394 18.2164 10.7078 18.541 11.2425C18.7203 11.5426 18.7494 11.6224 18.6961 11.6552C18.5895 11.7209 18.5556 11.7068 18.3375 11.5145C17.8676 11.0971 17.3589 10.947 16.4238 10.9517C15.6438 10.9564 15.3919 10.9048 14.8977 10.6609C14.4617 10.4452 14.3793 10.4405 14.2194 10.5952C13.9627 10.8438 14.1128 11.083 14.6942 11.3457C15.2417 11.5989 15.5518 11.6552 16.4335 11.6646C17.1651 11.674 17.2426 11.6834 17.4655 11.7912C17.6932 11.8991 18.168 12.279 18.168 12.354C18.168 12.3728 17.9887 12.4009 17.7707 12.415C16.5934 12.4947 15.6099 12.8887 15.0043 13.5219C14.6603 13.883 14.5537 14.0988 14.6312 14.277C14.6942 14.4271 14.9122 14.5349 15.0624 14.488C15.1157 14.474 15.2708 14.3239 15.4016 14.1597C15.7795 13.7001 16.2446 13.4281 16.981 13.2452C17.1942 13.1936 17.5478 13.1373 17.7755 13.1232L18.1922 13.0998L18.0662 13.2076C17.9984 13.2686 17.6932 13.5172 17.3928 13.7611C15.2708 15.4917 13.701 17.7102 13.1051 19.8301C12.9016 20.5524 12.8338 21.012 12.8047 21.8375L12.7757 22.6207L12.4317 22.5973C11.8212 22.555 11.7728 22.541 11.7728 22.4097C11.7728 21.9547 11.4143 21.4669 11.0025 21.3591C10.8668 21.3262 10.4405 21.3122 9.76702 21.3215C8.74476 21.3356 8.74476 21.3356 8.5122 21.4669C8.38624 21.5373 8.22151 21.6874 8.14884 21.7906L8.01803 21.9875L8.00349 26.3259C7.99381 29.3698 8.00349 30.7205 8.04225 30.8472C8.11008 31.077 8.35717 31.3443 8.59941 31.4475C8.76898 31.5226 8.9337 31.5366 9.88814 31.5366C10.9395 31.5366 10.9928 31.5319 11.1962 31.4288C11.4627 31.2927 11.705 30.9551 11.7534 30.6643C11.7776 30.4954 11.8019 30.4532 11.8648 30.472C11.9084 30.4814 12.7999 30.8003 13.8464 31.1802C15.2175 31.6726 15.8715 31.8884 16.1816 31.94C16.5498 32.001 17.107 32.0056 19.8249 31.9963C22.9741 31.9775 23.0467 31.9775 23.4246 31.8743C23.6378 31.818 23.9866 31.6867 24.1998 31.5882C24.413 31.4897 25.7647 30.6877 27.2036 29.8013C28.6425 28.9195 30.1686 27.9815 30.595 27.7236C31.4719 27.1889 31.6899 27.0154 31.8692 26.6824C31.9806 26.4807 32 26.3916 32 26.0257C32 25.6599 31.9806 25.5708 31.8692 25.3691C31.719 25.0877 31.4428 24.811 31.1764 24.675C31.0213 24.5906 30.9002 24.5718 30.5465 24.5718C30.1638 24.5718 30.0621 24.5906 29.7229 24.7313C29.5097 24.8157 29.3063 24.8954 29.2772 24.9095C29.2384 24.9236 29.2627 24.8298 29.3353 24.675C29.5097 24.2904 29.6842 23.676 29.7762 23.1085C29.8828 22.4425 29.8489 21.1762 29.7035 20.4914C29.3596 18.8733 28.5408 17.2646 27.315 15.8107C26.8354 15.2432 26.6416 15.0743 26.4672 15.0743C26.2686 15.0743 26.1135 15.215 26.1135 15.3979C26.1135 15.5011 26.2007 15.6324 26.4575 15.9232C27.7705 17.3959 28.6231 18.9577 28.972 20.543C29.1173 21.2043 29.1561 22.4378 29.0495 23.071C28.9187 23.8401 28.4923 24.9142 28.158 25.3316C28.1096 25.3926 27.2133 25.7959 25.8616 26.3728C24.6407 26.8934 23.633 27.3155 23.6184 27.3155C23.6039 27.3155 23.5942 27.1936 23.5894 27.0435C23.5797 26.0023 22.8093 25.0783 21.7822 24.8813C21.6466 24.8532 20.6001 24.7266 19.4519 24.5999C16.8889 24.3138 16.8792 24.3092 15.6051 23.5963C14.9752 23.2492 14.6894 23.1226 14.0741 22.9256C13.6138 22.7802 13.5896 22.7661 13.5508 22.616C13.4782 22.3674 13.5508 21.1105 13.6623 20.5852C14.1758 18.2167 15.7504 15.9561 18.2891 13.9487C18.6331 13.6767 18.6573 13.6673 18.759 13.7329C19.2193 14.0143 21.1427 14.1832 22.3345 14.0425C22.8675 13.9768 23.4343 13.8314 23.6669 13.6907L23.8558 13.5829L24.3355 13.9674C25.0719 14.549 25.1542 14.6053 25.2705 14.6053C25.4255 14.6053 25.5757 14.4646 25.6097 14.2864C25.6387 14.141 25.6193 14.1128 25.3626 13.883C25.2075 13.7423 24.8926 13.4844 24.6552 13.3108L24.2289 12.9872L24.224 12.6823C24.2192 12.3493 24.1271 12.0961 23.9188 11.8569L23.788 11.7068L24.0496 11.3035C24.5583 10.5202 24.9072 9.72757 24.975 9.20228C25.0331 8.75203 24.8345 8.30647 24.5196 8.17983C24.3597 8.11886 24.224 8.14231 23.7831 8.30178L23.5603 8.3862L23.1775 8.20328C22.8432 8.04382 22.7512 8.02037 22.4557 8.02037C22.1601 8.01568 22.0681 8.03913 21.758 8.1939C21.5594 8.28771 21.3656 8.36744 21.322 8.36744C21.2832 8.36744 21.0894 8.28771 20.8908 8.1939C20.5129 8.01568 20.1204 7.95471 19.8637 8.03444ZM20.6534 8.86928C20.9441 9.01467 21.0555 9.04282 21.322 9.04282C21.603 9.04751 21.6853 9.02405 21.9906 8.86928C22.1843 8.77548 22.3927 8.69575 22.4605 8.69575C22.5235 8.69575 22.7318 8.77548 22.9208 8.86928C23.2066 9.01467 23.3084 9.04282 23.5603 9.03813C23.7299 9.03813 23.943 9.00529 24.0496 8.95839C24.1562 8.91618 24.2483 8.89273 24.2628 8.9068C24.3209 8.96308 24.1659 9.5259 23.9818 9.92925C23.8122 10.2998 23.3326 11.1252 23.1388 11.3785C23.0952 11.4348 22.8723 11.4957 22.3781 11.5849C21.7532 11.6974 21.6078 11.7068 21.0022 11.6787C20.2803 11.6505 19.6408 11.5473 19.5391 11.4535C19.4034 11.3175 18.7397 10.1497 18.5992 9.80261C18.4538 9.4321 18.3618 9.04751 18.3957 8.94432C18.4102 8.9068 18.4684 8.91149 18.5943 8.96308C18.6912 9.00529 18.9044 9.03813 19.0643 9.04282C19.3114 9.04751 19.4131 9.01936 19.7183 8.87397C19.917 8.77548 20.1301 8.69575 20.1931 8.69575C20.2513 8.69575 20.4596 8.77548 20.6534 8.86928ZM19.7668 12.2602C20.6679 12.4432 21.8501 12.4338 22.756 12.2321C22.9256 12.1946 23.1194 12.1805 23.1872 12.1946C23.4489 12.2602 23.5894 12.7339 23.4198 12.9872C23.3229 13.1279 23.0613 13.2123 22.3491 13.3202C21.3559 13.4703 19.4615 13.339 19.0691 13.0904C18.8026 12.9215 18.8075 12.4666 19.074 12.2602C19.2242 12.1477 19.1999 12.1477 19.7668 12.2602ZM10.9249 22.1329L11.0461 22.2455V23.3102C11.0461 24.342 11.0509 24.3795 11.1526 24.4874C11.2786 24.6187 11.4772 24.6281 11.6323 24.5061C11.7437 24.4217 11.7486 24.3795 11.7631 23.8261L11.7825 23.2351L11.9569 23.2586C12.0538 23.2679 12.3057 23.2914 12.514 23.3055C13.357 23.3664 14.1468 23.6338 15.3289 24.2623C16.2446 24.7453 16.7291 24.9423 17.2378 25.0408C17.4461 25.0783 18.4926 25.205 19.573 25.3222C20.6534 25.4395 21.6466 25.5661 21.7774 25.6036C22.1553 25.7115 22.475 25.9741 22.6737 26.3494C22.8287 26.6448 22.8432 26.7011 22.8432 27.0998V27.5266L20.8666 27.55C18.9771 27.5735 18.885 27.5782 18.8172 27.6626C18.7203 27.7939 18.7348 27.9862 18.8414 28.1175L18.9335 28.2301L21.0652 28.2442C23.0613 28.2535 23.2115 28.2489 23.4343 28.1691C23.5603 28.1175 24.4081 27.7611 25.3141 27.3765C30.2462 25.2706 30.1977 25.2894 30.4739 25.2659C30.6967 25.2472 30.7646 25.2612 30.9051 25.3551C31.1473 25.5145 31.2587 25.688 31.283 25.9413C31.312 26.2321 31.2151 26.4666 31.002 26.6261C30.6338 26.8887 24.0545 30.8941 23.8122 30.9973C23.1436 31.2881 23.2502 31.2787 19.5972 31.2787C16.2736 31.2787 16.2543 31.2787 15.9393 31.1755C15.7649 31.1192 14.7572 30.7581 13.701 30.3782L11.7728 29.684V27.7705C11.7728 25.6505 11.7679 25.6177 11.4772 25.5567C11.3658 25.5333 11.2931 25.5473 11.1962 25.6177L11.0703 25.7068L11.0461 28.1879C11.0315 29.5527 11.017 30.6736 11.0073 30.6783C11.0025 30.683 10.9637 30.7205 10.9201 30.7581C10.8571 30.8237 10.6924 30.8331 9.85907 30.8331C8.89495 30.8331 8.87072 30.8331 8.79805 30.7299C8.73022 30.6361 8.72053 30.1484 8.72053 26.415V22.208L8.82712 22.1095C8.92401 22.0204 8.99184 22.0157 9.86876 22.0157C10.8038 22.0157 10.8087 22.0157 10.9249 22.1329Z" fill="white"/>
<path d="M21.1388 15.3088C20.9837 15.3698 20.9304 15.5011 20.9304 15.8435V16.1531L20.7076 16.2046C20.5865 16.2375 20.3588 16.3407 20.2037 16.4438C19.6853 16.7768 19.3946 17.3678 19.4382 18.001C19.4818 18.6201 19.8064 19.0187 20.5525 19.3752L20.9256 19.5534L20.9304 20.951V22.3487L20.7027 22.3206C20.5719 22.3065 20.2958 22.208 20.0826 22.1048C19.8694 22.0063 19.6369 21.9219 19.5594 21.9219C19.259 21.9219 19.1233 22.2971 19.3559 22.5035C19.5642 22.6911 20.102 22.9162 20.5235 22.9913L20.9304 23.0663V23.3993C20.9304 23.6901 20.945 23.7464 21.0419 23.8355C21.1921 23.9715 21.3907 23.9668 21.536 23.8214C21.6426 23.7229 21.6572 23.6666 21.6572 23.3618V23.0194L21.8994 22.9584C22.1901 22.8881 22.6407 22.6114 22.8538 22.3768C23.2463 21.9454 23.4207 21.4576 23.3916 20.876C23.3529 20.0505 22.8781 19.5018 21.9139 19.1735L21.6572 19.0891V17.9728C21.6572 17.0536 21.6669 16.8566 21.725 16.8566C21.8267 16.8566 22.1368 16.9926 22.3306 17.1192C22.5486 17.2646 22.6988 17.2599 22.8442 17.1145C22.9895 16.9785 22.9992 16.8144 22.8684 16.6549C22.7424 16.5001 22.1562 16.214 21.8752 16.1718L21.6572 16.1437V15.867C21.6572 15.5433 21.5942 15.3839 21.4295 15.3135C21.2938 15.2526 21.2841 15.2526 21.1388 15.3088ZM20.9304 17.8415V18.7842L20.8239 18.7279C20.3248 18.4747 20.1553 18.2542 20.1553 17.865C20.1553 17.4991 20.3394 17.1849 20.664 16.9926C20.9304 16.8284 20.9304 16.8237 20.9304 17.8415ZM22.0205 19.9802C22.4711 20.1866 22.6746 20.5008 22.6746 21.0026C22.6746 21.5232 22.3306 22.0298 21.8413 22.2268L21.6572 22.2971V21.0777C21.6572 20.2475 21.6717 19.8583 21.7105 19.8583C21.7347 19.8583 21.88 19.9098 22.0205 19.9802Z" fill="white"/>
</svg>
