<svg width="14" height="18" viewBox="-1 0 20 16" fill="none" xmlns="http://www.w3.org/2000/svg">
<path d="M9 17.9594C6.48333 17.9594 4.354 17.0884 2.612 15.3464C0.87 13.6044 -0.000666284 11.4754 3.82555e-07 8.95938C3.82555e-07 6.65938 0.75 4.66338 2.25 2.97138C3.75 1.27938 5.66667 0.292042 8 0.009375C8.41667 -0.040625 8.74167 0.109375 8.975 0.459375C9.20833 0.809375 9.2 1.17604 8.95 1.55937C8.66667 1.99271 8.454 2.45104 8.312 2.93438C8.17 3.41771 8.09933 3.92604 8.1 4.45937C8.1 5.95937 8.625 7.23438 9.675 8.28438C10.725 9.33438 12 9.85938 13.5 9.85938C14.0167 9.85938 14.5293 9.78438 15.038 9.63438C15.5467 9.48438 16.0007 9.27604 16.4 9.00938C16.75 8.77604 17.1083 8.76371 17.475 8.97237C17.8417 9.18104 18 9.51004 17.95 9.95938C17.7167 12.2594 16.7377 14.1677 15.013 15.6844C13.2883 17.201 11.284 17.9594 9 17.9594ZM9 15.9594C10.4667 15.9594 11.7833 15.555 12.95 14.7464C14.1167 13.9377 14.9667 12.8837 15.5 11.5844C15.1667 11.6677 14.8333 11.7344 14.5 11.7844C14.1667 11.8344 13.8333 11.8594 13.5 11.8594C11.45 11.8594 9.704 11.1384 8.262 9.69638C6.82 8.25438 6.09933 6.50871 6.1 4.45937C6.1 4.12604 6.125 3.79271 6.175 3.45938C6.225 3.12604 6.29167 2.79271 6.375 2.45938C5.075 2.99271 4.02067 3.84271 3.212 5.00938C2.40333 6.17604 1.99933 7.49271 2 8.95938C2 10.8927 2.68333 12.5427 4.05 13.9094C5.41667 15.276 7.06667 15.9594 9 15.9594Z" fill="white"/>
</svg>
