<svg width="66" height="71" viewBox="0 0 66 71" fill="none" xmlns="http://www.w3.org/2000/svg">
<path fill-rule="evenodd" clip-rule="evenodd" d="M52.4066 2.3687C46.2458 2.3687 41.2515 7.36301 41.2515 13.5238C41.2515 19.6846 46.2458 24.6789 52.4066 24.6789C58.5674 24.6789 63.5617 19.6846 63.5617 13.5238C63.5617 7.36302 58.5674 2.3687 52.4066 2.3687ZM38.8828 13.5238C38.8828 6.05482 44.9376 0 52.4066 0C59.8756 0 65.9304 6.05482 65.9304 13.5238C65.9304 20.9928 59.8756 27.0476 52.4066 27.0476C44.9376 27.0476 38.8828 20.9928 38.8828 13.5238Z" fill="#FEC93D"/>
<rect x="51.5625" y="6.7619" width="1.69048" height="8.45238" fill="#FEC93D"/>
<rect x="60.0156" y="13.5238" width="1.69048" height="8.45238" transform="rotate(90 60.0156 13.5238)" fill="#FEC93D"/>
<path d="M15.2672 11.0428H43.99L54.0386 21.4934V61.6476H15.2672V11.0428Z" fill="white" stroke="#0F211E" stroke-width="1.8"/>
<rect x="21.9766" y="27.0476" width="24.5119" height="1.69048" rx="0.845238" fill="#0F211E"/>
<rect x="21.9766" y="19.4404" width="9.29762" height="1.69048" rx="0.845238" fill="#0F211E"/>
<rect x="21.9766" y="31.2738" width="24.5119" height="1.69048" rx="0.845238" fill="#0F211E"/>
<rect x="21.9766" y="35.4999" width="24.5119" height="1.69048" rx="0.845238" fill="#0F211E"/>
<rect x="21.9766" y="39.7261" width="24.5119" height="1.69048" rx="0.845238" fill="#0F211E"/>
<circle cx="13.9464" cy="57.0535" r="13.9464" fill="white"/>
<path d="M13.9466 52.4205V49.869H15.4483V52.4205H18.9931V54.275H12.904C12.39 54.275 12.0205 54.375 11.8065 54.5751C11.6944 54.6773 11.607 54.7979 11.5495 54.9299C11.492 55.0619 11.4656 55.2025 11.4718 55.3435C11.4594 55.6343 11.5752 55.9182 11.7956 56.1374C12.0114 56.3491 12.4248 56.455 13.0357 56.455H15.622C16.2598 56.4397 16.8965 56.5098 17.5097 56.663C17.9426 56.7716 18.342 56.9632 18.6785 57.2234C18.9575 57.4512 19.1625 57.7387 19.273 58.057C19.3854 58.389 19.4415 58.7335 19.4394 59.0795C19.4451 59.4815 19.3778 59.8817 19.24 60.2655C19.1162 60.6098 18.8985 60.923 18.6053 61.1785C18.2847 61.4472 17.9001 61.6515 17.4786 61.7771C16.9483 61.931 16.3914 62.004 15.8324 61.993H15.4666V64.2381H13.9649V61.9787H9.43966V60.1147H15.8415C16.3696 60.1147 16.7415 60.0152 16.9573 59.8162C17.178 59.6066 17.2944 59.3299 17.2811 59.0462C17.2879 58.7626 17.1769 58.4864 16.9683 58.2682C16.7597 58.0501 16.3427 57.9443 15.7172 57.9506H13.0924C12.4574 57.9663 11.8237 57.8928 11.2157 57.7331C10.7809 57.6161 10.3842 57.4116 10.0579 57.1361C9.77837 56.8911 9.57399 56.5893 9.46344 56.2581C9.35014 55.9138 9.29408 55.5571 9.29698 55.1991C9.29698 54.3544 9.57319 53.6812 10.1311 53.181C10.6889 52.6809 11.5944 52.4285 12.8747 52.4285L13.9466 52.4205Z" fill="#FEC93D"/>
<path fill-rule="evenodd" clip-rule="evenodd" d="M13.9464 45.1406C7.36711 45.1406 2.0335 50.4742 2.0335 57.0535C2.0335 63.6329 7.36711 68.9665 13.9464 68.9665C20.5258 68.9665 25.8594 63.6329 25.8594 57.0535C25.8594 50.4742 20.5258 45.1406 13.9464 45.1406ZM0 57.0535C0 49.3511 6.24404 43.1071 13.9464 43.1071C21.6488 43.1071 27.8929 49.3511 27.8929 57.0535C27.8929 64.7559 21.6488 71 13.9464 71C6.24404 71 0 64.7559 0 57.0535Z" fill="#FEC93D"/>
</svg>
