<svg xmlns="http://www.w3.org/2000/svg" width="1000" height="100" viewBox="0 0 1000 100"><path style="line-height:110.00000238%;-inkscape-font-specification:'Arial Black, Normal';text-align:start" d="M431.686 12.159c-12.156 0-21.566 3.366-28.228 10.097-6.628 6.697-9.942 16.294-9.942 28.794 0 9.376 1.89 17.07 5.667 23.08 3.777 6.009 8.259 10.215 13.444 12.62 5.22 2.369 11.935 3.554 20.143 3.554 6.765 0 12.327-.98 16.688-2.937 4.396-1.957 8.072-4.86 11.026-8.706 2.953-3.846 5.114-8.635 6.488-14.37l-20.45-6.184c-1.03 4.774-2.696 8.415-4.997 10.922-2.267 2.507-5.63 3.761-10.094 3.761-4.602 0-8.174-1.547-10.715-4.637-2.541-3.125-3.813-8.876-3.813-17.255 0-6.765 1.066-11.728 3.195-14.887 2.816-4.258 6.869-6.388 12.157-6.388 2.336 0 4.447.481 6.336 1.443 1.889.961 3.485 2.335 4.79 4.12.79 1.065 1.546 2.748 2.267 5.049l20.602-4.586c-2.644-7.967-6.694-13.874-12.154-17.72-5.426-3.846-12.897-5.77-22.41-5.77zm345.436 0c-12.156 0-21.566 3.366-28.228 10.097-6.628 6.697-9.942 16.294-9.942 28.794 0 9.376 1.889 17.07 5.666 23.08 3.778 6.009 8.26 10.215 13.445 12.62 5.22 2.369 11.932 3.554 20.14 3.554 6.765 0 12.33-.98 16.691-2.937 4.396-1.957 8.07-4.86 11.022-8.706 2.954-3.846 5.118-8.635 6.491-14.37l-20.45-6.184c-1.03 4.774-2.695 8.415-4.996 10.922-2.267 2.507-5.633 3.761-10.097 3.761-4.602 0-8.171-1.547-10.712-4.637-2.542-3.125-3.813-8.876-3.813-17.255 0-6.765 1.063-11.728 3.192-14.887 2.816-4.258 6.869-6.388 12.157-6.388 2.335 0 4.447.481 6.336 1.443 1.889.961 3.485 2.335 4.79 4.12.79 1.065 1.546 2.748 2.267 5.049l20.605-4.586c-2.644-7.967-6.697-13.874-12.157-17.72-5.426-3.846-12.894-5.77-22.407-5.77zm-762.16 1.29v75.516h23.435V60.94h12.775c9.41 0 16.4-2.147 20.967-6.44 4.602-4.292 6.902-10.249 6.902-17.872 0-7.418-2.112-13.136-6.336-17.154-4.19-4.018-10.507-6.026-18.955-6.026H14.962zm76.288 0v75.516h63.666V71.862h-40.282V56.975h36.317V41.574h-36.317V29.572h39.15V13.449H91.25zm76.596 0v75.516h23.438v-30.65h2.06c2.13 0 4.036.584 5.719 1.752 1.236.893 2.644 2.831 4.224 5.819l12.464 23.079h26.375l-11.28-21.893c-.55-1.099-1.651-2.663-3.3-4.689-1.613-2.026-2.848-3.347-3.706-3.965-1.27-.928-3.299-1.855-6.08-2.782 3.468-.79 6.2-1.786 8.192-2.988 3.125-1.889 5.579-4.345 7.364-7.367 1.786-3.057 2.681-6.678 2.681-10.868 0-4.807-1.17-8.878-3.505-12.209-2.335-3.365-5.406-5.665-9.218-6.901-3.812-1.237-9.325-1.854-16.536-1.854h-38.892zm81.8 0v75.516h23.438V58.107h29.26V42.861h-29.26V29.675h34.254V13.45h-57.692zm70.315 0v75.516h63.665V71.862h-40.282V56.975h36.317V41.574h-36.317V29.572h39.15V13.449h-62.533zm152.987 0v18.646h23.798v56.87h23.334v-56.87h23.798V13.449h-70.93zm111.47 0v18.646h23.798v56.87h23.335v-56.87h23.797V13.449h-70.93zm73.918 0l29.415 43.886v31.63h23.384v-31.63l29.363-43.886h-25.757l-15.246 25.496-15.246-25.496h-25.913zm165.56 0v75.516h23.334V58.418h25.498v30.547h23.436V13.449h-23.436v26.424H847.23V13.449h-23.335zm80.253 0l29.412 43.886v31.63h23.386v-31.63l29.364-43.886h-25.757l-15.247 25.496-15.249-25.496H904.15zM191.284 28.695h10.25c4.258 0 7.16.652 8.706 1.957 1.546 1.305 2.319 3.177 2.319 5.615 0 1.648-.498 3.108-1.494 4.379-.962 1.27-2.216 2.061-3.761 2.37-3.057.687-5.117 1.029-6.181 1.029h-9.839v-15.35zM38.397 28.8h6.646c4.362 0 7.331.823 8.91 2.47 1.58 1.65 2.371 3.66 2.371 6.03 0 2.438-.91 4.445-2.73 6.025-1.82 1.545-4.98 2.319-9.479 2.319h-5.718V28.799z" font-weight="400" font-size="71.708" font-family="Arial Black" letter-spacing="0" word-spacing="0" fill="none" stroke="#fff" stroke-width="2"/></svg>