<svg width="315" height="227" viewBox="0 0 315 227" fill="none" xmlns="http://www.w3.org/2000/svg">
<g filter="url(#filter0_d_1551_16058)">
<path d="M26 34.7429C26 29.9143 29.9143 26 34.7429 26H272.257C277.085 26 281 29.9143 281 34.7429V183.371C281 188.2 277.085 192.114 272.257 192.114H34.7429C29.9143 192.114 26 188.2 26 183.371V34.7429Z" fill="white"/>
<path d="M47.5189 46.1536V52.7705C47.5189 53.7949 47.2282 54.5839 46.6468 55.1376C46.0746 55.6913 45.2994 55.9682 44.3212 55.9682C43.2968 55.9682 42.4755 55.6775 41.8572 55.0961C41.2388 54.5147 40.9297 53.6887 40.9297 52.6182H43.283C43.283 53.0243 43.366 53.3335 43.5321 53.5457C43.6983 53.7488 43.9382 53.8503 44.252 53.8503C44.5381 53.8503 44.7596 53.7579 44.9164 53.5734C45.0733 53.3888 45.1518 53.1212 45.1518 52.7705V46.1536H47.5189ZM52.947 55.9821C52.1903 55.9821 51.5074 55.8205 50.8983 55.4976C50.2984 55.1746 49.8231 54.7131 49.4725 54.1133C49.131 53.5134 48.9603 52.812 48.9603 52.0092C48.9603 51.2155 49.1356 50.5187 49.4863 49.9189C49.837 49.3098 50.3169 48.8437 50.926 48.5208C51.5351 48.1978 52.218 48.0363 52.9747 48.0363C53.7314 48.0363 54.4144 48.1978 55.0235 48.5208C55.6326 48.8437 56.1124 49.3098 56.4631 49.9189C56.8138 50.5187 56.9892 51.2155 56.9892 52.0092C56.9892 52.8028 56.8092 53.5042 56.4493 54.1133C56.0985 54.7131 55.614 55.1746 54.9958 55.4976C54.3867 55.8205 53.7037 55.9821 52.947 55.9821ZM52.947 53.9333C53.3992 53.9333 53.7822 53.7672 54.096 53.435C54.419 53.1027 54.5805 52.6275 54.5805 52.0092C54.5805 51.3908 54.4236 50.9156 54.1098 50.5833C53.8053 50.2511 53.4269 50.085 52.9747 50.085C52.5132 50.085 52.1303 50.2511 51.8258 50.5833C51.5212 50.9063 51.3689 51.3816 51.3689 52.0092C51.3689 52.6275 51.5166 53.1027 51.8119 53.435C52.1165 53.7672 52.4948 53.9333 52.947 53.9333ZM60.612 49.2406C60.8335 48.8807 61.1519 48.59 61.5672 48.3685C61.9825 48.147 62.4578 48.0363 62.993 48.0363C63.6298 48.0363 64.2066 48.1978 64.7234 48.5208C65.2402 48.8437 65.6463 49.3052 65.9415 49.905C66.2461 50.5049 66.3984 51.2017 66.3984 51.9953C66.3984 52.7889 66.2461 53.4903 65.9415 54.0994C65.6463 54.6993 65.2402 55.1653 64.7234 55.4976C64.2066 55.8205 63.6298 55.9821 62.993 55.9821C62.4486 55.9821 61.9733 55.8759 61.5672 55.6637C61.1612 55.4422 60.8428 55.1515 60.612 54.7916V55.8713H58.2449V45.6276H60.612V49.2406ZM63.9897 51.9953C63.9897 51.4047 63.8236 50.9433 63.4914 50.611C63.1684 50.2695 62.7669 50.0988 62.287 50.0988C61.8164 50.0988 61.4149 50.2695 61.0827 50.611C60.7597 50.9525 60.5982 51.4185 60.5982 52.0092C60.5982 52.5998 60.7597 53.0658 61.0827 53.4073C61.4149 53.7488 61.8164 53.9195 62.287 53.9195C62.7577 53.9195 63.1591 53.7488 63.4914 53.4073C63.8236 53.0566 63.9897 52.586 63.9897 51.9953ZM74.0898 55.9682C73.3792 55.9682 72.7425 55.8529 72.1795 55.6221C71.6165 55.3914 71.1644 55.05 70.8229 54.5978C70.4907 54.1455 70.3153 53.6011 70.2969 52.9643H72.8163C72.8532 53.3242 72.9778 53.6011 73.19 53.7949C73.4023 53.9794 73.6791 54.0717 74.0206 54.0717C74.3713 54.0717 74.6481 53.9933 74.8512 53.8364C75.0542 53.6703 75.1557 53.4442 75.1557 53.1581C75.1557 52.9182 75.0727 52.7197 74.9065 52.5629C74.7497 52.406 74.5512 52.2768 74.3113 52.1753C74.0806 52.0738 73.7483 51.9584 73.3146 51.8292C72.6871 51.6354 72.1749 51.4416 71.7781 51.2478C71.3812 51.054 71.0398 50.7679 70.7537 50.3895C70.4676 50.0112 70.3246 49.5174 70.3246 48.9084C70.3246 48.004 70.6522 47.298 71.3074 46.7904C71.9626 46.2736 72.8163 46.0152 73.8683 46.0152C74.9388 46.0152 75.8017 46.2736 76.4569 46.7904C77.1121 47.298 77.4629 48.0086 77.509 48.9222H74.9481C74.9296 48.6084 74.8142 48.3639 74.602 48.1885C74.3898 48.004 74.1175 47.9117 73.7853 47.9117C73.4992 47.9117 73.2685 47.9901 73.0931 48.147C72.9178 48.2947 72.8301 48.5115 72.8301 48.7976C72.8301 49.1114 72.9778 49.3559 73.2731 49.5313C73.5684 49.7066 74.0299 49.8958 74.6574 50.0988C75.2849 50.3111 75.7925 50.5141 76.1801 50.7079C76.5769 50.9017 76.9183 51.1832 77.2045 51.5523C77.4906 51.9215 77.6336 52.3968 77.6336 52.9782C77.6336 53.5319 77.4906 54.0348 77.2045 54.487C76.9276 54.9392 76.5216 55.2992 75.9863 55.5668C75.451 55.8344 74.8189 55.9682 74.0898 55.9682ZM86.3714 51.8846C86.3714 52.1061 86.3576 52.3368 86.3299 52.5767H80.9727C81.0099 53.0566 81.1621 53.4257 81.4295 53.6841C81.7064 53.9333 82.0437 54.0579 82.44 54.0579C83.0309 54.0579 83.4418 53.8087 83.6721 53.3104H86.1915C86.0625 53.818 85.8272 54.2748 85.4855 54.6808C85.1532 55.0869 84.7336 55.4052 84.2258 55.636C83.7187 55.8667 83.1511 55.9821 82.5231 55.9821C81.7668 55.9821 81.0929 55.8205 80.502 55.4976C79.9117 55.1746 79.4503 54.7131 79.118 54.1133C78.7858 53.5134 78.6197 52.812 78.6197 52.0092C78.6197 51.2063 78.7812 50.5049 79.1042 49.905C79.4364 49.3052 79.8978 48.8437 80.4882 48.5208C81.0791 48.1978 81.7574 48.0363 82.5231 48.0363C83.2706 48.0363 83.9351 48.1931 84.5165 48.5069C85.0979 48.8207 85.5503 49.2683 85.8731 49.8497C86.2053 50.4311 86.3714 51.1094 86.3714 51.8846ZM83.9489 51.2616C83.9489 50.8556 83.8105 50.5326 83.5336 50.2926C83.2568 50.0527 82.9107 49.9327 82.4954 49.9327C82.0991 49.9327 81.7617 50.0481 81.4849 50.2788C81.2175 50.5095 81.0514 50.8371 80.9865 51.2616H83.9489ZM91.9253 53.8641V55.8713H90.721C89.8627 55.8713 89.1939 55.6637 88.7138 55.2484C88.2344 54.8238 87.9939 54.1364 87.9939 53.1858V50.1127H87.0526V48.147H87.9939V46.2644H90.3611V48.147H91.9115V50.1127H90.3611V53.2135C90.3611 53.4442 90.4164 53.6103 90.5272 53.7118C90.6379 53.8133 90.823 53.8641 91.0809 53.8641H91.9253ZM98.5029 46.1536V51.9676C98.5029 52.549 98.6464 52.9966 98.932 53.3104C99.2183 53.6242 99.638 53.781 100.192 53.781C100.745 53.781 101.17 53.6242 101.465 53.3104C101.761 52.9966 101.908 52.549 101.908 51.9676V46.1536H104.275V51.9538C104.275 52.8213 104.091 53.555 103.722 54.1548C103.353 54.7546 102.855 55.2068 102.227 55.5114C101.609 55.8159 100.917 55.9682 100.15 55.9682C99.3844 55.9682 98.6967 55.8205 98.0876 55.5252C97.488 55.2207 97.0129 54.7685 96.6618 54.1686C96.3113 53.5596 96.1357 52.8213 96.1357 51.9538V46.1536H98.5029ZM108.305 49.2406C108.536 48.8807 108.854 48.59 109.26 48.3685C109.666 48.147 110.142 48.0363 110.686 48.0363C111.323 48.0363 111.9 48.1978 112.416 48.5208C112.933 48.8437 113.339 49.3052 113.635 49.905C113.939 50.5049 114.091 51.2017 114.091 51.9953C114.091 52.7889 113.939 53.4903 113.635 54.0994C113.339 54.6993 112.933 55.1653 112.416 55.4976C111.9 55.8205 111.323 55.9821 110.686 55.9821C110.151 55.9821 109.675 55.8713 109.26 55.6498C108.854 55.4283 108.536 55.1422 108.305 54.7916V59.5535H105.938V48.147H108.305V49.2406ZM111.683 51.9953C111.683 51.4047 111.517 50.9433 111.184 50.611C110.862 50.2695 110.46 50.0988 109.98 50.0988C109.509 50.0988 109.108 50.2695 108.776 50.611C108.453 50.9525 108.291 51.4185 108.291 52.0092C108.291 52.5998 108.453 53.0658 108.776 53.4073C109.108 53.7488 109.509 53.9195 109.98 53.9195C110.451 53.9195 110.852 53.7488 111.184 53.4073C111.517 53.0566 111.683 52.586 111.683 51.9953Z" fill="#24283A"/>
<path d="M44.8215 79.6403V83.9242C44.8215 84.5188 44.6495 84.9821 44.3056 85.3144C43.9618 85.6408 43.5013 85.804 42.9243 85.804C42.3414 85.804 41.8693 85.6349 41.5079 85.2969C41.1524 84.9588 40.9746 84.4867 40.9746 83.8805H42.1986C42.2044 84.1428 42.2656 84.3468 42.3822 84.4925C42.5046 84.6382 42.6795 84.7111 42.9068 84.7111C43.1283 84.7111 43.2973 84.6412 43.4139 84.5013C43.5304 84.3614 43.5887 84.169 43.5887 83.9242V79.6403H44.8215ZM48.4 85.8215C47.9337 85.8215 47.514 85.7195 47.141 85.5155C46.768 85.3056 46.4736 85.0113 46.258 84.6324C46.0482 84.2536 45.9432 83.8164 45.9432 83.321C45.9432 82.8256 46.0511 82.3884 46.2667 82.0096C46.4882 81.6307 46.7884 81.3393 47.1672 81.1353C47.5461 80.9255 47.9687 80.8205 48.435 80.8205C48.9012 80.8205 49.3238 80.9255 49.7027 81.1353C50.0815 81.3393 50.3788 81.6307 50.5944 82.0096C50.8159 82.3884 50.9267 82.8256 50.9267 83.321C50.9267 83.8164 50.813 84.2536 50.5857 84.6324C50.3642 85.0113 50.0611 85.3056 49.6764 85.5155C49.2976 85.7195 48.8721 85.8215 48.4 85.8215ZM48.4 84.7548C48.6215 84.7548 48.8284 84.7024 49.0207 84.5975C49.2189 84.4867 49.3763 84.3235 49.4928 84.1078C49.6094 83.8922 49.6677 83.6299 49.6677 83.321C49.6677 82.8605 49.5453 82.5079 49.3005 82.2631C49.0615 82.0125 48.7672 81.8872 48.4175 81.8872C48.0678 81.8872 47.7734 82.0125 47.5344 82.2631C47.3013 82.5079 47.1847 82.8605 47.1847 83.321C47.1847 83.7815 47.2984 84.137 47.5257 84.3876C47.7588 84.6324 48.0503 84.7548 48.4 84.7548ZM53.0486 81.6074C53.2059 81.3742 53.4216 81.1848 53.6955 81.0391C53.9753 80.8934 54.293 80.8205 54.6485 80.8205C55.0623 80.8205 55.4354 80.9225 55.7676 81.1265C56.1057 81.3305 56.3709 81.622 56.5632 82.0008C56.7614 82.3738 56.8605 82.8081 56.8605 83.3035C56.8605 83.7989 56.7614 84.239 56.5632 84.6237C56.3709 85.0025 56.1057 85.2969 55.7676 85.5067C55.4354 85.7165 55.0623 85.8215 54.6485 85.8215C54.2871 85.8215 53.9695 85.7515 53.6955 85.6116C53.4274 85.4659 53.2118 85.2794 53.0486 85.0521V85.7428H51.8246V79.2731H53.0486V81.6074ZM55.6102 83.3035C55.6102 83.0121 55.549 82.7615 55.4266 82.5516C55.3101 82.336 55.1527 82.1728 54.9545 82.062C54.7622 81.9513 54.5523 81.8959 54.325 81.8959C54.1035 81.8959 53.8937 81.9542 53.6955 82.0708C53.5032 82.1815 53.3458 82.3447 53.2234 82.5604C53.1069 82.776 53.0486 83.0296 53.0486 83.321C53.0486 83.6124 53.1069 83.866 53.2234 84.0816C53.3458 84.2973 53.5032 84.4634 53.6955 84.58C53.8937 84.6907 54.1035 84.7461 54.325 84.7461C54.5523 84.7461 54.7622 84.6878 54.9545 84.5712C55.1527 84.4546 55.3101 84.2885 55.4266 84.0729C55.549 83.8572 55.6102 83.6008 55.6102 83.3035ZM61.2583 81.9047V84.2477C61.2583 84.4109 61.2961 84.5304 61.3719 84.6062C61.4535 84.6761 61.5876 84.7111 61.7741 84.7111H62.3424V85.7428H61.573C60.5413 85.7428 60.0255 85.2415 60.0255 84.239V81.9047H59.4485V80.8992H60.0255V79.7015H61.2583V80.8992H62.3424V81.9047H61.2583ZM63.8434 80.3222C63.6278 80.3222 63.4471 80.2552 63.3014 80.1211C63.1615 79.9812 63.0916 79.8093 63.0916 79.6053C63.0916 79.4013 63.1615 79.2322 63.3014 79.0982C63.4471 78.9583 63.6278 78.8884 63.8434 78.8884C64.0591 78.8884 64.2369 78.9583 64.3768 79.0982C64.5225 79.2322 64.5953 79.4013 64.5953 79.6053C64.5953 79.8093 64.5225 79.9812 64.3768 80.1211C64.2369 80.2552 64.0591 80.3222 63.8434 80.3222ZM64.4467 80.8992V85.7428H63.2227V80.8992H64.4467ZM67.0811 81.9047V84.2477C67.0811 84.4109 67.119 84.5304 67.1948 84.6062C67.2764 84.6761 67.4105 84.7111 67.597 84.7111H68.1653V85.7428H67.3959C66.3642 85.7428 65.8484 85.2415 65.8484 84.239V81.9047H65.2714V80.8992H65.8484V79.7015H67.0811V80.8992H68.1653V81.9047H67.0811ZM70.2696 79.2731V85.7428H69.0456V79.2731H70.2696ZM75.9815 83.2161C75.9815 83.3909 75.9699 83.5483 75.9465 83.6882H72.4057C72.4348 84.0379 72.5572 84.3118 72.7729 84.51C72.9885 84.7082 73.2537 84.8073 73.5685 84.8073C74.0231 84.8073 74.3466 84.612 74.5389 84.2215H75.8591C75.7192 84.6878 75.4511 85.0725 75.0548 85.3756C74.6584 85.6728 74.1717 85.8215 73.5947 85.8215C73.1284 85.8215 72.7088 85.7195 72.3357 85.5155C71.9685 85.3056 71.68 85.0113 71.4702 84.6324C71.2662 84.2536 71.1641 83.8164 71.1641 83.321C71.1641 82.8197 71.2662 82.3797 71.4702 82.0008C71.6742 81.622 71.9598 81.3305 72.327 81.1265C72.6942 80.9225 73.1168 80.8205 73.5947 80.8205C74.0552 80.8205 74.4661 80.9196 74.8275 81.1178C75.1947 81.316 75.4773 81.5987 75.6755 81.9659C75.8795 82.3272 75.9815 82.744 75.9815 83.2161ZM74.7138 82.8664C74.708 82.5516 74.5943 82.301 74.3728 82.1145C74.1513 81.9221 73.8803 81.826 73.5597 81.826C73.2567 81.826 73.0002 81.9192 72.7904 82.1057C72.5864 82.2864 72.4611 82.54 72.4144 82.8664H74.7138Z" fill="#24283A"/>
<path d="M260.598 93.3928H46.3979C43.38 93.3928 40.9336 95.8392 40.9336 98.857V115.614C40.9336 118.632 43.38 121.078 46.3979 121.078H260.598C263.616 121.078 266.062 118.632 266.062 115.614V98.857C266.062 95.8392 263.616 93.3928 260.598 93.3928Z" fill="white"/>
<path d="M57.6432 106.194C57.6432 106.617 57.4975 106.968 57.2061 107.25C56.9195 107.527 56.4799 107.666 55.8873 107.666H54.911V109.786H54.248V104.708H55.8873C56.4605 104.708 56.8952 104.846 57.1915 105.123C57.4926 105.4 57.6432 105.757 57.6432 106.194ZM55.8873 107.119C56.2565 107.119 56.5285 107.039 56.7033 106.879C56.8782 106.719 56.9656 106.491 56.9656 106.194C56.9656 105.567 56.6062 105.254 55.8873 105.254H54.911V107.119H55.8873ZM59.1302 106.442C59.2468 106.214 59.4119 106.036 59.6256 105.91C59.8442 105.784 60.1089 105.72 60.4198 105.72V106.405H60.2449C59.5018 106.405 59.1302 106.808 59.1302 107.615V109.786H58.4672V105.793H59.1302V106.442ZM62.9264 109.851C62.5525 109.851 62.2124 109.766 61.9064 109.596C61.6053 109.427 61.3673 109.186 61.1924 108.875C61.0225 108.56 60.9374 108.195 60.9374 107.782C60.9374 107.374 61.0249 107.015 61.1997 106.704C61.3795 106.389 61.6223 106.148 61.9283 105.983C62.2343 105.813 62.5767 105.728 62.9556 105.728C63.3344 105.728 63.6769 105.813 63.9829 105.983C64.2889 106.148 64.5293 106.386 64.7041 106.697C64.8839 107.008 64.9737 107.369 64.9737 107.782C64.9737 108.195 64.8814 108.56 64.6969 108.875C64.5171 109.186 64.2719 109.427 63.961 109.596C63.6501 109.766 63.3053 109.851 62.9264 109.851ZM62.9264 109.269C63.1645 109.269 63.3878 109.212 63.5967 109.101C63.8056 108.99 63.9732 108.822 64.0994 108.598C64.2306 108.375 64.2961 108.103 64.2961 107.782C64.2961 107.462 64.233 107.19 64.1067 106.966C63.9805 106.743 63.8153 106.578 63.6113 106.471C63.4073 106.359 63.1863 106.303 62.9483 106.303C62.7055 106.303 62.482 106.359 62.278 106.471C62.0789 106.578 61.9186 106.743 61.7971 106.966C61.6757 107.19 61.615 107.462 61.615 107.782C61.615 108.108 61.6733 108.382 61.7899 108.606C61.9113 108.829 62.0716 108.997 62.2707 109.108C62.4698 109.215 62.6884 109.269 62.9264 109.269ZM65.5977 107.775C65.5977 107.367 65.6803 107.01 65.8455 106.704C66.0105 106.393 66.2364 106.152 66.523 105.983C66.8144 105.813 67.1398 105.728 67.4993 105.728C67.8101 105.728 68.0991 105.801 68.3663 105.946C68.6334 106.087 68.8374 106.274 68.9783 106.507V104.394H69.6486V109.786H68.9783V109.035C68.8472 109.274 68.6529 109.47 68.3955 109.626C68.138 109.776 67.8369 109.851 67.492 109.851C67.1374 109.851 66.8144 109.764 66.523 109.589C66.2364 109.414 66.0105 109.169 65.8455 108.853C65.6803 108.538 65.5977 108.178 65.5977 107.775ZM68.9783 107.782C68.9783 107.481 68.9175 107.219 68.7962 106.995C68.6747 106.772 68.5095 106.602 68.3007 106.485C68.0967 106.364 67.8709 106.303 67.6232 106.303C67.3754 106.303 67.1496 106.362 66.9456 106.478C66.7416 106.595 66.5788 106.764 66.4574 106.988C66.336 107.212 66.2753 107.474 66.2753 107.775C66.2753 108.081 66.336 108.348 66.4574 108.576C66.5788 108.8 66.7416 108.972 66.9456 109.094C67.1496 109.21 67.3754 109.269 67.6232 109.269C67.8709 109.269 68.0967 109.21 68.3007 109.094C68.5095 108.972 68.6747 108.8 68.7962 108.576C68.9175 108.348 68.9783 108.083 68.9783 107.782ZM74.3098 105.793V109.786H73.6468V109.196C73.5205 109.4 73.3433 109.56 73.115 109.677C72.8915 109.788 72.6438 109.844 72.3718 109.844C72.061 109.844 71.7817 109.781 71.534 109.655C71.2863 109.524 71.0896 109.329 70.9438 109.072C70.8029 108.815 70.7326 108.501 70.7326 108.132V105.793H71.3883V108.045C71.3883 108.438 71.4878 108.742 71.687 108.955C71.8861 109.164 72.1581 109.269 72.503 109.269C72.8575 109.269 73.1368 109.159 73.3408 108.941C73.5448 108.722 73.6468 108.404 73.6468 107.986V105.793H74.3098ZM75.1816 107.782C75.1816 107.369 75.2641 107.01 75.4293 106.704C75.5944 106.393 75.8227 106.152 76.1142 105.983C76.4104 105.813 76.748 105.728 77.1269 105.728C77.6174 105.728 78.0205 105.846 78.3363 106.085C78.6569 106.323 78.8682 106.653 78.9702 107.076H78.2562C78.1881 106.833 78.0546 106.641 77.8554 106.5C77.6611 106.359 77.4183 106.289 77.1269 106.289C76.748 106.289 76.442 106.42 76.2089 106.682C75.9757 106.939 75.8591 107.307 75.8591 107.782C75.8591 108.263 75.9757 108.635 76.2089 108.897C76.442 109.159 76.748 109.29 77.1269 109.29C77.4183 109.29 77.6611 109.223 77.8554 109.086C78.0497 108.95 78.1833 108.756 78.2562 108.504H78.9702C78.8633 108.912 78.6496 109.239 78.329 109.487C78.0084 109.73 77.6077 109.851 77.1269 109.851C76.748 109.851 76.4104 109.766 76.1142 109.596C75.8227 109.427 75.5944 109.186 75.4293 108.875C75.2641 108.564 75.1816 108.2 75.1816 107.782ZM80.6631 106.34V108.693C80.6631 108.888 80.7047 109.026 80.787 109.108C80.87 109.186 81.0129 109.225 81.2169 109.225H81.705V109.786H81.1076C80.7389 109.786 80.462 109.701 80.277 109.531C80.0927 109.361 80.0001 109.081 80.0001 108.693V106.34H79.4832V105.793H80.0001V104.788H80.6631V105.793H81.705V106.34H80.6631ZM89.602 104.744V109.786H88.939V106.026L87.2633 109.786H86.797L85.114 106.019V109.786H84.451V104.744H85.165L87.0301 108.912L88.8953 104.744H89.602ZM90.4785 107.775C90.4785 107.367 90.5615 107.01 90.7262 106.704C90.8915 106.393 91.1174 106.152 91.4037 105.983C91.6952 105.813 92.0187 105.728 92.3727 105.728C92.7224 105.728 93.0263 105.803 93.2834 105.954C93.5414 106.104 93.733 106.294 93.859 106.522V105.793H94.5293V109.786H93.859V109.043C93.7279 109.276 93.5312 109.47 93.2689 109.626C93.0117 109.776 92.7108 109.851 92.3654 109.851C92.0114 109.851 91.6908 109.764 91.4037 109.589C91.1174 109.414 90.8915 109.169 90.7262 108.853C90.5615 108.538 90.4785 108.178 90.4785 107.775ZM93.859 107.782C93.859 107.481 93.7985 107.219 93.6769 106.995C93.5559 106.772 93.3905 106.602 93.1814 106.485C92.9774 106.364 92.7516 106.303 92.5039 106.303C92.2562 106.303 92.0303 106.362 91.8263 106.478C91.6223 106.595 91.4598 106.764 91.3382 106.988C91.2172 107.212 91.156 107.474 91.156 107.775C91.156 108.081 91.2172 108.348 91.3382 108.576C91.4598 108.8 91.6223 108.972 91.8263 109.094C92.0303 109.21 92.2562 109.269 92.5039 109.269C92.7516 109.269 92.9774 109.21 93.1814 109.094C93.3905 108.972 93.5559 108.8 93.6769 108.576C93.7985 108.348 93.859 108.083 93.859 107.782ZM97.5951 105.72C98.0811 105.72 98.4745 105.868 98.7754 106.165C99.077 106.456 99.2271 106.879 99.2271 107.433V109.786H98.5714V107.527C98.5714 107.129 98.4723 106.826 98.2727 106.617C98.0738 106.403 97.802 106.296 97.4567 106.296C97.107 106.296 96.8279 106.405 96.6189 106.624C96.4149 106.842 96.3128 107.161 96.3128 107.578V109.786H95.6498V105.793H96.3128V106.362C96.444 106.158 96.6218 105.999 96.8447 105.888C97.0735 105.777 97.3234 105.72 97.5951 105.72ZM100.063 107.775C100.063 107.367 100.145 107.01 100.311 106.704C100.475 106.393 100.701 106.152 100.988 105.983C101.28 105.813 101.602 105.728 101.957 105.728C102.307 105.728 102.61 105.803 102.868 105.954C103.125 106.104 103.317 106.294 103.443 106.522V105.793H104.114V109.786H103.443V109.043C103.312 109.276 103.116 109.47 102.853 109.626C102.595 109.776 102.294 109.851 101.95 109.851C101.595 109.851 101.274 109.764 100.988 109.589C100.701 109.414 100.475 109.169 100.311 108.853C100.145 108.538 100.063 108.178 100.063 107.775ZM103.443 107.782C103.443 107.481 103.382 107.219 103.261 106.995C103.14 106.772 102.974 106.602 102.766 106.485C102.562 106.364 102.336 106.303 102.088 106.303C101.841 106.303 101.615 106.362 101.411 106.478C101.207 106.595 101.043 106.764 100.923 106.988C100.801 107.212 100.74 107.474 100.74 107.775C100.74 108.081 100.801 108.348 100.923 108.576C101.043 108.8 101.207 108.972 101.411 109.094C101.615 109.21 101.841 109.269 102.088 109.269C102.336 109.269 102.562 109.21 102.766 109.094C102.974 108.972 103.14 108.8 103.261 108.576C103.382 108.348 103.443 108.083 103.443 107.782ZM106.88 105.728C107.225 105.728 107.526 105.803 107.783 105.954C108.046 106.104 108.24 106.294 108.366 106.522V105.793H109.037V109.873C109.037 110.238 108.959 110.56 108.803 110.842C108.648 111.129 108.425 111.352 108.133 111.513C107.847 111.673 107.512 111.753 107.128 111.753C106.603 111.753 106.166 111.629 105.816 111.381C105.467 111.134 105.26 110.796 105.197 110.369H105.853C105.926 110.611 106.076 110.806 106.304 110.952C106.533 111.102 106.807 111.177 107.128 111.177C107.492 111.177 107.789 111.063 108.017 110.835C108.25 110.607 108.366 110.286 108.366 109.873V109.035C108.235 109.269 108.041 109.463 107.783 109.618C107.526 109.773 107.225 109.851 106.88 109.851C106.526 109.851 106.202 109.764 105.911 109.589C105.625 109.414 105.399 109.169 105.233 108.853C105.069 108.538 104.986 108.178 104.986 107.775C104.986 107.367 105.069 107.01 105.233 106.704C105.399 106.393 105.625 106.152 105.911 105.983C106.202 105.813 106.526 105.728 106.88 105.728ZM108.366 107.782C108.366 107.481 108.306 107.219 108.184 106.995C108.063 106.772 107.898 106.602 107.689 106.485C107.485 106.364 107.259 106.303 107.011 106.303C106.763 106.303 106.538 106.362 106.334 106.478C106.13 106.595 105.967 106.764 105.845 106.988C105.725 107.212 105.663 107.474 105.663 107.775C105.663 108.081 105.725 108.348 105.845 108.576C105.967 108.8 106.13 108.972 106.334 109.094C106.538 109.21 106.763 109.269 107.011 109.269C107.259 109.269 107.485 109.21 107.689 109.094C107.898 108.972 108.063 108.8 108.184 108.576C108.306 108.348 108.366 108.083 108.366 107.782ZM113.8 107.637C113.8 107.763 113.793 107.897 113.778 108.037H110.587C110.612 108.431 110.745 108.739 110.988 108.963C111.235 109.181 111.534 109.29 111.884 109.29C112.171 109.29 112.408 109.225 112.598 109.094C112.792 108.957 112.929 108.778 113.006 108.555H113.72C113.614 108.939 113.399 109.252 113.079 109.494C112.758 109.733 112.36 109.851 111.884 109.851C111.505 109.851 111.166 109.766 110.864 109.596C110.568 109.427 110.335 109.186 110.164 108.875C109.995 108.56 109.909 108.195 109.909 107.782C109.909 107.369 109.993 107.008 110.157 106.697C110.323 106.386 110.554 106.148 110.849 105.983C111.151 105.813 111.496 105.728 111.884 105.728C112.263 105.728 112.598 105.81 112.889 105.975C113.181 106.141 113.404 106.369 113.56 106.66C113.72 106.947 113.8 107.272 113.8 107.637ZM113.115 107.498C113.115 107.245 113.06 107.03 112.948 106.85C112.836 106.665 112.683 106.527 112.489 106.434C112.299 106.338 112.088 106.289 111.855 106.289C111.52 106.289 111.233 106.396 110.995 106.609C110.762 106.823 110.629 107.119 110.594 107.498H113.115ZM115.338 106.442C115.455 106.214 115.62 106.036 115.833 105.91C116.052 105.784 116.317 105.72 116.628 105.72V106.405H116.453C115.71 106.405 115.338 106.808 115.338 107.615V109.786H114.675V105.793H115.338V106.442Z" fill="#24283A"/>
<path d="M248.675 105.548L250.765 107.634L252.856 105.548L253.497 106.191L250.765 108.923L248.033 106.191L248.675 105.548Z" fill="#24283A"/>
<path d="M260.598 93.3928H46.3979C43.38 93.3928 40.9336 95.8392 40.9336 98.857V115.614C40.9336 118.632 43.38 121.078 46.3979 121.078H260.598C263.616 121.078 266.062 118.632 266.062 115.614V98.857C266.062 95.8392 263.616 93.3928 260.598 93.3928Z" stroke="#E4E4E6"/>
<path d="M43.4597 141.904C43.0342 141.904 42.6495 141.831 42.3057 141.685C41.9676 141.54 41.6995 141.33 41.5013 141.056C41.3031 140.782 41.2011 140.458 41.1953 140.085H42.5067C42.5242 140.336 42.6117 140.534 42.769 140.68C42.9322 140.826 43.1537 140.899 43.4335 140.899C43.7191 140.899 43.9435 140.831 44.1067 140.697C44.2699 140.558 44.3515 140.377 44.3515 140.155C44.3515 139.975 44.2961 139.826 44.1854 139.709C44.0746 139.593 43.9347 139.503 43.7657 139.438C43.6025 139.369 43.3752 139.293 43.0838 139.211C42.6874 139.095 42.3639 138.981 42.1133 138.87C41.8685 138.754 41.6558 138.582 41.4751 138.354C41.3002 138.121 41.2128 137.812 41.2128 137.428C41.2128 137.066 41.3031 136.751 41.4838 136.483C41.6645 136.215 41.9181 136.011 42.2445 135.871C42.5709 135.726 42.9439 135.653 43.3635 135.653C43.993 135.653 44.503 135.807 44.8935 136.116C45.2899 136.419 45.5085 136.845 45.5493 137.393H44.2029C44.1912 137.183 44.1009 137.011 43.9318 136.877C43.7686 136.737 43.5501 136.667 43.2761 136.667C43.0371 136.667 42.8448 136.728 42.6991 136.851C42.5592 136.973 42.4893 137.151 42.4893 137.384C42.4893 137.547 42.5417 137.684 42.6466 137.795C42.7574 137.9 42.8914 137.987 43.0488 138.057C43.212 138.121 43.4393 138.197 43.7307 138.284C44.1271 138.401 44.4506 138.518 44.7012 138.634C44.9518 138.751 45.1675 138.926 45.3482 139.159C45.5289 139.392 45.6192 139.698 45.6192 140.077C45.6192 140.403 45.5347 140.706 45.3657 140.986C45.1966 141.266 44.9489 141.49 44.6225 141.659C44.2961 141.822 43.9085 141.904 43.4597 141.904ZM51.1829 139.316C51.1829 139.491 51.1713 139.648 51.148 139.788H47.6071C47.6362 140.138 47.7586 140.412 47.9743 140.61C48.19 140.808 48.4552 140.907 48.7699 140.907C49.2245 140.907 49.548 140.712 49.7404 140.321H51.0605C50.9206 140.788 50.6525 141.172 50.2562 141.476C49.8598 141.773 49.3732 141.921 48.7961 141.921C48.3298 141.921 47.9102 141.819 47.5372 141.615C47.17 141.406 46.8814 141.111 46.6716 140.732C46.4676 140.354 46.3656 139.916 46.3656 139.421C46.3656 138.92 46.4676 138.48 46.6716 138.101C46.8756 137.722 47.1612 137.431 47.5284 137.227C47.8956 137.023 48.3182 136.921 48.7961 136.921C49.2566 136.921 49.6675 137.02 50.0289 137.218C50.3961 137.416 50.6788 137.699 50.8769 138.066C51.0809 138.427 51.1829 138.844 51.1829 139.316ZM49.9152 138.966C49.9094 138.652 49.7957 138.401 49.5742 138.214C49.3528 138.022 49.0817 137.926 48.7612 137.926C48.4581 137.926 48.2016 138.019 47.9918 138.206C47.7878 138.386 47.6625 138.64 47.6158 138.966H49.9152ZM54.7604 136.929C55.3374 136.929 55.8037 137.113 56.1592 137.48C56.5148 137.841 56.6925 138.349 56.6925 139.001V141.843H55.4685V139.167C55.4685 138.783 55.3724 138.488 55.18 138.284C54.9877 138.075 54.7254 137.97 54.3932 137.97C54.0551 137.97 53.787 138.075 53.5888 138.284C53.3965 138.488 53.3003 138.783 53.3003 139.167V141.843H52.0763V136.999H53.3003V137.602C53.4635 137.393 53.6704 137.229 53.921 137.113C54.1775 136.99 54.4573 136.929 54.7604 136.929ZM58.4772 136.422C58.2616 136.422 58.0809 136.355 57.9352 136.221C57.7953 136.081 57.7254 135.909 57.7254 135.705C57.7254 135.501 57.7953 135.332 57.9352 135.198C58.0809 135.058 58.2616 134.988 58.4772 134.988C58.6929 134.988 58.8707 135.058 59.0106 135.198C59.1563 135.332 59.2291 135.501 59.2291 135.705C59.2291 135.909 59.1563 136.081 59.0106 136.221C58.8707 136.355 58.6929 136.422 58.4772 136.422ZM59.0805 136.999V141.843H57.8565V136.999H59.0805ZM62.4406 141.921C61.9743 141.921 61.5547 141.819 61.1816 141.615C60.8086 141.406 60.5143 141.111 60.2986 140.732C60.0888 140.354 59.9839 139.916 59.9839 139.421C59.9839 138.926 60.0917 138.488 60.3073 138.11C60.5288 137.731 60.829 137.439 61.2079 137.235C61.5867 137.025 62.0093 136.921 62.4756 136.921C62.9419 136.921 63.3644 137.025 63.7433 137.235C64.1221 137.439 64.4194 137.731 64.6351 138.11C64.8565 138.488 64.9673 138.926 64.9673 139.421C64.9673 139.916 64.8536 140.354 64.6263 140.732C64.4048 141.111 64.1017 141.406 63.7171 141.615C63.3382 141.819 62.9127 141.921 62.4406 141.921ZM62.4406 140.855C62.6621 140.855 62.869 140.802 63.0613 140.697C63.2595 140.587 63.4169 140.423 63.5335 140.208C63.65 139.992 63.7083 139.73 63.7083 139.421C63.7083 138.961 63.5859 138.608 63.3411 138.363C63.1021 138.112 62.8078 137.987 62.4581 137.987C62.1084 137.987 61.814 138.112 61.5751 138.363C61.3419 138.608 61.2253 138.961 61.2253 139.421C61.2253 139.881 61.339 140.237 61.5663 140.488C61.7995 140.732 62.0909 140.855 62.4406 140.855ZM67.0891 137.751C67.2465 137.495 67.4505 137.294 67.7011 137.148C67.9576 137.002 68.249 136.929 68.5754 136.929V138.214H68.2519C67.8672 138.214 67.5758 138.305 67.3776 138.485C67.1853 138.666 67.0891 138.981 67.0891 139.43V141.843H65.8651V136.999H67.0891V137.751ZM70.0206 136.422C69.8049 136.422 69.6242 136.355 69.4785 136.221C69.3386 136.081 69.2687 135.909 69.2687 135.705C69.2687 135.501 69.3386 135.332 69.4785 135.198C69.6242 135.058 69.8049 134.988 70.0206 134.988C70.2362 134.988 70.414 135.058 70.5539 135.198C70.6996 135.332 70.7725 135.501 70.7725 135.705C70.7725 135.909 70.6996 136.081 70.5539 136.221C70.414 136.355 70.2362 136.422 70.0206 136.422ZM70.6238 136.999V141.843H69.3998V136.999H70.6238ZM73.2582 138.005V140.348C73.2582 140.511 73.2961 140.63 73.3719 140.706C73.4535 140.776 73.5875 140.811 73.774 140.811H74.3423V141.843H73.5729C72.5413 141.843 72.0255 141.341 72.0255 140.339V138.005H71.4484V136.999H72.0255V135.801H73.2582V136.999H74.3423V138.005H73.2582ZM79.8564 136.999L76.8576 144.133H75.555L76.6041 141.72L74.6632 136.999H76.0358L77.286 140.383L78.5538 136.999H79.8564Z" fill="#24283A"/>
<path d="M260.598 149.493H46.3979C43.38 149.493 40.9336 151.939 40.9336 154.957V171.714C40.9336 174.732 43.38 177.178 46.3979 177.178H260.598C263.616 177.178 266.062 174.732 266.062 171.714V154.957C266.062 151.939 263.616 149.493 260.598 149.493Z" fill="white"/>
<path d="M55.8555 165.937C55.5203 165.937 55.2192 165.878 54.952 165.762C54.6898 165.64 54.4833 165.475 54.3328 165.266C54.1822 165.053 54.1045 164.807 54.0996 164.53H54.8063C54.8306 164.769 54.9278 164.97 55.0978 165.135C55.2726 165.295 55.5252 165.376 55.8555 165.376C56.1712 165.376 56.4189 165.298 56.5986 165.142C56.7832 164.982 56.8755 164.778 56.8755 164.53C56.8755 164.336 56.8221 164.179 56.7152 164.057C56.6083 163.935 56.4748 163.843 56.3145 163.78C56.1542 163.717 55.938 163.649 55.666 163.576C55.3309 163.489 55.0613 163.401 54.8573 163.314C54.6582 163.226 54.4858 163.09 54.34 162.906C54.1992 162.716 54.1288 162.463 54.1288 162.148C54.1288 161.871 54.1992 161.626 54.34 161.412C54.4809 161.199 54.6776 161.033 54.9302 160.917C55.1876 160.8 55.4815 160.742 55.8118 160.742C56.2877 160.742 56.6763 160.861 56.9775 161.099C57.2835 161.337 57.4559 161.653 57.4948 162.046H56.7662C56.7419 161.851 56.6399 161.682 56.4602 161.536C56.2804 161.385 56.0425 161.31 55.7462 161.31C55.4693 161.31 55.2435 161.383 55.0686 161.529C54.8938 161.669 54.8063 161.869 54.8063 162.126C54.8063 162.31 54.8573 162.461 54.9593 162.578C55.0662 162.694 55.1949 162.784 55.3455 162.847C55.5009 162.906 55.717 162.973 55.9939 163.051C56.329 163.144 56.5986 163.236 56.8026 163.328C57.0066 163.416 57.1815 163.554 57.3272 163.744C57.4729 163.928 57.5458 164.181 57.5458 164.501C57.5458 164.749 57.4802 164.982 57.349 165.201C57.2179 165.419 57.0236 165.596 56.7662 165.733C56.5088 165.869 56.2052 165.937 55.8555 165.937ZM62.1642 163.736C62.1642 163.862 62.157 163.996 62.1424 164.137H58.9512C58.9756 164.53 59.1091 164.839 59.352 165.062C59.5997 165.281 59.8984 165.39 60.2481 165.39C60.5347 165.39 60.7727 165.325 60.9621 165.193C61.1564 165.057 61.2924 164.878 61.3701 164.654H62.0841C61.9773 165.038 61.7635 165.352 61.443 165.594C61.1224 165.832 60.7241 165.951 60.2481 165.951C59.8692 165.951 59.5293 165.866 59.2281 165.696C58.9319 165.526 58.6987 165.286 58.5287 164.975C58.3587 164.659 58.2737 164.295 58.2737 163.882C58.2737 163.469 58.3563 163.108 58.5214 162.796C58.6865 162.485 58.9173 162.248 59.2135 162.082C59.5147 161.913 59.8596 161.827 60.2481 161.827C60.627 161.827 60.9621 161.91 61.2535 162.075C61.545 162.241 61.7684 162.469 61.9238 162.76C62.0841 163.046 62.1642 163.372 62.1642 163.736ZM61.4794 163.598C61.4794 163.345 61.4236 163.129 61.3118 162.949C61.2001 162.765 61.0471 162.627 60.8528 162.534C60.6634 162.437 60.4521 162.388 60.219 162.388C59.8838 162.388 59.5973 162.496 59.3592 162.709C59.1261 162.922 58.9925 163.219 58.9585 163.598H61.4794ZM64.9847 161.82C65.4704 161.82 65.8639 161.968 66.165 162.265C66.4661 162.556 66.6167 162.979 66.6167 163.532V165.886H65.961V163.627C65.961 163.228 65.8614 162.925 65.6623 162.716C65.4631 162.503 65.1911 162.396 64.8463 162.396C64.4965 162.396 64.2173 162.505 64.0084 162.724C63.8044 162.942 63.7024 163.261 63.7024 163.678V165.886H63.0394V161.893H63.7024V162.461C63.8335 162.257 64.0108 162.099 64.2343 161.988C64.4625 161.876 64.7127 161.82 64.9847 161.82ZM68.0421 161.245C67.9159 161.245 67.809 161.201 67.7216 161.113C67.6341 161.026 67.5904 160.919 67.5904 160.793C67.5904 160.667 67.6341 160.56 67.7216 160.472C67.809 160.385 67.9159 160.341 68.0421 160.341C68.1636 160.341 68.2656 160.385 68.3481 160.472C68.4356 160.56 68.4793 160.667 68.4793 160.793C68.4793 160.919 68.4356 161.026 68.3481 161.113C68.2656 161.201 68.1636 161.245 68.0421 161.245ZM68.3627 161.893V165.886H67.6997V161.893H68.3627ZM71.2339 165.951C70.86 165.951 70.5199 165.866 70.2139 165.696C69.9128 165.526 69.6748 165.286 69.4999 164.975C69.33 164.659 69.2449 164.295 69.2449 163.882C69.2449 163.474 69.3324 163.115 69.5072 162.804C69.687 162.488 69.9298 162.248 70.2358 162.082C70.5418 161.913 70.8842 161.827 71.2631 161.827C71.6419 161.827 71.9844 161.913 72.2904 162.082C72.5964 162.248 72.8368 162.485 73.0117 162.796C73.1914 163.108 73.2812 163.469 73.2812 163.882C73.2812 164.295 73.189 164.659 73.0044 164.975C72.8247 165.286 72.5794 165.526 72.2685 165.696C71.9577 165.866 71.6128 165.951 71.2339 165.951ZM71.2339 165.368C71.472 165.368 71.6954 165.312 71.9042 165.201C72.1131 165.089 72.2807 164.922 72.4069 164.698C72.5381 164.474 72.6036 164.203 72.6036 163.882C72.6036 163.561 72.5406 163.29 72.4142 163.066C72.288 162.842 72.1228 162.678 71.9188 162.571C71.7148 162.459 71.4938 162.403 71.2558 162.403C71.013 162.403 70.7895 162.459 70.5855 162.571C70.3864 162.678 70.2261 162.842 70.1046 163.066C69.9833 163.29 69.9225 163.561 69.9225 163.882C69.9225 164.208 69.9808 164.482 70.0974 164.705C70.2188 164.929 70.3791 165.097 70.5782 165.208C70.7774 165.315 70.996 165.368 71.2339 165.368ZM74.816 162.541C74.9325 162.313 75.0977 162.136 75.3114 162.01C75.53 161.884 75.7947 161.82 76.1055 161.82V162.505H75.9307C75.1875 162.505 74.816 162.908 74.816 163.714V165.886H74.153V161.893H74.816V162.541ZM79.4763 165.346H81.2542V165.886H78.8133V160.807H79.4763V165.346ZM85.6009 163.736C85.6009 163.862 85.5936 163.996 85.579 164.137H82.3879C82.4119 164.53 82.546 164.839 82.7886 165.062C83.0363 165.281 83.335 165.39 83.6847 165.39C83.971 165.39 84.2093 165.325 84.3987 165.193C84.5932 165.057 84.7288 164.878 84.8067 164.654H85.5207C85.4136 165.038 85.2001 165.352 84.8796 165.594C84.559 165.832 84.1605 165.951 83.6847 165.951C83.3059 165.951 82.9656 165.866 82.6647 165.696C82.3682 165.526 82.135 165.286 81.9653 164.975C81.7955 164.659 81.7103 164.295 81.7103 163.882C81.7103 163.469 81.7926 163.108 81.958 162.796C82.1234 162.485 82.3536 162.248 82.6501 162.082C82.951 161.913 83.2964 161.827 83.6847 161.827C84.0636 161.827 84.3987 161.91 84.6901 162.075C84.9816 162.241 85.2052 162.469 85.3604 162.76C85.5207 163.046 85.6009 163.372 85.6009 163.736ZM84.916 163.598C84.916 163.345 84.8599 163.129 84.7484 162.949C84.637 162.765 84.484 162.627 84.2894 162.534C84.1 162.437 83.8887 162.388 83.6556 162.388C83.3204 162.388 83.0341 162.496 82.7959 162.709C82.5627 162.922 82.4294 163.219 82.3951 163.598H84.916ZM87.9622 165.274L89.2007 161.893H89.9074L88.341 165.886H87.5687L86.0023 161.893H86.7163L87.9622 165.274ZM94.2031 163.736C94.2031 163.862 94.1958 163.996 94.1812 164.137H90.9901C91.0141 164.53 91.1475 164.839 91.3908 165.062C91.6385 165.281 91.9372 165.39 92.287 165.39C92.5733 165.39 92.8115 165.325 93.0009 165.193C93.1947 165.057 93.331 164.878 93.409 164.654H94.123C94.0159 165.038 93.8024 165.352 93.4818 165.594C93.1612 165.832 92.7627 165.951 92.287 165.951C91.9081 165.951 91.5679 165.866 91.267 165.696C90.9704 165.526 90.7373 165.286 90.5675 164.975C90.397 164.659 90.3125 164.295 90.3125 163.882C90.3125 163.469 90.3949 163.108 90.5602 162.796C90.7249 162.485 90.9559 162.248 91.2524 162.082C91.5533 161.913 91.8979 161.827 92.287 161.827C92.6658 161.827 93.0009 161.91 93.2924 162.075C93.5838 162.241 93.8067 162.469 93.9627 162.76C94.1229 163.046 94.2031 163.372 94.2031 163.736ZM93.5182 163.598C93.5182 163.345 93.4621 163.129 93.3507 162.949C93.2385 162.765 93.0855 162.627 92.8917 162.534C92.7022 162.437 92.491 162.388 92.2578 162.388C91.9227 162.388 91.6356 162.496 91.3981 162.709C91.165 162.922 91.0309 163.219 90.9974 163.598H93.5182ZM95.7411 160.494V165.886H95.0781V160.494H95.7411Z" fill="#24283A"/>
<path d="M248.675 161.648L250.765 163.734L252.856 161.648L253.497 162.291L250.765 165.023L248.033 162.291L248.675 161.648Z" fill="#24283A"/>
<path d="M260.598 149.493H46.3979C43.38 149.493 40.9336 151.939 40.9336 154.957V171.714C40.9336 174.732 43.38 177.178 46.3979 177.178H260.598C263.616 177.178 266.062 174.732 266.062 171.714V154.957C266.062 151.939 263.616 149.493 260.598 149.493Z" stroke="#E4E4E6"/>
<path d="M164.167 41H132.5C127.253 41 123 45.2533 123 50.5C123 55.7467 127.253 60 132.5 60H164.167C169.413 60 173.667 55.7467 173.667 50.5C173.667 45.2533 169.413 41 164.167 41Z" fill="#FEC93D"/>
<path d="M132.597 48.8644V50.463H134.34V50.9776H132.597V52.6243H134.546V53.1388H131.973V48.3498H134.546V48.8644H132.597ZM140.012 49.3103C140.305 49.3103 140.565 49.3721 140.794 49.4956C141.023 49.6145 141.203 49.7952 141.336 50.0376C141.469 50.28 141.535 50.5751 141.535 50.9227V53.1388H140.917V51.0119C140.917 50.6368 140.824 50.351 140.636 50.1543C140.453 49.953 140.204 49.8524 139.888 49.8524C139.564 49.8524 139.305 49.9576 139.113 50.168C138.921 50.3738 138.825 50.6734 138.825 51.0668V53.1388H138.207V51.0119C138.207 50.6368 138.114 50.351 137.926 50.1543C137.743 49.953 137.494 49.8524 137.178 49.8524C136.853 49.8524 136.595 49.9576 136.403 50.168C136.211 50.3738 136.115 50.6734 136.115 51.0668V53.1388H135.49V49.3789H136.115V49.921C136.238 49.7243 136.403 49.5733 136.609 49.4681C136.819 49.363 137.05 49.3103 137.302 49.3103C137.617 49.3103 137.896 49.3812 138.139 49.523C138.381 49.6648 138.562 49.8729 138.681 50.1474C138.786 49.8821 138.96 49.6762 139.202 49.5299C139.445 49.3835 139.714 49.3103 140.012 49.3103ZM143.184 50.0719C143.307 49.857 143.49 49.6786 143.732 49.5368C143.979 49.3904 144.265 49.3172 144.59 49.3172C144.924 49.3172 145.226 49.3973 145.496 49.5573C145.77 49.7174 145.985 49.9438 146.141 50.2366C146.296 50.5248 146.374 50.8609 146.374 51.2452C146.374 51.6248 146.296 51.9633 146.141 52.2606C145.985 52.5579 145.77 52.7889 145.496 52.9536C145.226 53.1183 144.924 53.2006 144.59 53.2006C144.27 53.2006 143.986 53.1297 143.739 52.9879C143.497 52.8415 143.312 52.6608 143.184 52.4459V54.9227H142.559V49.3789H143.184V50.0719ZM145.736 51.2452C145.736 50.9616 145.679 50.7146 145.564 50.5042C145.45 50.2937 145.294 50.1337 145.098 50.0239C144.906 49.9141 144.693 49.8592 144.46 49.8592C144.231 49.8592 144.018 49.9164 143.822 50.0308C143.629 50.1405 143.474 50.3029 143.355 50.5179C143.241 50.7283 143.184 50.973 143.184 51.252C143.184 51.5356 143.241 51.7849 143.355 51.9999C143.474 52.2103 143.629 52.3727 143.822 52.487C144.018 52.5968 144.231 52.6517 144.46 52.6517C144.693 52.6517 144.906 52.5968 145.098 52.487C145.294 52.3727 145.45 52.2103 145.564 51.9999C145.679 51.7849 145.736 51.5333 145.736 51.2452ZM147.82 48.0616V53.1388H147.196V48.0616H147.82ZM150.524 53.2006C150.172 53.2006 149.852 53.1205 149.563 52.9604C149.28 52.8004 149.056 52.574 148.891 52.2812C148.731 51.9839 148.651 51.6408 148.651 51.252C148.651 50.8678 148.733 50.5293 148.898 50.2366C149.067 49.9393 149.296 49.7129 149.584 49.5573C149.872 49.3973 150.195 49.3172 150.551 49.3172C150.908 49.3172 151.231 49.3973 151.519 49.5573C151.807 49.7129 152.033 49.937 152.198 50.2297C152.367 50.5225 152.452 50.8632 152.452 51.252C152.452 51.6408 152.365 51.9839 152.191 52.2812C152.022 52.574 151.791 52.8004 151.498 52.9604C151.206 53.1205 150.881 53.2006 150.524 53.2006ZM150.524 52.6517C150.748 52.6517 150.959 52.5991 151.155 52.4939C151.352 52.3887 151.51 52.2309 151.629 52.0205C151.752 51.8101 151.814 51.5539 151.814 51.252C151.814 50.9501 151.754 50.694 151.636 50.4836C151.517 50.2732 151.361 50.1177 151.169 50.017C150.977 49.9118 150.769 49.8592 150.545 49.8592C150.316 49.8592 150.106 49.9118 149.913 50.017C149.726 50.1177 149.575 50.2732 149.461 50.4836C149.346 50.694 149.289 50.9501 149.289 51.252C149.289 51.5585 149.344 51.8169 149.454 52.0273C149.568 52.2378 149.719 52.3956 149.907 52.5008C150.094 52.6014 150.3 52.6517 150.524 52.6517ZM156.511 49.3789L154.247 54.909H153.602L154.343 53.0977L152.827 49.3789H153.52L154.7 52.4253L155.866 49.3789H156.511ZM160.57 51.1148C160.57 51.2337 160.563 51.3595 160.549 51.4922H157.544C157.567 51.8627 157.692 52.1531 157.921 52.3635C158.154 52.5694 158.436 52.6723 158.765 52.6723C159.035 52.6723 159.259 52.6105 159.437 52.487C159.62 52.3589 159.748 52.1897 159.822 51.9793H160.494C160.393 52.3407 160.192 52.6357 159.89 52.8644C159.588 53.0885 159.213 53.2006 158.765 53.2006C158.408 53.2006 158.088 53.1205 157.805 52.9604C157.525 52.8004 157.306 52.574 157.146 52.2812C156.986 51.9839 156.906 51.6408 156.906 51.252C156.906 50.8632 156.983 50.5225 157.139 50.2297C157.295 49.937 157.512 49.7129 157.791 49.5573C158.074 49.3973 158.399 49.3172 158.765 49.3172C159.122 49.3172 159.437 49.3949 159.712 49.5505C159.986 49.706 160.197 49.921 160.343 50.1954C160.494 50.4653 160.57 50.7718 160.57 51.1148ZM159.925 50.9844C159.925 50.7466 159.872 50.5431 159.767 50.3738C159.662 50.2 159.518 50.0697 159.335 49.9827C159.156 49.8913 158.957 49.8455 158.738 49.8455C158.422 49.8455 158.152 49.9462 157.928 50.1474C157.708 50.3486 157.583 50.6277 157.551 50.9844H159.925ZM164.824 51.1148C164.824 51.2337 164.817 51.3595 164.804 51.4922H161.798C161.821 51.8627 161.947 52.1531 162.176 52.3635C162.409 52.5694 162.69 52.6723 163.02 52.6723C163.29 52.6723 163.514 52.6105 163.692 52.487C163.875 52.3589 164.003 52.1897 164.076 51.9793H164.749C164.648 52.3407 164.447 52.6357 164.145 52.8644C163.843 53.0885 163.468 53.2006 163.02 53.2006C162.663 53.2006 162.343 53.1205 162.059 52.9604C161.78 52.8004 161.561 52.574 161.401 52.2812C161.24 51.9839 161.16 51.6408 161.16 51.252C161.16 50.8632 161.238 50.5225 161.394 50.2297C161.549 49.937 161.767 49.7129 162.045 49.5573C162.329 49.3973 162.654 49.3172 163.02 49.3172C163.377 49.3172 163.692 49.3949 163.967 49.5505C164.241 49.706 164.451 49.921 164.598 50.1954C164.749 50.4653 164.824 50.7718 164.824 51.1148ZM164.179 50.9844C164.179 50.7466 164.127 50.5431 164.021 50.3738C163.916 50.2 163.772 50.0697 163.589 49.9827C163.411 49.8913 163.212 49.8455 162.992 49.8455C162.677 49.8455 162.407 49.9462 162.183 50.1474C161.963 50.3486 161.837 50.6277 161.805 50.9844H164.179Z" fill="white"/>
</g>
<defs>
<filter id="filter0_d_1551_16058" x="0" y="0" width="315" height="226.114" filterUnits="userSpaceOnUse" color-interpolation-filters="sRGB">
<feFlood flood-opacity="0" result="BackgroundImageFix"/>
<feColorMatrix in="SourceAlpha" type="matrix" values="0 0 0 0 0 0 0 0 0 0 0 0 0 0 0 0 0 0 127 0" result="hardAlpha"/>
<feOffset dx="4" dy="4"/>
<feGaussianBlur stdDeviation="15"/>
<feColorMatrix type="matrix" values="0 0 0 0 0.6 0 0 0 0 0.647059 0 0 0 0 0.658824 0 0 0 0.2 0"/>
<feBlend mode="normal" in2="BackgroundImageFix" result="effect1_dropShadow_1551_16058"/>
<feBlend mode="normal" in="SourceGraphic" in2="effect1_dropShadow_1551_16058" result="shape"/>
</filter>
</defs>
</svg>
