<svg width="58" height="60" viewBox="0 0 58 60" fill="none" xmlns="http://www.w3.org/2000/svg">
<path d="M29.1892 14.5946C29.1892 22.655 22.655 29.1892 14.5946 29.1892C6.53422 29.1892 0 22.655 0 14.5946C0 6.53422 6.53422 0 14.5946 0C22.655 0 29.1892 6.53422 29.1892 14.5946Z" fill="#242526"/>
<path d="M14.5586 9.88891V7.29736H16.1192V9.88891H19.803V11.7725H13.4751C12.941 11.7725 12.557 11.8741 12.3346 12.0773C12.2181 12.1811 12.1273 12.3036 12.0675 12.4377C12.0078 12.5717 11.9803 12.7146 11.9868 12.8578C11.9739 13.1531 12.0942 13.4415 12.3232 13.6642C12.5475 13.8792 12.9771 13.9867 13.612 13.9867H16.2997C16.9625 13.9711 17.6242 14.0424 18.2614 14.1979C18.7113 14.3083 19.1264 14.5029 19.476 14.7672C19.766 14.9985 19.979 15.2905 20.0938 15.6139C20.2106 15.9511 20.2689 16.3009 20.2668 16.6524C20.2727 17.0607 20.2028 17.4672 20.0596 17.8571C19.9309 18.2067 19.7046 18.5248 19.4 18.7844C19.0668 19.0573 18.6671 19.2648 18.2291 19.3923C17.678 19.5486 17.0992 19.6228 16.5183 19.6117H16.1382V21.892H14.5776V19.5971H9.87494V17.7039H16.5278C17.0765 17.7039 17.463 17.6028 17.6873 17.4007C17.9167 17.1878 18.0376 16.9067 18.0238 16.6186C18.0309 16.3306 17.9155 16.05 17.6987 15.8283C17.482 15.6069 17.0487 15.4994 16.3986 15.5058H13.6709C13.011 15.5217 12.3525 15.4471 11.7206 15.2849C11.2688 15.1661 10.8565 14.9583 10.5174 14.6785C10.2269 14.4297 10.0145 14.1231 9.89966 13.7867C9.78191 13.437 9.72366 13.0748 9.72667 12.7111C9.72667 11.8531 10.0137 11.1694 10.5935 10.6614C11.1732 10.1534 12.1141 9.89697 13.4447 9.89697L14.5586 9.88891Z" fill="#FEC93D"/>
<path fill-rule="evenodd" clip-rule="evenodd" d="M14.5946 2.12801C7.7095 2.12801 2.12801 7.70949 2.12801 14.5946C2.12801 21.4797 7.7095 27.0612 14.5946 27.0612C21.4797 27.0612 27.0612 21.4797 27.0612 14.5946C27.0612 7.70949 21.4797 2.12801 14.5946 2.12801ZM0 14.5946C0 6.53422 6.53423 0 14.5946 0C22.655 0 29.1892 6.53422 29.1892 14.5946C29.1892 22.655 22.655 29.1892 14.5946 29.1892C6.53423 29.1892 0 22.655 0 14.5946Z" fill="#FEC93D"/>
<path d="M57.5642 45.4051C57.5642 53.4655 51.03 59.9997 42.9696 59.9997C34.9092 59.9997 28.375 53.4655 28.375 45.4051C28.375 37.3448 34.9092 30.8105 42.9696 30.8105C51.03 30.8105 57.5642 37.3448 57.5642 45.4051Z" fill="#242526"/>
<path d="M47.0283 39.7295V40.6508V41.5721L42.6432 41.5721C41.672 41.5721 40.9634 41.8428 40.5175 42.3841C40.0814 42.9151 39.8634 43.7896 39.8634 45.0076C39.8634 46.2152 40.0814 47.0897 40.5175 47.631C40.9535 48.1619 41.6621 48.4274 42.6432 48.4274H47.0283V49.3487V50.27H42.6432C41.1765 50.27 40.0517 49.838 39.2688 48.9739C38.4959 48.0995 38.1094 46.7773 38.1094 45.0076C38.1094 43.2274 38.4959 41.9053 39.2688 41.0412C40.0517 40.1667 41.1765 39.7295 42.6432 39.7295L47.0283 39.7295Z" fill="#FEC93D"/>
<path d="M42.1641 38.1084H42.9749V41.3516H42.1641V38.1084Z" fill="#FEC93D"/>
<path d="M42.1641 49.459H42.9749V52.7022H42.1641V49.459Z" fill="#FEC93D"/>
<path d="M44.5938 38.1084H45.4046V41.3516H44.5938V38.1084Z" fill="#FEC93D"/>
<path d="M43.7812 49.459H45.4029V52.7022H43.7812V49.459Z" fill="#FEC93D"/>
<path fill-rule="evenodd" clip-rule="evenodd" d="M42.9696 32.9386C36.0845 32.9386 30.503 38.52 30.503 45.4051C30.503 52.2902 36.0845 57.8717 42.9696 57.8717C49.8547 57.8717 55.4362 52.2902 55.4362 45.4051C55.4362 38.52 49.8547 32.9386 42.9696 32.9386ZM28.375 45.4051C28.375 37.3448 34.9092 30.8105 42.9696 30.8105C51.03 30.8105 57.5642 37.3448 57.5642 45.4051C57.5642 53.4655 51.03 59.9997 42.9696 59.9997C34.9092 59.9997 28.375 53.4655 28.375 45.4051Z" fill="#FEC93D"/>
<path fill-rule="evenodd" clip-rule="evenodd" d="M7.60171 37.8026L14.2251 31.1181C14.6315 30.7079 15.2905 30.7079 15.6969 31.1181L22.3203 37.8026C22.7268 38.2128 22.7268 38.8778 22.3203 39.288C21.9139 39.6982 21.2549 39.6982 20.8485 39.288L16.0018 34.3966L16.0018 44.1151L26.7563 44.1151L26.7563 46.2158L13.9203 46.2158L13.9203 34.3966L9.07357 39.288C8.66713 39.6982 8.00815 39.6982 7.60171 39.288C7.19526 38.8778 7.19526 38.2128 7.60171 37.8026Z" fill="white"/>
<path fill-rule="evenodd" clip-rule="evenodd" d="M50.7733 20.5754L44.1499 27.2599C43.7435 27.6701 43.0845 27.6701 42.6781 27.2599L36.0547 20.5754C35.6482 20.1652 35.6482 19.5001 36.0547 19.0899C36.4611 18.6797 37.1201 18.6797 37.5265 19.0899L42.3732 23.9813L42.3732 14.2628L31.6187 14.2628L31.6187 12.1621L44.4547 12.1621L44.4547 23.9813L49.3014 19.0899C49.7079 18.6797 50.3668 18.6797 50.7733 19.0899C51.1797 19.5001 51.1797 20.1652 50.7733 20.5754Z" fill="white"/>
</svg>
