<svg width="59" height="80" viewBox="0 0 59 80" fill="none" xmlns="http://www.w3.org/2000/svg">
<path d="M1.46875 19.5347C1.47641 19.7793 1.56595 20.0153 1.72437 20.2083C1.49335 19.7338 1.4741 19.5591 1.46875 19.5347ZM57.4621 20.2062C57.6155 20.0178 57.7037 19.7889 57.7145 19.5509C57.7113 19.6078 57.6717 19.7927 57.4663 20.2062H57.4621Z" fill="white"/>
<path fill-rule="evenodd" clip-rule="evenodd" d="M29.3006 12.6733H29.3115C31.521 12.6733 32.5464 12.7217 34.4795 12.8129C34.6606 12.8214 34.8496 12.8303 35.0483 12.8396L36.4352 12.9044L36.3123 14.3139C36.2989 14.4674 36.2919 14.6248 36.2909 14.793V16.3873L34.7475 16.3361C32.6743 16.2672 31.6726 16.234 29.8308 16.234C29.5675 16.234 29.4961 16.2346 29.3285 16.2359C29.1775 16.2371 28.9482 16.239 28.4296 16.2416L26.61 16.2507L27.1536 14.4808C27.2252 14.2477 27.2845 14.0109 27.3312 13.7713L27.5423 12.6888L28.6251 12.6799C28.8229 12.6783 28.935 12.6771 28.9987 12.6762C29.0308 12.6758 29.0478 12.6754 29.0551 12.6753C29.0591 12.6751 29.0635 12.6749 29.0681 12.6747C29.0957 12.6736 29.1209 12.6735 29.1305 12.6735L29.1318 12.6735C29.1562 12.6733 29.2042 12.6733 29.3006 12.6733ZM10.0264 13.9098L10.4 14.9266C10.4805 15.1457 10.5719 15.3604 10.6739 15.57L11.463 17.1925L9.71336 17.5072C7.86963 17.839 6.57289 18.0798 5.70608 18.4176C5.28689 18.5809 5.08468 18.7256 4.99302 18.8202C4.93518 18.88 4.91328 18.9218 4.90602 19.0155C4.90411 19.0468 4.90156 19.0717 4.89972 19.0881C4.89866 19.0975 4.89757 19.1065 4.89646 19.1149C5.1492 19.2924 5.57462 19.5082 6.2099 19.7399C7.47549 20.2014 9.32578 20.6386 11.6479 21.0151C16.2749 21.7652 22.5656 22.2415 29.3138 22.2653H29.8351C36.7037 22.2653 42.9042 21.7958 47.4094 21.0441C49.6707 20.6668 51.4501 20.2273 52.6592 19.7644C53.2148 19.5517 53.5982 19.3533 53.8403 19.187C53.4566 18.9847 52.7202 18.728 51.3199 18.381L50.0151 18.0577L50.3446 16.731C50.4019 16.5004 50.4437 16.266 50.4698 16.0296L50.6371 14.5103L52.097 14.8614C54.2092 15.3693 55.7555 15.8817 56.7914 16.5046C57.3231 16.8242 57.791 17.2137 58.1231 17.7146C58.465 18.2303 58.6148 18.7921 58.6136 19.3632C58.615 19.4343 58.6111 19.5055 58.6018 19.5762C58.5682 19.8358 58.4654 20.1769 58.2361 20.6727C57.5048 22.2655 55.0757 26.2566 46.8609 35.9835C45.0114 38.1721 43.4122 40.5686 42.0948 43.1261C40.2112 46.83 38.922 49.588 37.5 53.5L36 51.5L28.5 50L21.5 52L20.7437 52.7342C19.3217 48.8222 18.399 46.83 16.5155 43.1261C15.1981 40.5686 13.5992 38.1724 11.7496 35.9838C3.54424 26.2617 1.11972 22.2726 0.382224 20.6795C0.133695 20.1461 0 19.7249 0 19.3803V19.2861L0.0127953 19.1927C0.271677 17.3042 1.73319 16.1729 3.27983 15.4815C4.853 14.7782 6.87773 14.356 8.97123 14.0593L10.0264 13.9098ZM4.09957 21.7722C5.54024 23.9745 8.34237 27.789 13.7652 34.2143C15.7474 36.5598 17.4609 39.128 18.8725 41.869L18.8741 41.8721L18.8757 41.8752C20.668 45.3994 21.4831 47.2908 22.8691 51L29 49.5L36 51C37.386 47.2908 37.9422 45.3994 39.7346 41.8752L39.7361 41.8721L39.7377 41.869C41.1493 39.1281 42.8627 36.5601 44.8448 34.2146C50.1176 27.9712 52.9151 24.1929 54.3908 21.9646C54.1383 22.0843 53.8714 22.1967 53.5945 22.3027C52.1484 22.8563 50.173 23.3306 47.8392 23.7199C43.1544 24.5016 36.8039 24.9767 29.8351 24.9767H29.3092L29.3069 24.9767C22.459 24.9527 16.0256 24.4703 11.2301 23.6928C8.8407 23.3055 6.80491 22.8367 5.31364 22.2928C4.87959 22.1345 4.46982 21.9621 4.09957 21.7722Z" fill="white"/>
<path d="M19.3167 19.0294C22.7579 19.0294 25.5476 16.2021 25.5476 12.7144C25.5476 9.22674 22.7579 6.39941 19.3167 6.39941C15.8756 6.39941 13.0859 9.22674 13.0859 12.7144C13.0859 16.2021 15.8756 19.0294 19.3167 19.0294Z" fill="white"/>
<path d="M19.2352 14.1456C20.6768 14.1456 21.8454 12.9393 21.8454 11.4512C21.8454 9.96316 20.6768 8.75684 19.2352 8.75684C17.7936 8.75684 16.625 9.96316 16.625 11.4512C16.625 12.9393 17.7936 14.1456 19.2352 14.1456Z" fill="white"/>
<path d="M23.0233 17.3859C23.0233 16.3926 22.6241 15.44 21.9136 14.7376C21.203 14.0352 20.2392 13.6406 19.2343 13.6406C18.2294 13.6406 17.2657 14.0352 16.5551 14.7376C15.8445 15.44 15.4453 16.3926 15.4453 17.3859L18.9367 18.6926L23.0233 17.3859Z" fill="white"/>
<path fill-rule="evenodd" clip-rule="evenodd" d="M19.3185 6.90087C16.1544 6.90087 13.5894 9.46589 13.5894 12.63C13.5894 15.7941 16.1544 18.3591 19.3185 18.3591C22.4826 18.3591 25.0476 15.7941 25.0476 12.63C25.0476 9.46589 22.4826 6.90087 19.3185 6.90087ZM12.4141 12.63C12.4141 8.8168 15.5053 5.72559 19.3185 5.72559C23.1317 5.72559 26.2229 8.8168 26.2229 12.63C26.2229 16.4432 23.1317 19.5344 19.3185 19.5344C15.5053 19.5344 12.4141 16.4432 12.4141 12.63Z" fill="white"/>
<path d="M43.6475 19.8711C46.3911 19.8711 48.6153 17.6092 48.6153 14.8191C48.6153 12.029 46.3911 9.76709 43.6475 9.76709C40.9039 9.76709 38.6797 12.029 38.6797 14.8191C38.6797 17.6092 40.9039 19.8711 43.6475 19.8711Z" fill="white"/>
<path d="M43.6519 15.8296C44.8144 15.8296 45.7569 14.8872 45.7569 13.7246C45.7569 12.5621 44.8144 11.6196 43.6519 11.6196C42.4893 11.6196 41.5469 12.5621 41.5469 13.7246C41.5469 14.8872 42.4893 15.8296 43.6519 15.8296Z" fill="white"/>
<path d="M46.5971 18.5327C46.5973 18.1556 46.5211 17.7821 46.3731 17.4336C46.225 17.0852 46.008 16.7686 45.7343 16.5019C45.4606 16.2352 45.1357 16.0237 44.7781 15.8794C44.4205 15.7352 44.0372 15.661 43.6501 15.6611C42.8685 15.6611 42.119 15.9637 41.5663 16.5022C41.0136 17.0407 40.7031 17.7711 40.7031 18.5327L43.4189 19.5343L46.5971 18.5327Z" fill="white"/>
<path fill-rule="evenodd" clip-rule="evenodd" d="M43.6449 10.1931C41.1364 10.1931 39.1028 12.2267 39.1028 14.7352C39.1028 17.2437 41.1364 19.2773 43.6449 19.2773C46.1534 19.2773 48.187 17.2437 48.187 14.7352C48.187 12.2267 46.1534 10.1931 43.6449 10.1931ZM38.1719 14.7352C38.1719 11.7126 40.6222 9.26221 43.6449 9.26221C46.6675 9.26221 49.1179 11.7126 49.1179 14.7352C49.1179 17.7579 46.6675 20.2082 43.6449 20.2082C40.6222 20.2082 38.1719 17.7579 38.1719 14.7352Z" fill="white"/>
<path d="M32.197 9.43053C34.6616 9.43053 36.6596 7.39486 36.6596 4.88372C36.6596 2.37259 34.6616 0.336914 32.197 0.336914C29.7324 0.336914 27.7344 2.37259 27.7344 4.88372C27.7344 7.39486 29.7324 9.43053 32.197 9.43053Z" fill="white"/>
<path d="M32.118 5.89426C33.1411 5.89426 33.9704 5.06491 33.9704 4.04186C33.9704 3.0188 33.1411 2.18945 32.118 2.18945C31.095 2.18945 30.2656 3.0188 30.2656 4.04186C30.2656 5.06491 31.095 5.89426 32.118 5.89426Z" fill="white"/>
<path d="M34.8107 8.3032C34.8092 7.57477 34.5249 6.87665 34.0199 6.36188C33.5149 5.84712 32.8305 5.55772 32.1168 5.55713C31.4021 5.55713 30.7166 5.84692 30.2112 6.36274C29.7058 6.87856 29.4219 7.57817 29.4219 8.30765L31.8989 9.26194L34.8107 8.3032Z" fill="white"/>
<path fill-rule="evenodd" clip-rule="evenodd" d="M32.1102 0.830593C29.8718 0.830593 28.0572 2.64519 28.0572 4.88361C28.0572 7.12203 29.8718 8.93663 32.1102 8.93663C34.3486 8.93663 36.1632 7.12203 36.1632 4.88361C36.1632 2.64519 34.3486 0.830593 32.1102 0.830593ZM27.2266 4.88361C27.2266 2.18647 29.413 0 32.1102 0C34.8073 0 36.9938 2.18647 36.9938 4.88361C36.9938 7.58075 34.8073 9.76722 32.1102 9.76722C29.413 9.76722 27.2266 7.58075 27.2266 4.88361Z" fill="white"/>
<path d="M28.4714 59.0508V56.2378H30.1654V59.0508H34.1639V61.0953H27.2954C26.7156 61.0953 26.2988 61.2056 26.0574 61.4261C25.931 61.5388 25.8324 61.6718 25.7675 61.8173C25.7027 61.9628 25.6729 62.1179 25.6799 62.2734C25.6659 62.5939 25.7965 62.9069 26.0451 63.1486C26.2885 63.382 26.7548 63.4987 27.4439 63.4987H30.3614C31.0808 63.4818 31.799 63.5591 32.4906 63.728C32.979 63.8478 33.4295 64.0589 33.809 64.3459C34.1237 64.597 34.355 64.9139 34.4796 65.2649C34.6064 65.6309 34.6697 66.0107 34.6673 66.3922C34.6738 66.8353 34.5979 67.2766 34.4424 67.6997C34.3028 68.0793 34.0572 68.4245 33.7265 68.7063C33.3649 69.0025 32.931 69.2277 32.4555 69.3662C31.8574 69.5358 31.2292 69.6164 30.5986 69.6042H30.186V72.0794H28.4921V69.5885H23.3876V67.5335H30.609C31.2045 67.5335 31.6241 67.4238 31.8675 67.2044C32.1165 66.9733 32.2477 66.6682 32.2327 66.3554C32.2405 66.0428 32.1152 65.7383 31.8799 65.4977C31.6447 65.2573 31.1743 65.1406 30.4686 65.1476H27.5079C26.7917 65.1648 26.0768 65.0839 25.391 64.9078C24.9006 64.7788 24.4531 64.5533 24.085 64.2496C23.7697 63.9795 23.5392 63.6467 23.4144 63.2816C23.2866 62.902 23.2234 62.5088 23.2267 62.1141C23.2267 61.1828 23.5382 60.4406 24.1675 59.8892C24.7968 59.3378 25.8181 59.0595 27.2624 59.0595L28.4714 59.0508Z" fill="#FEC93D"/>
<path fill-rule="evenodd" clip-rule="evenodd" d="M28.5135 50.6267C21.0401 50.6267 14.9817 56.6851 14.9817 64.1585C14.9817 71.6319 21.0401 77.6902 28.5135 77.6902C35.9869 77.6902 42.0452 71.6319 42.0452 64.1585C42.0452 56.6851 35.9869 50.6267 28.5135 50.6267ZM12.6719 64.1585C12.6719 55.4094 19.7644 48.3169 28.5135 48.3169C37.2625 48.3169 44.355 55.4094 44.355 64.1585C44.355 72.9075 37.2625 80.0001 28.5135 80.0001C19.7644 80.0001 12.6719 72.9075 12.6719 64.1585Z" fill="#FEC93D"/>
</svg>
