<svg width="59" height="80" viewBox="0 0 59 80" fill="none" xmlns="http://www.w3.org/2000/svg">
<path d="M1.46875 19.5344C1.47641 19.7791 1.56595 20.015 1.72437 20.208C1.49335 19.7336 1.4741 19.5588 1.46875 19.5344ZM57.4621 20.206C57.6155 20.0176 57.7037 19.7887 57.7145 19.5507C57.7113 19.6076 57.6717 19.7925 57.4663 20.206H57.4621Z" fill="#0F211E"/>
<path fill-rule="evenodd" clip-rule="evenodd" d="M29.3006 12.6732H29.3115C31.521 12.6732 32.5464 12.7216 34.4795 12.8128C34.6606 12.8213 34.8496 12.8302 35.0483 12.8395L36.4352 12.9043L36.3123 14.3138C36.2989 14.4673 36.2919 14.6246 36.2909 14.7929V16.3872L34.7475 16.336C32.6743 16.2671 31.6726 16.2339 29.8308 16.2339C29.5675 16.2339 29.4961 16.2344 29.3285 16.2358C29.1775 16.237 28.9482 16.2388 28.4296 16.2414L26.61 16.2506L27.1536 14.4807C27.2252 14.2476 27.2845 14.0108 27.3312 13.7712L27.5423 12.6886L28.6251 12.6798C28.8229 12.6781 28.935 12.677 28.9987 12.6761C29.0308 12.6756 29.0478 12.6753 29.0551 12.6752C29.0591 12.675 29.0635 12.6748 29.0681 12.6746C29.0957 12.6735 29.1209 12.6734 29.1305 12.6733L29.1318 12.6733C29.1562 12.6732 29.2042 12.6732 29.3006 12.6732ZM10.0264 13.9097L10.4 14.9265C10.4805 15.1456 10.5719 15.3603 10.6739 15.5699L11.463 17.1923L9.71337 17.5071C7.86963 17.8388 6.57289 18.0797 5.70608 18.4175C5.28689 18.5808 5.08468 18.7255 4.99302 18.8201C4.93518 18.8798 4.91328 18.9217 4.90602 19.0154C4.90411 19.0466 4.90156 19.0716 4.89972 19.088C4.89867 19.0974 4.89757 19.1063 4.89646 19.1148C5.1492 19.2923 5.57462 19.508 6.2099 19.7397C7.47549 20.2013 9.32578 20.6385 11.6479 21.015C16.2749 21.7651 22.5656 22.2414 29.3138 22.2652H29.8351C36.7037 22.2652 42.9042 21.7957 47.4094 21.044C49.6707 20.6667 51.4501 20.2271 52.6592 19.7643C53.2148 19.5516 53.5982 19.3532 53.8403 19.1869C53.4566 18.9846 52.7202 18.7279 51.3199 18.3809L50.0151 18.0576L50.3446 16.7309C50.4019 16.5002 50.4437 16.2659 50.4698 16.0295L50.6371 14.5102L52.097 14.8612C54.2092 15.3691 55.7555 15.8816 56.7914 16.5044C57.3231 16.8241 57.791 17.2136 58.1231 17.7145C58.465 18.2302 58.6148 18.7919 58.6136 19.3631C58.615 19.4342 58.6111 19.5054 58.6018 19.5761C58.5682 19.8357 58.4654 20.1768 58.2361 20.6726C57.5048 22.2654 55.0757 26.2565 46.861 35.9834L46.8607 35.9837C45.0111 38.1723 43.4122 40.5685 42.0948 43.126C40.2112 46.8299 38.5537 50.6488 37.1317 54.5608L36.8101 55.4455H21.8002L21.4786 54.5608C20.0566 50.6488 18.399 46.8299 16.5155 43.126C15.1981 40.5685 13.5992 38.1723 11.7496 35.9837L11.7491 35.983C3.54368 26.2609 1.11972 22.2725 0.382225 20.6794C0.133695 20.146 0 19.7248 0 19.3802V19.286L0.0127953 19.1926C0.271677 17.304 1.73319 16.1728 3.27983 15.4813C4.853 14.778 6.87773 14.3559 8.97123 14.0592L10.0264 13.9097ZM54.0728 18.9922C54.0743 18.9898 54.0752 18.9887 54.0753 18.9887C54.0753 18.9887 54.0746 18.9899 54.0728 18.9922ZM4.77902 19.6123C4.77868 19.6138 4.77849 19.6146 4.7785 19.6145C4.77851 19.6145 4.77868 19.6137 4.77902 19.6123ZM4.09957 21.7721C5.54024 23.9744 8.34237 27.7889 13.7652 34.2141C15.7474 36.5597 17.4609 39.1278 18.8725 41.8688L18.8741 41.872L18.8757 41.875C20.668 45.3993 22.2611 49.0249 23.647 52.7341H34.9633C36.3492 49.0249 37.9423 45.3993 39.7346 41.875L39.7362 41.872L39.7377 41.8688C41.1493 39.128 42.8627 36.5599 44.8448 34.2145C50.1176 27.9711 52.9151 24.1928 54.3908 21.9644C54.1383 22.0842 53.8715 22.1966 53.5945 22.3026C52.1484 22.8562 50.173 23.3304 47.8392 23.7198C43.1544 24.5014 36.8039 24.9766 29.8351 24.9766H29.3092L29.3069 24.9766C22.459 24.9526 16.0256 24.4702 11.2301 23.6927C8.8407 23.3054 6.80491 22.8365 5.31364 22.2926C4.87959 22.1343 4.46982 21.962 4.09957 21.7721Z" fill="#0F211E"/>
<path d="M19.3167 19.0292C22.7579 19.0292 25.5476 16.2019 25.5476 12.7142C25.5476 9.2265 22.7579 6.39917 19.3167 6.39917C15.8756 6.39917 13.0859 9.2265 13.0859 12.7142C13.0859 16.2019 15.8756 19.0292 19.3167 19.0292Z" fill="#0F211E"/>
<path d="M19.2352 14.1455C20.6768 14.1455 21.8454 12.9392 21.8454 11.4511C21.8454 9.96304 20.6768 8.75671 19.2352 8.75671C17.7936 8.75671 16.625 9.96304 16.625 11.4511C16.625 12.9392 17.7936 14.1455 19.2352 14.1455Z" fill="white"/>
<path d="M23.0233 17.3858C23.0233 16.3925 22.6241 15.4398 21.9136 14.7375C21.203 14.0351 20.2392 13.6405 19.2343 13.6405C18.2294 13.6405 17.2657 14.0351 16.5551 14.7375C15.8445 15.4398 15.4453 16.3925 15.4453 17.3858L18.9367 18.6925L23.0233 17.3858Z" fill="white"/>
<path fill-rule="evenodd" clip-rule="evenodd" d="M19.3185 6.90087C16.1544 6.90087 13.5894 9.46589 13.5894 12.63C13.5894 15.7941 16.1544 18.3591 19.3185 18.3591C22.4826 18.3591 25.0476 15.7941 25.0476 12.63C25.0476 9.46589 22.4826 6.90087 19.3185 6.90087ZM12.4141 12.63C12.4141 8.8168 15.5053 5.72559 19.3185 5.72559C23.1317 5.72559 26.2229 8.8168 26.2229 12.63C26.2229 16.4432 23.1317 19.5344 19.3185 19.5344C15.5053 19.5344 12.4141 16.4432 12.4141 12.63Z" fill="#0F211E"/>
<path d="M43.6475 19.8712C46.3911 19.8712 48.6153 17.6094 48.6153 14.8192C48.6153 12.0291 46.3911 9.76721 43.6475 9.76721C40.9039 9.76721 38.6797 12.0291 38.6797 14.8192C38.6797 17.6094 40.9039 19.8712 43.6475 19.8712Z" fill="#0F211E"/>
<path d="M43.6519 15.8296C44.8144 15.8296 45.7569 14.8872 45.7569 13.7246C45.7569 12.5621 44.8144 11.6196 43.6519 11.6196C42.4893 11.6196 41.5469 12.5621 41.5469 13.7246C41.5469 14.8872 42.4893 15.8296 43.6519 15.8296Z" fill="white"/>
<path d="M46.5971 18.5328C46.5973 18.1557 46.5211 17.7822 46.3731 17.4338C46.225 17.0853 46.008 16.7687 45.7343 16.502C45.4606 16.2353 45.1357 16.0238 44.7781 15.8796C44.4205 15.7353 44.0372 15.6611 43.6501 15.6613C42.8685 15.6613 42.119 15.9638 41.5663 16.5023C41.0136 17.0408 40.7031 17.7712 40.7031 18.5328L43.4189 19.5345L46.5971 18.5328Z" fill="white"/>
<path fill-rule="evenodd" clip-rule="evenodd" d="M43.6449 10.193C41.1364 10.193 39.1028 12.2266 39.1028 14.7351C39.1028 17.2436 41.1364 19.2772 43.6449 19.2772C46.1534 19.2772 48.187 17.2436 48.187 14.7351C48.187 12.2266 46.1534 10.193 43.6449 10.193ZM38.1719 14.7351C38.1719 11.7124 40.6222 9.26208 43.6449 9.26208C46.6675 9.26208 49.1179 11.7124 49.1179 14.7351C49.1179 17.7578 46.6675 20.2081 43.6449 20.2081C40.6222 20.2081 38.1719 17.7578 38.1719 14.7351Z" fill="#0F211E"/>
<path d="M32.197 9.43041C34.6616 9.43041 36.6596 7.39473 36.6596 4.8836C36.6596 2.37247 34.6616 0.336792 32.197 0.336792C29.7324 0.336792 27.7344 2.37247 27.7344 4.8836C27.7344 7.39473 29.7324 9.43041 32.197 9.43041Z" fill="#0F211E"/>
<path d="M32.118 5.89402C33.1411 5.89402 33.9704 5.06467 33.9704 4.04161C33.9704 3.01856 33.1411 2.18921 32.118 2.18921C31.095 2.18921 30.2656 3.01856 30.2656 4.04161C30.2656 5.06467 31.095 5.89402 32.118 5.89402Z" fill="white"/>
<path d="M34.8107 8.30332C34.8092 7.57489 34.5249 6.87677 34.0199 6.362C33.5149 5.84724 32.8305 5.55784 32.1168 5.55725C31.4021 5.55725 30.7166 5.84704 30.2112 6.36286C29.7058 6.87868 29.4219 7.57829 29.4219 8.30777L31.8989 9.26206L34.8107 8.30332Z" fill="white"/>
<path fill-rule="evenodd" clip-rule="evenodd" d="M32.1102 0.830593C29.8718 0.830593 28.0572 2.64519 28.0572 4.88361C28.0572 7.12203 29.8718 8.93663 32.1102 8.93663C34.3486 8.93663 36.1632 7.12203 36.1632 4.88361C36.1632 2.64519 34.3486 0.830593 32.1102 0.830593ZM27.2266 4.88361C27.2266 2.18647 29.413 0 32.1102 0C34.8073 0 36.9938 2.18647 36.9938 4.88361C36.9938 7.58075 34.8073 9.76722 32.1102 9.76722C29.413 9.76722 27.2266 7.58075 27.2266 4.88361Z" fill="#0F211E"/>
<path d="M44.355 64.1584C44.355 72.9074 37.2625 79.9999 28.5135 79.9999C19.7644 79.9999 12.6719 72.9074 12.6719 64.1584C12.6719 55.4093 19.7644 48.3168 28.5135 48.3168C37.2625 48.3168 44.355 55.4093 44.355 64.1584Z" fill="white"/>
<path d="M28.4714 59.0504V56.2374H30.1654V59.0504H34.1639V61.0949H27.2954C26.7156 61.0949 26.2988 61.2052 26.0574 61.4258C25.931 61.5384 25.8324 61.6714 25.7675 61.8169C25.7027 61.9625 25.6729 62.1175 25.6799 62.273C25.6659 62.5935 25.7965 62.9065 26.0451 63.1482C26.2885 63.3816 26.7548 63.4983 27.4439 63.4983H30.3614C31.0808 63.4814 31.799 63.5588 32.4906 63.7276C32.979 63.8474 33.4295 64.0586 33.809 64.3455C34.1237 64.5966 34.355 64.9136 34.4796 65.2645C34.6064 65.6305 34.6697 66.0103 34.6673 66.3918C34.6738 66.835 34.5979 67.2762 34.4424 67.6994C34.3028 68.0789 34.0572 68.4242 33.7265 68.7059C33.3649 69.0021 32.931 69.2274 32.4555 69.3658C31.8574 69.5355 31.2292 69.616 30.5986 69.6039H30.186V72.079H28.4921V69.5881H23.3876V67.5331H30.609C31.2045 67.5331 31.6241 67.4234 31.8675 67.204C32.1165 66.9729 32.2477 66.6678 32.2327 66.355C32.2405 66.0424 32.1152 65.7379 31.8799 65.4973C31.6447 65.2569 31.1743 65.1402 30.4686 65.1472H27.5079C26.7917 65.1645 26.0768 65.0835 25.391 64.9074C24.9006 64.7785 24.4531 64.5529 24.085 64.2492C23.7697 63.9792 23.5392 63.6464 23.4144 63.2812C23.2866 62.9016 23.2234 62.5085 23.2267 62.1137C23.2267 61.1825 23.5382 60.4403 24.1675 59.8889C24.7968 59.3375 25.8181 59.0592 27.2624 59.0592L28.4714 59.0504Z" fill="#FEC93D"/>
<path fill-rule="evenodd" clip-rule="evenodd" d="M28.5135 50.6266C21.0401 50.6266 14.9817 56.685 14.9817 64.1584C14.9817 71.6317 21.0401 77.6901 28.5135 77.6901C35.9869 77.6901 42.0452 71.6317 42.0452 64.1584C42.0452 56.685 35.9869 50.6266 28.5135 50.6266ZM12.6719 64.1584C12.6719 55.4093 19.7644 48.3168 28.5135 48.3168C37.2625 48.3168 44.355 55.4093 44.355 64.1584C44.355 72.9074 37.2625 79.9999 28.5135 79.9999C19.7644 79.9999 12.6719 72.9074 12.6719 64.1584Z" fill="#FEC93D"/>
</svg>
