<svg width="58" height="58" viewBox="0 0 58 58" fill="none" xmlns="http://www.w3.org/2000/svg">
<path fill-rule="evenodd" clip-rule="evenodd" d="M27.4534 22.3082C23.609 20.4199 19.2181 19.961 15.0664 21.0136C10.9146 22.0663 7.27286 24.5619 4.79264 28.0538C2.31242 31.5457 1.15557 35.8062 1.52905 40.0731C1.90254 44.3399 3.782 48.3346 6.83118 51.3425C9.88035 54.3505 13.9003 56.1754 18.1718 56.4907C22.4433 56.8061 26.6877 55.5913 30.1455 53.0638C33.6033 50.5362 36.0491 46.8608 37.0451 42.6951C38.0411 38.5294 37.5225 34.1452 35.582 30.3269L36.8838 29.6653C38.9814 33.7927 39.542 38.5318 38.4654 43.0347C37.3887 47.5376 34.745 51.5105 31.0072 54.2427C27.2695 56.9748 22.6816 58.2879 18.0643 57.947C13.447 57.6062 9.10165 55.6336 5.80564 52.3821C2.50963 49.1307 0.478031 44.8126 0.0743093 40.2004C-0.329412 35.5882 0.921089 30.9828 3.60208 27.2082C6.28308 23.4336 10.2196 20.736 14.7075 19.5981C19.1953 18.4602 23.9416 18.9563 28.0972 20.9975L27.4534 22.3082Z" fill="#0F211E"/>
<path fill-rule="evenodd" clip-rule="evenodd" d="M42.0196 1.80578C38.52 1.10967 34.8926 1.46694 31.5961 2.83241C28.2995 4.19788 25.4819 6.51023 23.4996 9.47703C21.5172 12.4438 20.4591 15.9319 20.4591 19.5H19C19 15.6433 20.1437 11.8731 22.2863 8.66639C24.429 5.45963 27.4745 2.96027 31.0377 1.48436C34.6008 0.00844926 38.5216 -0.377716 42.3043 0.374696C46.0869 1.12711 49.5615 2.9843 52.2886 5.71143C55.0157 8.43855 56.8729 11.9131 57.6253 15.6957C58.3777 19.4784 57.9916 23.3992 56.5156 26.9623C55.0397 30.5255 52.5404 33.571 49.3336 35.7137C46.1269 37.8563 42.3567 39 38.5 39V37.5409C42.0681 37.5409 45.5562 36.4828 48.523 34.5004C51.4898 32.5181 53.8021 29.7005 55.1676 26.4039C56.5331 23.1074 56.8903 19.48 56.1942 15.9804C55.4981 12.4808 53.7799 9.26624 51.2568 6.74318C48.7338 4.22012 45.5192 2.5019 42.0196 1.80578Z" fill="#0F211E"/>
<path d="M45.4997 12.9706C45.4835 12.1423 44.7989 11.484 43.9706 11.5003L30.4732 11.7649C29.6449 11.7812 28.9866 12.4658 29.0029 13.2941C29.0191 14.1223 29.7037 14.7806 30.532 14.7644L42.5297 14.5291L42.7649 26.5268C42.7812 27.3551 43.4658 28.0134 44.2941 27.9971C45.1223 27.9809 45.7806 27.2963 45.7644 26.468L45.4997 12.9706ZM20.0812 40.0397L45.0813 14.0397L42.9188 11.9603L17.9188 37.9603L20.0812 40.0397Z" fill="#FEC93D"/>
</svg>

