<svg width="30" height="30" viewBox="0 0 30 30" fill="none" xmlns="http://www.w3.org/2000/svg">
<circle cx="15" cy="15" r="15" fill="#0F211E"/>
<path d="M10.2827 15.0642C9.89224 15.269 9.90844 15.569 10.3178 15.7309L11.5305 16.2108C11.9401 16.3734 12.56 16.2847 12.9072 16.0137L18.1736 11.8606C18.5198 11.5882 18.5569 11.6284 18.2563 11.9503L14.093 16.4065C13.7913 16.7274 13.8804 17.1215 14.2914 17.2804L14.4335 17.3358C14.8445 17.4947 15.5143 17.7616 15.9226 17.9276L17.2676 18.4753C17.6762 18.6413 18.1129 18.4456 18.2289 18.0204L20.2789 10.4855C20.3946 10.0603 20.1699 9.87981 19.7794 10.0843L10.2827 15.0642Z" fill="#F6F6F7"/>
<path d="M13.6108 19.9972C13.5869 20.0691 14.4403 18.7615 14.4403 18.7615C14.6815 18.393 14.5445 17.9533 14.1369 17.7866L13.2063 17.4057C12.7986 17.239 12.6033 17.4347 12.772 17.842C12.772 17.842 13.6355 19.9233 13.6108 19.9972Z" fill="#F6F6F7"/>
</svg>
