<svg width="47" height="48" viewBox="0 0 47 48" fill="none" xmlns="http://www.w3.org/2000/svg">
<path d="M23.35 47.756C36.2459 47.756 46.7001 37.2823 46.7001 24.3623C46.7001 11.4423 36.2459 0.968567 23.35 0.968567C10.4542 0.968567 0 11.4423 0 24.3623C0 37.2823 10.4542 47.756 23.35 47.756Z" fill="#FEC93D"/>
<path d="M23.7507 27.5497C25.0163 27.5497 26.0423 26.5237 26.0423 25.258C26.0423 23.9924 25.0163 22.9664 23.7507 22.9664C22.485 22.9664 21.459 23.9924 21.459 25.258C21.459 26.5237 22.485 27.5497 23.7507 27.5497Z" fill="white"/>
<path d="M23.7494 18.956C22.5029 18.956 21.2845 19.3256 20.2481 20.0181C19.2117 20.7106 18.404 21.6948 17.927 22.8464C17.45 23.998 17.3252 25.2651 17.5684 26.4876C17.8115 27.7101 18.4117 28.833 19.2931 29.7143C20.1745 30.5957 21.2974 31.1959 22.5199 31.4391C23.7424 31.6823 25.0095 31.5575 26.1611 31.0805C27.3126 30.6035 28.2969 29.7957 28.9894 28.7593C29.6819 27.723 30.0515 26.5045 30.0515 25.2581C30.0515 23.5867 29.3875 21.9837 28.2056 20.8018C27.0237 19.62 25.4208 18.956 23.7494 18.956ZM23.7494 30.4144C22.7296 30.4144 21.7326 30.1119 20.8847 29.5454C20.0368 28.9788 19.3759 28.1735 18.9856 27.2313C18.5953 26.2891 18.4932 25.2524 18.6922 24.2522C18.8911 23.2519 19.3822 22.3332 20.1033 21.6121C20.8244 20.891 21.7432 20.3999 22.7434 20.2009C23.7436 20.002 24.7804 20.1041 25.7226 20.4943C26.6648 20.8846 27.4701 21.5455 28.0366 22.3934C28.6032 23.2414 28.9056 24.2383 28.9056 25.2581C28.9056 26.6256 28.3624 27.9371 27.3954 28.9041C26.4284 29.8711 25.1169 30.4144 23.7494 30.4144Z" fill="white"/>
<path d="M34.6361 22.9664H33.2153C32.9803 21.9898 32.5936 21.0561 32.0695 20.1992L33.0835 19.1794C33.4054 18.8571 33.5862 18.4203 33.5862 17.9648C33.5862 17.5093 33.4054 17.0725 33.0835 16.7502L32.2757 15.9424C31.9534 15.6205 31.5166 15.4398 31.0611 15.4398C30.6056 15.4398 30.1688 15.6205 29.8465 15.9424L28.8267 16.9565C27.9699 16.4323 27.0361 16.0457 26.0595 15.8107V14.3726C26.0595 13.9168 25.8785 13.4796 25.5561 13.1573C25.2338 12.835 24.7966 12.6539 24.3408 12.6539H23.195C22.7391 12.6539 22.3019 12.835 21.9796 13.1573C21.6573 13.4796 21.4762 13.9168 21.4762 14.3726V15.7935C19.7372 16.219 18.1479 17.1124 16.8804 18.3768C15.613 19.6412 14.7158 21.2284 14.2861 22.9664H12.8652C12.4094 22.9664 11.9722 23.1475 11.6499 23.4698C11.3276 23.7921 11.1465 24.2293 11.1465 24.6851V25.831C11.1465 26.2868 11.3276 26.724 11.6499 27.0463C11.9722 27.3686 12.4094 27.5497 12.8652 27.5497H14.2861C14.5211 28.5263 14.9077 29.4601 15.4319 30.3169L14.4179 31.3367C14.096 31.659 13.9152 32.0958 13.9152 32.5513C13.9152 33.0068 14.096 33.4436 14.4179 33.7659L15.2257 34.5737C15.5479 34.8956 15.9848 35.0764 16.4403 35.0764C16.8957 35.0764 17.3326 34.8956 17.6548 34.5737L18.6746 33.5596C19.5315 34.0838 20.4652 34.4704 21.4418 34.7055V36.1435C21.4418 36.5993 21.6229 37.0365 21.9452 37.3588C22.2676 37.6812 22.7047 37.8623 23.1606 37.8623H24.3064C24.7623 37.8623 25.1994 37.6812 25.5218 37.3588C25.8441 37.0365 26.0252 36.5993 26.0252 36.1435V34.7227C27.0018 34.4876 27.9355 34.101 28.7924 33.5768L29.8122 34.5909C30.1344 34.9128 30.5713 35.0936 31.0267 35.0936C31.4822 35.0936 31.9191 34.9128 32.2413 34.5909L33.0491 33.7831C33.371 33.4608 33.5518 33.024 33.5518 32.5685C33.5518 32.113 33.371 31.6762 33.0491 31.3539L32.0351 30.3341C32.5592 29.4772 32.9459 28.5435 33.1809 27.5669H34.6361C35.092 27.5669 35.5291 27.3858 35.8515 27.0635C36.1738 26.7412 36.3549 26.304 36.3549 25.8482V24.7023C36.3572 24.4752 36.3144 24.2498 36.229 24.0393C36.1437 23.8288 36.0174 23.6373 35.8576 23.4759C35.6978 23.3144 35.5075 23.1863 35.2979 23.0989C35.0882 23.0114 34.8633 22.9664 34.6361 22.9664ZM30.6257 16.7502C30.679 16.6965 30.7423 16.6539 30.8121 16.6248C30.882 16.5957 30.9568 16.5808 31.0325 16.5808C31.1081 16.5808 31.183 16.5957 31.2528 16.6248C31.3226 16.6539 31.386 16.6965 31.4392 16.7502L32.2471 17.558C32.3008 17.6113 32.3434 17.6747 32.3725 17.7445C32.4015 17.8143 32.4165 17.8892 32.4165 17.9648C32.4165 18.0404 32.4015 18.1153 32.3725 18.1851C32.3434 18.255 32.3008 18.3183 32.2471 18.3716L31.3762 19.2424C30.9006 18.6408 30.3565 18.0967 29.7549 17.6211L30.6257 16.7502ZM16.8757 33.7659C16.8224 33.8196 16.759 33.8622 16.6892 33.8913C16.6194 33.9204 16.5445 33.9354 16.4689 33.9354C16.3933 33.9354 16.3184 33.9204 16.2486 33.8913C16.1787 33.8622 16.1154 33.8196 16.0621 33.7659L15.2543 32.9581C15.2006 32.9048 15.158 32.8414 15.1289 32.7716C15.0998 32.7018 15.0848 32.6269 15.0848 32.5513C15.0848 32.4757 15.0998 32.4008 15.1289 32.331C15.158 32.2612 15.2006 32.1978 15.2543 32.1445L16.1251 31.2737C16.6007 31.8753 17.1449 32.4195 17.7465 32.8951L16.8757 33.7659ZM32.2585 32.1331C32.3122 32.1863 32.3548 32.2497 32.3839 32.3195C32.413 32.3893 32.428 32.4642 32.428 32.5398C32.428 32.6155 32.413 32.6904 32.3839 32.7602C32.3548 32.83 32.3122 32.8934 32.2585 32.9466L31.4507 33.7544C31.3974 33.8081 31.3341 33.8508 31.2643 33.8798C31.1944 33.9089 31.1196 33.9239 31.0439 33.9239C30.9683 33.9239 30.8934 33.9089 30.8236 33.8798C30.7538 33.8508 30.6904 33.8081 30.6372 33.7544L29.7663 32.8836C30.368 32.408 30.9121 31.8639 31.3877 31.2623L32.2585 32.1331ZM35.209 25.831C35.209 25.9829 35.1487 26.1286 35.0412 26.2361C34.9338 26.3435 34.7881 26.4039 34.6361 26.4039H32.2757L32.1898 26.868C31.8595 28.5563 31.0333 30.1078 29.8169 31.3243C28.6004 32.5407 27.0489 33.3669 25.3606 33.6972L24.8965 33.7831V36.1435C24.8965 36.2955 24.8362 36.4412 24.7287 36.5486C24.6213 36.6561 24.4755 36.7164 24.3236 36.7164H23.1778C23.0258 36.7164 22.8801 36.6561 22.7726 36.5486C22.6652 36.4412 22.6048 36.2955 22.6048 36.1435V33.7831L22.1408 33.6972C20.4525 33.3669 18.9009 32.5407 17.6845 31.3243C16.468 30.1078 15.6419 28.5563 15.3116 26.868L15.2257 26.4039H12.8652C12.7133 26.4039 12.5676 26.3435 12.4601 26.2361C12.3527 26.1286 12.2923 25.9829 12.2923 25.831V24.6851C12.2923 24.5332 12.3527 24.3875 12.4601 24.28C12.5676 24.1726 12.7133 24.1122 12.8652 24.1122H15.2257L15.3116 23.6482C15.6419 21.9598 16.468 20.4083 17.6845 19.1919C18.9009 17.9754 20.4525 17.1493 22.1408 16.819L22.6048 16.733V14.3726C22.6048 14.2207 22.6652 14.075 22.7726 13.9675C22.8801 13.8601 23.0258 13.7997 23.1778 13.7997H24.3236C24.4755 13.7997 24.6213 13.8601 24.7287 13.9675C24.8362 14.075 24.8965 14.2207 24.8965 14.3726V16.733L25.3606 16.819C27.0489 17.1493 28.6004 17.9754 29.8169 19.1919C31.0333 20.4083 31.8595 21.9598 32.1898 23.6482L32.2757 24.1122H34.6361C34.7881 24.1122 34.9338 24.1726 35.0412 24.28C35.1487 24.3875 35.209 24.5332 35.209 24.6851V25.831Z" fill="white"/>
<path d="M16.875 13.7998C16.875 13.1199 16.6734 12.4553 16.2957 11.89C15.918 11.3247 15.3811 10.8841 14.753 10.6239C14.1249 10.3637 13.4337 10.2957 12.7669 10.4283C12.1001 10.5609 11.4876 10.8883 11.0068 11.3691C10.5261 11.8498 10.1987 12.4623 10.0661 13.1291C9.93341 13.7959 10.0015 14.4871 10.2617 15.1152C10.5218 15.7434 10.9624 16.2802 11.5277 16.6579C12.093 17.0357 12.7576 17.2373 13.4375 17.2373C14.3492 17.2373 15.2235 16.8751 15.8682 16.2304C16.5129 15.5858 16.875 14.7114 16.875 13.7998ZM11.1458 13.7998C11.1458 13.3465 11.2802 12.9034 11.5321 12.5266C11.7839 12.1497 12.1418 11.856 12.5605 11.6825C12.9793 11.5091 13.4401 11.4637 13.8846 11.5521C14.3291 11.6405 14.7375 11.8588 15.058 12.1793C15.3785 12.4998 15.5967 12.9081 15.6851 13.3527C15.7736 13.7972 15.7282 14.258 15.5547 14.6767C15.3813 15.0955 15.0876 15.4534 14.7107 15.7052C14.3338 15.957 13.8908 16.0914 13.4375 16.0914C12.8297 16.0914 12.2468 15.85 11.8171 15.4202C11.3873 14.9904 11.1458 14.4075 11.1458 13.7998Z" fill="white"/>
<path d="M13.4369 14.9455C14.0697 14.9455 14.5827 14.4325 14.5827 13.7997C14.5827 13.1669 14.0697 12.6539 13.4369 12.6539C12.804 12.6539 12.291 13.1669 12.291 13.7997C12.291 14.4325 12.804 14.9455 13.4369 14.9455Z" fill="white"/>
</svg>
