<svg width="47" height="47" viewBox="0 0 47 47" fill="none" xmlns="http://www.w3.org/2000/svg">
<path d="M23.35 46.7874C36.2459 46.7874 46.7001 36.3137 46.7001 23.3937C46.7001 10.4737 36.2459 0 23.35 0C10.4542 0 0 10.4737 0 23.3937C0 36.3137 10.4542 46.7874 23.35 46.7874Z" fill="#FEC93D"/>
<path d="M19.7196 22.0247C20.6671 22.0247 21.4353 21.2565 21.4353 20.309C21.4353 19.3614 20.6671 18.5933 19.7196 18.5933C18.772 18.5933 18.0039 19.3614 18.0039 20.309C18.0039 21.2565 18.772 22.0247 19.7196 22.0247Z" fill="white"/>
<path d="M25.4423 22.0247C26.3898 22.0247 27.1579 21.2565 27.1579 20.309C27.1579 19.3614 26.3898 18.5933 25.4423 18.5933C24.4947 18.5933 23.7266 19.3614 23.7266 20.309C23.7266 21.2565 24.4947 22.0247 25.4423 22.0247Z" fill="white"/>
<path d="M25.4397 24.8841C25.4397 25.6425 25.1384 26.3698 24.6021 26.9061C24.0659 27.4423 23.3386 27.7436 22.5802 27.7436C21.8218 27.7436 21.0945 27.4423 20.5582 26.9061C20.022 26.3698 19.7207 25.6425 19.7207 24.8841H25.4397Z" fill="white"/>
<path d="M33.3849 35.7499C33.2274 34.26 32.7636 32.8187 32.0225 31.5167C31.2815 30.2146 30.2791 29.0798 29.0785 28.1837C30.3131 26.7688 31.045 24.9852 31.1602 23.111C31.8029 22.9845 32.3827 22.6412 32.8027 22.1385C33.2227 21.6358 33.4573 21.0041 33.4673 20.3491C33.4774 19.6941 33.2622 19.0556 32.8579 18.5402C32.4536 18.0248 31.8845 17.6639 31.246 17.5178L33.8824 13.2343C34.2118 12.878 34.4195 12.4262 34.4752 11.9442C34.531 11.4622 34.432 10.9749 34.1927 10.5528C33.9533 10.1307 33.5859 9.79564 33.1436 9.59608C32.7013 9.39652 32.2069 9.34278 31.7321 9.44263H22.5817C20.393 9.43869 18.2856 10.2715 16.6908 11.7706C15.096 13.2696 14.1346 15.3216 14.0033 17.5064C13.3569 17.6376 12.7757 17.9883 12.3583 18.499C11.9409 19.0098 11.7128 19.6491 11.7128 20.3087C11.7128 20.9683 11.9409 21.6076 12.3583 22.1183C12.7757 22.629 13.3569 22.9797 14.0033 23.111C14.1105 24.9818 14.8322 26.765 16.0564 28.1837C14.861 29.0826 13.8641 30.2185 13.128 31.5204C12.3919 32.8224 11.9325 34.2622 11.7786 35.7499H10V36.8937H35.1635V35.7499H33.3849ZM12.8595 20.3087C12.8593 19.9537 12.9692 19.6075 13.1741 19.3176C13.3789 19.0277 13.6686 18.8085 14.0033 18.6902V21.9271C13.6686 21.8088 13.3789 21.5896 13.1741 21.2998C12.9692 21.0099 12.8593 20.6636 12.8595 20.3087ZM15.1471 18.0211C15.1471 16.0493 15.9304 14.1583 17.3246 12.764C18.7189 11.3697 20.6099 10.5864 22.5817 10.5864H31.7321C31.9952 10.5049 32.2784 10.5164 32.5341 10.6188C32.7898 10.7213 33.0025 10.9085 33.1365 11.1492C33.2706 11.3898 33.3179 11.6692 33.2704 11.9406C33.2229 12.2119 33.0836 12.4587 32.8759 12.6395L30.0164 17.2891V18.593H30.5883C31.0433 18.593 31.4797 18.7737 31.8015 19.0955C32.1232 19.4172 32.304 19.8536 32.304 20.3087C32.304 20.7637 32.1232 21.2001 31.8015 21.5218C31.4797 21.8436 31.0433 22.0244 30.5883 22.0244H30.0164V22.5963C30.0164 24.5681 29.2331 26.4591 27.8388 27.8534C26.4446 29.2476 24.5535 30.0309 22.5817 30.0309C20.6099 30.0309 18.7189 29.2476 17.3246 27.8534C15.9304 26.4591 15.1471 24.5681 15.1471 22.5963V18.0211ZM12.9281 35.7499C13.0872 34.4119 13.5227 33.1216 14.207 31.9609C14.8912 30.8002 15.8092 29.7943 16.9028 29.0072C18.4649 30.4035 20.4866 31.1754 22.5817 31.1754C24.6769 31.1754 26.6986 30.4035 28.2607 29.0072C29.3542 29.7943 30.2723 30.8002 30.9565 31.9609C31.6407 33.1216 32.0762 34.4119 32.2353 35.7499H12.9281Z" fill="white"/>
</svg>
