<svg width="34" height="34" viewBox="0 0 34 34" fill="none" xmlns="http://www.w3.org/2000/svg">
<rect width="34" height="34" rx="17" fill="#D4E9E2"/>
<g clip-path="url(#clip0_1415_15556)">
<path d="M10.8003 8.33753C9.56986 8.55901 8.55384 9.58909 8.33587 10.8301C7.97025 12.9395 9.80189 14.7852 11.8972 14.4196C13.1066 14.2086 14.0488 13.3367 14.3757 12.1309C14.4847 11.7301 14.4847 11.0199 14.3757 10.6192C13.9398 9.01604 12.421 8.04573 10.8003 8.33753ZM11.0956 9.44143C11.0956 9.89495 11.0851 10.0039 11.0464 10.0039C11.0218 10.0039 10.8882 10.0602 10.7546 10.127C10.4523 10.2782 10.2484 10.4891 10.1007 10.8055C9.99876 11.0199 9.98822 11.0727 9.98822 11.3785C9.98822 11.6949 9.99525 11.7266 10.1183 11.9797C10.2765 12.2996 10.4804 12.4965 10.8074 12.6512C11.0218 12.7532 11.0745 12.7637 11.3769 12.7637C11.6827 12.7637 11.732 12.7532 11.9394 12.6512C12.0659 12.5879 12.1995 12.5141 12.2417 12.4824C12.312 12.4332 12.3367 12.4473 12.7656 12.7707L13.2191 13.1082L13.0398 13.27C12.7867 13.4949 12.5195 13.6496 12.1609 13.7762C11.8726 13.8782 11.8199 13.8852 11.3769 13.8852C10.9585 13.8852 10.8671 13.8711 10.621 13.7903C10.2167 13.6567 9.92142 13.4703 9.6015 13.1504C9.28158 12.8305 9.09525 12.5352 8.96165 12.1309C8.88079 11.8848 8.86673 11.7934 8.86673 11.375C8.86673 10.9321 8.87376 10.8793 8.97572 10.591C9.03548 10.4223 9.13743 10.1973 9.20072 10.0883C9.45384 9.66995 9.89681 9.26917 10.3327 9.06878C10.5437 8.97386 10.8601 8.88597 11.0007 8.88245L11.0956 8.87893V9.44143ZM12.2417 8.99847C12.3648 9.04417 12.5581 9.13557 12.6671 9.19886C12.9273 9.35003 13.3984 9.82464 13.5531 10.0848C13.8519 10.5946 13.9714 11.252 13.8624 11.818C13.7921 12.1836 13.6023 12.6512 13.5355 12.6266C13.5074 12.616 13.2964 12.4649 13.0679 12.2926L12.6495 11.9762L12.7058 11.825C12.7445 11.7266 12.762 11.5614 12.7656 11.3575C12.7656 11.0762 12.7515 11.0164 12.6531 10.8055C12.5054 10.4891 12.3015 10.2782 11.9992 10.127C11.8656 10.0602 11.732 10.0039 11.7074 10.0039C11.6687 10.0039 11.6581 9.89143 11.6581 9.43792V8.86839L11.8374 8.893C11.9359 8.90706 12.1152 8.95276 12.2417 8.99847ZM11.637 10.5735C11.9394 10.6649 12.2206 11.0516 12.2206 11.375C12.2206 11.811 11.8128 12.2188 11.3769 12.2188C11.1554 12.2188 10.9761 12.1379 10.7968 11.9551C10.4382 11.6 10.4382 11.15 10.7968 10.795C11.0429 10.5453 11.3066 10.4785 11.637 10.5735Z" fill="#1E3932"/>
<path d="M16.5098 8.33398C15.6977 8.50977 14.9734 9.2375 14.8047 10.0566C14.6324 10.8863 14.9488 11.7723 15.5922 12.275L15.7996 12.4367L15.4902 12.5914C14.4883 13.0941 13.8098 14.0469 13.6586 15.1578C13.6375 15.323 13.627 15.9312 13.634 16.666L13.6445 17.8965L13.757 18.132C13.8168 18.2621 13.9328 18.4379 14.0137 18.5258C14.1965 18.7227 14.5762 18.9195 14.8398 18.9512L15.0332 18.9758V19.475V19.9707L14.1297 20.8742L13.2227 21.7777L11.2891 21.7883L9.35547 21.7988L9.11992 21.9113C8.79297 22.066 8.58906 22.2629 8.43086 22.5828L8.30078 22.85V23.75V24.65L8.43086 24.9172C8.58906 25.2371 8.79297 25.434 9.11992 25.5887L9.35547 25.7012H10.9551H12.5547L12.7902 25.5887C13.1172 25.434 13.3211 25.2371 13.4793 24.9172L13.6094 24.65L13.6199 23.4195L13.6305 22.1855L14.323 21.4895L15.0156 20.7969L15.0332 22.843L15.0508 24.8926L15.1457 25.0719C15.2863 25.3391 15.3918 25.448 15.6379 25.5816C15.8348 25.6871 15.8875 25.6977 16.1406 25.7012C16.4641 25.7012 16.6926 25.6168 16.8895 25.4305L17.002 25.318L17.118 25.4305C17.3113 25.6168 17.5398 25.7012 17.8633 25.7012C18.1164 25.6977 18.1691 25.6871 18.366 25.5816C18.6121 25.448 18.7176 25.3391 18.8582 25.0719L18.9531 24.8926L18.9637 21.9359L18.9742 18.9758L19.1641 18.9512C19.4277 18.9195 19.8074 18.7227 19.9902 18.5258C20.0711 18.4379 20.1871 18.2621 20.2469 18.132L20.3594 17.8965L20.3699 16.6484C20.384 15.3406 20.3629 15.0453 20.2293 14.6129C20.1379 14.3105 19.9164 13.8676 19.7406 13.6355C19.6668 13.5336 19.6035 13.4387 19.6035 13.4246C19.6035 13.407 19.8672 13.1328 20.1941 12.8094L20.7812 12.2223L22.7148 12.2117L24.6484 12.2012L24.884 12.0887C25.2109 11.934 25.4148 11.7371 25.573 11.4172L25.7031 11.15V10.25V9.35L25.573 9.08281C25.4148 8.76289 25.2109 8.56602 24.884 8.41133L24.6484 8.29883H23.0453H21.4457L21.1785 8.42891C20.8586 8.58711 20.6617 8.79102 20.507 9.11797L20.3945 9.35352L20.384 10.584L20.3734 11.8145L19.7863 12.4016C19.4629 12.7285 19.1887 12.9922 19.1711 12.9922C19.157 12.9922 19.0621 12.9289 18.9602 12.8551C18.8582 12.7777 18.6473 12.6547 18.4891 12.5773L18.2008 12.4367L18.4117 12.275C19.2625 11.6141 19.498 10.352 18.9461 9.40625C18.4574 8.56953 17.466 8.13008 16.5098 8.33398ZM17.4062 8.89648C18.2395 9.11445 18.7879 9.91953 18.6648 10.7562C18.5664 11.4383 18.0742 11.9902 17.4062 12.166C16.5238 12.3945 15.6027 11.8355 15.3672 10.9355C15.0543 9.7332 16.2039 8.58359 17.4062 8.89648ZM24.5746 8.88594C24.768 8.94219 25.0598 9.23398 25.116 9.42734C25.1723 9.62422 25.1723 10.8758 25.116 11.0727C25.0598 11.266 24.768 11.5578 24.5746 11.6141C24.4691 11.6457 23.9523 11.6562 22.6832 11.6562H20.9395V10.6156C20.9395 9.89844 20.9535 9.52578 20.9816 9.42734C21.0344 9.24805 21.3297 8.9457 21.502 8.88945C21.6848 8.8332 24.3813 8.82969 24.5746 8.88594ZM17.6699 12.8621C18.2043 13.0098 18.6227 13.2453 18.9848 13.6109C19.3469 13.973 19.5719 14.3668 19.7371 14.9258C19.8109 15.1859 19.8461 17.559 19.7758 17.8086C19.716 18.016 19.4348 18.3043 19.2309 18.3641C18.9461 18.4484 18.9707 18.6242 18.9707 16.5781V14.75H18.6895H18.4082L18.4012 19.7738C18.3906 24.7871 18.3906 24.8012 18.3168 24.8961C18.1797 25.0824 18.0672 25.1387 17.8457 25.1387C17.6242 25.1387 17.5117 25.0824 17.3746 24.8961C17.3008 24.8012 17.3008 24.773 17.2902 21.3207L17.2832 17.8437H17.002H16.7207L16.7137 21.3207C16.7031 24.773 16.7031 24.8012 16.6293 24.8961C16.4922 25.0824 16.3797 25.1387 16.1582 25.1387C15.9367 25.1387 15.8242 25.0824 15.6871 24.8961C15.6133 24.8012 15.6133 24.7871 15.6027 19.7738L15.5957 14.75H15.3145H15.0332V16.5781C15.0332 18.6242 15.0578 18.4484 14.773 18.3641C14.5691 18.3043 14.2879 18.016 14.2281 17.8086C14.1578 17.559 14.193 15.1859 14.2668 14.9258C14.3758 14.5531 14.4742 14.3281 14.6465 14.068C15.0613 13.4316 15.7082 12.9957 16.4746 12.8305C16.7559 12.7707 17.3957 12.7883 17.6699 12.8621ZM13.0645 23.3844C13.0645 24.1016 13.0504 24.4742 13.0223 24.5727C12.966 24.766 12.6742 25.0578 12.4809 25.1141C12.277 25.1738 9.6332 25.1738 9.4293 25.1141C9.23594 25.0578 8.94414 24.766 8.88789 24.5727C8.83164 24.3758 8.83164 23.1242 8.88789 22.9273C8.94063 22.748 9.23594 22.4457 9.4082 22.3895C9.48906 22.3648 10.1184 22.3508 11.2996 22.3473L13.0645 22.3437V23.3844Z" fill="#1E3932"/>
<path d="M21.5 9.6875V9.96875H23.0469H24.5938V9.6875V9.40625H23.0469H21.5V9.6875Z" fill="#1E3932"/>
<path d="M21.5 10.8125V11.0938H22.4844H23.4688V10.8125V10.5312H22.4844H21.5V10.8125Z" fill="#1E3932"/>
<path d="M24.0312 10.8125V11.0938H24.3125H24.5938V10.8125V10.5312H24.3125H24.0312V10.8125Z" fill="#1E3932"/>
<path d="M9.40625 23.1875V23.4688H9.6875H9.96875V23.1875V22.9062H9.6875H9.40625V23.1875Z" fill="#1E3932"/>
<path d="M10.5312 23.1875V23.4688H11.5156H12.5V23.1875V22.9062H11.5156H10.5312V23.1875Z" fill="#1E3932"/>
<path d="M9.40625 24.3125V24.5938H10.9531H12.5V24.3125V24.0312H10.9531H9.40625V24.3125Z" fill="#1E3932"/>
<path d="M24.5938 21.0781V23.4688H24.3125H24.0312V21.3594V19.25H23.75H23.4688V21.3594V23.4688H23.1875H22.9062V22.2031V20.9375H22.625H22.3438V22.2031V23.4688H22.0625H21.7812V21.7812V20.0938H21.5H21.2188V21.7812V23.4688H20.9375H20.6562V22.0625V20.6562H20.375H20.0938V22.0625V23.4688H19.8125H19.5312V23.75V24.0312H22.625H25.7188V23.75V23.4688H25.4375H25.1562V21.0781V18.6875H24.875H24.5938V21.0781Z" fill="#1E3932"/>
<path d="M19.5312 24.875V25.1562H22.0625H24.5938V24.875V24.5938H22.0625H19.5312V24.875Z" fill="#1E3932"/>
<path d="M25.1562 24.875V25.1562H25.4375H25.7188V24.875V24.5938H25.4375H25.1562V24.875Z" fill="#1E3932"/>
</g>
<defs>
<clipPath id="clip0_1415_15556">
<rect width="18" height="18" fill="white" transform="translate(8 8)"/>
</clipPath>
</defs>
</svg>
