<svg width="18" height="18" viewBox="-1 0 27 22" fill="none" xmlns="http://www.w3.org/2000/svg">
    <path d="M12.0008 15.2315C12.8984 15.2315 13.6614 14.9173 14.2897 14.289C14.9181 13.6607 15.2322 12.8977 15.2322 12.0001C15.2322 11.1025 14.9181 10.3395 14.2897 9.71119C13.6614 9.08286 12.8984 8.76869 12.0008 8.76869C11.1032 8.76869 10.3402 9.08286 9.71192 9.71119C9.08359 10.3395 8.76942 11.1025 8.76942 12.0001C8.76942 12.8977 9.08359 13.6607 9.71192 14.289C10.3402 14.9173 11.1032 15.2315 12.0008 15.2315ZM12.0008 17.3858C10.5108 17.3858 9.24049 16.8605 8.18993 15.8099C7.13936 14.7594 6.61444 13.4894 6.61516 12.0001C6.61516 10.5101 7.14044 9.23976 8.191 8.18919C9.24157 7.13863 10.5115 6.6137 12.0008 6.61442C13.4909 6.61442 14.7612 7.13971 15.8117 8.19027C16.8623 9.24084 17.3872 10.5108 17.3865 12.0001C17.3865 13.4901 16.8612 14.7604 15.8107 15.811C14.7601 16.8616 13.4901 17.3865 12.0008 17.3858ZM1.22948 13.0772C0.924294 13.0772 0.668295 12.9738 0.461485 12.767C0.254675 12.5602 0.151629 12.3046 0.152347 12.0001C0.152347 11.6949 0.255752 11.4389 0.462562 11.2321C0.669372 11.0253 0.925012 10.9222 1.22948 10.923H3.38375C3.68894 10.923 3.94494 11.0264 4.15175 11.2332C4.35856 11.44 4.4616 11.6956 4.46089 12.0001C4.46089 12.3053 4.35748 12.5613 4.15067 12.7681C3.94386 12.9749 3.68822 13.0779 3.38375 13.0772H1.22948ZM20.6179 13.0772C20.3127 13.0772 20.0567 12.9738 19.8499 12.767C19.6431 12.5602 19.5401 12.3046 19.5408 12.0001C19.5408 11.6949 19.6442 11.4389 19.851 11.2321C20.0578 11.0253 20.3134 10.9222 20.6179 10.923H22.7722C23.0774 10.923 23.3334 11.0264 23.5402 11.2332C23.747 11.44 23.85 11.6956 23.8493 12.0001C23.8493 12.3053 23.7459 12.5613 23.5391 12.7681C23.3323 12.9749 23.0766 13.0779 22.7722 13.0772H20.6179ZM12.0008 4.46015C11.6956 4.46015 11.4396 4.35675 11.2328 4.14994C11.026 3.94313 10.923 3.68749 10.9237 3.38302V1.22875C10.9237 0.923562 11.0271 0.667562 11.2339 0.460753C11.4407 0.253943 11.6964 0.150897 12.0008 0.151615C12.306 0.151615 12.562 0.25502 12.7688 0.46183C12.9756 0.66864 13.0787 0.92428 13.078 1.22875V3.38302C13.078 3.68821 12.9746 3.94421 12.7677 4.15102C12.5609 4.35783 12.3053 4.46087 12.0008 4.46015ZM12.0008 23.8486C11.6956 23.8486 11.4396 23.7452 11.2328 23.5384C11.026 23.3316 10.923 23.0759 10.9237 22.7714V20.6172C10.9237 20.312 11.0271 20.056 11.2339 19.8492C11.4407 19.6424 11.6964 19.5393 12.0008 19.54C12.306 19.54 12.562 19.6434 12.7688 19.8503C12.9756 20.0571 13.0787 20.3127 13.078 20.6172V22.7714C13.078 23.0766 12.9746 23.3326 12.7677 23.5394C12.5609 23.7462 12.3053 23.8493 12.0008 23.8486ZM5.16102 6.66828L4.0031 5.53729C3.78768 5.33981 3.68427 5.08848 3.69289 4.78329C3.70151 4.47811 3.80491 4.2178 4.0031 4.00237C4.21853 3.78694 4.47884 3.67923 4.78403 3.67923C5.08921 3.67923 5.34055 3.78694 5.53802 4.00237L6.66901 5.16029C6.86649 5.37572 6.96522 5.62705 6.96522 5.91429C6.96522 6.20152 6.86649 6.45285 6.66901 6.66828C6.47154 6.88371 6.22487 6.98711 5.92902 6.97849C5.63317 6.96988 5.37717 6.86647 5.16102 6.66828ZM18.4636 19.9978L17.3326 18.8399C17.1352 18.6245 17.0364 18.3685 17.0364 18.0719C17.0364 17.7753 17.1352 17.5287 17.3326 17.3319C17.5301 17.1165 17.7771 17.0134 18.0737 17.0228C18.3703 17.0321 18.6259 17.1352 18.8406 17.3319L19.9986 18.4629C20.214 18.6604 20.3174 18.9117 20.3088 19.2169C20.3001 19.5221 20.1967 19.7824 19.9986 19.9978C19.7831 20.2132 19.5228 20.321 19.2176 20.321C18.9124 20.321 18.6611 20.2132 18.4636 19.9978ZM17.3326 6.66828C17.1172 6.4708 17.0138 6.22414 17.0224 5.92829C17.031 5.63243 17.1345 5.37644 17.3326 5.16029L18.4636 4.00237C18.6611 3.78694 18.9124 3.68354 19.2176 3.69216C19.5228 3.70077 19.7831 3.80418 19.9986 4.00237C20.214 4.2178 20.3217 4.47811 20.3217 4.78329C20.3217 5.08848 20.214 5.33981 19.9986 5.53729L18.8406 6.66828C18.6252 6.86575 18.3739 6.96449 18.0866 6.96449C17.7994 6.96449 17.5481 6.86575 17.3326 6.66828ZM4.0031 19.9978C3.78768 19.7824 3.67996 19.5221 3.67996 19.2169C3.67996 18.9117 3.78768 18.6604 4.0031 18.4629L5.16102 17.3319C5.37645 17.1344 5.63209 17.0357 5.92794 17.0357C6.2238 17.0357 6.47082 17.1344 6.66901 17.3319C6.88444 17.5294 6.98784 17.7764 6.97923 18.073C6.97061 18.3696 6.8672 18.6252 6.66901 18.8399L5.53802 19.9978C5.34055 20.2132 5.08921 20.3167 4.78403 20.308C4.47884 20.2994 4.21853 20.196 4.0031 19.9978Z" fill="#017141"/>
</svg>
