<svg width="64" height="73" viewBox="0 0 64 73" fill="none" xmlns="http://www.w3.org/2000/svg">
<path fill-rule="evenodd" clip-rule="evenodd" d="M31.7809 18.3697C21.6842 18.3697 13.4991 26.5548 13.4991 36.6515C13.4991 46.7483 21.6842 54.9333 31.7809 54.9333C41.8777 54.9333 50.0627 46.7483 50.0627 36.6515C50.0627 26.5548 41.8777 18.3697 31.7809 18.3697ZM11.9219 36.6515C11.9219 25.6837 20.8131 16.7925 31.7809 16.7925C42.7488 16.7925 51.64 25.6837 51.64 36.6515C51.64 47.6194 42.7488 56.5106 31.7809 56.5106C20.8131 56.5106 11.9219 47.6194 11.9219 36.6515Z" fill="white"/>
<path fill-rule="evenodd" clip-rule="evenodd" d="M49.6643 30.8238H13.8828V29.2466H49.6643V30.8238Z" fill="white"/>
<path fill-rule="evenodd" clip-rule="evenodd" d="M49.6646 43.5695H13.7109V41.9922H49.6646V43.5695Z" fill="white"/>
<path fill-rule="evenodd" clip-rule="evenodd" d="M32.5695 17.5811V55.7219H30.9922V17.5811H32.5695Z" fill="white"/>
<path fill-rule="evenodd" clip-rule="evenodd" d="M30.3366 16.8853C30.3373 16.885 30.3379 16.8847 30.6315 17.6167C30.9251 18.3486 30.9257 18.3484 30.9262 18.3482L30.9272 18.3478L30.9285 18.3473L30.9289 18.3471C30.9282 18.3474 30.9257 18.3484 30.9213 18.3503C30.9125 18.3541 30.8964 18.3612 30.8735 18.3719C30.8275 18.3933 30.7543 18.4291 30.6575 18.4813C30.464 18.5858 30.1766 18.7563 29.8263 19.0104C29.1263 19.518 28.1725 20.3607 27.2109 21.6812C25.2938 24.3137 23.3038 28.9038 23.3038 36.6516C23.3038 44.4171 25.0939 49.0015 26.8144 51.6197C27.6765 52.9314 28.5291 53.7622 29.1504 54.2587C29.4614 54.5073 29.7155 54.6729 29.8849 54.7733C29.9696 54.8235 30.0332 54.8575 30.0722 54.8774C30.0858 54.8843 30.0963 54.8895 30.1038 54.8931C30.1071 54.8947 30.1098 54.896 30.1119 54.897C30.1152 54.8986 30.117 54.8994 30.117 54.8994L30.1158 54.8988L30.1142 54.8981L30.1132 54.8977C30.1126 54.8974 30.112 54.8971 29.7956 55.6195C29.4792 56.3419 29.4785 56.3416 29.4778 56.3413L29.4763 56.3406L29.4727 56.339L29.4636 56.3349C29.4566 56.3318 29.4479 56.3277 29.4375 56.3228C29.4167 56.313 29.3892 56.2996 29.3554 56.2823C29.2878 56.2478 29.1949 56.1979 29.0806 56.1301C28.8519 55.9945 28.5371 55.7877 28.1657 55.4908C27.4218 54.8963 26.4544 53.9438 25.4963 52.4859C23.5767 49.5649 21.7266 44.6654 21.7266 36.6516C21.7266 28.6202 23.7948 23.6928 25.9359 20.7527C27.0033 19.2869 28.0786 18.3294 28.9004 17.7335C29.311 17.4358 29.6577 17.2287 29.9081 17.0935C30.0332 17.0259 30.1343 16.9763 30.2073 16.9423C30.2438 16.9253 30.2733 16.9122 30.2952 16.9027C30.3062 16.8979 30.3152 16.8941 30.3224 16.8911L30.3316 16.8873L30.3352 16.8859L30.3366 16.8853ZM30.929 18.3471L30.9289 18.3471C30.9291 18.347 30.9291 18.347 30.929 18.3471Z" fill="white"/>
<path fill-rule="evenodd" clip-rule="evenodd" d="M33.2139 18.3774C33.2144 18.3777 33.215 18.378 33.5469 17.6626C33.8788 16.9472 33.8794 16.9475 33.88 16.9478L33.8815 16.9484L33.8849 16.95L33.8937 16.9542C33.9005 16.9575 33.9092 16.9617 33.9195 16.9669C33.9403 16.9772 33.9681 16.9913 34.0024 17.0096C34.0711 17.0461 34.166 17.0991 34.2833 17.1706C34.5179 17.3136 34.8423 17.531 35.226 17.8394C35.9941 18.4569 36.9974 19.4378 37.9929 20.9149C39.9885 23.8762 41.9195 28.782 41.9195 36.6515C41.9195 44.5165 40.0437 49.4142 38.104 52.3695C37.1362 53.8441 36.1602 54.8231 35.412 55.4398C35.0382 55.7478 34.722 55.9649 34.4929 56.1079C34.3784 56.1794 34.2856 56.2324 34.2184 56.269C34.1847 56.2873 34.1574 56.3015 34.137 56.3119C34.1267 56.3171 34.1182 56.3214 34.1115 56.3247L34.1027 56.329L34.0993 56.3306L34.0978 56.3313C34.0972 56.3316 34.0965 56.3319 33.7585 55.6194C33.4205 54.9069 33.4199 54.9072 33.4194 54.9074L33.4184 54.9079L33.417 54.9085L33.4162 54.9089C33.4166 54.9088 33.4186 54.9078 33.4223 54.9059C33.4298 54.9021 33.4439 54.8948 33.4642 54.8837C33.505 54.8615 33.5706 54.8243 33.6576 54.7699C33.8317 54.6612 34.0915 54.4842 34.4089 54.2226C35.043 53.7 35.9101 52.8377 36.7854 51.5041C38.5319 48.8431 40.3423 44.2568 40.3423 36.6515C40.3423 29.0507 38.4813 24.462 36.6849 21.7964C35.7844 20.4601 34.8917 19.5944 34.2378 19.0687C33.9105 18.8056 33.6424 18.6272 33.4622 18.5173C33.3722 18.4624 33.3041 18.4247 33.2617 18.4021C33.2405 18.3908 33.2257 18.3833 33.2177 18.3794C33.2138 18.3774 33.2115 18.3763 33.211 18.3761L33.2109 18.3761C33.2109 18.3761 33.2112 18.3762 33.2117 18.3764L33.213 18.377L33.2139 18.3774Z" fill="white"/>
<path d="M31.7697 72.0179C34.3133 72.0179 36.3753 69.9559 36.3753 67.4123C36.3753 64.8686 34.3133 62.8066 31.7697 62.8066C29.2261 62.8066 27.1641 64.8686 27.1641 67.4123C27.1641 69.9559 29.2261 72.0179 31.7697 72.0179Z" fill="#FEC93D"/>
<path fill-rule="evenodd" clip-rule="evenodd" d="M31.7721 63.6215C29.6786 63.6215 27.9814 65.3187 27.9814 67.4122C27.9814 69.5058 29.6785 71.2029 31.7721 71.2029C33.8656 71.2029 35.5628 69.5058 35.5628 67.4122C35.5628 65.3187 33.8656 63.6215 31.7721 63.6215ZM26.3516 67.4122C26.3516 64.4186 28.7784 61.9917 31.7721 61.9917C34.7658 61.9917 37.1926 64.4186 37.1926 67.4122C37.1926 70.4059 34.7658 72.8328 31.7721 72.8328C28.7784 72.8328 26.3516 70.4059 26.3516 67.4122Z" fill="#FEC93D"/>
<path fill-rule="evenodd" clip-rule="evenodd" d="M31.768 57.4072C32.2181 57.4072 32.583 57.7721 32.583 58.2221V62.4742C32.583 62.9243 32.2181 63.2891 31.768 63.2891C31.318 63.2891 30.9531 62.9243 30.9531 62.4742V58.2221C30.9531 57.7721 31.318 57.4072 31.768 57.4072Z" fill="#FEC93D"/>
<path d="M31.5431 10.0262C34.0867 10.0262 36.1487 7.96416 36.1487 5.42055C36.1487 2.87694 34.0867 0.814941 31.5431 0.814941C28.9995 0.814941 26.9375 2.87694 26.9375 5.42055C26.9375 7.96416 28.9995 10.0262 31.5431 10.0262Z" fill="#FEC93D"/>
<path fill-rule="evenodd" clip-rule="evenodd" d="M31.5377 1.62984C29.4442 1.62984 27.747 3.32699 27.747 5.42053C27.747 7.51407 29.4442 9.21122 31.5377 9.21122C33.6313 9.21122 35.3284 7.51407 35.3284 5.42053C35.3284 3.32699 33.6313 1.62984 31.5377 1.62984ZM26.1172 5.42053C26.1172 2.42685 28.544 0 31.5377 0C34.5314 0 36.9582 2.42685 36.9582 5.42053C36.9582 8.4142 34.5314 10.8411 31.5377 10.8411C28.544 10.8411 26.1172 8.4142 26.1172 5.42053Z" fill="#FEC93D"/>
<path fill-rule="evenodd" clip-rule="evenodd" d="M31.6899 9.57422C32.14 9.57422 32.5048 9.93907 32.5048 10.3891V14.6412C32.5048 15.0912 32.14 15.4561 31.6899 15.4561C31.2399 15.4561 30.875 15.0912 30.875 14.6412V10.3891C30.875 9.93907 31.2399 9.57422 31.6899 9.57422Z" fill="#FEC93D"/>
<path fill-rule="evenodd" clip-rule="evenodd" d="M58.233 17.4628C56.1395 17.4628 54.4423 19.16 54.4423 21.2535C54.4423 23.3471 56.1395 25.0442 58.233 25.0442C60.3266 25.0442 62.0237 23.3471 62.0237 21.2535C62.0237 19.16 60.3266 17.4628 58.233 17.4628ZM52.8125 21.2535C52.8125 18.2599 55.2394 15.833 58.233 15.833C61.2267 15.833 63.6536 18.2599 63.6536 21.2535C63.6536 24.2472 61.2267 26.6741 58.233 26.6741C55.2394 26.6741 52.8125 24.2472 52.8125 21.2535Z" fill="#FEC93D"/>
<path d="M58.2306 25.8592C60.7742 25.8592 62.8362 23.7972 62.8362 21.2536C62.8362 18.7099 60.7742 16.6479 58.2306 16.6479C55.687 16.6479 53.625 18.7099 53.625 21.2536C53.625 23.7972 55.687 25.8592 58.2306 25.8592Z" fill="#FEC93D"/>
<path fill-rule="evenodd" clip-rule="evenodd" d="M54.8007 23.5539C55.0298 23.9413 54.9016 24.4411 54.5142 24.6702L50.855 26.835C50.4676 27.0642 49.9678 26.9359 49.7387 26.5486C49.5095 26.1612 49.6378 25.6614 50.0251 25.4323L53.6844 23.2675C54.0717 23.0383 54.5715 23.1666 54.8007 23.5539Z" fill="#FEC93D"/>
<path d="M58.2306 56.7264C60.7742 56.7264 62.8362 54.6644 62.8362 52.1207C62.8362 49.5771 60.7742 47.5151 58.2306 47.5151C55.687 47.5151 53.625 49.5771 53.625 52.1207C53.625 54.6644 55.687 56.7264 58.2306 56.7264Z" fill="#FEC93D"/>
<path fill-rule="evenodd" clip-rule="evenodd" d="M58.233 48.33C56.1395 48.33 54.4423 50.0272 54.4423 52.1207C54.4423 54.2143 56.1395 55.9114 58.233 55.9114C60.3266 55.9114 62.0237 54.2143 62.0237 52.1207C62.0237 50.0272 60.3266 48.33 58.233 48.33ZM52.8125 52.1207C52.8125 49.127 55.2394 46.7002 58.233 46.7002C61.2267 46.7002 63.6536 49.127 63.6536 52.1207C63.6536 55.1144 61.2267 57.5412 58.233 57.5412C55.2394 57.5412 52.8125 55.1144 52.8125 52.1207Z" fill="#FEC93D"/>
<path fill-rule="evenodd" clip-rule="evenodd" d="M49.7387 46.8269C49.9678 46.4395 50.4676 46.3113 50.855 46.5404L54.5142 48.7052C54.9016 48.9344 55.0298 49.4342 54.8007 49.8215C54.5715 50.2089 54.0717 50.3371 53.6844 50.108L50.0251 47.9432C49.6378 47.714 49.5095 47.2142 49.7387 46.8269Z" fill="#FEC93D"/>
<path d="M5.41811 56.7264C7.96172 56.7264 10.0237 54.6644 10.0237 52.1207C10.0237 49.5771 7.96172 47.5151 5.41811 47.5151C2.8745 47.5151 0.8125 49.5771 0.8125 52.1207C0.8125 54.6644 2.8745 56.7264 5.41811 56.7264Z" fill="#FEC93D"/>
<path fill-rule="evenodd" clip-rule="evenodd" d="M5.42053 48.33C3.32699 48.33 1.62984 50.0272 1.62984 52.1207C1.62984 54.2143 3.32699 55.9114 5.42053 55.9114C7.51407 55.9114 9.21122 54.2143 9.21122 52.1207C9.21122 50.0272 7.51407 48.33 5.42053 48.33ZM0 52.1207C0 49.127 2.42685 46.7002 5.42053 46.7002C8.4142 46.7002 10.8411 49.127 10.8411 52.1207C10.8411 55.1144 8.4142 57.5412 5.42053 57.5412C2.42685 57.5412 0 55.1144 0 52.1207Z" fill="#FEC93D"/>
<path fill-rule="evenodd" clip-rule="evenodd" d="M13.91 46.8269C14.1392 47.2142 14.011 47.714 13.6236 47.9432L9.96435 50.108C9.57699 50.3371 9.07721 50.2089 8.84805 49.8215C8.61889 49.4342 8.74713 48.9344 9.13449 48.7052L12.7937 46.5404C13.1811 46.3113 13.6809 46.4395 13.91 46.8269Z" fill="#FEC93D"/>
<path d="M5.41811 25.7239C7.96172 25.7239 10.0237 23.6619 10.0237 21.1183C10.0237 18.5747 7.96172 16.5127 5.41811 16.5127C2.8745 16.5127 0.8125 18.5747 0.8125 21.1183C0.8125 23.6619 2.8745 25.7239 5.41811 25.7239Z" fill="#FEC93D"/>
<path fill-rule="evenodd" clip-rule="evenodd" d="M5.42053 17.3276C3.32699 17.3276 1.62984 19.0247 1.62984 21.1183C1.62984 23.2118 3.32699 24.909 5.42053 24.909C7.51407 24.909 9.21122 23.2118 9.21122 21.1183C9.21122 19.0247 7.51407 17.3276 5.42053 17.3276ZM0 21.1183C0 18.1246 2.42685 15.6978 5.42053 15.6978C8.4142 15.6978 10.8411 18.1246 10.8411 21.1183C10.8411 24.112 8.4142 26.5388 5.42053 26.5388C2.42685 26.5388 0 24.112 0 21.1183Z" fill="#FEC93D"/>
<path fill-rule="evenodd" clip-rule="evenodd" d="M8.84805 23.4177C9.07721 23.0303 9.57699 22.9021 9.96435 23.1313L13.6236 25.296C14.011 25.5252 14.1392 26.025 13.91 26.4123C13.6809 26.7997 13.1811 26.928 12.7937 26.6988L9.13449 24.534C8.74713 24.3048 8.61889 23.8051 8.84805 23.4177Z" fill="#FEC93D"/>
<path fill-rule="evenodd" clip-rule="evenodd" d="M5.41648 27.7505C5.86655 27.7505 6.2314 28.1153 6.2314 28.5654V44.2C6.2314 44.6501 5.86655 45.0149 5.41648 45.0149C4.96641 45.0149 4.60156 44.6501 4.60156 44.2V28.5654C4.60156 28.1153 4.96641 27.7505 5.41648 27.7505Z" fill="white"/>
<path fill-rule="evenodd" clip-rule="evenodd" d="M25.0111 9.07387C25.2452 9.45829 25.1233 9.95966 24.7389 10.1937L12.2154 17.8185C11.831 18.0525 11.3296 17.9306 11.0955 17.5462C10.8615 17.1618 10.9834 16.6604 11.3678 16.4263L23.8913 8.8016C24.2757 8.56754 24.7771 8.68945 25.0111 9.07387Z" fill="white"/>
<path fill-rule="evenodd" clip-rule="evenodd" d="M38.244 9.07387C38.478 8.68945 38.9794 8.56754 39.3638 8.8016L51.8873 16.4263C52.2717 16.6604 52.3936 17.1618 52.1596 17.5462C51.9255 17.9306 51.4241 18.0525 51.0397 17.8185L38.5163 10.1937C38.1318 9.95966 38.0099 9.45829 38.244 9.07387Z" fill="white"/>
<path fill-rule="evenodd" clip-rule="evenodd" d="M11.0955 55.757C11.3295 55.3726 11.8309 55.2506 12.2153 55.4847L24.7388 63.1081C25.1232 63.3421 25.2452 63.8435 25.0112 64.2279C24.7771 64.6124 24.2758 64.7343 23.8913 64.5003L11.3679 56.8769C10.9834 56.6428 10.8615 56.1415 11.0955 55.757Z" fill="white"/>
<path fill-rule="evenodd" clip-rule="evenodd" d="M52.1596 55.757C52.3936 56.1415 52.2717 56.6428 51.8872 56.8769L39.3638 64.5003C38.9793 64.7343 38.478 64.6124 38.2439 64.2279C38.0099 63.8435 38.1319 63.3421 38.5163 63.1081L51.0398 55.4847C51.4242 55.2506 51.9256 55.3726 52.1596 55.757Z" fill="white"/>
<path fill-rule="evenodd" clip-rule="evenodd" d="M58.2368 27.7505C58.6869 27.7505 59.0517 28.1153 59.0517 28.5654V44.2C59.0517 44.6501 58.6869 45.0149 58.2368 45.0149C57.7867 45.0149 57.4219 44.6501 57.4219 44.2V28.5654C57.4219 28.1153 57.7867 27.7505 58.2368 27.7505Z" fill="white"/>
</svg>
