<svg width="34" height="34" viewBox="0 0 34 34" fill="none" xmlns="http://www.w3.org/2000/svg">
<rect width="34" height="34" rx="17" fill="#D4E9E2"/>
<g clip-path="url(#clip0_1415_15596)">
<path d="M16.3333 8.02456C14.3681 8.21089 12.7966 8.83316 11.3517 10.0003C8.55674 12.2503 7.379 15.9207 8.33525 19.4011C8.60595 20.3996 9.07705 21.3804 9.68877 22.2418L9.93134 22.5793L9.84345 22.755C9.56924 23.3105 9.68525 23.989 10.1282 24.4355C10.9403 25.2441 12.3079 24.8644 12.5927 23.75C12.8774 22.6285 11.7911 21.6335 10.6907 22.0062C10.413 22.1011 10.4692 22.1328 10.1845 21.7285C9.46728 20.7019 8.99267 19.489 8.78525 18.1601C8.69736 17.6011 8.70088 16.3707 8.78877 15.8046C9.3583 12.1414 12.1392 9.36753 15.8235 8.78394C16.3614 8.69957 17.6411 8.69957 18.1614 8.78394C18.8716 8.90347 18.8118 8.90347 18.9524 8.76285C19.1282 8.58706 19.1036 8.33394 18.8997 8.22847C18.6044 8.07378 17.0681 7.95074 16.3333 8.02456ZM11.5731 22.7515C11.7876 22.8816 11.9388 23.1488 11.9388 23.3984C11.9388 23.8941 11.4431 24.2668 10.9544 24.1367C10.7399 24.0804 10.4833 23.8238 10.427 23.6093C10.2899 23.0996 10.6907 22.5968 11.2075 22.632C11.3481 22.6425 11.4536 22.6777 11.5731 22.7515Z" fill="#1E3932"/>
<path d="M20.0645 8.68203C19.8676 8.79102 19.8325 9.03008 19.9871 9.20234C20.0715 9.29727 20.1137 9.31836 20.2368 9.31836C20.3598 9.31836 20.402 9.29727 20.4899 9.19883C20.5813 9.09688 20.5954 9.06172 20.5778 8.93516C20.5426 8.68203 20.293 8.55547 20.0645 8.68203Z" fill="#1E3932"/>
<path d="M22.4492 9.17771C21.7707 9.37107 21.3137 10.0109 21.3664 10.6965C21.4437 11.6738 22.3895 12.3066 23.3105 11.9937C23.5918 11.8953 23.5285 11.8531 23.8695 12.3593C24.5727 13.4035 25.0156 14.5531 25.216 15.8398C25.3004 16.4058 25.3004 17.6047 25.216 18.1601C24.7906 20.9093 23.1418 23.1945 20.6914 24.4215C19.1234 25.209 17.341 25.4691 15.5727 25.1703C15.2773 25.1211 15.2387 25.1211 15.1402 25.1703C15.0066 25.2406 14.9609 25.325 14.9609 25.5008C14.9609 25.6133 14.982 25.659 15.0629 25.7293C15.1191 25.775 15.2211 25.8242 15.2844 25.8383C16.4059 26.0457 17.559 26.0457 18.6699 25.8418C20.7617 25.4551 22.6883 24.2914 24.0383 22.6074C26.5414 19.475 26.6539 15.0418 24.309 11.7547L24.0664 11.4136L24.1367 11.2976C24.1719 11.2343 24.2316 11.0797 24.2633 10.9531C24.4461 10.2429 24.0453 9.48708 23.3527 9.22341C23.1102 9.12849 22.6988 9.11091 22.4492 9.17771ZM23.0645 9.86677C23.3422 9.94411 23.6094 10.3027 23.6094 10.6015C23.6094 11.0304 23.2121 11.4031 22.7867 11.3679C22.3965 11.3363 22.1012 11.041 22.0695 10.6508C22.0555 10.4961 22.073 10.4258 22.1469 10.2711C22.3191 9.9195 22.6777 9.7613 23.0645 9.86677Z" fill="#1E3932"/>
<path d="M15.7127 10.6719C15.5755 10.7527 15.565 10.7984 15.5509 11.2625L15.5439 11.6246L15.217 11.7336C15.0377 11.7933 14.7388 11.9164 14.556 12.0043L14.2255 12.1695L13.9724 11.9129C13.6982 11.6351 13.5752 11.5648 13.4275 11.6035C13.2904 11.6351 11.6732 13.2488 11.624 13.4C11.5677 13.5652 11.6416 13.7023 11.9298 13.9871L12.1724 14.2262L12.0072 14.5672C11.9158 14.7535 11.7927 15.0488 11.733 15.2246L11.6275 15.541L11.2056 15.5586C10.5728 15.5832 10.6255 15.4637 10.6115 16.9367C10.6045 17.7769 10.615 18.1672 10.6431 18.2375C10.7099 18.4027 10.8084 18.4379 11.2373 18.4484L11.631 18.459L11.7435 18.7965C11.8068 18.9828 11.9298 19.2781 12.0177 19.4539L12.1759 19.7703L11.9193 20.0269C11.638 20.3047 11.5677 20.4277 11.6064 20.5754C11.638 20.7125 13.2517 22.3297 13.4029 22.3789C13.5681 22.4351 13.7052 22.3613 13.9935 22.0695L14.2361 21.8234L14.5209 21.9676C14.6791 22.0449 14.9709 22.168 15.1748 22.2418L15.5439 22.3719L15.5509 22.734C15.565 23.2015 15.5755 23.2473 15.7127 23.3281C15.8181 23.3949 15.8955 23.3984 17.0029 23.3984C18.5216 23.3984 18.4373 23.4371 18.4548 22.734L18.4619 22.3719L18.8345 22.2418C19.0384 22.168 19.3338 22.0449 19.4884 21.9676L19.7732 21.8234L20.0123 22.0695C20.3005 22.3613 20.4377 22.4351 20.6029 22.3789C20.7541 22.3297 22.3677 20.7125 22.3994 20.5754C22.438 20.4277 22.3677 20.3047 22.0865 20.0269L21.8298 19.7703L21.988 19.4539C22.0759 19.2781 22.199 18.9828 22.2623 18.7965L22.3748 18.459L22.7685 18.4484C23.1974 18.4379 23.2959 18.4027 23.3627 18.2375C23.3908 18.1672 23.4013 17.7769 23.3943 16.9367C23.3802 15.4637 23.433 15.5832 22.8002 15.5586L22.3783 15.541L22.2728 15.2246C22.213 15.0488 22.09 14.7535 21.9986 14.5672L21.8334 14.2262L22.0759 13.9871C22.3642 13.7023 22.438 13.5652 22.3818 13.4C22.3326 13.2488 20.7154 11.6351 20.5783 11.6035C20.4306 11.5648 20.3076 11.6351 20.0334 11.9129L19.7802 12.1695L19.4498 12.0043C19.267 11.9164 18.9681 11.7933 18.7888 11.7336L18.4619 11.6246L18.4548 11.2625C18.4408 10.7984 18.4302 10.7527 18.2931 10.6719C18.1877 10.6051 18.1103 10.6015 17.0029 10.6015C15.8955 10.6015 15.8181 10.6051 15.7127 10.6719ZM17.7482 11.6738C17.7587 12.0148 17.7658 12.0465 17.8502 12.1308C17.9099 12.1941 18.033 12.2469 18.2123 12.2926C18.6517 12.4051 19.2845 12.6758 19.5869 12.8832C19.6466 12.9254 19.7486 12.957 19.8295 12.957C19.949 12.957 19.9912 12.9289 20.2162 12.7109C20.3568 12.5738 20.4869 12.4648 20.5045 12.4648C20.522 12.4648 20.7646 12.6933 21.0423 12.9711L21.5521 13.4808L21.299 13.7445C20.972 14.089 20.9685 14.1558 21.2216 14.5988C21.4185 14.9433 21.5627 15.2914 21.6963 15.759C21.8263 16.209 21.8685 16.2406 22.3291 16.2547L22.6982 16.2687V17.0035V17.7383H22.3642C21.8439 17.7383 21.8404 17.7418 21.6435 18.4062C21.538 18.7648 21.3904 19.1094 21.2005 19.4328C20.9755 19.8265 20.9826 19.8969 21.292 20.2133C21.4291 20.3539 21.538 20.484 21.538 20.5015C21.538 20.5191 21.3095 20.7617 21.0318 21.0394L20.522 21.5492L20.2619 21.2996C19.9525 21.0078 19.8646 20.9762 19.6396 21.0922C19.5517 21.1379 19.3408 21.2469 19.165 21.3383C18.9927 21.4297 18.6904 21.5492 18.497 21.609C17.8713 21.8023 17.8431 21.8129 17.7904 21.943C17.7623 22.0133 17.7412 22.1855 17.7412 22.3789V22.6953H17.0029H16.2646V22.3789C16.2646 22.1855 16.2435 22.0133 16.2154 21.943C16.1627 21.8129 16.1521 21.8094 15.4982 21.6055C15.2978 21.5422 14.999 21.4191 14.8302 21.3312C14.6615 21.2469 14.4541 21.1379 14.3662 21.0922C14.1412 20.9762 14.0533 21.0078 13.7439 21.2996L13.4838 21.5492L12.974 21.0394C12.6962 20.7617 12.4677 20.5191 12.4677 20.5015C12.4677 20.484 12.5767 20.3539 12.7138 20.2133C13.0232 19.8969 13.0302 19.8265 12.8052 19.4328C12.6154 19.1094 12.4677 18.7648 12.3623 18.4062C12.1654 17.7418 12.1619 17.7383 11.6416 17.7383H11.3076V17.0035V16.2687L11.6767 16.2547C12.1373 16.2406 12.1795 16.209 12.3095 15.759C12.4431 15.2914 12.5873 14.9433 12.7841 14.5988C13.0373 14.1594 13.0302 14.0961 12.7068 13.748L12.4572 13.4808L12.9634 12.9711C13.2412 12.6933 13.4838 12.4648 13.5013 12.4648C13.5189 12.4648 13.649 12.5738 13.7896 12.7109C14.0146 12.9289 14.0568 12.957 14.1763 12.957C14.2572 12.957 14.3591 12.9254 14.4189 12.8832C14.7213 12.6793 15.4384 12.3805 15.9341 12.2539C16.0115 12.2363 16.1134 12.1801 16.1627 12.1273C16.24 12.0465 16.247 12.0008 16.2576 11.6703L16.2716 11.3047H17.0029H17.7341L17.7482 11.6738Z" fill="#1E3932"/>
<path d="M16.6179 14.1172C15.9886 14.205 15.4261 14.4898 14.9585 14.9574C14.6104 15.3054 14.3995 15.6394 14.2554 16.0683C13.5804 18.0793 15.2222 20.1218 17.3245 19.8828C18.9065 19.7035 20.0632 18.2586 19.8839 16.6871C19.7468 15.4883 18.8819 14.4828 17.7183 14.1875C17.4124 14.1066 16.9167 14.0785 16.6179 14.1172ZM17.5284 14.8625C17.8554 14.9363 18.2702 15.1754 18.5339 15.4355C18.9804 15.875 19.1878 16.3742 19.1878 17C19.1878 17.6152 18.9804 18.1215 18.5515 18.5504C18.1226 18.9793 17.6163 19.1867 17.0011 19.1867C16.3753 19.1867 15.8761 18.9793 15.4366 18.5328C15.1659 18.2586 14.9374 17.8508 14.853 17.4922C14.7968 17.2425 14.7968 16.7574 14.853 16.5078C14.9374 16.1492 15.1659 15.7414 15.4366 15.4672C15.9956 14.9011 16.7515 14.6832 17.5284 14.8625Z" fill="#1E3932"/>
<path d="M13.6337 24.7168C13.5001 24.7766 13.4017 24.9664 13.4369 25.1035C13.5037 25.3672 13.8236 25.4551 14.0169 25.2652C14.1998 25.0789 14.133 24.7906 13.8834 24.6957C13.7779 24.657 13.7744 24.657 13.6337 24.7168Z" fill="#1E3932"/>
</g>
<defs>
<clipPath id="clip0_1415_15596">
<rect width="18" height="18" fill="white" transform="translate(8 8)"/>
</clipPath>
</defs>
</svg>
