<svg width="25" height="24" viewBox="0 0 25 24" fill="none" xmlns="http://www.w3.org/2000/svg">
<g clip-path="url(#clip0_146_1872)">
<path d="M12.5 22.0002C6.977 22.0002 2.5 17.5232 2.5 12.0002C2.5 6.47724 6.977 2.00024 12.5 2.00024C18.023 2.00024 22.5 6.47724 22.5 12.0002C22.5 17.5232 18.023 22.0002 12.5 22.0002ZM9.39 13.1702L9.403 13.1632L10.273 16.0332C10.385 16.3442 10.539 16.4002 10.726 16.3742C10.914 16.3492 11.013 16.2482 11.136 16.1302L12.324 14.9822L14.874 16.8702C15.34 17.1272 15.675 16.9942 15.791 16.4382L17.448 8.61624C17.631 7.88824 17.311 7.59624 16.746 7.82824L7.013 11.5882C6.349 11.8542 6.353 12.2262 6.893 12.3912L9.39 13.1712V13.1702Z" fill="white"/>
</g>
<defs>
<clipPath id="clip0_146_1872">
<rect width="24" height="24" fill="white" transform="translate(0.5 0.000244141)"/>
</clipPath>
</defs>
</svg>
