<svg width="51" height="61" viewBox="0 0 51 61" fill="none" xmlns="http://www.w3.org/2000/svg">
<path d="M23.05 2V7.9625H49C49.5523 7.9625 50 8.41022 50 8.9625V23.5C50 24.0523 49.5523 24.5 49 24.5H23.05V31.075C23.05 31.899 22.1092 32.3694 21.45 31.875L2.06667 17.3375C1.53333 16.9375 1.53333 16.1375 2.06667 15.7375L21.45 1.2C22.1092 0.705573 23.05 1.17596 23.05 2Z" fill="white" stroke="black" stroke-width="1.5" stroke-linecap="round"/>
<path d="M27.95 28.9502V34.9127H2C1.44772 34.9127 1 35.3604 1 35.9127V50.4502C1 51.0025 1.44772 51.4502 2 51.4502H27.95V58.0252C27.95 58.8492 28.8908 59.3196 29.55 58.8252L48.9333 44.2877C49.4667 43.8877 49.4667 43.0877 48.9333 42.6877L29.55 28.1502C28.8908 27.6558 27.95 28.1262 27.95 28.9502Z" fill="white" stroke="black" stroke-width="1.5" stroke-linecap="round"/>
<circle cx="25.4996" cy="30.6246" r="16.4" fill="white" stroke="black" stroke-width="1.5"/>
<path d="M23.333 27.2355C23.3381 27.8093 23.6537 28.2157 24.2767 28.4567V26.0684L24.1674 26.1112C23.6057 26.3778 23.33 26.7535 23.333 27.2355Z" fill="#FEC93D"/>
<path d="M27.2695 34.9256C27.3788 34.8766 27.486 34.8235 27.5851 34.7612C28.1427 34.4232 28.4236 33.9453 28.4297 33.3296C28.4348 32.6679 28.0426 32.2187 27.2695 31.9746V34.9256Z" fill="#FEC93D"/>
<path d="M12.999 30.6254C12.999 37.5281 18.5966 43.1258 25.4994 43.1258C32.4022 43.1258 37.9998 37.5281 37.9998 30.6254C37.9998 23.7227 32.4053 18.125 25.4994 18.125C18.5936 18.125 12.999 23.7217 12.999 30.6254ZM27.2693 21.2578V22.7741C28.8451 23.0478 30.136 23.7533 31.1358 24.8919C31.2768 25.0216 31.3472 25.1717 31.3452 25.3452C31.3411 25.5597 31.2288 25.7363 31.0102 25.8752L29.4068 26.882H29.4017C29.4017 26.882 29.1188 27.027 28.9146 27.026C28.6613 27.026 28.4376 26.9443 28.2456 26.784C27.9331 26.5124 27.6063 26.3 27.2693 26.1417V28.8364C29.1883 29.105 30.5986 29.7799 31.5035 30.8592C32.0611 31.5342 32.3287 32.3562 32.3103 33.3232C32.2796 34.8742 31.5934 36.0873 30.2596 36.9705C29.4129 37.525 28.4151 37.8844 27.2693 38.055V39.3844C27.2693 39.8153 26.921 40.1635 26.4901 40.1635H25.0582C24.6283 40.1635 24.2769 39.8153 24.2769 39.3844V38.056C22.984 37.8497 21.8177 37.3555 20.7852 36.5621C20.1469 36.0771 19.6363 35.5686 19.2564 35.0396C19.1461 34.9151 19.0899 34.7782 19.0858 34.623C19.0838 34.3871 19.2033 34.1952 19.4535 34.0502L20.9119 33.1945L20.917 33.1914C20.917 33.1914 21.2009 33.0669 21.3449 33.0669C21.6084 33.0669 21.8198 33.17 21.9781 33.3763C22.7001 34.1584 23.4681 34.6925 24.2769 34.9784V31.6148C22.4009 31.3259 21.0446 30.6223 20.2072 29.5012C19.7088 28.8415 19.4504 28.0839 19.4361 27.2271C19.4045 25.4872 20.3461 24.174 22.2722 23.2979C22.8676 23.0253 23.5365 22.8374 24.2769 22.7353V21.2588C24.2769 20.8279 24.6283 20.4776 25.0582 20.4776H26.4901C26.921 20.4776 27.2693 20.8279 27.2693 21.2588V21.2578Z" fill="#FEC93D"/>
</svg>
