<svg width="25" height="24" viewBox="0 0 25 24" fill="none" xmlns="http://www.w3.org/2000/svg">
<g clip-path="url(#clip0_146_1869)">
<path d="M22.6623 5.65623C21.8989 5.99393 21.0893 6.21571 20.2603 6.31423C21.134 5.79167 21.788 4.96925 22.1003 4.00023C21.2803 4.48823 20.3813 4.83023 19.4443 5.01523C18.8149 4.34181 17.9807 3.89519 17.0713 3.74482C16.1618 3.59444 15.2282 3.74872 14.4156 4.18368C13.6029 4.61865 12.9567 5.30992 12.5774 6.15002C12.1981 6.99013 12.107 7.93201 12.3183 8.82923C10.6554 8.74589 9.02863 8.31376 7.54358 7.5609C6.05854 6.80804 4.74842 5.75128 3.6983 4.45923C3.32659 5.09768 3.13125 5.82346 3.1323 6.56223C3.1323 8.01223 3.8703 9.29323 4.9923 10.0432C4.32831 10.0223 3.67893 9.84301 3.0983 9.52023V9.57223C3.0985 10.5379 3.43267 11.4738 4.04414 12.2213C4.65562 12.9687 5.50678 13.4817 6.4533 13.6732C5.83691 13.8403 5.1906 13.8649 4.5633 13.7452C4.83016 14.5765 5.3503 15.3034 6.05089 15.8243C6.75147 16.3453 7.59742 16.634 8.4703 16.6502C7.60278 17.3316 6.60947 17.8352 5.54718 18.1324C4.48488 18.4296 3.37442 18.5145 2.2793 18.3822C4.19099 19.6117 6.41639 20.2644 8.6893 20.2622C16.3823 20.2622 20.5893 13.8892 20.5893 8.36223C20.5893 8.18223 20.5843 8.00023 20.5763 7.82223C21.3952 7.2304 22.1019 6.49725 22.6633 5.65723L22.6623 5.65623Z" fill="white"/>
</g>
<defs>
<clipPath id="clip0_146_1869">
<rect width="24" height="24" fill="white" transform="translate(0.5 0.000244141)"/>
</clipPath>
</defs>
</svg>
