<svg width="47" height="48" viewBox="0 0 47 48" fill="none" xmlns="http://www.w3.org/2000/svg">
<path d="M23.35 47.1812C36.2459 47.1812 46.7001 36.7075 46.7001 23.7875C46.7001 10.8675 36.2459 0.393799 23.35 0.393799C10.4542 0.393799 0 10.8675 0 23.7875C0 36.7075 10.4542 47.1812 23.35 47.1812Z" fill="#FEC93D"/>
<path d="M33.0348 14.6553H32.6294C27.3224 14.6553 22.0156 14.6553 16.709 14.6553C15.837 14.6553 15.3255 15.334 15.5647 16.1823C15.686 16.6107 15.9735 16.8781 16.4131 16.9515C16.5805 16.9748 16.7495 16.9843 16.9184 16.9799C22.7307 16.9799 28.543 16.9799 34.3554 16.9799C35.7029 16.9799 36.4165 17.542 36.5844 18.8955C36.681 19.6761 36.6018 20.4788 36.6018 21.3072H36.3065C35.2767 21.3072 34.247 21.3118 33.2184 21.3072C32.1516 21.3009 31.3055 21.7055 30.8344 22.6977C30.319 23.7826 30.3953 24.8596 31.1207 25.833C31.5559 26.4185 32.1769 26.7137 32.895 26.7302C34.0269 26.7558 35.1599 26.7445 36.2919 26.7484H36.6248C36.6321 26.8725 36.6422 26.9726 36.6422 27.0722C36.6422 27.8971 36.6422 28.7221 36.6422 29.547C36.6394 30.9693 35.6552 31.9672 34.2599 31.9672H15.8943C14.5092 31.9672 13.5142 30.9705 13.5137 29.5738C13.5137 24.7758 13.5137 19.9778 13.5137 15.1798C13.5137 13.7968 14.5092 12.7875 15.8662 12.7875C20.818 12.7875 25.7692 12.7875 30.7199 12.7875C31.7704 12.7875 32.6176 13.3843 32.9595 14.3628C32.9865 14.4425 33.0011 14.525 33.0348 14.6553Z" stroke="white" stroke-width="1.5" stroke-miterlimit="10"/>
<path d="M34.3834 24.0621C34.3843 24.2103 34.3561 24.3572 34.3003 24.4945C34.2444 24.6318 34.1621 24.7567 34.058 24.8622C33.9539 24.9676 33.83 25.0515 33.6935 25.1091C33.5569 25.1666 33.4104 25.1967 33.2622 25.1976C32.9631 25.1995 32.6754 25.0825 32.4625 24.8723C32.2496 24.6621 32.1289 24.376 32.127 24.0767C32.125 23.7775 32.242 23.4898 32.4522 23.2769C32.6623 23.0639 32.9484 22.9432 33.2476 22.9412C33.3959 22.9395 33.5431 22.9672 33.6807 23.0228C33.8183 23.0783 33.9435 23.1605 34.0491 23.2648C34.1547 23.369 34.2387 23.4931 34.296 23.63C34.3534 23.7668 34.3831 23.9137 34.3834 24.0621Z" fill="white"/>
<path d="M14.8628 34.7875C18.1008 34.7875 20.7257 32.1626 20.7257 28.9246C20.7257 25.6867 18.1008 23.0618 14.8628 23.0618C11.6249 23.0618 9 25.6867 9 28.9246C9 32.1626 11.6249 34.7875 14.8628 34.7875Z" fill="white"/>
<path d="M14.4255 32.3185V31.528C13.8681 31.5033 13.3258 31.3535 13.0117 31.1706L13.2612 30.1974C13.6844 30.431 14.1587 30.5566 14.642 30.563C15.1156 30.563 15.44 30.3802 15.44 30.0476C15.44 29.7314 15.174 29.5321 14.5589 29.3245C13.6688 29.0248 13.0619 28.609 13.0619 27.8021C13.0619 27.0708 13.5774 26.4962 14.4668 26.3216V25.5291H15.2819V26.2611C15.8394 26.2859 16.2133 26.3986 16.4882 26.536L16.2469 27.4756C16.0304 27.3842 15.6483 27.1931 15.0489 27.1931C14.5087 27.1931 14.3341 27.4261 14.3341 27.6591C14.3341 27.934 14.6249 28.1079 15.3321 28.3739C16.3219 28.7231 16.7205 29.1808 16.7205 29.9293C16.7205 30.6778 16.1968 31.304 15.2407 31.4676V32.3164L14.4255 32.3185Z" fill="#FEC93D"/>
</svg>
