<svg width="40" height="40" viewBox="0 0 40 40" fill="none" xmlns="http://www.w3.org/2000/svg">
<rect width="40" height="40" rx="20" fill="#FEC93D"/>
<g clip-path="url(#clip0_3789_34281)">
<path d="M19.3209 8.06565C18.0881 8.3094 17.0006 9.18596 16.5459 10.2969L16.4428 10.5547L15.7912 10.8828C14.8912 11.3422 14.2162 11.8156 13.5506 12.4672L13.2131 12.7906L12.9178 12.6969C11.5491 12.2516 10.1147 12.5985 9.10219 13.6203C7.86469 14.8719 7.64906 16.7469 8.57719 18.2281C8.97562 18.8656 9.70687 19.4797 10.3491 19.7188C10.6584 19.836 10.635 19.7891 10.7194 20.4688C10.7475 20.7125 10.8272 21.1531 10.8975 21.4485L11.0194 21.9828L10.86 22.1047C10.0959 22.6766 9.76781 23.3141 9.91781 23.9188C9.95062 24.036 10.1334 24.411 10.3256 24.7531C10.785 25.5641 11.0662 25.8266 11.6334 25.9766C11.6616 25.9813 12.0553 26.7266 12.51 27.6219L13.3397 29.2578L14.2303 29.8906L15.1256 30.5235V31.1375C15.1256 31.686 15.135 31.7563 15.2194 31.85C15.3506 31.9906 15.51 32.0188 15.6787 31.9344C15.8569 31.8453 15.8756 31.7844 15.8756 31.3813V31.0578L15.9975 31.1516C16.3678 31.4422 16.8553 30.9547 16.5178 30.6266C16.4616 30.5703 15.8569 30.125 15.1725 29.6375L13.9303 28.7563L13.2037 27.336C12.8053 26.5531 12.4912 25.9063 12.5006 25.8922C12.5709 25.836 13.7147 25.2031 13.7475 25.2031C13.7709 25.2031 14.1272 25.5453 14.5444 25.9578L15.3037 26.7125L16.9584 27.1016C18.0834 27.3641 18.6787 27.5235 18.81 27.5985L18.9975 27.711L18.7491 29.0703C18.6131 29.8156 18.5006 30.4813 18.5006 30.5469C18.5006 30.6313 18.6694 30.8281 19.1709 31.3297C20.0475 32.211 19.9491 32.2063 20.8069 31.3578C21.1631 31.0016 21.4678 30.6688 21.4819 30.6125C21.5006 30.5328 21.0834 28.0485 21.0037 27.7813C20.9662 27.636 21.4162 27.486 23.0662 27.0969L24.7022 26.7125L25.4569 25.9578C25.8741 25.5406 26.2303 25.2031 26.2537 25.2031C26.3241 25.2031 27.5006 25.8781 27.5006 25.9156C27.5006 25.9391 27.1772 26.586 26.7834 27.3594L26.0616 28.7656L24.7772 29.6797C24.0694 30.186 23.4647 30.6313 23.4366 30.6735C23.3381 30.8 23.3662 31.011 23.4928 31.1328C23.6334 31.2781 23.835 31.2828 24.0037 31.1516L24.1256 31.0578V31.3813C24.1256 31.7844 24.1444 31.8453 24.3225 31.9344C24.4912 32.0188 24.6506 31.9906 24.7819 31.85C24.8662 31.7563 24.8756 31.686 24.8756 31.1375L24.8803 30.5235L25.7709 29.8906L26.6616 29.2578L27.4912 27.6219C27.9459 26.7266 28.3397 25.9813 28.3678 25.9766C28.935 25.8266 29.2162 25.5641 29.6756 24.7531C29.8678 24.411 30.0506 24.036 30.0834 23.9188C30.1584 23.6235 30.1116 23.2953 29.9569 22.9906C29.8256 22.7375 29.3569 22.2313 29.1084 22.086L28.9678 22.0016L29.0803 21.575C29.1412 21.3406 29.2209 20.8953 29.2631 20.586C29.3053 20.2766 29.3475 19.9813 29.3569 19.925C29.3709 19.8547 29.46 19.7938 29.6991 19.7C29.8772 19.6297 30.1725 19.4703 30.3459 19.3438C32.3428 17.9469 32.5631 15.2047 30.8147 13.5453C29.7881 12.5703 28.4241 12.261 27.0834 12.6969L26.7881 12.7906L26.4506 12.4672C25.785 11.8156 25.11 11.3422 24.21 10.8828L23.5584 10.5547L23.4553 10.2969C23.1084 9.45315 22.2366 8.58596 21.4162 8.28127C20.7366 8.02815 19.9397 7.94377 19.3209 8.06565ZM20.6334 8.82033C21.4866 8.99846 22.2834 9.61721 22.6678 10.3906C23.2584 11.5953 23.0428 12.9266 22.11 13.8594C20.9287 15.0453 19.0772 15.0453 17.8866 13.8594C16.71 12.6875 16.71 10.8125 17.8866 9.64065C18.6272 8.90471 19.6209 8.6094 20.6334 8.82033ZM16.2647 11.9469C16.3256 12.9219 16.6725 13.6906 17.3569 14.3844C18.2287 15.2656 19.4756 15.6594 20.6662 15.4344C22.2084 15.1391 23.385 13.9625 23.685 12.4156C23.7225 12.2235 23.7506 11.9469 23.7506 11.7922C23.7506 11.6422 23.76 11.5156 23.7741 11.5156C23.8444 11.5156 24.3834 11.8156 24.7584 12.0641C25.1569 12.3266 25.4991 12.5985 25.9303 12.9875C26.1131 13.1516 26.1178 13.1563 26.0241 13.2266C25.7475 13.4375 25.2647 13.9719 25.0819 14.2625C23.9944 16.0063 24.4959 18.261 26.2256 19.3953C26.7881 19.7656 27.36 19.9438 28.1053 19.986L28.5881 20.0141L28.56 20.2766C28.5272 20.6 28.3491 21.4672 28.3022 21.5375C28.2787 21.575 28.2225 21.5797 28.0912 21.5422C27.7631 21.4531 27.3272 21.5891 27.0647 21.8656C26.9897 21.9406 26.8116 22.2125 26.6662 22.4656C26.4225 22.8828 26.3756 22.9344 26.1412 23.0563C25.5741 23.3469 25.3491 23.9094 25.5741 24.4953L25.6584 24.725L25.3022 25.0719C25.1053 25.2594 24.8006 25.5547 24.6178 25.7281L24.2897 26.0422L23.2819 26.2766C22.7287 26.4031 22.2741 26.5063 22.2694 26.5016C22.2647 26.4969 22.3209 26.3141 22.3912 26.0938C22.4662 25.8781 22.5412 25.5688 22.56 25.4047L22.5881 25.1141L22.8319 24.9735C23.1459 24.7953 23.3991 24.5141 23.5819 24.1297C23.7131 23.8485 23.7272 23.7781 23.7272 23.375C23.7272 22.9719 23.7131 22.9016 23.5772 22.6156C23.3053 22.0438 22.8506 21.6781 22.2178 21.5328C22.0491 21.4953 21.8662 21.4156 21.7819 21.3453C21.4162 21.036 20.5631 20.75 20.0053 20.75C19.4241 20.75 18.7303 20.9797 18.2428 21.3313L18.0084 21.5H17.2444C16.4944 21.5 16.4803 21.5 16.3678 21.6172C16.26 21.7203 16.2506 21.7672 16.2506 22.1188C16.2506 22.8547 16.485 23.4266 16.9866 23.8906C17.1506 24.0453 17.3053 24.1719 17.3287 24.1719C17.3569 24.1719 17.3756 24.3406 17.3756 24.5563C17.3756 25.0766 17.4834 25.7703 17.6287 26.1641C17.6944 26.3422 17.7412 26.4922 17.7366 26.4969C17.7272 26.5063 15.8241 26.0703 15.7397 26.0375C15.7162 26.0328 15.3881 25.7328 15.0131 25.3766L14.3287 24.725L14.3991 24.5938C14.5725 24.2563 14.5397 23.7828 14.3194 23.45C14.1834 23.2438 13.8553 23 13.7147 23C13.6772 23 13.5225 22.7844 13.3725 22.5219C13.0397 21.9547 12.8803 21.7625 12.6272 21.6313C12.4303 21.5328 12.0553 21.4953 11.835 21.561C11.7131 21.5938 11.7037 21.5844 11.6522 21.3969C11.5678 21.0688 11.4787 20.6047 11.4412 20.3L11.4131 20.0141L11.8959 19.986C12.6412 19.9438 13.2084 19.7656 13.7803 19.3906C15.7959 18.0781 16.0772 15.2703 14.3662 13.5922C14.2069 13.4328 14.0287 13.2688 13.9772 13.2266C13.8834 13.1563 13.8881 13.1516 14.0709 12.9875C14.6897 12.4297 15.2334 12.0313 15.8428 11.7031C16.0256 11.6 16.1944 11.5156 16.2084 11.5156C16.2225 11.5156 16.2506 11.7125 16.2647 11.9469ZM12.3834 13.3203C12.9131 13.4281 13.4475 13.7281 13.86 14.1406C15.0459 15.3219 15.0459 17.1735 13.86 18.3641C12.6881 19.5453 10.8178 19.5406 9.63656 18.3641C8.45531 17.1781 8.45531 15.3219 9.64125 14.1406C10.3725 13.4094 11.3709 13.1094 12.3834 13.3203ZM28.8834 13.3203C29.4225 13.4328 29.9475 13.7235 30.36 14.136C31.5459 15.3266 31.5459 17.1735 30.36 18.3641C29.1881 19.5453 27.3178 19.5406 26.1366 18.3641C24.96 17.1828 24.9553 15.3125 26.1366 14.1406C26.8772 13.4047 27.8709 13.1094 28.8834 13.3203ZM20.5303 21.5703C20.8866 21.6641 21.21 21.8281 21.4772 22.0625C21.6412 22.2078 21.735 22.25 21.8616 22.25C22.1709 22.25 22.4053 22.3531 22.6491 22.6016C23.085 23.0328 23.1225 23.6281 22.7428 24.0641L22.5975 24.2328L22.5366 24.0266C22.2975 23.211 21.5053 22.7188 20.31 22.6391C19.8787 22.611 19.8647 22.6156 19.7475 22.7328C19.5928 22.8875 19.5834 23.1031 19.7334 23.2531C19.8225 23.3422 19.9069 23.3656 20.2584 23.3891C20.8772 23.4313 21.2662 23.5672 21.5475 23.8344C21.8334 24.1156 21.8991 24.3266 21.8569 24.8844C21.8006 25.6438 21.5803 26.2766 21.2428 26.6516C21.1537 26.75 20.9475 26.8906 20.7881 26.9656C20.5209 27.0875 20.4459 27.1016 20.0006 27.1016C19.5553 27.1016 19.4803 27.0875 19.2131 26.9656C18.5616 26.6656 18.2147 25.9625 18.1444 24.8188C18.1162 24.3641 18.1209 24.3031 18.2194 24.1063C18.285 23.9703 18.3975 23.8344 18.5287 23.7453C18.8991 23.4922 18.96 23.2672 18.7256 23.0469C18.5334 22.8688 18.2756 22.9531 17.8866 23.3141L17.6616 23.5203L17.4741 23.3328C17.2444 23.1031 17.0662 22.7656 17.0241 22.4703L16.9912 22.25H17.6475H18.3084L18.5241 22.0625C19.0819 21.5797 19.8459 21.3922 20.5303 21.5703ZM12.2569 22.3016C12.3694 22.3391 12.4537 22.4422 12.6272 22.7328C12.7491 22.9391 12.8287 23.1172 12.8053 23.1266C12.6741 23.1688 12.4491 23.3375 12.3787 23.4406C12.285 23.586 12.3178 23.7547 12.4631 23.8906C12.6037 24.0219 12.7537 24.0078 13.0491 23.8438C13.3491 23.675 13.4991 23.6656 13.6491 23.8203C13.7897 23.9563 13.8037 24.1672 13.6866 24.3031C13.6397 24.3547 13.2787 24.5797 12.8897 24.8047C12.0694 25.2735 11.8866 25.3203 11.5725 25.161C11.4084 25.0766 11.3287 24.9781 11.0428 24.4906C10.635 23.7969 10.6022 23.7219 10.6444 23.5063C10.7006 23.1969 11.2256 22.7094 11.8725 22.3672C11.9944 22.3016 12.0975 22.25 12.1022 22.25C12.1069 22.25 12.1772 22.2735 12.2569 22.3016ZM28.4616 22.5688C28.9256 22.8688 29.3053 23.2531 29.3522 23.4688C29.3991 23.6891 29.3475 23.825 28.9819 24.4531C28.71 24.9219 28.6022 25.0578 28.4569 25.1422C28.2459 25.2641 28.035 25.2781 27.81 25.1844C27.5147 25.0625 26.2912 24.3125 26.2631 24.2375C26.1694 23.9985 26.3475 23.7031 26.5866 23.7031C26.6522 23.7031 26.8162 23.7641 26.9522 23.8438C27.2475 24.0078 27.3975 24.0219 27.5381 23.8906C27.6834 23.7547 27.7162 23.586 27.6225 23.4406C27.5522 23.3375 27.3272 23.1688 27.1959 23.1266C27.1444 23.1078 27.5194 22.4469 27.6319 22.3531C27.7959 22.2266 28.0256 22.2875 28.4616 22.5688ZM20.4928 29.1219L20.7178 30.3688L20.3569 30.725L20.0006 31.086L19.6444 30.725L19.2834 30.3688L19.5037 29.1547C19.6209 28.4844 19.7194 27.9219 19.7194 27.9031C19.7194 27.8891 19.8412 27.875 19.9912 27.875H20.2678L20.4928 29.1219Z" fill="white"/>
<path d="M19.743 9.61718C19.6773 9.67812 19.6258 9.76249 19.6258 9.80468C19.6258 9.84687 19.5836 9.87499 19.5227 9.87499C19.3305 9.87499 18.9461 10.0906 18.7773 10.2922C18.5148 10.5969 18.4398 10.9484 18.557 11.3469C18.6648 11.7125 19.1898 12.125 19.5508 12.125C19.6117 12.125 19.6258 12.1859 19.6258 12.5V12.875H19.1805C18.768 12.875 18.7211 12.8844 18.618 12.9922C18.4633 13.1422 18.4633 13.3578 18.618 13.5078C18.7211 13.6156 18.768 13.625 19.1664 13.625H19.6023L19.6727 13.775C19.8039 14.0562 20.2117 14.0516 20.3289 13.7656C20.3711 13.6672 20.4273 13.625 20.5539 13.6016C21.2289 13.475 21.6367 12.8094 21.4445 12.1531C21.3367 11.7875 20.8117 11.375 20.4508 11.375C20.3898 11.375 20.3758 11.3141 20.3758 11V10.625H20.8211C21.2336 10.625 21.2805 10.6156 21.3836 10.5078C21.4586 10.4375 21.5008 10.3391 21.5008 10.25C21.5008 10.1609 21.4586 10.0625 21.3836 9.99218C21.2805 9.88437 21.2336 9.87499 20.8305 9.87499H20.3852L20.3336 9.73905C20.2305 9.49062 19.9258 9.42968 19.743 9.61718ZM19.6258 11C19.6258 11.4219 19.5742 11.4687 19.368 11.2578C19.143 11.0375 19.2789 10.6531 19.593 10.6297C19.6117 10.625 19.6258 10.7937 19.6258 11ZM20.6336 12.2422C20.7086 12.3125 20.7508 12.4109 20.7508 12.5C20.7508 12.6547 20.5727 12.875 20.4461 12.875C20.3898 12.875 20.3758 12.8047 20.3758 12.5C20.3758 12.0781 20.4273 12.0312 20.6336 12.2422Z" fill="white"/>
<path d="M21.1723 17.0797C21.1066 17.1219 20.741 17.4125 20.352 17.7172C19.9676 18.0266 19.6207 18.3031 19.5879 18.3266C19.5457 18.3594 19.4426 18.2891 19.2082 18.0594C18.8473 17.7125 18.7301 17.6797 18.5191 17.8578C18.4301 17.9375 18.3926 18.0125 18.3926 18.125C18.3926 18.2563 18.4582 18.3406 18.8848 18.7625C19.2504 19.1281 19.4051 19.25 19.4941 19.25C19.6301 19.25 19.8035 19.1234 20.9379 18.2094C21.6926 17.6 21.7113 17.5813 21.7254 17.3938C21.7395 17.2297 21.7207 17.1828 21.6129 17.0984C21.4629 16.9813 21.327 16.9719 21.1723 17.0797Z" fill="white"/>
<path d="M11.493 14.8672C11.3852 14.9703 11.3758 15.0172 11.3758 15.4297V15.875H10.9305C10.518 15.875 10.4711 15.8844 10.368 15.9922C10.2133 16.1422 10.2133 16.3578 10.368 16.5078C10.4711 16.6156 10.518 16.625 10.9305 16.625H11.3758V17.0703C11.3758 17.4828 11.3852 17.5297 11.493 17.6328C11.5633 17.7078 11.6617 17.75 11.7508 17.75C11.8398 17.75 11.9383 17.7078 12.0086 17.6328C12.1164 17.5297 12.1258 17.4828 12.1258 17.0703V16.625H12.5711C12.9836 16.625 13.0305 16.6156 13.1336 16.5078C13.2883 16.3578 13.2883 16.1422 13.1336 15.9922C13.0305 15.8844 12.9836 15.875 12.5711 15.875H12.1258V15.4297C12.1258 15.0172 12.1164 14.9703 12.0086 14.8672C11.9383 14.7922 11.8398 14.75 11.7508 14.75C11.6617 14.75 11.5633 14.7922 11.493 14.8672Z" fill="white"/>
<path d="M27.1205 15.1766C26.5674 15.6125 26.0893 16.0109 26.0611 16.0484C25.9627 16.175 25.9908 16.3859 26.1174 16.5078C26.258 16.6531 26.4596 16.6578 26.6283 16.5266L26.7502 16.4328V16.9766C26.7502 17.4922 26.7549 17.525 26.8674 17.6328L26.9799 17.75H28.2502H29.5205L29.633 17.6328C29.7455 17.525 29.7502 17.4922 29.7502 16.9766V16.4328L29.8721 16.5266C30.0408 16.6578 30.2424 16.6531 30.383 16.5078C30.5096 16.3859 30.5377 16.175 30.444 16.0484C30.4111 16.0109 29.933 15.6125 29.3799 15.1766C28.6299 14.5766 28.3486 14.375 28.2502 14.375C28.1518 14.375 27.8705 14.5766 27.1205 15.1766ZM28.6533 15.5516L29.0002 15.8328V16.4187V17H28.2502H27.5002V16.4187V15.8328L27.8424 15.5516C28.0252 15.3969 28.208 15.2703 28.2408 15.2656C28.2783 15.2656 28.4611 15.3922 28.6533 15.5516Z" fill="white"/>
<path d="M21.9922 29.1172C21.9172 29.1875 21.875 29.2859 21.875 29.375C21.875 29.4641 21.9172 29.5625 21.9922 29.6328C22.1 29.7453 22.1234 29.75 22.8125 29.75C23.5016 29.75 23.525 29.7453 23.6328 29.6328C23.7078 29.5625 23.75 29.4641 23.75 29.375C23.75 29.2859 23.7078 29.1875 23.6328 29.1172C23.525 29.0047 23.5016 29 22.8125 29C22.1234 29 22.1 29.0047 21.9922 29.1172Z" fill="white"/>
</g>
<defs>
<clipPath id="clip0_3789_34281">
<rect width="24" height="24" fill="white" transform="translate(8 8)"/>
</clipPath>
</defs>
</svg>
