<svg width="25" height="25" viewBox="0 0 25 25" fill="none" xmlns="http://www.w3.org/2000/svg">
<circle cx="12.5" cy="12.5" r="12.5" fill="#EBF1F8"/>
<path d="M6.40615 5.39822C6.53225 5.27194 6.68201 5.17176 6.84685 5.10341C7.0117 5.03506 7.18841 4.99988 7.36686 4.99988C7.54532 4.99988 7.72202 5.03506 7.88687 5.10341C8.05172 5.17176 8.20148 5.27194 8.32757 5.39822L13.258 10.3268L18.1885 5.39822C18.3146 5.27206 18.4644 5.17198 18.6292 5.1037C18.7941 5.03542 18.9707 5.00028 19.1492 5.00028C19.3276 5.00028 19.5043 5.03542 19.6691 5.1037C19.8339 5.17198 19.9837 5.27206 20.1099 5.39822C20.236 5.52438 20.3361 5.67416 20.4044 5.839C20.4727 6.00383 20.5078 6.18051 20.5078 6.35893C20.5078 6.53735 20.4727 6.71402 20.4044 6.87886C20.3361 7.0437 20.236 7.19348 20.1099 7.31964L15.1812 12.2501L20.1099 17.1805C20.3647 17.4353 20.5078 17.7809 20.5078 18.1412C20.5078 18.5016 20.3647 18.8471 20.1099 19.1019C19.8551 19.3567 19.5095 19.4999 19.1492 19.4999C18.7888 19.4999 18.4432 19.3567 18.1885 19.1019L13.258 14.1733L8.32757 19.1019C8.07278 19.3567 7.7272 19.4999 7.36686 19.4999C7.00653 19.4999 6.66095 19.3567 6.40615 19.1019C6.15136 18.8471 6.00821 18.5016 6.00821 18.1412C6.00821 17.7809 6.15136 17.4353 6.40615 17.1805L11.3348 12.2501L6.40615 7.31964C6.27988 7.19354 6.1797 7.04379 6.11135 6.87894C6.04299 6.71409 6.00781 6.53738 6.00781 6.35893C6.00781 6.18047 6.04299 6.00377 6.11135 5.83892C6.1797 5.67407 6.27988 5.52432 6.40615 5.39822Z" fill="#ED4C5C"/>
</svg>
