<svg width="87" height="18" viewBox="0 0 87 18" fill="none" xmlns="http://www.w3.org/2000/svg">
<path d="M6.58074 12.5211H3.73097V17.5617H0V0.774902H6.93116C10.9816 0.774902 13.4294 3.14968 13.4294 6.58671V6.63266C13.4397 10.5038 10.3839 12.5211 6.58074 12.5211ZM9.67271 6.63266C9.67271 4.97287 8.50807 4.07914 6.64258 4.07914H3.73097V9.22193H6.68894C8.55443 9.22193 9.64692 8.11881 9.64692 6.66841L9.67271 6.63266Z" fill="white"/>
<path d="M23.066 17.5721V16.1917C22.5753 16.7299 21.9708 17.1545 21.2955 17.4352C20.6203 17.7158 19.8908 17.8457 19.159 17.8156C16.7235 17.8156 14.7188 16.4303 14.7188 13.898V13.8524C14.7188 11.0562 16.8671 9.79265 19.9281 9.79265C21.0044 9.77792 22.0751 9.94966 23.0916 10.3001V10.0819C23.0916 8.55952 22.1482 7.74251 20.3178 7.74251C19.0872 7.74215 17.8683 7.97826 16.7287 8.43773L15.816 5.66698C17.3883 4.95731 19.1029 4.61028 20.8305 4.65205C24.8349 4.65205 26.5987 6.68193 26.5987 10.1631V17.5873L23.066 17.5721ZM23.1378 12.4162C22.4011 12.096 21.6043 11.9335 20.7997 11.9392C19.2308 11.9392 18.2668 12.5634 18.2668 13.7052V13.7559C18.2668 14.7353 19.0872 15.3088 20.2665 15.3088C21.979 15.3088 23.1378 14.375 23.1378 13.0607V12.4162Z" fill="white"/>
<path d="M37.2721 8.23089C34.8411 8.23089 33.3548 9.70227 33.3548 12.7886V17.5616H29.7031V4.63703H33.3651V7.24143C34.1107 5.45732 35.3109 4.29868 37.4509 4.39608V8.23089H37.2721Z" fill="white"/>
<path d="M46.5507 17.5721V16.1923C46.0613 16.7305 45.4582 17.1551 44.7843 17.4357C44.1104 17.7163 43.3824 17.846 42.6521 17.8155C40.2219 17.8155 38.2266 16.4307 38.2266 13.8995V13.8538C38.2266 11.0588 40.3703 9.79567 43.4246 9.79567C44.497 9.7809 45.5637 9.95259 46.5763 10.3029V10.0848C46.5763 8.56301 45.64 7.74632 43.8084 7.74632C42.5803 7.7448 41.3638 7.98085 40.227 8.44127L39.347 5.66651C40.9179 4.95755 42.6303 4.61069 44.3558 4.65198C48.3516 4.65198 50.1065 6.68107 50.1065 10.1609V17.5822L46.5507 17.5721ZM46.6274 12.4182C45.8903 12.0986 45.0937 11.9362 44.2893 11.9414C42.7544 11.9414 41.7619 12.5653 41.7619 13.7067V13.7574C41.7619 14.7364 42.5805 15.3096 43.7623 15.3096C45.4712 15.3096 46.6274 14.3763 46.6274 13.0625V12.4182Z" fill="white"/>
<path d="M53.4531 17.5616V0H57.0687V17.5616H53.4531Z" fill="white"/>
<path d="M60.4375 17.5616V0H64.3114V17.5616H60.4375Z" fill="white"/>
<path d="M79.4915 12.3471H70.5145C70.6293 13.0874 71.017 13.7577 71.6012 14.226C72.1855 14.6942 72.9238 14.9263 73.6705 14.8765C74.2549 14.885 74.8347 14.7715 75.3728 14.5431C75.9109 14.3148 76.3956 13.9767 76.7958 13.5503L78.8879 15.4089C78.2576 16.193 77.453 16.8189 76.5383 17.2367C75.6236 17.6545 74.6241 17.8527 73.6194 17.8154C69.7473 17.8154 66.8828 15.0915 66.8828 11.1592V11.108C66.8828 7.42662 69.5069 4.39038 73.2613 4.39038C77.5682 4.39038 79.5375 7.73895 79.5375 11.3999V11.4408C79.5375 11.7941 79.517 12.0092 79.4915 12.3471ZM73.2613 7.31399C71.7268 7.31399 70.7549 8.39946 70.4685 10.0584H75.9774C75.7626 8.41994 74.8009 7.31399 73.2613 7.31399Z" fill="white"/>
<path d="M82.3906 17.5616V0H86.0062V17.5616H82.3906Z" fill="white"/>
</svg>
