<svg width="67" height="24" viewBox="0 0 67 24" fill="none" xmlns="http://www.w3.org/2000/svg">
<path d="M15.1225 0.393356C13.6237 0.706209 13.2599 0.793518 13.2199 0.851723C13.1763 0.909929 13.169 1.53564 13.169 4.87517V8.83314L13.0889 8.88771C13.0453 8.92045 12.9907 8.94591 12.9689 8.94591C12.9471 8.94591 12.7252 8.74583 12.4778 8.49846C11.3428 7.38164 9.95676 6.81414 8.16695 6.74138C5.91149 6.6468 3.81609 7.46895 2.27001 9.05869C1.0768 10.2919 0.294665 11.958 0.0545676 13.7952C-0.0181892 14.3736 -0.0181892 15.7414 0.0545676 16.3198C0.502022 19.7503 2.76112 22.4168 5.88966 23.2099C6.51173 23.3699 7.04649 23.4245 7.9123 23.4281C8.81448 23.4318 9.2874 23.3627 9.97859 23.1335C10.9681 22.8024 11.8121 22.2459 12.6306 21.391C12.8234 21.1909 13.0053 21.0235 13.0307 21.0235C13.1763 21.0235 13.2054 21.1108 13.3909 22.0421C13.5182 22.6969 13.591 22.9843 13.631 23.0134C13.711 23.0753 17.0651 23.0826 17.1742 23.0243C17.2434 22.9843 17.2434 22.817 17.2434 11.5361C17.2434 2.67792 17.2324 0.0732269 17.1997 0.0404854C17.1742 0.0150204 17.116 -0.00316811 17.0651 0.000469208C17.0105 0.000469208 16.1375 0.178724 15.1225 0.393356ZM9.60753 10.4156C11.4519 10.7721 12.8707 12.3109 13.1653 14.2826C13.2235 14.6573 13.2163 15.5995 13.1508 15.9851C12.9107 17.4839 12.0121 18.7572 10.7498 19.3938C9.84763 19.8522 8.55256 19.9795 7.51941 19.7139C5.87511 19.2956 4.63461 17.9532 4.249 16.1743C4.17988 15.8578 4.16896 15.6905 4.16896 15.0575C4.16896 14.4209 4.17988 14.2572 4.25263 13.9334C4.6819 11.9435 6.23889 10.5393 8.22152 10.3501C8.51618 10.3247 9.32378 10.361 9.60753 10.4156Z" fill="white"/>
<path d="M56.769 0.768059C55.4012 1.05181 54.8264 1.18277 54.7973 1.22643C54.7609 1.27372 54.75 3.49644 54.75 12.0745C54.75 22.486 54.7536 22.8679 54.8155 22.9261C54.8773 22.9807 55.0701 22.988 56.8163 22.988C58.5224 22.988 58.7516 22.9807 58.8026 22.9298C58.8571 22.8788 58.8608 21.8202 58.8535 11.667C58.8426 0.506134 58.8426 0.458843 58.7698 0.415188C58.708 0.375172 58.4024 0.429741 56.769 0.768059Z" fill="white"/>
<path d="M26.6882 6.74865C25.4441 6.84687 24.4364 7.10515 23.4396 7.58171C21.1223 8.69489 19.6126 10.7939 19.1361 13.566C19.0379 14.1262 18.9978 15.6941 19.0633 16.298C19.1906 17.4766 19.609 18.7426 20.1729 19.6848C21.1005 21.2309 22.5193 22.3623 24.2945 22.9661C25.284 23.3008 26.0698 23.4245 27.2521 23.4245C28.1761 23.4245 28.7036 23.3663 29.4166 23.188C30.8245 22.8315 31.9704 22.1731 32.9635 21.1472C33.7129 20.3687 34.204 19.6193 34.5751 18.6771C34.7606 18.2042 34.7606 18.2006 34.6769 18.1169C34.6005 18.0405 34.5678 18.0405 32.6761 18.0405C31.6175 18.0405 30.7226 18.0514 30.6935 18.0623C30.6607 18.0769 30.5261 18.2442 30.3988 18.4407C29.8095 19.3319 29.031 19.8412 27.9615 20.0304C27.474 20.1141 26.59 20.0777 26.1134 19.954C24.6474 19.5757 23.4942 18.3752 23.1995 16.92C23.1704 16.7854 23.1377 16.5744 23.1268 16.4544C23.0868 16.0724 22.3956 16.1124 29.1583 16.1124C34.0076 16.1124 35.1062 16.1052 35.1608 16.0652C35.2226 16.0215 35.2262 15.9269 35.2299 14.7992C35.2335 13.6933 35.2299 13.5478 35.1571 13.1658C34.7315 10.9176 33.491 9.04412 31.683 7.92003C30.799 7.37072 29.5949 6.95237 28.4453 6.80321C28.1434 6.75956 26.9793 6.72682 26.6882 6.74865ZM28.1543 10.1682C29.7004 10.4411 30.9008 11.6925 31.0573 13.1876C31.0973 13.566 31.5084 13.5296 27.143 13.5296C22.8248 13.5296 23.185 13.555 23.2286 13.2386C23.2541 13.0348 23.4251 12.5219 23.5415 12.2927C24.1345 11.1104 25.4004 10.2555 26.7683 10.1136C27.1357 10.0773 27.7723 10.1027 28.1543 10.1682Z" fill="white"/>
<path d="M43.8903 6.82136C41.2128 7.18151 38.961 8.73123 37.8333 10.9794C37.3531 11.9434 37.033 13.0603 36.9202 14.1589C36.862 14.7409 36.8947 16.2652 36.9748 16.7308C37.3385 18.8371 38.328 20.5542 39.8705 21.7583C40.9436 22.595 42.3842 23.1734 43.883 23.3699C44.4651 23.4426 45.7565 23.4426 46.3531 23.3663C47.7573 23.1844 49.1542 22.595 50.1837 21.7511C50.7294 21.3 51.326 20.6415 51.708 20.0595C52.1264 19.4265 52.5811 18.437 52.5593 18.2114L52.5483 18.095L50.5221 18.0841L48.4922 18.0768L48.2884 18.3933C47.8955 19.0045 47.499 19.3755 46.9279 19.6738C46.3276 19.9867 45.7747 20.0958 44.938 20.0667C44.0613 20.0376 43.4428 19.8521 42.7589 19.4046C41.8858 18.8371 41.2783 17.924 41.0564 16.8582C40.9837 16.5089 40.9727 16.2397 41.0309 16.1706C41.0746 16.1197 41.6748 16.1124 47.0188 16.1124C52.7157 16.1124 52.9594 16.1088 53.014 16.0469C53.0686 15.9887 53.0795 15.8359 53.0977 14.9628C53.1231 13.897 53.1013 13.5877 52.9631 12.8929C52.7557 11.8707 52.1955 10.6265 51.5443 9.74618C51.2278 9.31692 50.5439 8.62573 50.1219 8.3056C49.0924 7.53074 47.8774 7.03599 46.5095 6.83228C45.9311 6.7486 44.4723 6.74133 43.8903 6.82136ZM45.9384 10.15C47.0734 10.3282 48.0847 11.0594 48.5831 12.0562C48.7577 12.4054 48.9287 13.0021 48.9287 13.2603C48.9287 13.555 49.2743 13.5295 44.9998 13.5295C40.8381 13.5295 41.071 13.5405 41.071 13.3295C41.071 13.2021 41.2419 12.6455 41.362 12.38C41.9113 11.1649 43.21 10.2628 44.6324 10.1136C44.9489 10.0772 45.6037 10.0991 45.9384 10.15Z" fill="white"/>
<path d="M63.8379 17.4984C62.3828 17.7131 61.3278 19.0991 61.5134 20.5579C61.7062 22.0603 63.0449 23.1262 64.5328 22.9625C65.1839 22.8897 65.7369 22.6278 66.1916 22.1694C66.9447 21.42 67.192 20.3323 66.8464 19.3174C66.4244 18.0769 65.1476 17.3056 63.8379 17.4984Z" fill="#2C71F0"/>
</svg>
