<svg width="93" height="23" viewBox="0 0 93 23" fill="none" xmlns="http://www.w3.org/2000/svg">
<path d="M53.6686 13.6085V15.5234C53.6686 16.2297 53.6879 17.6786 53.7244 18.1994H51.1406C51.2338 17.3077 51.2703 14.9277 51.2703 13.7199V9.61225C51.2703 8.42271 51.2338 6.02538 51.1406 5.13274C51.8094 5.13274 53.8176 5.0405 55.0254 5.0405C58.3893 5.0405 60.0987 6.82481 60.0987 9.0367C60.0987 11.583 58.445 13.6267 54.5238 13.6267C54.2451 13.6267 53.9473 13.6085 53.6686 13.6085ZM57.7388 9.35186C57.7388 7.82794 56.8471 6.992 54.8947 6.992C54.4306 6.992 54.1519 6.992 53.6494 7.02851V11.7502C53.9473 11.7867 54.2634 11.8059 54.5603 11.8059C56.5493 11.8059 57.7388 10.9133 57.7388 9.35186ZM63.7759 18.1994H61.3411C61.4343 17.4 61.4708 16.2104 61.4708 15.1324V8.03357C61.4708 6.95549 61.4343 5.80342 61.3411 5.00399C62.0098 4.94826 63.2176 4.8368 63.7759 4.72534C63.7201 5.20865 63.7009 6.47218 63.7009 6.95549V16.3786C63.7009 17.0291 63.7201 17.7161 63.7759 18.1994ZM67.9556 18.4416C66.302 18.4416 65.2421 17.4749 65.2421 15.9501C65.2421 14.185 66.7853 13.0137 69.7774 13.0137C70.0186 13.0137 70.2607 13.0329 70.5019 13.0512L70.5211 12.7908C70.5576 11.6377 70.056 11.0804 68.8482 11.0804C67.9373 11.0804 66.9525 11.4523 66.3202 11.8991L65.9301 10.133C66.9395 9.54211 68.087 9.22791 69.2566 9.22215C71.6357 9.22215 72.733 10.5231 72.6772 12.661L72.584 16.1365C72.5648 16.6563 72.7138 16.8609 73.1039 16.8609C73.3085 16.8609 73.5314 16.8052 73.7736 16.7312L73.6064 18.1437C73.2153 18.2926 72.8252 18.4223 72.3237 18.4223C71.506 18.4223 70.7997 17.9765 70.6518 16.9724C70.13 17.8468 69.1269 18.4416 67.9556 18.4416ZM68.6253 16.9167C69.6467 16.9167 70.3904 16.1739 70.4461 15.0584L70.4836 14.2224C70.2415 14.2032 70.0378 14.184 69.7956 14.184C67.9931 14.184 67.3426 14.872 67.3426 15.7271C67.3426 16.4151 67.7327 16.9167 68.6253 16.9167ZM83.14 18.1994H80.7052C80.7974 17.4 80.8349 16.1182 80.8349 15.0401V12.884C80.8349 11.8059 80.5188 11.0622 79.4964 11.0622C78.3626 11.0622 77.248 12.1585 77.248 13.1809V16.2844C77.248 16.9359 77.2673 17.7161 77.322 18.1994H74.9055C74.9804 17.4 75.0179 16.1182 75.0179 15.0401V12.6418C75.0179 11.5638 74.9795 10.3377 74.9055 9.53827C75.5569 9.53827 76.5418 9.42681 77.0991 9.37108L77.2288 11.1362C77.9543 9.92837 79.237 9.22215 80.3516 9.22215C82.1916 9.22215 83.065 10.3934 83.065 12.3449V16.2844C83.065 16.9359 83.1025 17.7161 83.14 18.1994ZM92.9984 13.5345L91.9952 14.2224L86.8643 14.3704C86.9949 15.9318 87.8319 16.7312 89.3923 16.7312C90.75 16.7312 91.7531 16.1922 92.6083 15.5599L92.5525 17.4932C91.5484 18.1437 90.4521 18.5338 89.1511 18.5338C86.1398 18.5338 84.6908 16.4708 84.6908 14.0735C84.6908 11.3226 86.4934 9.22215 89.2261 9.22215C91.8646 9.22215 92.9984 11.1554 92.9984 13.5345ZM86.9017 13.0512L90.9729 12.9205C90.824 11.6195 90.2849 10.9133 89.1329 10.9133C87.8876 10.9133 87.0882 11.8241 86.9017 13.0512Z" fill="white"/>
<path fill-rule="evenodd" clip-rule="evenodd" d="M32.1895 4.70723L44.4433 1.42303C44.9381 1.29043 45.2379 1.61135 45.1082 2.14175L43.1115 10.2744C42.9405 10.973 42.4793 11.5476 41.8615 11.8358L30.8491 16.9629C32.3942 15.0076 33.3233 12.4969 33.3233 9.75749L33.3214 9.57685L41.039 6.89318L41.4666 5.27894L33.1532 7.75026C32.9737 6.69638 32.6494 5.67235 32.1895 4.70723ZM11.9481 4.43915L0.69554 1.42303C0.199738 1.29043 -0.100049 1.61135 0.0306276 2.14175L2.02729 10.2744C2.19832 10.973 2.65857 11.5476 3.2764 11.8358L11.9481 15.8724V9.62297L4.09889 6.89318L3.67227 5.27894L11.9481 7.73969V4.43915ZM17.7805 1.39324H13.276V23H17.9227V18.2101C19.3222 19.0641 20.93 19.5156 22.5694 19.515C27.7013 19.515 31.8628 15.1469 31.8628 9.75749C31.8628 4.36805 27.7023 0 22.5694 0C20.8168 0 19.1786 0.509253 17.7805 1.39324ZM22.5694 14.6367C25.1349 14.6367 27.2161 12.4517 27.2161 9.75749C27.2161 7.06325 25.1359 4.87826 22.5694 4.87826C20.003 4.87826 17.9227 7.06325 17.9227 9.75749C17.9227 12.4517 20.003 14.6367 22.5694 14.6367Z" fill="white"/>
</svg>
