<svg width="164" height="99" viewBox="0 0 164 99" fill="none" xmlns="http://www.w3.org/2000/svg">
<g opacity="0.12">
<path fill-rule="evenodd" clip-rule="evenodd" d="M116.721 94.2041C117.875 91.6578 118.905 88.984 119.807 86.1811C120.239 84.8387 122.881 74.8816 121.492 63.3455C117.82 35.7768 95.6274 15.4822 67.1944 14.1123C41.0835 12.856 16.6662 31.6173 10.5508 57.5297C8.70478 65.3529 8.88123 73.1868 9.82155 81.069C10.9977 85.5805 12.3814 90.0033 14.2478 94.2036H116.721V94.2041Z" fill="#F4D8C9"/>
<mask id="mask0_5481_4576" style="mask-type:luminance" maskUnits="userSpaceOnUse" x="9" y="14" width="113" height="81">
<path d="M116.72 94.2041C117.874 91.6578 118.904 88.984 119.806 86.1811C120.238 84.8387 122.88 74.8816 121.491 63.3455C117.82 35.7768 95.6264 15.4822 67.1934 14.1123C41.0826 12.856 16.6653 31.6173 10.5499 57.5297C8.7038 65.3529 8.88025 73.1868 9.82057 81.069C10.9967 85.5805 12.3804 90.0033 14.2469 94.2036H116.72V94.2041Z" fill="white"/>
</mask>
<g mask="url(#mask0_5481_4576)">
<path d="M68.1878 33.4303C68.0473 33.3486 67.2448 33.9474 67.1291 34.0531C66.7904 34.3638 67.541 35.2406 66.4809 35.2534C64.3028 31.746 59.0178 30.678 55.6515 33.0649C53.8356 34.3523 52.5584 36.4516 50.0513 36.5719C48.8458 36.6296 47.726 35.7617 47.6524 34.556C47.573 33.2491 48.8157 32.423 49.9879 32.0448C51.0616 31.6985 52.2485 31.5276 53.0992 30.7858C53.95 30.0441 54.1451 28.4251 53.1369 27.9186C56.8432 26.8541 60.3106 24.9634 63.2144 22.4229L62.8646 23.8265C66.1116 24.4236 69.6304 23.2343 71.8515 20.7888C70.6785 21.1177 69.3303 20.6951 68.5535 19.7558C68.9964 19.3594 69.4393 18.963 69.8818 18.5665C68.7907 18.1217 67.6895 19.4779 67.4071 20.4918C67.3135 20.8274 67.2005 21.1608 67.0005 21.4458C65.0095 24.2891 62.9138 20.854 60.777 21.3685C64.4212 17.3866 70.5925 15.9643 75.6088 17.9499C74.8197 18.072 74.031 18.1941 73.2418 18.3162L82.2771 16.9609C81.444 16.6262 80.611 16.2915 79.778 15.9567C80.2368 15.9656 80.6961 15.9745 81.155 15.9834C80.67 15.638 80.185 15.2926 79.7 14.9473C99.663 21.3978 115.927 38.3063 121.616 58.5237C120.038 55.2023 118.459 51.8809 116.881 48.5595C117.031 48.8591 116.812 49.7443 116.791 50.0896C116.756 50.6925 117.221 52.4411 117.185 53.0439C117.114 54.2682 116.485 54.2141 116.476 55.5827C116.423 56.5447 116.371 57.5026 116.318 58.4642C116.152 59.5722 116.487 61.1441 116.037 62.2681C115.073 60.9741 113.413 59.8425 112.929 58.3359C112.395 56.6698 112.143 52.7864 111.25 51.2869C109.558 48.4458 108.034 47.6876 104.982 46.3004C101.152 44.5597 96.3739 44.712 93.3069 41.8301C93.267 44.5065 96.0148 46.8575 98.6487 46.4002C99.1363 46.3154 99.6214 46.1507 100.114 46.1996C100.948 46.2826 101.613 46.9702 101.967 47.7307C102.858 49.6448 102.147 52.006 100.755 53.593C99.3633 55.1801 97.4113 56.1469 95.4855 57.0081C94.7247 57.3482 93.8584 57.682 93.0826 57.3779C92.5102 57.1533 92.1196 56.6268 91.7774 56.1154C88.5525 51.2962 86.3718 45.163 81.1147 42.7255C83.6878 47.9064 86.9352 52.7509 90.7497 57.0973C91.7135 58.1952 92.7682 59.2992 94.1421 59.7928C95.516 60.2865 97.2907 59.9664 98.0289 58.7052C99.4023 61.9725 97.1959 65.6073 94.7868 68.2046C92.3777 70.802 89.4844 73.4491 89.1816 76.9809C88.9746 79.4003 90.0599 81.8884 89.374 84.2172C89.0553 85.299 88.3805 86.2339 87.7173 87.1457C85.2665 90.5146 82.8157 93.8831 80.3645 97.252C79.1458 98.9269 77.8903 100.638 76.1657 101.784C74.4415 102.93 72.1224 103.412 70.2866 102.455C68.6728 101.614 67.7573 99.8853 66.9394 98.2584C64.9572 94.3159 62.9223 90.1227 63.2521 85.7212C63.4667 82.8602 64.6508 79.8238 63.3767 77.2539C62.6585 75.8059 61.2451 74.7649 60.6652 73.2555C60.0259 71.5913 60.5163 69.6527 59.8663 67.9929C58.8493 65.3964 55.5314 64.5712 52.7592 64.8411C49.987 65.111 47.2285 66.0987 44.4794 65.6508C40.2845 64.9671 37.1856 60.8653 36.7831 56.6286C36.3805 52.3918 38.2496 48.1919 40.9633 44.9162C46.0275 38.8035 54.2164 35.4363 62.1096 36.2212C63.1258 36.2198 64.8978 40.6621 67.541 40.7327C70.1846 40.8033 72.8304 39.88 75.4395 40.3101C77.2767 40.6129 79.0212 41.5802 80.9533 40.9143C81.8812 40.5942 82.5706 39.7459 82.5276 38.7644C82.4473 36.9377 80.173 36.4591 78.4258 36.3526C77.4119 36.2909 76.2189 36.0139 75.4386 35.4363C74.6964 34.8868 74.9017 33.6953 75.7733 33.3899C78.6501 32.3817 81.8293 32.2428 84.7788 33.0161C83.9808 31.5285 82.5041 30.424 80.8531 30.0796L81.3984 28.6049L79.3772 29.1234C79.6281 29.5278 80.005 29.8523 80.4417 30.0401C79.1578 30.2332 77.7949 29.8083 76.8471 28.9196C76.108 29.5331 75.6585 30.4604 75.5734 31.4158C75.4905 32.3475 74.8312 33.1226 73.9064 33.2571L72.9528 33.3956C72.2865 33.4924 71.9344 34.2386 72.2829 34.8157L72.3742 34.9671C72.5219 35.2113 72.4966 35.5229 72.3117 35.7404C71.7877 36.3561 70.8429 36.3876 70.2906 35.7977C68.7313 34.1325 66.3408 30.6029 63.8324 29.6312C63.9273 29.6681 64.1011 30.1368 64.1632 30.2389C64.2926 30.4511 64.4327 30.6562 64.5835 30.8538C64.8845 31.2493 65.2254 31.6137 65.5991 31.9414C65.9729 32.269 66.379 32.5593 66.8103 32.8057C67.2479 33.056 67.7617 33.1834 68.1869 33.4298L68.1878 33.4303Z" fill="#19A147"/>
<path d="M9.82004 59.9622C9.94551 59.9036 10.0896 60.0013 10.2536 60.344C10.431 60.3023 10.5524 60.2157 10.7125 60.1305C11.2977 61.5776 10.8464 63.4363 11.8904 64.5958C12.2495 64.9945 12.747 65.252 13.0874 65.6666C13.7405 66.4621 13.6625 67.6034 13.6518 68.6328C13.6412 69.6623 13.8389 70.8675 14.7469 71.3514C15.1547 71.5685 15.665 71.6089 15.994 71.9334C16.217 72.1536 16.3181 72.4705 16.5202 72.7098C16.8155 73.0587 17.2819 73.1981 17.7155 73.3433C20.1316 74.1521 22.5487 76.1262 22.4273 78.6747C22.3563 80.1667 21.4262 81.4763 21.0866 82.9315C20.4021 85.8662 22.187 88.9293 21.6297 91.8911C21.5579 92.2728 21.4337 92.6693 21.1416 92.9254C20.8955 93.1407 20.5617 93.2282 20.3014 93.4253C19.5464 93.997 19.7047 95.1561 19.9392 96.0746C20.5515 98.4704 21.1633 100.866 21.7755 103.262C21.4315 103.213 21.087 103.163 20.743 103.113C21.9959 103.821 22.1165 105.537 22.7141 106.847C22.9934 107.46 23.3973 108.006 23.8069 108.541C25.418 110.644 27.1621 112.646 29.0254 114.53C21.2688 107.966 15.2935 99.3121 11.9006 89.7279C10.1574 84.8044 9.09829 79.6411 8.73741 74.4309C8.55476 71.7935 8.55077 69.1434 8.72766 66.5051C8.8181 65.1543 8.95642 63.8061 9.14218 62.465C9.18563 62.1525 9.39488 60.162 9.82004 59.9631V59.9622Z" fill="#19A147"/>
<path d="M97.4366 86.2766C97.3727 86.1305 97.3217 86.0138 97.2743 85.9046C97.1661 85.9929 97.1116 86.0147 97.1014 86.0493C96.8758 86.8204 96.7467 87.635 96.4156 88.3568C95.4903 90.3717 94.499 92.3574 93.4971 94.3355C93.1145 95.0906 91.8022 95.3978 91.178 94.9206C91.017 94.7976 90.8548 94.5685 90.8419 94.3781C90.7971 93.7229 90.6912 93.0304 90.8499 92.4146C91.0082 91.7994 91.4191 91.2329 91.788 90.6927C92.128 90.1946 92.3329 89.7254 92.1653 89.103C91.9356 88.2489 92.2894 87.4911 92.7017 86.7716C92.7642 86.6624 92.95 86.5949 93.091 86.5642C94.0854 86.3507 94.9091 85.8056 95.5506 85.0696C96.0826 84.4592 96.4399 83.6961 96.8757 83.0018C96.948 82.8868 97.026 82.7754 97.1045 82.6582C97.6826 83.3032 97.9012 85.4074 97.4366 86.2766Z" fill="#19A147"/>
<path d="M61.3532 13.8108C59.77 14.3675 58.1141 14.9503 56.4574 15.5314C56.018 15.6855 55.5725 15.8235 55.1389 15.9918C54.9753 16.0553 54.8357 16.1804 54.6876 16.2817C54.594 16.3456 54.4801 16.4947 54.4194 16.4743C53.6825 16.2257 53.241 16.9147 52.6199 17.023C51.9225 17.1451 51.2278 17.2845 50.5339 17.4261C50.1119 17.5122 49.6903 17.6045 49.274 17.7137C48.5682 17.8989 47.846 18.0467 47.1668 18.3055C45.8093 18.8222 44.4651 19.3775 43.1377 19.968C42.4976 20.253 41.9088 20.6543 41.2797 21.0125C41.1875 20.7692 41.1219 20.5957 41.0381 20.3733C42.5463 19.0735 44.2873 18.0631 46.2096 17.3417C48.1803 16.6022 50.1075 15.737 52.1047 15.0826C53.5713 14.6023 55.1096 14.3102 56.6356 14.0527C57.9621 13.8286 59.3156 13.7544 60.6602 13.6514C60.9324 13.6306 61.2175 13.7771 61.3536 13.8108H61.3532Z" fill="#19A147"/>
<path d="M56.2042 21.7863C56.1151 21.9151 56.026 22.0443 55.9365 22.173C56.1994 22.1455 56.4698 22.1952 56.7061 22.3142C56.5088 22.4833 56.312 22.6524 56.1147 22.8216C56.0801 22.8513 56.0429 22.885 56.0362 22.9303C56.0291 22.9778 56.0579 23.0231 56.085 23.0626C56.4769 23.6299 56.8688 24.1977 57.2603 24.765C57.372 24.9271 57.4881 25.0998 57.501 25.2964C57.5192 25.5721 57.3232 25.826 57.0816 25.9596C56.84 26.0932 56.5589 26.1301 56.2849 26.1652C55.1331 26.3117 53.9809 26.4581 52.8291 26.6051C53.2436 26.3414 53.6586 26.0773 54.0731 25.8136C53.8998 25.8389 53.7588 25.6418 53.7761 25.4673C53.7934 25.2929 53.9162 25.1486 54.0416 25.0261C54.395 24.6816 54.8184 24.4099 55.2785 24.2319C54.9057 24.0339 54.6379 23.6504 54.5798 23.2317C54.4584 22.3546 55.3105 21.4596 56.2042 21.7868V21.7863Z" fill="#19A147"/>
<path d="M28.4399 27.2081C29.8683 26.0708 31.2733 24.9015 32.7341 23.8072C33.7209 23.0677 34.7818 22.4266 35.821 21.7594C36.0179 21.6329 36.2697 21.5921 36.4962 21.5117C36.5184 21.565 36.5401 21.6178 36.5623 21.6711C36.4257 21.7798 36.2976 21.9024 36.1513 21.9956C35.1033 22.6632 34.307 23.579 33.5135 24.5219C33.0231 25.1048 32.3993 25.6375 31.7281 25.9864C31.1066 26.3096 30.3219 26.3012 29.6502 26.5498C29.2681 26.6914 28.9679 27.0549 28.6305 27.3191C28.5671 27.2822 28.5033 27.2454 28.4395 27.2081H28.4399Z" fill="#19A147"/>
<path d="M53.9799 24.0639C53.4612 24.5003 52.9837 25.0059 52.4087 25.3482C52.0305 25.5737 51.5123 25.5635 50.9492 25.6811C51.5606 24.6375 52.1383 23.7816 53.2847 23.6231C53.4895 23.5947 53.7165 23.7265 53.9338 23.7847C53.9493 23.8775 53.9644 23.9707 53.9799 24.0635V24.0639Z" fill="#19A147"/>
<path d="M50.6875 19.1156C50.8045 18.8625 50.8582 18.4932 51.0546 18.3858C51.3188 18.2415 51.693 18.2952 52.0202 18.2717C52.5052 18.2362 52.9915 18.2171 53.4757 18.1718C53.7199 18.1492 53.9607 18.0848 54.2027 18.0391C54.2444 18.0985 54.2856 18.158 54.3273 18.218C54.0835 18.4275 53.8693 18.7533 53.59 18.8252C52.6803 19.0592 51.7471 19.1999 50.8227 19.3766C50.7779 19.2896 50.7327 19.203 50.6875 19.116V19.1156Z" fill="#19A147"/>
<path d="M28.4403 27.208C28.5042 27.2449 28.5676 27.2821 28.6314 27.319C28.5179 27.4766 28.4071 27.6364 28.2905 27.7918C27.926 28.2774 27.0301 28.4332 27.3377 29.3521C27.3603 29.4196 27.1085 29.6194 26.9542 29.6993C26.182 30.1001 25.3999 30.4815 24.5137 30.7469C25.8224 29.5674 27.1311 28.3875 28.4399 27.208H28.4403Z" fill="#19A147"/>
<path d="M116.935 61.0283C117.805 62.1483 118.106 63.8135 117.607 64.4878C117.115 64.106 116.846 62.7676 116.935 61.0283Z" fill="#19A147"/>
<path d="M29.2562 28.877C29.6543 28.1894 28.9875 28.3652 28.6621 28.1845C29.4317 27.6065 30.1464 27.0694 30.979 26.4443C30.7848 27.6305 30.0972 28.2804 29.2562 28.877Z" fill="#19A147"/>
<path d="M65.9972 35.2586C65.9409 35.6283 65.8895 35.9693 65.831 36.3528C65.24 36.1486 64.6867 35.9706 64.1459 35.7611C64.0067 35.7074 63.9065 35.5538 63.7881 35.4459C63.9313 35.3833 64.0732 35.2723 64.2186 35.267C64.8016 35.2461 65.3859 35.2586 65.9972 35.2586Z" fill="#19A147"/>
<path d="M60.6689 33.1405C60.9088 33.0686 61.1398 32.9998 61.373 32.9297C62.0415 33.6524 61.8544 34.2206 60.7421 34.5331C60.7173 34.0577 60.6933 33.6044 60.6689 33.1401V33.1405Z" fill="#19A147"/>
<path d="M76.3626 14.8184C76.3927 15.9361 77.2369 16.1164 78.0721 16.4746C76.8325 16.5106 76.0323 16.0129 75.3828 15.0421C75.7295 14.9631 76.0749 14.8841 76.3626 14.8184Z" fill="#19A147"/>
<path d="M65.0787 14.233C65.9069 14.189 66.7346 14.1446 67.5517 14.1016C67.0888 14.3195 66.6778 14.6143 66.2283 14.6933C65.859 14.7586 65.4449 14.5677 65.0508 14.4904C65.0601 14.4048 65.0694 14.3191 65.0787 14.233Z" fill="#19A147"/>
<path d="M79.5938 37.7078C80.1373 37.5502 80.5314 37.4356 80.9504 37.3145C80.7965 38.0221 80.4073 38.1752 79.5938 37.7078Z" fill="#19A147"/>
<path d="M42.1221 18.4182C42.9019 18.0786 43.6817 17.739 44.462 17.3994C44.4837 17.4491 44.5055 17.4993 44.5272 17.549C43.7544 17.8966 42.9821 18.2442 42.2094 18.5913C42.1801 18.5336 42.1513 18.4759 42.1221 18.4182Z" fill="#19A147"/>
<path d="M61.7175 31.5176C61.6235 32.0001 61.561 32.322 61.4914 32.6798C60.8392 32.2891 60.8734 32.0041 61.7175 31.5176Z" fill="#19A147"/>
<path d="M72.7833 37.3012C73.4222 37.3838 74.0615 37.4668 74.7003 37.5494C74.6883 37.6302 74.6768 37.7114 74.6648 37.7922C74.0202 37.695 73.3761 37.5978 72.7314 37.5005C72.7487 37.434 72.7656 37.3674 72.7829 37.3008L72.7833 37.3012Z" fill="#19A147"/>
</g>
</g>
<path d="M117.626 94.1338C117.626 94.1338 116.784 85.5973 107.325 82.18C107.325 82.18 113.213 85.7917 114.562 89.4167C114.562 89.4167 113.142 90.0564 108.741 87C108.741 87 110.991 90.2131 111.96 90.5612C111.96 90.5612 106.683 94.8427 103.844 86.6928C103.844 86.6928 103.868 88.8481 104.566 89.7368C104.566 89.7368 102.211 88.706 103.844 85.3305C103.844 85.3305 101.545 87.6016 103.254 91.4739C102.264 89.6218 99.5956 85.3602 96.4776 86.3963C96.4776 86.3963 99.6554 86.5557 100.543 88.9457C100.543 88.9457 98.3423 86.862 96.7804 88.1573C96.7804 88.1573 98.4806 87.5811 98.7661 88.8015C98.7661 88.8015 95.8356 89.6196 95.1369 86.6933C95.1369 86.6933 94.154 88.4224 95.8578 91.6203C95.8578 91.6203 89.6825 88.564 91.2794 80.7461C91.2794 80.7461 90.1862 82.8387 91.0294 87.3299C91.107 87.744 91.0205 87.7756 90.8241 87.4027C90.3706 86.5406 89.9698 85.6496 89.6218 84.7396C89.1452 83.494 88.7923 82.2026 88.568 80.8877C88.2098 78.7875 88.3751 76.611 87.8183 74.5415C87.5301 73.4707 86.9059 71.8158 85.708 71.5068C86.3486 71.672 86.8008 73.2767 87.011 73.7988C87.5097 75.0369 87.6778 76.3815 87.7474 77.7057C87.9251 81.0902 87.8032 84.7707 89.3784 87.8808C89.4702 88.0614 89.5695 88.2386 89.6825 88.4073C89.6825 88.4073 85.7785 87.9203 85.7076 83.4274C85.7076 83.4274 84.9269 86.8003 87.5887 88.8019C87.5887 88.8019 84.5722 86.5037 82.0168 88.2097C82.0168 88.2097 84.5012 87.1789 84.8914 89.169C84.8914 89.169 84.9269 92.1007 82.0168 91.8077C82.0168 91.8077 78.8225 89.7022 81.2715 83.7674C81.2715 83.7674 78.7848 86.4327 80.3476 91.5498C80.3476 91.5498 78.5565 90.5905 78.9023 87.8453C78.9023 87.8453 78.5029 88.2719 78.4231 89.3111C78.4231 89.3111 77.6512 87.0458 74.058 87.7654C74.058 87.7654 77.0656 87.4457 77.9443 89.4443C77.9443 89.4443 78.3703 91.4965 76.6134 92.4025C76.6134 92.4025 75.6553 91.3629 76.6666 89.1775C76.6666 89.1775 75.6017 90.19 75.9213 92.4292C75.9213 92.4292 73.7388 92.4824 74.5638 88.8046C74.5638 88.8046 73.5792 90.1106 74.4308 92.296C74.4308 92.296 72.7169 89.529 70.1069 90.3956C68.7095 90.8595 67.7834 92.1952 67.6996 93.6668C67.681 93.9931 67.7098 94.2053 67.8144 94.2053H117.64L117.625 94.1347L117.626 94.1338Z" fill="#F4CFCE"/>
<path d="M163.942 94.2042H6.52487C6.49295 94.2042 6.4668 94.1785 6.4668 94.146C6.4668 94.1136 6.49295 94.0879 6.52487 94.0879H163.942C163.974 94.0879 164 94.1136 164 94.146C164 94.1785 163.974 94.2042 163.942 94.2042Z" fill="#011721"/>
<path d="M145.613 44.8021C145.714 43.4064 144.819 42.1705 143.531 41.7892C143.571 40.2381 142.389 38.9139 140.827 38.8007C139.829 38.7284 138.913 39.1674 138.333 39.895C137.878 39.5114 137.305 39.2611 136.667 39.2145C135.059 39.0982 133.661 40.3087 133.545 41.9193C133.438 43.3895 134.439 44.6813 135.838 44.9841C135.824 45.0755 135.81 45.1679 135.804 45.262C135.721 46.4104 136.227 47.4651 137.065 48.1301C137.066 49.8685 138.406 51.3374 140.165 51.4648C142.008 51.5985 143.61 50.2108 143.743 48.3654C143.769 48.016 143.739 47.6751 143.662 47.3515C144.729 46.979 145.527 46.002 145.614 44.8021H145.613Z" fill="#011721"/>
<path d="M125.21 75.527C125.21 75.527 117.061 63.1071 106.645 55.7891C106.645 55.7891 101.898 59.9228 87.0576 85.7163L97.1241 84.0627C97.1241 84.0627 102.868 81.0915 105.013 72.4329L112.079 81.6065L123.798 79.6812L125.211 75.527H125.21Z" fill="#0F211E"/>
<path d="M156.874 92.9649C156.874 93.649 157.428 94.203 158.11 94.203H162.165C162.417 94.203 162.497 93.862 162.27 93.7502L159.017 92.1396L156.873 92.9649H156.874Z" fill="#FD9680"/>
<path d="M55.1692 94.2041H53.9695C53.5913 94.2041 53.2398 94.0079 53.0412 93.6856L49.9498 88.6738C49.7135 88.2907 50.1927 87.8703 50.5412 88.1553L54.1615 91.1202L55.1696 94.2041H55.1692Z" fill="#FD9680"/>
<path fill-rule="evenodd" clip-rule="evenodd" d="M139.177 50.1481C141.978 51.1074 144.347 53.2786 145.469 56.256L145.468 56.2556L159.016 92.1397L156.872 92.965C156.872 92.965 147.261 79.0632 143.677 73.3438C143.677 73.3438 142.914 80.9765 140.905 86.9832C131.739 87.3099 123.796 79.6803 123.796 79.6803L130.293 59.2693C130.293 59.2693 121.333 63.4191 116.293 63.9797L97.9531 50.9427L98.7653 49.7934L116.942 57.7422C117.444 57.9615 118.02 57.9092 118.473 57.6002C120.472 56.2351 126.375 52.3926 132.554 50.1854C133.913 49.7002 135.308 49.5297 136.662 49.6318C137.645 49.7179 138.194 49.8179 139.177 50.1481Z" fill="#FFBD39"/>
<path d="M139.177 50.1481C138.073 49.7699 137.703 48.364 138.528 47.5365C138.584 47.4802 138.62 47.4513 138.62 47.4513C135.847 46.1964 136.538 43.6318 136.538 43.6318L133.826 46.0525C133.675 46.1879 133.636 46.4108 133.734 46.5892L134.795 48.5318C134.957 48.8275 135.258 49.021 135.593 49.0454L136.814 49.1338L136.662 49.6318C137.645 49.7179 138.194 49.8179 139.177 50.1481Z" fill="#FD9680"/>
<path d="M140.906 86.9845C131.74 87.3108 123.797 79.6816 123.797 79.6816L54.1602 91.1205L55.1683 94.2044H133.849C137.545 93.9803 139.785 89.7186 139.785 89.7186C140.155 89.0488 140.533 88.1014 140.907 86.9814C140.907 86.9823 140.907 86.9837 140.906 86.9845Z" fill="#1A3A35"/>
<path d="M140.907 86.9839C142.915 80.9773 143.678 73.3445 143.678 73.3445L138.033 62.9941C138.033 62.9941 135.321 76.7414 123.797 79.6806C123.797 79.6806 131.74 87.3102 140.906 86.9835L140.907 86.9839Z" fill="#E09927"/>
<path d="M130.293 59.2699L131.508 56.6458L116.64 62.3489L97.9531 50.9424L116.293 63.9794C121.333 63.4187 130.293 59.269 130.293 59.269V59.2699Z" fill="#E09927"/>
<path d="M107.961 59.9658L105.851 56.5557C103.394 59.6072 97.6853 66.9469 87.0576 85.7158L88.7374 85.4397L107.961 59.9658Z" fill="#1A3A35"/>
<path d="M140.908 86.9814C140.908 86.9814 140.906 86.9843 140.906 86.9864C140.906 86.9864 140.907 86.9829 140.908 86.9814Z" fill="#011721"/>
<path d="M139.785 89.7178C140.155 89.0488 140.532 88.1024 140.906 86.9837C137.487 87.1053 134.239 86.1198 131.509 84.8369H131.509L54.7637 92.9655L55.1684 94.2036H133.849C137.546 93.9794 139.785 89.7178 139.785 89.7178Z" fill="#0F211E"/>
<path d="M97.9544 50.9431C97.9544 50.9431 96.369 49.6487 96.2568 47.5742L98.7661 49.7938L97.9539 50.9431H97.9544Z" fill="#FD9680"/>
<path d="M95.4062 46.7026L97.145 46.3262L98.5078 50.9851L96.828 51.6323L95.4062 46.7026Z" fill="#011721"/>
<path d="M95.668 46.9485L97.0472 46.6729L98.2464 50.7724L96.9191 51.2861L95.668 46.9485Z" fill="white"/>
<path d="M43.6163 62.7651C43.0138 62.7651 42.5234 62.2746 42.5234 61.6709C42.5234 61.0671 43.0138 60.5762 43.6163 60.5762C44.2188 60.5762 44.7095 61.0671 44.7095 61.6709C44.7095 62.2746 44.2192 62.7651 43.6163 62.7651ZM43.6163 60.6432C43.0506 60.6432 42.5899 61.1044 42.5899 61.6709C42.5899 62.2373 43.0506 62.6981 43.6163 62.6981C44.182 62.6981 44.6426 62.2373 44.6426 61.6709C44.6426 61.1044 44.182 60.6432 43.6163 60.6432Z" fill="#DBF3E8"/>
<path d="M92.923 44.5011L92.877 44.5498L95.5219 47.0587L95.568 47.01L92.923 44.5011Z" fill="#DBF3E8"/>
<path d="M92.484 44.4111L92.4512 44.3534L99.5512 40.2725L99.584 40.3302L92.484 44.4111Z" fill="#DBF3E8"/>
<path d="M92.7 43.6417L92.6357 43.6231L94.5146 37.0957L94.5789 37.1143L92.7 43.6417Z" fill="#DBF3E8"/>
<path d="M99.1295 39.7166L94.709 37.3301L94.74 37.2715L99.1605 39.658L99.1295 39.7166Z" fill="#DBF3E8"/>
<path d="M86.1065 36.1045L86.0547 36.1455L92.1876 43.9157L92.2394 43.8746L86.1065 36.1045Z" fill="#DBF3E8"/>
<path d="M94.5804 26.8232H94.5137V36.6645H94.5804V26.8232Z" fill="#DBF3E8"/>
<path d="M85.9886 35.8098L80.8369 37.2734L80.8551 37.3375L86.0068 35.8739L85.9886 35.8098Z" fill="#DBF3E8"/>
<path d="M80.8764 37.3225L80.8184 37.2892L85.9691 28.168L86.0271 28.2008L80.8764 37.3225Z" fill="#DBF3E8"/>
<path d="M80.5117 36.9072L75.0879 27.9023L75.1451 27.8682L80.5684 36.8726L80.5117 36.9072Z" fill="#DBF3E8"/>
<path d="M71.8804 44.9908L71.8379 44.9397L80.5601 37.7207L80.6027 37.7718L71.8804 44.9908Z" fill="#DBF3E8"/>
<path d="M75.4476 56.2446L75.3838 56.2255L80.8156 37.7363L80.8794 37.755L75.4476 56.2446Z" fill="#DBF3E8"/>
<path d="M74.6276 56.5642L72.0234 45.4516L72.0882 45.4365L74.6923 56.5487L74.6276 56.5642Z" fill="#DBF3E8"/>
<path d="M74.851 27.9807L67.6738 34.0088L67.7166 34.0598L74.8937 28.0317L74.851 27.9807Z" fill="#DBF3E8"/>
<path d="M62.0898 36.2206L62.0469 36.2715L71.8386 44.5511L71.8815 44.5002L62.0898 36.2206Z" fill="#DBF3E8"/>
<path d="M62.0783 36.0757L62.0557 36.0126L67.683 33.999L67.7056 34.0616L62.0783 36.0757Z" fill="#DBF3E8"/>
<path d="M62.6251 27.1892L56.7051 32.1123L56.7476 32.1635L62.6676 27.2404L62.6251 27.1892Z" fill="#DBF3E8"/>
<path d="M66.8391 20.1216L66.7725 20.126L67.6618 33.676L67.7284 33.6716L66.8391 20.1216Z" fill="#DBF3E8"/>
<path d="M67.6684 33.6913L62.7891 27.4471L62.8414 27.4062L67.7208 33.6504L67.6684 33.6913Z" fill="#DBF3E8"/>
<path d="M50.8583 21.2981L50.8301 21.3584L62.0528 26.6152L62.081 26.5549L50.8583 21.2981Z" fill="#DBF3E8"/>
<path d="M62.7179 26.4774L62.6611 26.4428L66.5421 20.1045L66.5989 20.1391L62.7179 26.4774Z" fill="#DBF3E8"/>
<path d="M56.7137 32.1689L39.1992 25.9083L39.2218 25.8457L56.7363 32.1063L56.7137 32.1689Z" fill="#DBF3E8"/>
<path d="M39.213 25.8446L39.21 25.9111L62.4642 26.9726L62.4672 26.906L39.213 25.8446Z" fill="#DBF3E8"/>
<path d="M61.742 36.2393L57.9658 46.3203L58.0281 46.3437L61.8043 36.2627L61.742 36.2393Z" fill="#DBF3E8"/>
<path d="M61.7954 59.3388L61.7422 59.2989L72.0285 45.4229L72.0817 45.4628L61.7954 59.3388Z" fill="#DBF3E8"/>
<path d="M62.0955 60.0244L62.041 60.0625L68.7285 69.6507L68.7831 69.6126L62.0955 60.0244Z" fill="#DBF3E8"/>
<path d="M56.0222 61.5373L56 61.4747L61.5723 59.5166L61.5945 59.5792L56.0222 61.5373Z" fill="#DBF3E8"/>
<path d="M43.617 61.704L43.6152 61.6374L55.4222 61.3613L55.424 61.4279L43.617 61.704Z" fill="#DBF3E8"/>
<path d="M55.8513 61.1929L47.251 52.2098L47.2989 52.1641L55.8992 61.1468L55.8513 61.1929Z" fill="#DBF3E8"/>
<path d="M58.0259 46.0179L57.9619 46.0361L61.7363 59.3299L61.8002 59.3117L58.0259 46.0179Z" fill="#DBF3E8"/>
<path d="M39.2207 37.338L39.2012 37.2746L56.9249 31.7793L56.9444 31.8428L39.2207 37.338Z" fill="#DBF3E8"/>
<path d="M57.9796 46.0552L39.1963 37.3353L39.2247 37.2754L58.008 45.9953L57.9796 46.0552Z" fill="#DBF3E8"/>
<path d="M47.2639 52.2189L34.0059 47.7149L34.0271 47.6523L47.2852 52.1563L47.2639 52.2189Z" fill="#DBF3E8"/>
<path d="M34.0467 47.6982L33.9873 47.6685L39.1815 37.291L39.2409 37.3208L34.0467 47.6982Z" fill="#DBF3E8"/>
<path d="M47.2916 52.2169L47.2588 52.1596L57.9783 45.998L58.0111 46.0558L47.2916 52.2169Z" fill="#DBF3E8"/>
<path d="M32.3164 65.0727L32.2969 65.0093L43.6064 61.501L43.6259 61.5645L32.3164 65.0727Z" fill="#DBF3E8"/>
<path d="M33.9889 47.6624L22.0791 62.0215L22.1303 62.064L34.0401 47.7049L33.9889 47.6624Z" fill="#DBF3E8"/>
<path d="M34.0003 47.7112L23.1465 41.3907L23.1797 41.333L34.034 47.654L34.0003 47.7112Z" fill="#DBF3E8"/>
<path d="M18.2426 75.3094L18.1787 75.2912L22.0712 61.6611L22.1355 61.6793L18.2426 75.3094Z" fill="#DBF3E8"/>
<path d="M35.0444 75.0021L32.2744 65.0495L32.3383 65.0312L35.1082 74.9839L35.0444 75.0021Z" fill="#DBF3E8"/>
<path d="M43.6153 61.499H22.2979V61.5656H43.6153V61.499Z" fill="#DBF3E8"/>
<path d="M46.1828 72.3868L43.584 61.5409L43.6483 61.5254L46.2476 72.3712L46.1828 72.3868Z" fill="#DBF3E8"/>
<path d="M35.0885 75.2088L35.0625 75.2705L46.2019 79.9799L46.228 79.9181L35.0885 75.2088Z" fill="#DBF3E8"/>
<path d="M46.2484 72.6084H46.1816V79.4492H46.2484V72.6084Z" fill="#DBF3E8"/>
<path d="M75.1299 56.5862L75.1016 56.5254L95.531 47.0029L95.559 47.0633L75.1299 56.5862Z" fill="#DBF3E8"/>
<path d="M68.7754 69.6628L68.7324 69.6113L95.5233 47.0078L95.5659 47.0584L68.7754 69.6628Z" fill="#DBF3E8"/>
<path d="M95.573 47.0515L95.5176 47.0142L100.001 40.3496L100.056 40.3869L95.573 47.0515Z" fill="#DBF3E8"/>
<path d="M95.5269 47.0609L81.1934 37.7737L81.2293 37.7178L95.5633 47.005L95.5269 47.0609Z" fill="#DBF3E8"/>
<path d="M95.5418 47.066L71.8564 44.9978L71.8618 44.9316L95.548 46.9999L95.5418 47.066Z" fill="#DBF3E8"/>
<path d="M85.7067 27.9158L66.5576 20.1521L66.5829 20.0908L85.732 27.8541L85.7067 27.9158Z" fill="#DBF3E8"/>
<path d="M85.719 27.9189L75.1152 27.7551L75.1161 27.6885L85.7199 27.8518L85.719 27.9189Z" fill="#DBF3E8"/>
<path d="M94.524 26.8052L86.3135 35.7363L86.3624 35.7814L94.5729 26.8503L94.524 26.8052Z" fill="#DBF3E8"/>
<path d="M39.2226 25.9075L39.1982 25.8458L50.8328 21.2979L50.8567 21.36L39.2226 25.9075Z" fill="#DBF3E8"/>
<path d="M39.2455 26.123H39.1787V37.3049H39.2455V26.123Z" fill="#DBF3E8"/>
<path d="M39.2003 37.2726L23.1543 41.2607L23.1703 41.3254L39.2164 37.3373L39.2003 37.2726Z" fill="#DBF3E8"/>
<path d="M18.3169 75.0209L18.2783 74.9663L32.2869 65.0137L32.3255 65.0683L18.3169 75.0209Z" fill="#DBF3E8"/>
<path d="M57.2426 32.82C57.8027 32.6501 58.1192 32.0578 57.9496 31.497C57.7799 30.9362 57.1884 30.6193 56.6283 30.7891C56.0683 30.959 55.7518 31.5513 55.9214 32.1121C56.091 32.6729 56.6826 32.9898 57.2426 32.82Z" fill="#19A147"/>
<path d="M50.9463 22.244C51.5315 22.244 52.0059 21.769 52.0059 21.183C52.0059 20.5971 51.5315 20.1221 50.9463 20.1221C50.3611 20.1221 49.8867 20.5971 49.8867 21.183C49.8867 21.769 50.3611 22.244 50.9463 22.244Z" fill="#19A147"/>
<path d="M62.3633 60.4259C62.8479 60.0974 62.9748 59.4378 62.6467 58.9526C62.3186 58.4674 61.6598 58.3403 61.1752 58.6689C60.6907 58.9974 60.5638 59.657 60.8919 60.1422C61.22 60.6274 61.8788 60.7545 62.3633 60.4259Z" fill="#19A147"/>
<path d="M69.8021 69.5326C69.8962 68.9543 69.5044 68.409 68.9268 68.3147C68.3492 68.2204 67.8047 68.6128 67.7105 69.1911C67.6164 69.7695 68.0082 70.3147 68.5858 70.409C69.1634 70.5033 69.7079 70.1109 69.8021 69.5326Z" fill="#19A147"/>
<path d="M59.0237 46.2673C59.1581 45.697 58.8054 45.1256 58.2358 44.991C57.6663 44.8564 57.0956 45.2096 56.9612 45.7799C56.8267 46.3502 57.1795 46.9216 57.749 47.0562C58.3186 47.1908 58.8892 46.8376 59.0237 46.2673Z" fill="#19A147"/>
<path d="M39.2109 26.9374C39.7961 26.9374 40.2705 26.4623 40.2705 25.8764C40.2705 25.2904 39.7961 24.8154 39.2109 24.8154C38.6258 24.8154 38.1514 25.2904 38.1514 25.8764C38.1514 26.4623 38.6258 26.9374 39.2109 26.9374Z" fill="#19A147"/>
<path d="M24.1936 41.6033C24.328 41.033 23.9753 40.4616 23.4057 40.327C22.8362 40.1924 22.2655 40.5456 22.1311 41.1158C21.9967 41.6861 22.3494 42.2576 22.9189 42.3922C23.4885 42.5268 24.0592 42.1736 24.1936 41.6033Z" fill="#19A147"/>
<path d="M47.2744 53.2489C47.8596 53.2489 48.334 52.7739 48.334 52.1879C48.334 51.602 47.8596 51.127 47.2744 51.127C46.6892 51.127 46.2148 51.602 46.2148 52.1879C46.2148 52.7739 46.6892 53.2489 47.2744 53.2489Z" fill="#19A147"/>
<path d="M35.0762 76.0546C35.6614 76.0546 36.1358 75.5795 36.1358 74.9936C36.1358 74.4076 35.6614 73.9326 35.0762 73.9326C34.491 73.9326 34.0166 74.4076 34.0166 74.9936C34.0166 75.5795 34.491 76.0546 35.0762 76.0546Z" fill="#19A147"/>
<path d="M46.2148 73.4393C46.8 73.4393 47.2744 72.9643 47.2744 72.3783C47.2744 71.7924 46.8 71.3174 46.2148 71.3174C45.6297 71.3174 45.1553 71.7924 45.1553 72.3783C45.1553 72.9643 45.6297 73.4393 46.2148 73.4393Z" fill="#19A147"/>
<path d="M56.9237 61.8435C57.0174 61.2651 56.6252 60.7201 56.0475 60.6263C55.4699 60.5324 54.9256 60.9251 54.8319 61.5035C54.7381 62.0819 55.1304 62.6269 55.708 62.7208C56.2856 62.8147 56.8299 62.4219 56.9237 61.8435Z" fill="#19A147"/>
<path d="M46.9645 80.4319C47.3783 80.0175 47.3783 79.3458 46.9645 78.9314C46.5507 78.5171 45.8798 78.5171 45.466 78.9314C45.0522 79.3458 45.0522 80.0175 45.466 80.4319C45.8798 80.8462 46.5507 80.8462 46.9645 80.4319Z" fill="#19A147"/>
<path d="M23.134 61.9128C23.2684 61.3426 22.9157 60.7711 22.3462 60.6365C21.7766 60.5019 21.2059 60.8551 21.0715 61.4254C20.9371 61.9957 21.2898 62.5671 21.8594 62.7017C22.4289 62.8363 22.9996 62.4831 23.134 61.9128Z" fill="#19A147"/>
<path d="M63.5243 26.9479C63.5302 26.3619 63.0607 25.8822 62.4755 25.8762C61.8903 25.8703 61.4112 26.3405 61.4053 26.9264C61.3993 27.5123 61.8689 27.9921 62.4541 27.998C63.0392 28.004 63.5184 27.5338 63.5243 26.9479Z" fill="#19A147"/>
<path d="M62.0674 37.1053C62.6526 37.1053 63.127 36.6303 63.127 36.0444C63.127 35.4584 62.6526 34.9834 62.0674 34.9834C61.4822 34.9834 61.0078 35.4584 61.0078 36.0444C61.0078 36.6303 61.4822 37.1053 62.0674 37.1053Z" fill="#19A147"/>
<path d="M35.0471 47.9246C35.1815 47.3543 34.8288 46.7829 34.2592 46.6483C33.6897 46.5137 33.119 46.8668 32.9846 47.4371C32.8502 48.0074 33.2029 48.5788 33.7725 48.7134C34.342 48.848 34.9127 48.4948 35.0471 47.9246Z" fill="#19A147"/>
<path d="M33.0553 65.7912C33.4691 65.3769 33.4691 64.7051 33.0553 64.2908C32.6415 63.8765 31.9706 63.8765 31.5569 64.2908C31.1431 64.7051 31.1431 65.3769 31.5569 65.7912C31.9706 66.2056 32.6415 66.2056 33.0553 65.7912Z" fill="#19A147"/>
<path d="M18.2109 76.0546C18.7961 76.0546 19.2705 75.5795 19.2705 74.9936C19.2705 74.4076 18.7961 73.9326 18.2109 73.9326C17.6258 73.9326 17.1514 74.4076 17.1514 74.9936C17.1514 75.5795 17.6258 76.0546 18.2109 76.0546Z" fill="#19A147"/>
<path d="M40.2405 37.5476C40.3749 36.9773 40.0221 36.4059 39.4526 36.2713C38.8831 36.1367 38.3124 36.4899 38.178 37.0602C38.0435 37.6305 38.3963 38.2019 38.9658 38.3365C39.5354 38.4711 40.106 38.1179 40.2405 37.5476Z" fill="#19A147"/>
<path d="M93.4166 45.1321C93.8304 44.7177 93.8304 44.046 93.4166 43.6316C93.0029 43.2173 92.332 43.2173 91.9182 43.6316C91.5044 44.046 91.5044 44.7177 91.9182 45.1321C92.332 45.5464 93.0029 45.5464 93.4166 45.1321Z" fill="#19A147"/>
<path d="M85.9971 37.1053C86.5823 37.1053 87.0567 36.6303 87.0567 36.0444C87.0567 35.4584 86.5823 34.9834 85.9971 34.9834C85.4119 34.9834 84.9375 35.4584 84.9375 36.0444C84.9375 36.6303 85.4119 37.1053 85.9971 37.1053Z" fill="#19A147"/>
<path d="M81.8746 37.5503C82.0104 36.9804 81.6591 36.4081 81.0899 36.2721C80.5206 36.1361 79.9491 36.4879 79.8133 37.0578C79.6775 37.6278 80.0288 38.2001 80.598 38.3361C81.1672 38.4721 81.7388 38.1203 81.8746 37.5503Z" fill="#19A147"/>
<path d="M72.9062 45.1347C72.9993 44.5562 72.6063 44.0117 72.0286 43.9185C71.4508 43.8253 70.9071 44.2188 70.814 44.7973C70.7209 45.3758 71.1139 45.9203 71.6916 46.0134C72.2693 46.1066 72.8131 45.7132 72.9062 45.1347Z" fill="#19A147"/>
<path d="M75.8649 57.3059C76.2787 56.8916 76.2787 56.2198 75.8649 55.8055C75.4511 55.3911 74.7802 55.3911 74.3664 55.8055C73.9526 56.2198 73.9526 56.8915 74.3664 57.3059C74.7802 57.7202 75.4511 57.7202 75.8649 57.3059Z" fill="#19A147"/>
<path d="M67.6953 34.7323C68.2805 34.7323 68.7549 34.2573 68.7549 33.6713C68.7549 33.0854 68.2805 32.6104 67.6953 32.6104C67.1101 32.6104 66.6357 33.0854 66.6357 33.6713C66.6357 34.2573 67.1101 34.7323 67.6953 34.7323Z" fill="#19A147"/>
<path d="M95.6007 26.8331C95.6062 26.2472 95.1363 25.7677 94.5512 25.7622C93.966 25.7567 93.4872 26.2272 93.4817 26.8131C93.4762 27.399 93.946 27.8785 94.5312 27.884C95.1164 27.8895 95.5952 27.419 95.6007 26.8331Z" fill="#19A147"/>
<path d="M86.7618 28.0663C86.8624 27.4891 86.4765 26.9395 85.9 26.8389C85.3235 26.7383 84.7747 27.1246 84.6742 27.7019C84.5737 28.2791 84.9595 28.8287 85.536 28.9293C86.1125 29.0299 86.6613 28.6436 86.7618 28.0663Z" fill="#19A147"/>
<path d="M75.8649 28.635C76.2787 28.2207 76.2787 27.5489 75.8649 27.1346C75.4511 26.7202 74.7802 26.7202 74.3664 27.1346C73.9526 27.5489 73.9526 28.2206 74.3664 28.635C74.7802 29.0493 75.4511 29.0493 75.8649 28.635Z" fill="#19A147"/>
<path d="M67.32 20.8723C67.7338 20.458 67.7338 19.7862 67.32 19.3719C66.9062 18.9575 66.2353 18.9575 65.8215 19.3719C65.4077 19.7862 65.4077 20.458 65.8215 20.8723C66.2353 21.2866 66.9062 21.2866 67.32 20.8723Z" fill="#19A147"/>
<path d="M100.317 41.051C100.731 40.6367 100.731 39.9649 100.317 39.5506C99.9033 39.1362 99.2324 39.1362 98.8186 39.5506C98.4048 39.9649 98.4048 40.6367 98.8186 41.051C99.2324 41.4653 99.9033 41.4653 100.317 41.051Z" fill="#19A147"/>
<path d="M95.2956 37.8547C95.7094 37.4404 95.7093 36.7686 95.2956 36.3543C94.8818 35.9399 94.2109 35.9399 93.7971 36.3543C93.3833 36.7686 93.3833 37.4404 93.7971 37.8547C94.2109 38.269 94.8818 38.269 95.2956 37.8547Z" fill="#19A147"/>
<path d="M88.9086 36.7535C89.3017 35.1416 88.3152 33.5158 86.7054 33.1222C85.0955 32.7287 83.4719 33.7164 83.0788 35.3284C82.6858 36.9403 83.6722 38.5661 85.2821 38.9597C86.8919 39.3532 88.5156 38.3655 88.9086 36.7535Z" fill="white"/>
<path d="M70.8768 71.4838C72.0485 70.3105 72.0485 68.4082 70.8768 67.2349C69.705 66.0616 67.8052 66.0616 66.6334 67.2349C65.4616 68.4082 65.4616 70.3105 66.6334 71.4838C67.8052 72.6571 69.705 72.6571 70.8768 71.4838Z" fill="white"/>
<path d="M76.6173 29.6668C77.6002 28.6826 77.6002 27.0869 76.6173 26.1028C75.6344 25.1186 74.0409 25.1186 73.058 26.1028C72.0751 27.0869 72.0751 28.6826 73.058 29.6668C74.0409 30.6509 75.6344 30.6509 76.6173 29.6668Z" fill="white"/>
<path d="M45.7291 62.0614C45.9474 60.91 45.1923 59.7995 44.0424 59.5809C42.8926 59.3623 41.7835 60.1185 41.5652 61.2698C41.3469 62.4211 42.102 63.5317 43.2519 63.7503C44.4017 63.9689 45.5108 63.2127 45.7291 62.0614Z" fill="white"/>
<path d="M35.0762 77.1159C36.2466 77.1159 37.1953 76.1659 37.1953 74.994C37.1953 73.8221 36.2466 72.8721 35.0762 72.8721C33.9058 72.8721 32.957 73.8221 32.957 74.994C32.957 76.1659 33.9058 77.1159 35.0762 77.1159Z" fill="white"/>
<path d="M41.2285 37.6738C41.3269 36.506 40.4612 35.4796 39.2949 35.3811C38.1287 35.2826 37.1036 36.1494 37.0052 37.3172C36.9069 38.485 37.7726 39.5115 38.9388 39.6099C40.105 39.7084 41.1302 38.8416 41.2285 37.6738Z" fill="white"/>
<path d="M125.21 37.1881C125.198 37.1881 125.185 37.1806 125.18 37.1682C125.138 37.0732 120.875 27.5373 110.838 18.2475C101.805 9.88847 86.1589 0.0667707 62.533 0.0667707C61.9296 0.0667707 61.324 0.0734295 60.7105 0.0863032H60.71C60.6918 0.0863032 60.6772 0.0716538 60.6768 0.0534532C60.6768 0.0352525 60.6909 0.0197153 60.7096 0.0192714C71.6006 -0.209347 81.7752 1.59696 90.9412 5.39335C98.2749 8.4302 104.985 12.7393 110.885 18.2008C120.932 27.4996 125.199 37.0461 125.241 37.1415C125.249 37.1584 125.241 37.1779 125.224 37.1855C125.22 37.1873 125.215 37.1881 125.211 37.1881H125.21Z" fill="white"/>
<path d="M41.2358 95.6369H0.0332504C0.0146302 95.6369 0 95.6218 0 95.6036C0 95.5854 0.0150735 95.5703 0.0332504 95.5703H41.2358C41.2544 95.5703 41.269 95.5854 41.269 95.6036C41.269 95.6218 41.2539 95.6369 41.2358 95.6369Z" fill="white"/>
<path d="M11.8173 98.3285C11.8058 98.3285 11.7943 98.3223 11.7885 98.3112C11.7486 98.2397 7.763 91.0096 6.12797 80.0542C5.16769 73.62 5.19385 67.1788 6.20555 60.9084C7.47039 53.071 10.2874 45.4813 14.578 38.3502C14.5873 38.3342 14.6077 38.3294 14.6237 38.3387C14.6396 38.348 14.6445 38.3689 14.6352 38.3844C4.92696 54.5177 4.68623 69.9439 6.19358 80.0444C7.82684 90.9874 11.8062 98.2069 11.8461 98.2788C11.855 98.2948 11.8492 98.3148 11.8333 98.3241C11.828 98.3272 11.8226 98.3285 11.8169 98.3285H11.8173Z" fill="white"/>
<g opacity="0.35">
<path d="M114.996 37.745C114.957 37.6887 111.024 32.0513 104.041 26.3425C97.5979 21.0746 87.1653 14.667 74.0566 14.0593L74.0593 14.0078C79.8537 14.2764 85.614 15.6903 91.1801 18.2095C95.6326 20.2249 99.9711 22.9483 104.075 26.3039C111.063 32.0171 114.999 37.6598 115.038 37.7162L114.996 37.7455V37.745Z" fill="#05293C"/>
</g>
<g opacity="0.37">
<path d="M11.8644 47.0552L11.8174 47.0339C14.1165 42.0065 17.1299 37.3347 20.7737 33.1486C23.6882 29.7992 27.0106 26.7517 30.6486 24.09C36.8425 19.558 41.8704 17.694 41.9205 17.6758L41.9382 17.7242C41.8881 17.7424 36.8655 19.6046 30.6774 24.133C24.9663 28.3121 17.0669 35.6811 11.8644 47.0556V47.0552Z" fill="#05293C"/>
</g>
<path fill-rule="evenodd" clip-rule="evenodd" d="M20.9553 42.943C20.9553 49.5871 14.3073 53.5733 12.9777 53.5733C11.648 53.5733 5 49.5871 5 42.943C5.00106 40.828 5.84207 38.8001 7.33809 37.305C8.83412 35.81 10.8627 34.9704 12.9777 34.9707C17.3826 34.9707 20.9553 38.5407 20.9553 42.943Z" fill="#FEC93D" stroke="#FEC93D" stroke-linecap="square"/>
<path fill-rule="evenodd" clip-rule="evenodd" d="M12.9776 45.6003C13.6826 45.6003 14.3588 45.3203 14.8575 44.8219C15.3561 44.3235 15.6364 43.6475 15.6368 42.9424C15.6368 42.2372 15.3566 41.5608 14.8579 41.0621C14.3592 40.5634 13.6828 40.2832 12.9776 40.2832C12.2723 40.2832 11.5959 40.5634 11.0972 41.0621C10.5985 41.5608 10.3184 42.2372 10.3184 42.9424C10.3187 43.6475 10.599 44.3235 11.0977 44.8219C11.5964 45.3203 12.2725 45.6003 12.9776 45.6003Z" fill="white"/>
<path fill-rule="evenodd" clip-rule="evenodd" d="M43.8594 14.2047C43.8594 18.3104 39.7513 20.7736 38.9297 20.7736C38.1081 20.7736 34 18.3104 34 14.2047C34.0007 12.8978 34.5203 11.6446 35.4448 10.7208C36.3693 9.79696 37.6228 9.2781 38.9297 9.27832C41.6517 9.27832 43.8594 11.4844 43.8594 14.2047Z" fill="#FEC93D" stroke="#FEC93D" stroke-linecap="square"/>
<path fill-rule="evenodd" clip-rule="evenodd" d="M38.9294 15.8462C39.365 15.8462 39.7829 15.6732 40.091 15.3652C40.3992 15.0572 40.5724 14.6395 40.5726 14.2038C40.5726 13.768 40.3995 13.35 40.0913 13.0418C39.7831 12.7337 39.3652 12.5605 38.9294 12.5605C38.4936 12.5605 38.0756 12.7337 37.7674 13.0418C37.4593 13.35 37.2861 13.768 37.2861 14.2038C37.2864 14.6395 37.4596 15.0572 37.7677 15.3652C38.0759 15.6732 38.4937 15.8462 38.9294 15.8462Z" fill="white"/>
<path fill-rule="evenodd" clip-rule="evenodd" d="M70.0005 29.0877C70.0005 32.0581 67.0283 33.8403 66.4338 33.8403C65.8394 33.8403 62.8672 32.0581 62.8672 29.0877C62.8677 28.1421 63.2437 27.2355 63.9125 26.5671C64.5813 25.8987 65.4883 25.5233 66.4338 25.5234C68.4032 25.5234 70.0005 27.1195 70.0005 29.0877Z" fill="#FEC93D" stroke="#FEC93D" stroke-linecap="square"/>
<path fill-rule="evenodd" clip-rule="evenodd" d="M66.433 30.2746C66.7482 30.2746 67.0505 30.1495 67.2735 29.9266C67.4964 29.7038 67.6217 29.4016 67.6219 29.0863C67.6219 28.771 67.4967 28.4686 67.2737 28.2457C67.0507 28.0227 66.7483 27.8975 66.433 27.8975C66.1177 27.8975 65.8153 28.0227 65.5924 28.2457C65.3694 28.4686 65.2441 28.771 65.2441 29.0863C65.2443 29.4016 65.3696 29.7038 65.5926 29.9266C65.8155 30.1495 66.1178 30.2746 66.433 30.2746Z" fill="white"/>
<path fill-rule="evenodd" clip-rule="evenodd" d="M83 11.6061C83 13.9195 80.6851 15.3075 80.2222 15.3075C79.7592 15.3075 77.4443 13.9195 77.4443 11.6061C77.4447 10.8696 77.7375 10.1635 78.2585 9.6429C78.7794 9.12233 79.4857 8.82996 80.2222 8.83008C81.756 8.83008 83 10.0732 83 11.6061Z" fill="#FEC93D" stroke="#FEC93D" stroke-linecap="square"/>
<path fill-rule="evenodd" clip-rule="evenodd" d="M80.2218 12.5311C80.4673 12.5311 80.7028 12.4336 80.8764 12.2601C81.0501 12.0865 81.1477 11.8511 81.1478 11.6056C81.1478 11.3601 81.0502 11.1245 80.8766 10.9509C80.7029 10.7772 80.4674 10.6797 80.2218 10.6797C79.9763 10.6797 79.7407 10.7772 79.5671 10.9509C79.3935 11.1245 79.2959 11.3601 79.2959 11.6056C79.296 11.8511 79.3936 12.0865 79.5673 12.2601C79.7409 12.4336 79.9763 12.5311 80.2218 12.5311Z" fill="white"/>
</svg>
