<svg width="140" height="143" viewBox="0 0 140 143" fill="none" xmlns="http://www.w3.org/2000/svg">
<path d="M59.6365 78.4849C64.0507 74.0723 64.0507 66.9179 59.6365 62.5053C55.2224 58.0926 48.0657 58.0926 43.6516 62.5053C39.2375 66.9179 39.2375 74.0723 43.6516 78.4849C48.0657 82.8976 55.2224 82.8976 59.6365 78.4849Z" fill="#FEC93D"/>
<path d="M58.9207 65.7363C58.121 64.9369 56.8126 64.9369 56.0129 65.7363L50.3827 71.3647L47.3924 68.3754C46.5927 67.5759 45.2843 67.5759 44.4845 68.3754C43.6848 69.1748 43.6848 70.4828 44.4845 71.2823L48.929 75.7253C49.7287 76.5247 51.0372 76.5247 51.8369 75.7253L58.9207 68.6438C59.7204 67.8443 59.7204 66.5363 58.9207 65.7369V65.7363Z" fill="#E2821A"/>
<path d="M58.8035 65.2666C58.0038 64.4671 56.6954 64.4671 55.8957 65.2666L50.2655 70.8949L47.2752 67.9057C46.4755 67.1062 45.1671 67.1062 44.3674 67.9057C43.5677 68.7051 43.5677 70.0131 44.3674 70.8126L48.8118 75.2556C49.6115 76.055 50.92 76.055 51.7197 75.2556L58.8035 68.1741C59.6032 67.3746 59.6032 66.0666 58.8035 65.2672V65.2666Z" fill="white"/>
<path d="M51.7029 0.756709L40.7861 11.6699L51.7029 22.5831L62.6197 11.6699L51.7029 0.756709Z" fill="#19A147"/>
<path d="M8.13648 45.7587C12.3299 45.6087 15.6077 42.0887 15.4576 37.8966C15.3075 33.7046 11.7864 30.4279 7.59291 30.5779C3.39946 30.728 0.121682 34.248 0.271785 38.44C0.421887 42.6321 3.94303 45.9088 8.13648 45.7587Z" fill="#19A147"/>
<path d="M59.2641 38.6401C59.434 34.4488 56.1728 30.9134 51.9801 30.7436C47.7874 30.5738 44.2509 33.8339 44.081 38.0252C43.9111 42.2165 47.1723 45.7519 51.365 45.9217C55.5577 46.0915 59.0942 42.8314 59.2641 38.6401Z" fill="#19A147"/>
<path d="M100.914 43.5396C103.881 40.5735 103.881 35.7644 100.914 32.7983C97.9471 29.8321 93.1364 29.8321 90.1693 32.7983C87.2022 35.7644 87.2022 40.5735 90.1693 43.5396C93.1364 46.5058 97.9471 46.5058 100.914 43.5396Z" fill="#19A147"/>
<path d="M7.86428 28.3622C7.93342 28.3622 7.98931 28.3063 7.98931 28.2372V11.7939H37.5859C37.655 11.7939 37.7109 11.738 37.7109 11.6689C37.7109 11.5998 37.655 11.5439 37.5859 11.5439H7.86428C7.79514 11.5439 7.73926 11.5998 7.73926 11.6689V28.2366C7.73926 28.3057 7.79514 28.3616 7.86428 28.3616V28.3622Z" fill="#19A147"/>
<path d="M65.6963 11.6693C65.6963 11.7384 65.7522 11.7943 65.8213 11.7943H95.4179V28.2376C95.4179 28.3067 95.4738 28.3626 95.5429 28.3626C95.6121 28.3626 95.668 28.3067 95.668 28.2376V11.6699C95.668 11.6008 95.6121 11.5449 95.5429 11.5449H65.8219C65.7528 11.5449 65.6969 11.6008 65.6969 11.6699L65.6963 11.6693Z" fill="#19A147"/>
<path d="M51.5781 23.9951V28.2383C51.5781 28.3074 51.634 28.3632 51.7032 28.3632C51.7723 28.3632 51.8282 28.3074 51.8282 28.2383V23.9951C51.8282 23.926 51.7723 23.8701 51.7032 23.8701C51.634 23.8701 51.5781 23.926 51.5781 23.9951Z" fill="#19A147"/>
<path d="M51.7032 47.668C51.634 47.668 51.5781 47.7238 51.5781 47.7929V55.5282C51.5781 55.5973 51.634 55.6532 51.7032 55.6532C51.7723 55.6532 51.8282 55.5973 51.8282 55.5282V47.7929C51.8282 47.7238 51.7723 47.668 51.7032 47.668Z" fill="#19A147"/>
<path d="M41.9889 38.0439H18.0352C17.966 38.0439 17.9102 38.0998 17.9102 38.1689C17.9102 38.238 17.966 38.2939 18.0352 38.2939H41.9889C42.058 38.2939 42.1139 38.238 42.1139 38.1689C42.1139 38.0998 42.058 38.0439 41.9889 38.0439Z" fill="#19A147"/>
<path d="M20.2188 36.3643C20.1496 36.3643 20.0938 36.4201 20.0938 36.4892V39.85C20.0938 39.9191 20.1496 39.975 20.2188 39.975C20.2879 39.975 20.3438 39.9191 20.3438 39.85V36.4892C20.3438 36.4201 20.2879 36.3643 20.2188 36.3643Z" fill="#19A147"/>
<path d="M23.4834 36.3643C23.4143 36.3643 23.3584 36.4201 23.3584 36.4892V39.85C23.3584 39.9191 23.4143 39.975 23.4834 39.975C23.5526 39.975 23.6085 39.9191 23.6085 39.85V36.4892C23.6085 36.4201 23.5526 36.3643 23.4834 36.3643Z" fill="#19A147"/>
<path d="M26.7471 36.3643C26.678 36.3643 26.6221 36.4201 26.6221 36.4892V39.85C26.6221 39.9191 26.678 39.975 26.7471 39.975C26.8162 39.975 26.8721 39.9191 26.8721 39.85V36.4892C26.8721 36.4201 26.8162 36.3643 26.7471 36.3643Z" fill="#19A147"/>
<path d="M30.0108 36.3643C29.9416 36.3643 29.8857 36.4201 29.8857 36.4892V39.85C29.8857 39.9191 29.9416 39.975 30.0108 39.975C30.0799 39.975 30.1358 39.9191 30.1358 39.85V36.4892C30.1358 36.4201 30.0799 36.3643 30.0108 36.3643Z" fill="#19A147"/>
<path d="M33.2754 36.3643C33.2063 36.3643 33.1504 36.4201 33.1504 36.4892V39.85C33.1504 39.9191 33.2063 39.975 33.2754 39.975C33.3446 39.975 33.4004 39.9191 33.4004 39.85V36.4892C33.4004 36.4201 33.3446 36.3643 33.2754 36.3643Z" fill="#19A147"/>
<path d="M36.5401 36.3643C36.4709 36.3643 36.415 36.4201 36.415 36.4892V39.85C36.415 39.9191 36.4709 39.975 36.5401 39.975C36.6092 39.975 36.6651 39.9191 36.6651 39.85V36.4892C36.6651 36.4201 36.6092 36.3643 36.5401 36.3643Z" fill="#19A147"/>
<path d="M39.8047 36.3643C39.7356 36.3643 39.6797 36.4201 39.6797 36.4892V39.85C39.6797 39.9191 39.7356 39.975 39.8047 39.975C39.8739 39.975 39.9297 39.9191 39.9297 39.85V36.4892C39.9297 36.4201 39.8739 36.3643 39.8047 36.3643Z" fill="#19A147"/>
<path d="M63.6797 36.3643C63.6106 36.3643 63.5547 36.4201 63.5547 36.4892V39.85C63.5547 39.9191 63.6106 39.975 63.6797 39.975C63.7489 39.975 63.8047 39.9191 63.8047 39.85V36.4892C63.8047 36.4201 63.7489 36.3643 63.6797 36.3643Z" fill="#19A147"/>
<path d="M66.9444 36.3643C66.8752 36.3643 66.8193 36.4201 66.8193 36.4892V39.85C66.8193 39.9191 66.8752 39.975 66.9444 39.975C67.0135 39.975 67.0694 39.9191 67.0694 39.85V36.4892C67.0694 36.4201 67.0135 36.3643 66.9444 36.3643Z" fill="#19A147"/>
<path d="M70.208 36.3643C70.1389 36.3643 70.083 36.4201 70.083 36.4892V39.85C70.083 39.9191 70.1389 39.975 70.208 39.975C70.2772 39.975 70.3331 39.9191 70.3331 39.85V36.4892C70.3331 36.4201 70.2772 36.3643 70.208 36.3643Z" fill="#19A147"/>
<path d="M73.4737 36.3643C73.4045 36.3643 73.3486 36.4201 73.3486 36.4892V39.85C73.3486 39.9191 73.4045 39.975 73.4737 39.975C73.5428 39.975 73.5987 39.9191 73.5987 39.85V36.4892C73.5987 36.4201 73.5428 36.3643 73.4737 36.3643Z" fill="#19A147"/>
<path d="M76.7373 36.3643C76.6682 36.3643 76.6123 36.4201 76.6123 36.4892V39.85C76.6123 39.9191 76.6682 39.975 76.7373 39.975C76.8065 39.975 76.8624 39.9191 76.8624 39.85V36.4892C76.8624 36.4201 76.8065 36.3643 76.7373 36.3643Z" fill="#19A147"/>
<path d="M80.002 36.3643C79.9328 36.3643 79.877 36.4201 79.877 36.4892V39.85C79.877 39.9191 79.9328 39.975 80.002 39.975C80.0711 39.975 80.127 39.9191 80.127 39.85V36.4892C80.127 36.4201 80.0711 36.3643 80.002 36.3643Z" fill="#19A147"/>
<path d="M83.2656 36.3643C83.1965 36.3643 83.1406 36.4201 83.1406 36.4892V39.85C83.1406 39.9191 83.1965 39.975 83.2656 39.975C83.3348 39.975 83.3907 39.9191 83.3907 39.85V36.4892C83.3907 36.4201 83.3348 36.3643 83.2656 36.3643Z" fill="#19A147"/>
<path d="M85.4498 38.0439H61.4961C61.427 38.0439 61.3711 38.0998 61.3711 38.1689C61.3711 38.238 61.427 38.2939 61.4961 38.2939H85.4498C85.519 38.2939 85.5749 38.238 85.5749 38.1689C85.5749 38.0998 85.519 38.0439 85.4498 38.0439Z" fill="#19A147"/>
<path d="M107.56 137.696L110.84 135.396C111.555 137.06 112.221 138.686 112.799 140.216C113.157 141.163 112.022 141.962 111.253 141.304C110.196 140.398 108.932 139.151 107.56 137.696Z" fill="#EDAC80"/>
<path d="M100.139 113.466C100.139 113.466 108.66 129.271 112.798 140.216C113.156 141.162 112.021 141.961 111.253 141.303C105.852 136.674 95.0885 123.23 91.7197 117.803L90.0967 113.467L97.7584 110.852L100.139 113.467V113.466Z" fill="#0F211E"/>
<path d="M139.218 107.344H105.317V142.397H139.218V107.344Z" fill="#19A147"/>
<path d="M124.175 107.344L105.317 142.398V107.344H124.175Z" fill="#0D5525"/>
<path d="M109.857 73.3396L72.6757 59.4024C71.5194 58.926 70.5768 60.5779 71.6421 61.2334C82.1719 67.7136 97.886 75.5421 105.676 78.9979C107.283 79.711 109.857 73.3396 109.857 73.3396H109.857Z" fill="#F2F2F2"/>
<path d="M71.1902 60.2939C71.1406 60.6395 71.2622 60.9995 71.6419 61.2334C80.9958 66.9896 94.4347 73.8067 102.781 77.6812L103.387 76.0305L102.148 74.3752L71.1902 60.2939Z" fill="#C0C0C0"/>
<path d="M101.945 67.152L101.113 63.6956L107.188 63.668C108.324 63.7538 108.901 64.2077 109.326 65.2646C109.846 66.5605 109.313 69.1857 107.84 71.1135L106.802 72.6122L102.924 67.8702L101.944 67.152H101.945Z" fill="#011721"/>
<path d="M105.194 72.2758L104.499 71.3663L102.806 71.8617L100.773 69.0705L102.7 65.5283C102.7 65.5283 102.99 68.3062 106.026 68.5187L106.572 67.0235C106.572 67.0235 107.841 66.8121 107.223 68.7301C107.043 69.2882 107.193 70.0491 107.497 70.5496L107.841 71.1135L105.642 72.6121L105.194 72.2758H105.194Z" fill="#EDAC80"/>
<path d="M104.524 71.9982C105.949 70.5618 109.058 70.8538 110.445 72.4095C112.073 74.2347 122.955 91.7914 124.175 100.503C124.175 100.503 116.808 102.749 106.939 99.3797C106.939 99.3797 102.523 86.796 102.148 84.7507C102.148 84.7507 91.2804 93.7139 78.8988 100.67C77.7626 101.309 76.608 99.8705 77.4866 98.908C83.8981 91.8818 95.2956 81.3007 104.525 71.9977L104.524 71.9982Z" fill="#F2F2F2"/>
<path d="M85.5351 106.087C86.9191 103.681 106.939 99.3799 106.939 99.3799C116.808 102.749 124.175 100.503 124.175 100.503C124.57 103.319 123.068 107.734 115.268 110.551C114.137 110.959 112.966 111.254 111.781 111.458L94.1487 114.084C91.3653 120.3 84.271 131.845 75.0819 142.397C74.4942 143.072 71.9286 143.608 72.6926 140.184C74.4015 132.526 82.8917 110.682 85.5346 106.087H85.5351Z" fill="#1A3A35"/>
<path d="M79.9608 96.2266C79.092 97.1579 78.2634 98.0547 77.4856 98.9071C76.607 99.8701 77.7616 101.308 78.8978 100.67C79.7545 100.188 80.594 99.7002 81.4185 99.2089C81.4185 99.2089 80.7081 98.6301 80.3687 98.0714C79.8675 97.2449 79.9602 96.2266 79.9602 96.2266H79.9608Z" fill="#EDAC80"/>
<path d="M75.0385 60.2882L72.6757 59.4024C71.5194 58.926 70.5768 60.5779 71.6421 61.2334C72.6417 61.8485 73.6886 62.4763 74.7706 63.1104C74.7706 63.1104 74.5367 62.2557 74.6421 61.3941C74.7263 60.7075 75.0385 60.2876 75.0385 60.2876V60.2882Z" fill="#EDAC80"/>
<path d="M73.5309 137.035C73.1766 138.237 72.8879 139.307 72.6926 140.184C71.9286 143.608 74.4942 143.072 75.0819 142.397C75.9006 141.457 76.6139 140.628 77.3808 139.686L78.3994 138.439L78.2692 138.467C76.6715 138.47 75.1539 137.766 74.1244 136.545L73.7948 136.154L73.5315 137.036L73.5309 137.035Z" fill="#EDAC80"/>
<path d="M71.6419 61.2334C72.6415 61.8485 73.6884 62.4763 74.7704 63.1104C74.7704 63.1104 74.616 62.5345 74.6172 61.8525L71.1902 60.2939C71.1406 60.6395 71.2622 60.9995 71.6419 61.2334Z" fill="#D39266"/>
<path d="M102.149 82.5918L77.3896 100.321C77.6985 100.765 78.2994 101.008 78.8986 100.671C91.2802 93.7143 102.148 84.7511 102.148 84.7511C102.523 86.7964 106.938 99.3801 106.938 99.3801C116.806 102.748 124.171 100.504 124.175 100.503C108.378 102.23 102.148 82.5918 102.148 82.5918H102.149Z" fill="#C0C0C0"/>
<path d="M78.8986 100.671C79.7554 100.189 80.5948 99.7016 81.4193 99.2103C81.4193 99.2103 80.7757 98.6833 80.422 98.1494L77.3896 100.321C77.6985 100.765 78.2994 101.008 78.8986 100.671Z" fill="#D39266"/>
<path d="M115.268 110.551C123.068 107.734 124.569 103.319 124.175 100.503C124.175 100.503 122.183 101.108 118.889 101.218C118.535 111.331 91.7905 111.582 91.7905 111.582C86.9617 125.006 74.6129 140.852 73.1426 142.712C73.7804 143.115 74.7489 142.78 75.0819 142.396C84.2705 131.845 91.3653 120.299 94.1487 114.083L111.781 111.458C112.965 111.253 114.137 110.958 115.268 110.55L115.268 110.551Z" fill="#0F211E"/>
<path d="M100.916 142.398L101.28 142.33L94.9305 108.705C94.1988 105.518 91.4258 103.21 88.3353 103.21H59.2244C55.9276 103.21 53.6328 105.104 52.5876 108.687L46.2793 142.33L46.6446 142.398L52.9489 108.773C53.9526 105.333 56.0653 103.58 59.225 103.58H88.3358C91.2552 103.58 93.8768 105.768 94.5681 108.781L100.917 142.398H100.916Z" fill="#AFAFAF"/>
<path d="M63.9059 103.395H87.0542C87.3181 103.395 87.5324 103.18 87.5324 102.917C87.5324 102.653 87.3181 102.438 87.0542 102.438H63.9059C63.6421 102.438 63.4277 102.653 63.4277 102.917C63.4277 103.18 63.6421 103.395 63.9059 103.395Z" fill="#011721"/>
<path d="M63.9247 102.592H81.3235L76.4964 89.8633H59.0977L63.9247 102.592Z" fill="#011721"/>
<path d="M69.9891 97.8112C70.4832 97.6847 70.7475 97.0499 70.5793 96.3932C70.4111 95.7365 69.8742 95.3067 69.3801 95.4331C68.8859 95.5596 68.6217 96.1945 68.7899 96.8512C68.958 97.5078 69.4949 97.9377 69.9891 97.8112Z" fill="#05293C"/>
<path d="M75.0819 142.396C75.9006 141.457 76.6139 140.628 77.3808 139.685L78.3994 138.438L78.2692 138.466C77.6798 138.467 77.1019 138.37 76.5546 138.188C74.8307 140.557 73.5563 142.189 73.1426 142.712C73.7804 143.115 74.7489 142.78 75.0819 142.396Z" fill="#D39266"/>
<path d="M54.669 13.6675V12.2714C54.669 12.1948 54.6068 12.1326 54.5301 12.1326H53.9932C53.9315 12.1326 53.8785 12.0917 53.8606 12.0335C53.8042 11.8521 53.7316 11.6776 53.6446 11.5123C53.6158 11.4581 53.625 11.3919 53.6682 11.3481L54.0479 10.9686C54.1021 10.9144 54.1021 10.8263 54.0479 10.7722L53.0604 9.78496C53.0062 9.73082 52.9181 9.73082 52.8639 9.78496L52.4842 10.1645C52.441 10.2077 52.3747 10.2169 52.32 10.1881C52.1541 10.1012 51.9801 10.0286 51.7986 9.97215C51.7398 9.95372 51.6995 9.90072 51.6995 9.83967V9.30287C51.6995 9.22627 51.6373 9.16406 51.5606 9.16406H50.164C50.0874 9.16406 50.0252 9.22627 50.0252 9.30287V9.83967C50.0252 9.9013 49.9843 9.95429 49.9261 9.97215C49.7446 10.0286 49.57 10.1012 49.4047 10.1881C49.3505 10.2169 49.2842 10.2077 49.2405 10.1645L48.8608 9.78496C48.8066 9.73082 48.7185 9.73082 48.6643 9.78496L47.6768 10.7722C47.6226 10.8263 47.6226 10.9144 47.6768 10.9686L48.0564 11.3481C48.0997 11.3913 48.1089 11.4576 48.0801 11.5123C47.9931 11.6782 47.9205 11.8521 47.864 12.0335C47.8456 12.0923 47.7926 12.1326 47.7315 12.1326H47.1945C47.1179 12.1326 47.0557 12.1948 47.0557 12.2714V13.6675C47.0557 13.7442 47.1179 13.8064 47.1945 13.8064H47.7315C47.7931 13.8064 47.8462 13.8472 47.864 13.9054C47.9205 14.0869 47.9931 14.2614 48.0801 14.4267C48.1089 14.4808 48.0997 14.547 48.0564 14.5908L47.6768 14.9704C47.6226 15.0245 47.6226 15.1126 47.6768 15.1668L48.6643 16.154C48.7185 16.2081 48.8066 16.2081 48.8608 16.154L49.2405 15.7744C49.2837 15.7312 49.3499 15.722 49.4047 15.7508C49.5706 15.8378 49.7446 15.9104 49.9261 15.9668C49.9848 15.9852 50.0252 16.0382 50.0252 16.0993V16.6361C50.0252 16.7127 50.0874 16.7749 50.164 16.7749H51.5606C51.6373 16.7749 51.6995 16.7127 51.6995 16.6361V16.0993C51.6995 16.0377 51.7404 15.9847 51.7986 15.9668C51.9801 15.9104 52.1547 15.8378 52.32 15.7508C52.3742 15.722 52.4404 15.7312 52.4842 15.7744L52.8639 16.154C52.9181 16.2081 53.0062 16.2081 53.0604 16.154L54.0479 15.1668C54.1021 15.1126 54.1021 15.0245 54.0479 14.9704L53.6682 14.5908C53.625 14.5476 53.6158 14.4814 53.6446 14.4267C53.7316 14.2608 53.8042 14.0869 53.8606 13.9054C53.8791 13.8467 53.9321 13.8064 53.9932 13.8064H54.5301C54.6068 13.8064 54.669 13.7442 54.669 13.6675ZM50.8618 14.7141C49.8978 14.7141 49.1166 13.9331 49.1166 12.9695C49.1166 12.0059 49.8978 11.2249 50.8618 11.2249C51.8257 11.2249 52.6069 12.0059 52.6069 12.9695C52.6069 13.9331 51.8257 14.7141 50.8618 14.7141Z" fill="white"/>
<path d="M57.551 9.62829V8.91063C57.551 8.87147 57.5193 8.83921 57.4795 8.83921H57.2035C57.1718 8.83921 57.1448 8.81848 57.1355 8.78795C57.1062 8.69464 57.0693 8.60537 57.0243 8.52013C57.0099 8.4919 57.014 8.45792 57.0364 8.43604L57.2318 8.24078C57.2594 8.21314 57.2594 8.16763 57.2318 8.13999L56.7242 7.63256C56.6965 7.60492 56.651 7.60492 56.6233 7.63256L56.428 7.82782C56.4056 7.85028 56.3716 7.85489 56.3439 7.83991C56.2586 7.79499 56.1693 7.75812 56.076 7.72875C56.046 7.71953 56.0247 7.69189 56.0247 7.66079V7.3849C56.0247 7.34573 55.993 7.31348 55.9533 7.31348H55.2354C55.1962 7.31348 55.1639 7.34515 55.1639 7.3849V7.66079C55.1639 7.69246 55.1432 7.71953 55.1127 7.72875C55.0193 7.75755 54.93 7.79499 54.8447 7.83991C54.8165 7.85431 54.7825 7.85028 54.7606 7.82782L54.5653 7.63256C54.5377 7.60492 54.4921 7.60492 54.4645 7.63256L53.9569 8.13999C53.9292 8.16763 53.9292 8.21314 53.9569 8.24078L54.1522 8.43604C54.1747 8.4585 54.1793 8.49248 54.1643 8.52013C54.1194 8.60537 54.0825 8.69464 54.0531 8.78795C54.0439 8.8179 54.0162 8.83921 53.9851 8.83921H53.7091C53.67 8.83921 53.6377 8.87089 53.6377 8.91063V9.62829C53.6377 9.66746 53.6694 9.69971 53.7091 9.69971H53.9851C54.0168 9.69971 54.0439 9.72044 54.0531 9.75097C54.0819 9.84427 54.1194 9.93355 54.1643 10.0188C54.1787 10.047 54.1747 10.081 54.1522 10.1029L53.9569 10.2981C53.9292 10.3258 53.9292 10.3713 53.9569 10.3989L54.4645 10.9064C54.4921 10.934 54.5377 10.934 54.5653 10.9064L54.7606 10.7111C54.7831 10.6886 54.8171 10.684 54.8447 10.699C54.93 10.7439 55.0193 10.7808 55.1127 10.8102C55.1426 10.8194 55.1639 10.847 55.1639 10.8781V11.154C55.1639 11.1932 55.1956 11.2254 55.2354 11.2254H55.9533C55.9925 11.2254 56.0247 11.1938 56.0247 11.154V10.8781C56.0247 10.8465 56.0455 10.8194 56.076 10.8102C56.1693 10.7814 56.2586 10.7439 56.3439 10.699C56.3721 10.6846 56.4061 10.6886 56.428 10.7111L56.6233 10.9064C56.651 10.934 56.6965 10.934 56.7242 10.9064L57.2318 10.3989C57.2594 10.3713 57.2594 10.3258 57.2318 10.2981L57.0364 10.1029C57.014 10.0804 57.0094 10.0464 57.0243 10.0188C57.0693 9.93355 57.1062 9.84427 57.1355 9.75097C57.1448 9.72102 57.1724 9.69971 57.2035 9.69971H57.4795C57.5187 9.69971 57.551 9.66803 57.551 9.62829ZM55.5943 10.1662C55.0988 10.1662 54.6978 9.76479 54.6978 9.27004C54.6978 8.77528 55.0994 8.37383 55.5943 8.37383C56.0892 8.37383 56.4908 8.77528 56.4908 9.27004C56.4908 9.76479 56.0892 10.1662 55.5943 10.1662Z" fill="white"/>
<path d="M52.6747 39.4122C52.6712 39.2108 52.6127 39.0524 52.5 38.937C52.3867 38.8215 52.2021 38.7139 51.9457 38.6145C51.4434 38.4544 51.0707 38.2994 50.8283 38.1502C50.5859 38.0009 50.4037 37.829 50.2828 37.6346C50.1619 37.4402 50.0994 37.2084 50.0947 36.9393C50.0877 36.5366 50.2326 36.202 50.5281 35.936C50.8242 35.6699 51.2185 35.5102 51.7103 35.4568L51.6969 34.6778L52.4363 34.6709L52.4498 35.4642C52.941 35.5302 53.3253 35.7107 53.6028 36.0067C53.8808 36.3027 54.0233 36.6798 54.0309 37.1385L52.6449 37.1516C52.6396 36.8604 52.58 36.6438 52.465 36.5014C52.3499 36.3595 52.2027 36.2892 52.0228 36.291C51.8499 36.2927 51.715 36.3496 51.6192 36.4624C51.5234 36.5748 51.4767 36.7306 51.4802 36.9298C51.4831 37.1021 51.5363 37.2449 51.6391 37.3577C51.7424 37.471 51.9369 37.5877 52.2232 37.7088C52.7488 37.8885 53.1279 38.0529 53.361 38.2022C53.594 38.3515 53.7675 38.5216 53.8814 38.7126C53.9959 38.9031 54.0549 39.1297 54.0596 39.3918C54.0666 39.8019 53.9258 40.1369 53.6384 40.3969C53.3505 40.6568 52.9492 40.8148 52.434 40.8704L52.4463 41.5947L51.7115 41.6016L51.6992 40.8773C51.1332 40.8218 50.694 40.6473 50.3821 40.3526C50.0702 40.0584 49.9095 39.6635 49.9014 39.1687L51.2874 39.1557C51.2921 39.4421 51.3581 39.6617 51.4849 39.8145C51.6116 39.9672 51.7991 40.0428 52.0473 40.0401C52.2465 40.0384 52.4013 39.9816 52.5123 39.87C52.6233 39.7585 52.677 39.6057 52.6735 39.4117L52.6747 39.4122Z" fill="white"/>
<path d="M11.8969 42.126H11.2624V36.2295H9.67922V42.126H9.01938V37.7378H7.43616V42.126H6.77632V38.8508H5.1931V42.126H4.57476C4.49738 42.126 4.43457 42.1888 4.43457 42.2662C4.43457 42.3435 4.49738 42.4063 4.57476 42.4063H11.8969C11.9742 42.4063 12.037 42.3435 12.037 42.2662C12.037 42.1888 11.9742 42.126 11.8969 42.126Z" fill="white"/>
<path d="M9.68808 35.4301L10.2167 34.2577L8.92095 34.2256L9.23199 34.7137L4.01651 37.8888C3.95033 37.9292 3.9294 38.0151 3.96977 38.0816C3.99594 38.125 4.0423 38.1489 4.0894 38.1489C4.11445 38.1489 4.1395 38.1422 4.1623 38.1287L9.38265 34.9502L9.68808 35.4297V35.4301Z" fill="white"/>
<path d="M95.2068 34.6709C93.3966 34.6709 91.9238 35.952 91.9238 37.527V40.4157H92.5008C93.0006 40.4157 93.407 40.0618 93.407 39.6274V38.6489C93.407 38.2142 93.0002 37.8603 92.5008 37.8603H92.4136V37.527C92.4136 36.1871 93.6668 35.097 95.2072 35.097C96.7476 35.097 98.0008 36.1871 98.0008 37.527V37.8603H97.8829C97.4002 37.8603 97.0071 38.2022 97.0071 38.6222V39.6538C97.0071 40.0737 97.3998 40.4157 97.8829 40.4157H98.0008V40.715C98.0008 41.2989 97.455 41.7737 96.7838 41.7737H95.8631C95.7904 41.6953 95.6838 41.6422 95.5596 41.6422H95.0769C94.859 41.6422 94.6809 41.7971 94.6809 41.9867C94.6809 42.1763 94.859 42.3312 95.0769 42.3312H95.5596C95.6833 42.3312 95.79 42.2781 95.8627 42.1997H96.7833C97.7244 42.1997 98.4898 41.5339 98.4898 40.7154V37.5274C98.4898 35.9524 97.017 34.6713 95.2064 34.6713L95.2068 34.6709ZM92.5004 38.2864C92.7299 38.2864 92.9171 38.4489 92.9171 38.6489V39.6274C92.9171 39.8271 92.7304 39.9899 92.5004 39.9899H92.4132V38.2864H92.5004ZM97.8825 39.9899C97.6696 39.9899 97.4965 39.8394 97.4965 39.6541V38.6225C97.4965 38.4373 97.6696 38.2864 97.8825 38.2864H98.0004V39.9899H97.8825Z" fill="white"/>
</svg>
