<svg width="133" height="170" viewBox="0 0 133 170" fill="none" xmlns="http://www.w3.org/2000/svg">
<g clip-path="url(#clip0_5593_6184)">
<path d="M-44.7455 162.934H86.2842C86.2842 164.82 84.9302 166.352 83.2621 166.352H-41.724C-43.3916 166.352 -44.7461 164.82 -44.7461 162.934H-44.7455Z" fill="white"/>
<path d="M61.0399 129.891H54.5602C54.4617 129.891 54.3818 129.636 54.3818 129.322C54.3818 129.007 54.4617 128.752 54.5602 128.752H61.0399C61.1383 128.752 61.2182 129.007 61.2182 129.322C61.2182 129.636 61.1383 129.891 61.0399 129.891Z" fill="white"/>
<path d="M67.8931 151.54H54.5433C54.4542 151.54 54.3818 151.285 54.3818 150.97C54.3818 150.656 54.4542 150.4 54.5433 150.4H67.8931C67.9822 150.4 68.0546 150.656 68.0546 150.97C68.0546 151.285 67.9822 151.54 67.8931 151.54Z" fill="white"/>
<path d="M9.59577 148.121H-19.3289C-19.5226 148.121 -19.6787 147.866 -19.6787 147.551C-19.6787 147.237 -19.522 146.981 -19.3289 146.981H9.59577C9.78938 146.981 9.94553 147.237 9.94553 147.551C9.94553 147.866 9.78882 148.121 9.59577 148.121Z" fill="white"/>
<path d="M131.018 124.691H54V22H115.385L131.018 34.7856V124.691Z" fill="#19A147"/>
<path d="M114.972 22L113.902 32.697L131.017 34.8364L114.972 22Z" fill="#226C3B"/>
<path d="M115.652 41.2546H69.3662C69.1502 41.2546 68.9756 40.7754 68.9756 40.1849C68.9756 39.5945 69.1502 39.1152 69.3662 39.1152H115.652C115.868 39.1152 116.042 39.5945 116.042 40.1849C116.042 40.7754 115.868 41.2546 115.652 41.2546Z" fill="white"/>
<path d="M115.652 51.9519H69.3662C69.1502 51.9519 68.9756 51.4726 68.9756 50.8822C68.9756 50.2918 69.1502 49.8125 69.3662 49.8125H115.652C115.868 49.8125 116.042 50.2918 116.042 50.8822C116.042 51.4726 115.868 51.9519 115.652 51.9519Z" fill="white"/>
<path d="M115.652 58.3699H69.3662C69.1502 58.3699 68.9756 57.8906 68.9756 57.3002C68.9756 56.7097 69.1502 56.2305 69.3662 56.2305H115.652C115.868 56.2305 116.042 56.7097 116.042 57.3002C116.042 57.8906 115.868 58.3699 115.652 58.3699Z" fill="white"/>
<path d="M115.652 64.7878H69.3662C69.1502 64.7878 68.9756 64.3086 68.9756 63.7181C68.9756 63.1277 69.1502 62.6484 69.3662 62.6484H115.652C115.868 62.6484 116.042 63.1277 116.042 63.7181C116.042 64.3086 115.868 64.7878 115.652 64.7878Z" fill="white"/>
<path d="M115.652 71.2058H69.3662C69.1502 71.2058 68.9756 70.7265 68.9756 70.1361C68.9756 69.5457 69.1502 69.0664 69.3662 69.0664H115.652C115.868 69.0664 116.042 69.5457 116.042 70.1361C116.042 70.7265 115.868 71.2058 115.652 71.2058Z" fill="white"/>
<path d="M100.8 84.0427H69.2419C69.0947 84.0427 68.9756 83.5635 68.9756 82.973C68.9756 82.3826 69.0947 81.9033 69.2419 81.9033H100.8C100.947 81.9033 101.066 82.3826 101.066 82.973C101.066 83.5635 100.947 84.0427 100.8 84.0427Z" fill="white"/>
<path d="M94.4353 77.6247H69.1886C69.0708 77.6247 68.9756 77.1455 68.9756 76.555C68.9756 75.9646 69.0708 75.4854 69.1886 75.4854H94.4353C94.5531 75.4854 94.6483 75.9646 94.6483 76.555C94.6483 77.1455 94.5531 77.6247 94.4353 77.6247Z" fill="white"/>
<path d="M115.919 77.6247H101.192C101.123 77.6247 101.067 77.1455 101.067 76.555C101.067 75.9646 101.123 75.4854 101.192 75.4854H115.919C115.988 75.4854 116.043 75.9646 116.043 76.555C116.043 77.1455 115.988 77.6247 115.919 77.6247Z" fill="white"/>
<path d="M115.919 101.158H101.192C101.123 101.158 101.067 100.679 101.067 100.088C101.067 99.4978 101.123 99.0186 101.192 99.0186H115.919C115.988 99.0186 116.043 99.4978 116.043 100.088C116.043 100.679 115.988 101.158 115.919 101.158Z" fill="white"/>
<path d="M88.7363 56.9896C88.7363 56.9896 86.5668 54.6739 87.8064 52.854C88.235 52.2247 89.0001 51.8817 89.7835 51.8524C90.1041 51.8401 90.4277 51.8677 90.6365 51.9871C90.6365 51.9871 91.1622 50.1338 93.3189 50.1338C93.3189 50.1338 95.0939 50.2883 95.5934 51.6241C95.5934 51.6241 97.0527 51.1324 97.1052 52.5034C97.1052 52.5034 98.5151 52.1 99.5012 53.6384C99.8761 54.2226 100.019 54.9157 99.9329 55.597C99.8346 56.3727 99.5214 57.3754 98.578 57.6716C98.578 57.6716 100.699 62.3182 95.3912 62.6671L88.7357 56.9896H88.7363Z" fill="#011721"/>
<path d="M87.4238 101.406C87.4238 101.406 88.9582 133.082 92.0263 161.794H97.0043C97.0043 161.794 98.521 153.772 97.0043 138.056L87.4238 101.406Z" fill="#0F211E"/>
<path d="M96.3857 160.937L97.5058 161.985C97.9759 162.467 97.427 163.102 96.5662 163.072L87.9796 163.073C87.3632 163.051 87.2092 162.49 87.7745 162.324L91.8804 160.794L96.3852 160.937H96.3857Z" fill="black"/>
<path d="M91.4618 63.8057C91.4618 63.8057 81.8288 79.8896 64.6367 87.4393L65.9263 90.0117C65.9263 90.0117 79.1298 87.8462 94.261 74.3129L91.4618 63.8057Z" fill="#C0C0C0"/>
<path d="M64.5589 87.7334L61.2178 88.5048C61.2178 88.5048 61.4612 90.9127 65.7753 89.6419L64.5589 87.7334Z" fill="#EDAC80"/>
<path d="M39.5892 56.475C39.5892 56.475 40.592 55.4434 39.8283 53.4272C39.8283 53.4272 37.6562 53.657 36.096 53.3427C36.096 53.3427 34.6139 52.8168 33.2197 53.068C32.1557 53.2599 31.3336 54.0996 31.1376 55.1414C30.8516 56.6647 30.756 59.9146 33.5194 62.1152L34.8251 60.7992L37.1457 59.2908L39.5897 56.475H39.5892Z" fill="#011721"/>
<path d="M37.8166 102.546C37.8166 102.546 43.8779 113.265 49.8246 126.83C49.8246 126.83 48.9013 135.989 42.76 153.819L38.8881 152.48C38.8881 152.48 39.5843 137.598 40.9309 128.216L33.873 120.467L34.5296 106.553L37.816 102.546H37.8166Z" fill="black"/>
<path d="M35.0117 63.0571C35.0117 63.0571 46.5402 67.5945 52.5013 69.7422L64.8625 56.9697L66.9147 58.759C66.9147 58.759 62.9997 66.4762 53.6193 75.2C53.6193 75.2 48.6691 74.3524 42.8282 72.3366C42.8282 72.3366 36.8711 66.751 35.0129 63.0571H35.0117Z" fill="#C0C0C0"/>
<path d="M35.0115 62.4412C34.3944 61.4041 33.4551 60.9539 32.5331 61.0037C31.2969 61.07 28.3219 69.2155 27.3016 73.5098C25.7996 79.8327 24.0544 88.4941 23 100.07C28.1589 102.496 36.562 103.001 36.5902 103C38.533 85.1454 38.865 68.9206 35.0115 62.4418V62.4412Z" fill="#F2F2F2"/>
<path d="M22.746 99.127C21.8935 106.574 21.5783 114.464 21.3398 162.933H25.2569C25.2569 162.933 33.7604 130.202 37.2914 101.865C37.2607 101.865 28.2675 101.395 22.746 99.127Z" fill="#212121"/>
<path d="M21.3964 162.934L20.3818 164.584C19.93 165.32 20.3729 166.352 21.1402 166.352H28.7929C29.3426 166.352 29.5183 165.474 29.0278 165.181L25.2701 162.934H21.3964Z" fill="black"/>
<path d="M38.9538 152.679L37.9447 153.246C37.135 153.702 37.0629 154.875 37.8101 155.433L43.108 159.386C43.6279 159.774 44.3155 159.22 44.0796 158.604L42.2805 153.908L38.9533 152.679L38.9538 152.679Z" fill="black"/>
<path d="M35.652 62.6659L35.7374 61.9661C35.7848 61.5798 36.1651 61.2883 36.6138 61.2954L37.1479 61.3037C37.9211 61.3152 38.671 61.0746 39.2487 60.6286L40.7092 59.5014L39.4594 55.8301C39.4594 55.8301 38.6052 58.2373 35.2058 58.4477L33.9605 56.5578C33.9605 56.5578 32.3634 57.1183 32.8133 58.6373C32.8133 58.6373 33.546 61.4472 32.7867 62.4056L33.5366 62.3744C33.8055 62.3629 34.0751 62.3815 34.3389 62.4292L35.6532 62.6664L35.652 62.6659Z" fill="#EDAC80"/>
<path d="M64.6367 56.5709L67.5115 53.5518C67.5115 53.5518 69.172 56.2906 66.6878 58.1093L64.6367 56.5714V56.5709Z" fill="#EDAC80"/>
<path d="M37.9762 76.9793L34.2001 73C34.2001 73 35.9379 86.1963 23 99.0034C28.1591 101.485 36.5625 102.001 36.5907 102C37.5586 92.9035 38.1259 84.2219 37.9762 76.9793Z" fill="#C0C0C0"/>
<path d="M36.3533 63.8057C36.3533 63.8057 45.8233 79.4716 62.3579 87.6077L60.9567 90.0117C60.9567 90.0117 48.0715 87.2514 33.873 73.4753L36.3539 63.8057H36.3533Z" fill="#F2F2F2"/>
<path d="M62.5388 87.7334L65.7753 89.0748C65.7753 89.0748 65.3792 92.6003 61.2178 90.4644L62.5388 87.7334Z" fill="#EDAC80"/>
<path d="M21.3407 162.934H23.6186L22.1032 115.079C21.7562 124.17 21.5326 138.441 21.3398 162.934H21.3407Z" fill="#011721"/>
<path d="M37.291 102.548L48.0846 127.577L46.4021 142.425C49.2915 132.376 49.8243 127.245 49.8243 127.245C43.6184 113.449 37.2928 102.546 37.2928 102.546L37.2916 102.547L37.291 102.548Z" fill="#212121"/>
<path d="M91.8311 63.8725C92.5724 62.946 93.6437 62.5833 94.6713 62.683C96.0488 62.8164 98.9675 70.5465 99.8928 74.5893C101.256 80.5427 102.774 88.6791 103.375 99.4792C97.491 101.43 88.0783 101.408 88.0463 101.406C86.7655 84.7294 87.2022 69.6581 91.83 63.8719L91.8311 63.8725Z" fill="#F2F2F2"/>
<path d="M103.129 99.127C103.633 106.612 103.54 114.509 101.148 162.933L96.9588 162.719C96.9588 162.719 89.6518 129.562 87.4238 101.066C87.4561 101.069 97.1004 101.091 103.129 99.1275L103.129 99.127Z" fill="#1A3A35"/>
<path d="M101.145 162.159L102.083 163.752C102.501 164.461 102.013 165.394 101.248 165.35L93.6151 165.352C93.0672 165.319 92.9304 164.494 93.4328 164.25L97.2804 161.934L101.144 162.159L101.145 162.159Z" fill="black"/>
<path d="M93.1397 62.6664L93.1093 61.9805C93.0927 61.6016 92.8362 61.3004 92.5187 61.287L92.1413 61.2709C91.5942 61.2479 91.0749 60.9793 90.6863 60.5191L89.7031 59.3547L90.7449 55.8301C90.7449 55.8301 91.2446 58.2155 93.6371 58.573L94.5983 56.7858C94.5983 56.7858 95.7028 57.4038 95.3191 58.8646C95.3191 58.8646 94.6803 61.5722 95.1754 62.5407L94.6471 62.4765C94.4577 62.4535 94.2666 62.4594 94.0781 62.4941L93.1393 62.6664H93.1397Z" fill="#EDAC80"/>
<path d="M101.395 162.933L99.958 162.855L103.376 115.079C103.127 124.177 102.534 138.448 101.395 162.934L101.395 162.933Z" fill="#0F211E"/>
<path d="M93.0434 101.385L89.7031 69.1448L96.4718 66.085C96.4718 66.085 101.174 88.4035 99.6556 100.631C99.6556 100.631 96.3054 101.557 93.0439 101.385H93.0434Z" fill="#F2F2F2"/>
<path d="M96.4264 66.085C96.4264 66.085 99.5195 80.2861 98.6709 104.824H95.9802C95.9802 104.824 90.0967 73.4342 89.7031 69.1318L96.4269 66.0855L96.4264 66.085Z" fill="#F2F2F2"/>
<path d="M100.766 108.728L100.057 105.964H94.1895L93.5965 108.728H86.2852V121.915H107.934V108.728H100.766ZM94.6783 106.533H99.5869L100.15 108.728H94.2074L94.6783 106.533Z" fill="#FEC93D"/>
<path d="M95.8018 104.824L95.4273 106.443C95.4273 106.443 95.1507 107.008 96.3718 107.103L98.7422 106.9C98.7422 106.9 99.067 106.088 98.3771 104.824H95.8023H95.8018Z" fill="#EDAC80"/>
<path d="M41.2787 12.5333C40.9642 12.5333 40.709 12.5026 40.709 12.4646V0.0686894C40.709 0.0307728 40.9642 0 41.2787 0C41.5932 0 41.8484 0.0307728 41.8484 0.0686894V12.4646C41.8484 12.5026 41.5932 12.5333 41.2787 12.5333Z" fill="white"/>
</g>
<defs>
<clipPath id="clip0_5593_6184">
<rect width="133" height="170" fill="white"/>
</clipPath>
</defs>
</svg>
