<svg width="116" height="132" viewBox="0 0 116 132" fill="none" xmlns="http://www.w3.org/2000/svg">
<g filter="url(#filter0_d_5481_4061)">
<path d="M96.4206 6.52051H39.2227C33.8082 6.52051 29.4189 10.873 29.4189 16.242V69.7914C29.4189 75.1604 33.8082 79.5129 39.2227 79.5129H96.4206C101.835 79.5129 106.224 75.1604 106.224 69.7914V16.242C106.224 10.873 101.835 6.52051 96.4206 6.52051Z" fill="white"/>
</g>
<path d="M99.8444 17.7959H35.7969V17.9214H99.8444V17.7959Z" fill="white"/>
<path d="M38.1879 14.4833C37.4567 14.4833 36.8613 13.8935 36.8613 13.1679C36.8613 12.4424 37.4562 11.8525 38.1879 11.8525C38.9195 11.8525 39.5144 12.4424 39.5144 13.1679C39.5144 13.8935 38.9195 14.4833 38.1879 14.4833ZM38.1879 11.9781C37.5261 11.9781 36.9884 12.5117 36.9884 13.1679C36.9884 13.8242 37.5265 14.3573 38.1879 14.3573C38.8492 14.3573 39.3878 13.8237 39.3878 13.1679C39.3878 12.5122 38.8497 11.9781 38.1879 11.9781Z" fill="white"/>
<path d="M42.3753 14.4833C41.6441 14.4833 41.0488 13.8935 41.0488 13.1679C41.0488 12.4424 41.6437 11.8525 42.3753 11.8525C43.107 11.8525 43.7019 12.4424 43.7019 13.1679C43.7019 13.8935 43.107 14.4833 42.3753 14.4833ZM42.3753 11.9781C41.7136 11.9781 41.1759 12.5117 41.1759 13.1679C41.1759 13.8242 41.714 14.3573 42.3753 14.3573C43.0367 14.3573 43.5753 13.8237 43.5753 13.1679C43.5753 12.5122 43.0371 11.9781 42.3753 11.9781Z" fill="white"/>
<g opacity="0.4">
<path d="M59.6501 61.7441H42.3803C39.1689 61.7441 36.5654 64.3257 36.5654 67.5103V67.5108C36.5654 70.6953 39.1689 73.2769 42.3803 73.2769H59.6501C62.8616 73.2769 65.465 70.6953 65.465 67.5108V67.5103C65.465 64.3257 62.8616 61.7441 59.6501 61.7441Z" fill="#59B877"/>
<path d="M49.8209 66.5741L49.1391 66.9298L49.2691 66.1766L48.7178 65.6435L49.4803 65.5335L49.8209 64.8486L50.1621 65.5335L50.9246 65.6435L50.3728 66.1766L50.5028 66.9298L49.8209 66.5741Z" fill="#F7BC14"/>
<path d="M52.3478 66.5741L51.6659 66.9298L51.796 66.1766L51.2441 65.6435L52.0066 65.5335L52.3478 64.8486L52.6885 65.5335L53.4509 65.6435L52.8991 66.1766L53.0296 66.9298L52.3478 66.5741Z" fill="#F7BC14"/>
<path d="M54.8737 66.5741L54.1918 66.9298L54.3223 66.1766L53.7705 65.6435L54.533 65.5335L54.8737 64.8486L55.2148 65.5335L55.9773 65.6435L55.4255 66.1766L55.5555 66.9298L54.8737 66.5741Z" fill="white"/>
<path d="M57.4005 66.5741L56.7187 66.9298L56.8487 66.1766L56.2969 65.6435L57.0594 65.5335L57.4005 64.8486L57.7412 65.5335L58.5037 65.6435L57.9523 66.1766L58.0824 66.9298L57.4005 66.5741Z" fill="white"/>
<path d="M59.9264 66.5741L59.2446 66.9298L59.3751 66.1766L58.8232 65.6435L59.5857 65.5335L59.9264 64.8486L60.2676 65.5335L61.03 65.6435L60.4782 66.1766L60.6087 66.9298L59.9264 66.5741Z" fill="white"/>
<path d="M61.4923 68.7373H49.0477C48.8664 68.7373 48.7178 68.59 48.7178 68.4102C48.7178 68.2303 48.8664 68.083 49.0477 68.083H61.4923C61.6736 68.083 61.8222 68.2303 61.8222 68.4102C61.8222 68.59 61.6736 68.7373 61.4923 68.7373Z" fill="white"/>
<path d="M55.0767 70.1748H49.0545C48.8732 70.1748 48.7246 70.0275 48.7246 69.8477C48.7246 69.6678 48.8732 69.5205 49.0545 69.5205H55.0767C55.258 69.5205 55.4066 69.6678 55.4066 69.8477C55.4066 70.0275 55.258 70.1748 55.0767 70.1748Z" fill="white"/>
<path d="M45.7245 70.7603C47.5333 68.9667 47.5333 66.0587 45.7245 64.2651C43.9158 62.4716 40.9832 62.4716 39.1744 64.2651C37.3657 66.0587 37.3657 68.9667 39.1744 70.7603C40.9832 72.5538 43.9158 72.5538 45.7245 70.7603Z" fill="white"/>
<mask id="mask0_5481_4061" style="mask-type:luminance" maskUnits="userSpaceOnUse" x="37" y="62" width="11" height="11">
<path d="M45.7245 70.7603C47.5333 68.9667 47.5333 66.0587 45.7245 64.2651C43.9158 62.4716 40.9832 62.4716 39.1744 64.2651C37.3657 66.0587 37.3657 68.9667 39.1744 70.7603C40.9832 72.5538 43.9158 72.5538 45.7245 70.7603Z" fill="white"/>
</mask>
<g mask="url(#mask0_5481_4061)">
<path d="M40.9932 66.0326C41.5276 66.0326 41.9609 65.6029 41.9609 65.0729C41.9609 64.5429 41.5276 64.1133 40.9932 64.1133C40.4587 64.1133 40.0254 64.5429 40.0254 65.0729C40.0254 65.6029 40.4587 66.0326 40.9932 66.0326Z" fill="#011721"/>
<path d="M44.366 66.5803C44.366 67.5381 43.4085 68.979 42.4422 68.979C41.4759 68.979 40.7051 67.8923 40.7051 66.9341C40.7051 65.976 41.6508 64.8457 42.6171 64.8457C43.5834 64.8457 44.3665 65.6221 44.3665 66.5803H44.366Z" fill="#011721"/>
<path d="M47.2599 73.0122C47.2599 75.4443 45.2716 77.416 42.8189 77.416C40.3662 77.416 38.3779 75.4443 38.3779 73.0122C38.3779 70.7857 39.8569 68.8179 42.2074 68.7573C42.4093 68.752 42.6566 68.7752 42.8639 68.7752C43.0868 68.7752 43.1933 68.6594 43.4093 68.673C45.7432 68.8184 47.2594 70.8017 47.2594 73.0122H47.2599Z" fill="#FFC5C5"/>
<path d="M43.4114 68.6713L43.3395 68.5036L43.9084 68.5948C44.0375 68.6156 44.167 68.5623 44.2437 68.4571L44.6895 67.8445L44.0023 66.6328C44.0023 66.6328 43.7745 67.6041 42.7769 67.6041L42.4143 67.1902C42.4143 67.1902 42.0335 67.5677 42.4143 67.892C42.4143 67.892 42.5457 68.4867 42.209 68.7557L42.9749 69.9533L43.4109 68.6713H43.4114Z" fill="#FD9680"/>
<path d="M43.3362 68.5068L42.5801 69.3448L42.9716 69.9565L43.4076 68.6745L43.3362 68.5068Z" fill="url(#paint0_linear_5481_4061)"/>
</g>
<path d="M59.6501 45.3203H42.3803C39.1689 45.3203 36.5654 47.9019 36.5654 51.0864V51.0869C36.5654 54.2715 39.1689 56.8531 42.3803 56.8531H59.6501C62.8616 56.8531 65.465 54.2715 65.465 51.0869V51.0864C65.465 47.9019 62.8616 45.3203 59.6501 45.3203Z" fill="#062E14"/>
<path d="M49.8209 50.1536L49.1391 50.5089L49.2691 49.7562L48.7178 49.2226L49.4803 49.1131L49.8209 48.4277L50.1621 49.1131L50.9246 49.2226L50.3728 49.7562L50.5028 50.5089L49.8209 50.1536Z" fill="#F7BC14"/>
<path d="M52.3478 50.1536L51.6659 50.5089L51.796 49.7562L51.2441 49.2226L52.0066 49.1131L52.3478 48.4277L52.6885 49.1131L53.4509 49.2226L52.8991 49.7562L53.0296 50.5089L52.3478 50.1536Z" fill="#F7BC14"/>
<path d="M54.8737 50.1536L54.1918 50.5089L54.3223 49.7562L53.7705 49.2226L54.533 49.1131L54.8737 48.4277L55.2148 49.1131L55.9773 49.2226L55.4255 49.7562L55.5555 50.5089L54.8737 50.1536Z" fill="#F7BC14"/>
<path d="M57.4005 50.1536L56.7187 50.5089L56.8487 49.7562L56.2969 49.2226L57.0594 49.1131L57.4005 48.4277L57.7412 49.1131L58.5037 49.2226L57.9523 49.7562L58.0824 50.5089L57.4005 50.1536Z" fill="white"/>
<path d="M59.9264 50.1536L59.2446 50.5089L59.3751 49.7562L58.8232 49.2226L59.5857 49.1131L59.9264 48.4277L60.2676 49.1131L61.03 49.2226L60.4782 49.7562L60.6087 50.5089L59.9264 50.1536Z" fill="white"/>
<path d="M61.4923 52.3135H49.0477C48.8664 52.3135 48.7178 52.1661 48.7178 51.9863C48.7178 51.8065 48.8664 51.6592 49.0477 51.6592H61.4923C61.6736 51.6592 61.8222 51.8065 61.8222 51.9863C61.8222 52.1661 61.6736 52.3135 61.4923 52.3135Z" fill="white"/>
<path d="M55.0703 53.0928H49.0477C48.8655 53.0928 48.7178 53.2392 48.7178 53.4199V53.4204C48.7178 53.6011 48.8655 53.7476 49.0477 53.7476H55.0703C55.2525 53.7476 55.4002 53.6011 55.4002 53.4204V53.4199C55.4002 53.2392 55.2525 53.0928 55.0703 53.0928Z" fill="white"/>
<path d="M57.0594 49.1131L56.2969 49.2226L56.8487 49.7562L56.7187 50.5089L57.4005 50.1536V48.4277L57.0594 49.1131Z" fill="#F7BC14"/>
<path d="M42.446 55.6816C45.004 55.6816 47.0776 53.6253 47.0776 51.0888C47.0776 48.5523 45.004 46.4961 42.446 46.4961C39.8881 46.4961 37.8145 48.5523 37.8145 51.0888C37.8145 53.6253 39.8881 55.6816 42.446 55.6816Z" fill="white"/>
<mask id="mask1_5481_4061" style="mask-type:luminance" maskUnits="userSpaceOnUse" x="37" y="46" width="11" height="10">
<path d="M42.446 55.6816C45.004 55.6816 47.0776 53.6253 47.0776 51.0888C47.0776 48.5523 45.004 46.4961 42.446 46.4961C39.8881 46.4961 37.8145 48.5523 37.8145 51.0888C37.8145 53.6253 39.8881 55.6816 42.446 55.6816Z" fill="white"/>
</mask>
<g mask="url(#mask1_5481_4061)">
<path d="M44.1735 50.5062L44.5728 49.3047L41.7795 49.6037C41.6788 49.6144 41.5918 49.6769 41.5551 49.7705C41.4055 50.148 41.2061 51.0868 42.2091 52.3276L44.1906 51.256L44.1735 50.5057V50.5062Z" fill="#011721"/>
<path d="M47.2589 56.5845C47.2589 59.0166 45.2706 60.9882 42.8179 60.9882C40.3653 60.9882 38.377 59.0166 38.377 56.5845C38.377 54.3579 39.856 52.3902 42.2065 52.3296C42.4083 52.3242 42.6557 52.3475 42.8629 52.3475C43.0858 52.3475 43.1923 52.2317 43.4084 52.2452C45.7422 52.3906 47.2584 54.3739 47.2584 56.5845H47.2589Z" fill="#FFC5C5"/>
<path d="M43.4104 52.2436L43.3385 52.0759L43.9075 52.167C44.0365 52.1879 44.166 52.1346 44.2428 52.0294L44.6885 51.4168L44.0013 50.2051C44.0013 50.2051 43.7735 51.1764 42.776 51.1764L42.4133 50.7624C42.4133 50.7624 42.0325 51.14 42.4133 51.4643C42.4133 51.4643 42.5448 52.0589 42.208 52.3279L42.9739 53.5256L43.4099 52.2436H43.4104Z" fill="#FD9680"/>
<path d="M43.3352 52.0752L42.5791 52.9127L42.9706 53.5248L43.4066 52.2429L43.3352 52.0752Z" fill="url(#paint1_linear_5481_4061)"/>
</g>
<path d="M59.6501 28.7617H42.3803C39.1689 28.7617 36.5654 31.3433 36.5654 34.5278V34.5283C36.5654 37.7129 39.1689 40.2945 42.3803 40.2945H59.6501C62.8616 40.2945 65.465 37.7129 65.465 34.5283V34.5278C65.465 31.3433 62.8616 28.7617 59.6501 28.7617Z" fill="#59B877"/>
<path d="M49.8209 33.5916L49.1391 33.9474L49.2691 33.1942L48.7178 32.6611L49.4803 32.5511L49.8209 31.8662L50.1621 32.5511L50.9246 32.6611L50.3728 33.1942L50.5028 33.9474L49.8209 33.5916Z" fill="#F7BC14"/>
<path d="M52.3478 33.5916L51.6659 33.9474L51.796 33.1942L51.2441 32.6611L52.0066 32.5511L52.3478 31.8662L52.6885 32.5511L53.4509 32.6611L52.8991 33.1942L53.0296 33.9474L52.3478 33.5916Z" fill="#F7BC14"/>
<path d="M54.8737 33.5916L54.1918 33.9474L54.3223 33.1942L53.7705 32.6611L54.533 32.5511L54.8737 31.8662L55.2148 32.5511L55.9773 32.6611L55.4255 33.1942L55.5555 33.9474L54.8737 33.5916Z" fill="#F7BC14"/>
<path d="M57.4005 33.5916L56.7187 33.9474L56.8487 33.1942L56.2969 32.6611L57.0594 32.5511L57.4005 31.8662L57.7412 32.5511L58.5037 32.6611L57.9523 33.1942L58.0824 33.9474L57.4005 33.5916Z" fill="#F7BC14"/>
<path d="M59.9264 33.5916L59.2446 33.9474L59.3751 33.1942L58.8232 32.6611L59.5857 32.5511L59.9264 31.8662L60.2676 32.5511L61.03 32.6611L60.4782 33.1942L60.6087 33.9474L59.9264 33.5916Z" fill="white"/>
<path d="M61.4923 35.751H49.0477C48.8664 35.751 48.7178 35.6036 48.7178 35.4238C48.7178 35.244 48.8664 35.0967 49.0477 35.0967H61.4923C61.6736 35.0967 61.8222 35.244 61.8222 35.4238C61.8222 35.6036 61.6736 35.751 61.4923 35.751Z" fill="white"/>
<path d="M55.0703 36.5342H49.0477C48.8655 36.5342 48.7178 36.6807 48.7178 36.8613V36.8618C48.7178 37.0425 48.8655 37.189 49.0477 37.189H55.0703C55.2525 37.189 55.4002 37.0425 55.4002 36.8618V36.8613C55.4002 36.6807 55.2525 36.5342 55.0703 36.5342Z" fill="white"/>
<path d="M42.446 39.123C45.004 39.123 47.0776 37.0667 47.0776 34.5302C47.0776 31.9937 45.004 29.9375 42.446 29.9375C39.8881 29.9375 37.8145 31.9937 37.8145 34.5302C37.8145 37.0667 39.8881 39.123 42.446 39.123Z" fill="white"/>
<mask id="mask2_5481_4061" style="mask-type:luminance" maskUnits="userSpaceOnUse" x="37" y="29" width="11" height="11">
<path d="M42.446 39.123C45.004 39.123 47.0776 37.0667 47.0776 34.5302C47.0776 31.9937 45.004 29.9375 42.446 29.9375C39.8881 29.9375 37.8145 31.9937 37.8145 34.5302C37.8145 37.0667 39.8881 39.123 42.446 39.123Z" fill="white"/>
</mask>
<g mask="url(#mask2_5481_4061)">
<path d="M44.4397 33.8199C44.7963 33.4663 44.7963 32.8931 44.4397 32.5395C44.0832 32.1859 43.5051 32.1859 43.1485 32.5395C42.792 32.8931 42.792 33.4663 43.1485 33.8199C43.5051 34.1734 44.0832 34.1734 44.4397 33.8199Z" fill="#011721"/>
<path d="M43.1702 33.1802C43.5268 32.8267 43.5268 32.2534 43.1702 31.8999C42.8137 31.5463 42.2356 31.5463 41.879 31.8998C41.5224 32.2534 41.5224 32.8267 41.879 33.1802C42.2356 33.5338 42.8137 33.5338 43.1702 33.1802Z" fill="#011721"/>
<path d="M42.3133 33.6319C42.4282 33.1451 42.1234 32.658 41.6325 32.544C41.1415 32.43 40.6503 32.7322 40.5353 33.2191C40.4204 33.7059 40.7252 34.193 41.2161 34.307C41.7071 34.421 42.1983 34.1188 42.3133 33.6319Z" fill="#011721"/>
<path d="M42.8749 35.2303C43.017 34.6819 42.6839 34.1232 42.131 33.9823C41.578 33.8414 41.0146 34.1717 40.8725 34.7201C40.7304 35.2684 41.0635 35.8271 41.6165 35.968C42.1694 36.1089 42.7329 35.7786 42.8749 35.2303Z" fill="#011721"/>
<path d="M44.1735 33.9515L44.5728 32.75L41.7795 33.049C41.6788 33.0597 41.5918 33.1222 41.5551 33.2158C41.4055 33.5933 41.2061 34.5321 42.2091 35.7729L44.1906 34.7013L44.1735 33.951V33.9515Z" fill="#011721"/>
<path d="M47.2589 40.0259C47.2589 42.458 45.2706 44.4296 42.8179 44.4296C40.3653 44.4296 38.377 42.458 38.377 40.0259C38.377 37.7993 39.856 35.8316 42.2065 35.771C42.4083 35.7657 42.6557 35.7889 42.8629 35.7889C43.0858 35.7889 43.1923 35.6731 43.4084 35.6867C45.7422 35.8321 47.2584 37.8153 47.2584 40.0259H47.2589Z" fill="#FFC5C5"/>
<path d="M43.4104 35.6889L43.3385 35.5212L43.9075 35.6123C44.0365 35.6332 44.166 35.5799 44.2428 35.4747L44.6885 34.8621L44.0013 33.6504C44.0013 33.6504 43.7735 34.6217 42.776 34.6217L42.4133 34.2078C42.4133 34.2078 42.0325 34.5853 42.4133 34.9096C42.4133 34.9096 42.5448 35.5043 42.208 35.7732L42.9739 36.9709L43.4099 35.6889H43.4104Z" fill="#FD9680"/>
<path d="M43.3352 35.5166L42.5791 36.3541L42.9706 36.9663L43.4066 35.6843L43.3352 35.5166Z" fill="url(#paint2_linear_5481_4061)"/>
<path d="M42.5236 34.0534C42.8946 33.7148 42.9186 33.142 42.5772 32.7741C42.2357 32.4062 41.6581 32.3824 41.2871 32.7209C40.916 33.0595 40.892 33.6323 41.2335 34.0002C41.5749 34.3682 42.1525 34.392 42.5236 34.0534Z" fill="#011721"/>
</g>
<path d="M93.0231 45.1582H75.7534C72.5419 45.1582 69.9385 47.7398 69.9385 50.9243V50.9248C69.9385 54.1094 72.5419 56.6909 75.7534 56.6909H93.0231C96.2346 56.6909 98.838 54.1094 98.838 50.9248V50.9243C98.838 47.7398 96.2346 45.1582 93.0231 45.1582Z" fill="#59B877"/>
<path d="M83.2008 49.9911L82.519 50.3463L82.649 49.5936L82.0977 49.0605L82.8601 48.9505L83.2008 48.2656L83.542 48.9505L84.3045 49.0605L83.7526 49.5936L83.8826 50.3463L83.2008 49.9911Z" fill="#F7BC14"/>
<path d="M85.7208 49.9911L85.039 50.3463L85.169 49.5936L84.6172 49.0605L85.3797 48.9505L85.7208 48.2656L86.0615 48.9505L86.824 49.0605L86.2722 49.5936L86.4027 50.3463L85.7208 49.9911Z" fill="#F7BC14"/>
<path d="M88.2536 49.9911L87.5717 50.3463L87.7022 49.5936L87.1504 49.0605L87.9129 48.9505L88.2536 48.2656L88.5947 48.9505L89.3572 49.0605L88.8054 49.5936L88.9354 50.3463L88.2536 49.9911Z" fill="#F7BC14"/>
<path d="M90.7804 49.9911L90.0986 50.3463L90.2286 49.5936L89.6768 49.0605L90.4392 48.9505L90.7804 48.2656L91.1211 48.9505L91.8836 49.0605L91.3322 49.5936L91.4622 50.3463L90.7804 49.9911Z" fill="white"/>
<path d="M93.2994 49.9911L92.6176 50.3463L92.7481 49.5936L92.1963 49.0605L92.9588 48.9505L93.2994 48.2656L93.6406 48.9505L94.4031 49.0605L93.8513 49.5936L93.9818 50.3463L93.2994 49.9911Z" fill="white"/>
<path d="M94.8722 52.1553H82.4276C82.2462 52.1553 82.0977 52.0079 82.0977 51.8281C82.0977 51.6483 82.2462 51.501 82.4276 51.501H94.8722C95.0535 51.501 95.2021 51.6483 95.2021 51.8281C95.2021 52.0079 95.0535 52.1553 94.8722 52.1553Z" fill="white"/>
<path d="M88.4497 53.5889H82.4276C82.2462 53.5889 82.0977 53.4415 82.0977 53.2617C82.0977 53.0819 82.2462 52.9346 82.4276 52.9346H88.4497C88.6311 52.9346 88.7796 53.0819 88.7796 53.2617C88.7796 53.4415 88.6311 53.5889 88.4497 53.5889Z" fill="white"/>
<path d="M75.8269 55.5195C78.3849 55.5195 80.4585 53.4632 80.4585 50.9267C80.4585 48.3902 78.3849 46.334 75.8269 46.334C73.2689 46.334 71.1953 48.3902 71.1953 50.9267C71.1953 53.4632 73.2689 55.5195 75.8269 55.5195Z" fill="white"/>
<mask id="mask3_5481_4061" style="mask-type:luminance" maskUnits="userSpaceOnUse" x="71" y="46" width="10" height="10">
<path d="M75.8269 55.5165C78.3849 55.5165 80.4585 53.4603 80.4585 50.9238C80.4585 48.3873 78.3849 46.3311 75.8269 46.3311C73.2689 46.3311 71.1953 48.3873 71.1953 50.9238C71.1953 53.4603 73.2689 55.5165 75.8269 55.5165Z" fill="white"/>
</mask>
<g mask="url(#mask3_5481_4061)">
<path d="M77.9194 49.5273C77.9194 49.5273 77.7879 51.4864 77.3412 52.195L76.5372 52.1286L76.4814 50.4235L77.9194 49.5278V49.5273Z" fill="#011721"/>
<path d="M80.6329 56.4224C80.6329 58.8545 78.6446 60.8261 76.1919 60.8261C73.7393 60.8261 71.751 58.8545 71.751 56.4224C71.751 54.1958 73.23 52.2281 75.5805 52.1675C75.7824 52.1621 76.0297 52.1854 76.2369 52.1854C76.4598 52.1854 76.5663 52.0696 76.7824 52.0831C79.1163 52.2285 80.6324 54.2118 80.6324 56.4224H80.6329Z" fill="#FFC5C5"/>
<path d="M76.7844 52.0815L76.7126 51.9138L77.2815 52.0049C77.4105 52.0258 77.54 51.9724 77.6168 51.8673L78.0625 51.2546L77.3753 50.043C77.3753 50.043 76.9843 50.1355 76.15 51.0142L75.7873 50.6003C75.7873 50.6003 75.4066 50.9779 75.7873 51.3021C75.7873 51.3021 75.9188 51.8968 75.582 52.1658L76.3479 53.3634L76.7839 52.0815H76.7844Z" fill="#FD9680"/>
<path d="M76.7093 51.9131L75.9531 52.7506L76.3446 53.3627L76.7806 52.0808L76.7093 51.9131Z" fill="url(#paint3_linear_5481_4061)"/>
<path d="M77.9151 49.5275C76.832 48.7894 76.0251 48.8272 75.5964 48.9411C75.3711 49.0012 75.1849 49.15 75.0583 49.3443C74.3148 50.4896 74.4781 51.9291 74.4781 51.9291C74.9131 52.2208 75.7357 52.3643 76.287 52.4312C76.2777 52.0856 76.2733 51.3576 76.3863 50.9975C76.3863 50.9975 76.3496 51.9073 76.6311 52.4666C76.7626 52.4782 76.8457 52.4826 76.8457 52.4826C76.3765 51.0208 77.3706 50.0422 77.3706 50.0422L77.9151 49.527V49.5275Z" fill="#011721"/>
</g>
<path d="M93.2565 61.7441H75.9868C72.7753 61.7441 70.1719 64.3257 70.1719 67.5103V67.5108C70.1719 70.6953 72.7753 73.2769 75.9868 73.2769H93.2565C96.468 73.2769 99.0714 70.6953 99.0714 67.5108V67.5103C99.0714 64.3257 96.468 61.7441 93.2565 61.7441Z" fill="#062E14"/>
<path d="M83.0494 66.5741L82.3676 66.9298L82.4976 66.1766L81.9463 65.6435L82.7083 65.5335L83.0494 64.8486L83.3906 65.5335L84.1526 65.6435L83.6013 66.1766L83.7313 66.9298L83.0494 66.5741Z" fill="#F7BC14"/>
<path d="M85.5763 66.5741L84.894 66.9298L85.0245 66.1766L84.4727 65.6435L85.2351 65.5335L85.5763 64.8486L85.917 65.5335L86.6795 65.6435L86.1276 66.1766L86.2581 66.9298L85.5763 66.5741Z" fill="#F7BC14"/>
<path d="M88.1032 66.5741L87.4213 66.9298L87.5513 66.1766L87 65.6435L87.7625 65.5335L88.1032 64.8486L88.4443 65.5335L89.2068 65.6435L88.655 66.1766L88.785 66.9298L88.1032 66.5741Z" fill="white"/>
<path d="M90.63 66.5741L89.9482 66.9298L90.0782 66.1766L89.5264 65.6435L90.2888 65.5335L90.63 64.8486L90.9707 65.5335L91.7332 65.6435L91.1813 66.1766L91.3118 66.9298L90.63 66.5741Z" fill="white"/>
<path d="M93.1559 66.5741L92.4741 66.9298L92.6046 66.1766L92.0527 65.6435L92.8152 65.5335L93.1559 64.8486L93.497 65.5335L94.2595 65.6435L93.7077 66.1766L93.8377 66.9298L93.1559 66.5741Z" fill="white"/>
<path d="M94.7208 68.7373H82.2762C82.0949 68.7373 81.9463 68.59 81.9463 68.4102C81.9463 68.2303 82.0949 68.083 82.2762 68.083H94.7208C94.9021 68.083 95.0507 68.2303 95.0507 68.4102C95.0507 68.59 94.9021 68.7373 94.7208 68.7373Z" fill="white"/>
<path d="M88.2984 70.1748H82.2762C82.0949 70.1748 81.9463 70.0275 81.9463 69.8477C81.9463 69.6678 82.0949 69.5205 82.2762 69.5205H88.2984C88.4797 69.5205 88.6283 69.6678 88.6283 69.8477C88.6283 70.0275 88.4797 70.1748 88.2984 70.1748Z" fill="white"/>
<path d="M79.3309 70.7603C81.1397 68.9667 81.1397 66.0587 79.3309 64.2651C77.5222 62.4716 74.5896 62.4716 72.7809 64.2651C70.9721 66.0587 70.9721 68.9667 72.7809 70.7603C74.5896 72.5538 77.5222 72.5538 79.3309 70.7603Z" fill="white"/>
<mask id="mask4_5481_4061" style="mask-type:luminance" maskUnits="userSpaceOnUse" x="71" y="62" width="10" height="11">
<path d="M79.3241 70.7603C81.1329 68.9667 81.1329 66.0587 79.3241 64.2651C77.5154 62.4716 74.5828 62.4716 72.7741 64.2651C70.9653 66.0587 70.9653 68.9667 72.7741 70.7603C74.5828 72.5538 77.5154 72.5538 79.3241 70.7603Z" fill="white"/>
</mask>
<g mask="url(#mask4_5481_4061)">
<path d="M74.4797 71.8141C75.6988 71.8141 76.687 70.8341 76.687 69.6253C76.687 68.4165 75.6988 67.4365 74.4797 67.4365C73.2607 67.4365 72.2725 68.4165 72.2725 69.6253C72.2725 70.8341 73.2607 71.8141 74.4797 71.8141Z" fill="#011721"/>
<path d="M76.2259 68.314C77.192 68.314 77.9752 67.5374 77.9752 66.5794C77.9752 65.6214 77.192 64.8447 76.2259 64.8447C75.2598 64.8447 74.4766 65.6214 74.4766 66.5794C74.4766 67.5374 75.2598 68.314 76.2259 68.314Z" fill="#011721"/>
<path d="M80.8663 73.0113C80.8663 75.4433 78.878 77.415 76.4253 77.415C73.9727 77.415 71.9844 75.4433 71.9844 73.0113C71.9844 70.7847 73.4634 68.8169 75.8139 68.7563C76.0158 68.751 76.2631 68.7743 76.4703 68.7743C76.6932 68.7743 76.7997 68.6584 77.0158 68.672C79.3497 68.8174 80.8658 70.8007 80.8658 73.0113H80.8663Z" fill="#FFC5C5"/>
<path d="M77.0178 68.6704L76.946 68.5027L77.5149 68.5938C77.6439 68.6146 77.7734 68.5613 77.8502 68.4561L78.2959 67.8435L77.6087 66.6318C77.6087 66.6318 77.381 67.6031 76.3834 67.6031L76.0207 67.1892C76.0207 67.1892 75.64 67.5668 76.0207 67.891C76.0207 67.891 76.1522 68.4857 75.8154 68.7547L76.5813 69.9523L77.0173 68.6704H77.0178Z" fill="#FD9680"/>
<path d="M76.9422 68.5059L76.1865 69.3439L76.578 69.9555L77.014 68.6736L76.9422 68.5059Z" fill="url(#paint4_linear_5481_4061)"/>
</g>
<path d="M87.7625 65.5335L87 65.6435L87.5513 66.1766L87.4213 66.9298L88.1032 66.5741V64.8486L87.7625 65.5335Z" fill="#F7BC14"/>
</g>
<g style="mix-blend-mode:multiply" opacity="0.32">
<path d="M93.0262 40.4191H75.7574C72.4807 40.4191 69.8154 37.7761 69.8154 34.5269C69.8154 31.2777 72.4812 28.6348 75.7574 28.6348H93.0262C96.3029 28.6348 98.9682 31.2777 98.9682 34.5269C98.9682 37.7761 96.3024 40.4191 93.0262 40.4191ZM75.7574 28.8863C72.6205 28.8863 70.0686 31.4168 70.0686 34.5269C70.0686 37.637 72.6205 40.1675 75.7574 40.1675H93.0262C96.1631 40.1675 98.715 37.637 98.715 34.5269C98.715 31.4168 96.1631 28.8863 93.0262 28.8863H75.7574Z" fill="#7460BF"/>
</g>
<g style="mix-blend-mode:multiply" opacity="0.61">
<path d="M96.8677 21.3467H72.0284C67.4089 21.3467 63.6641 25.0601 63.6641 29.6409C63.6641 34.2216 67.4089 37.935 72.0284 37.935H96.8677C101.487 37.935 105.232 34.2216 105.232 29.6409C105.232 25.0601 101.487 21.3467 96.8677 21.3467Z" fill="#19A147"/>
</g>
<path d="M96.2838 19.5869H71.4444C66.8249 19.5869 63.0801 23.3003 63.0801 27.8811C63.0801 32.4618 66.8249 36.1753 71.4444 36.1753H96.2838C100.903 36.1753 104.648 32.4618 104.648 27.8811C104.648 23.3003 100.903 19.5869 96.2838 19.5869Z" fill="#19A147"/>
<path d="M96.2858 36.2354H71.4464C66.7992 36.2354 63.0186 32.4864 63.0186 27.8787C63.0186 23.2709 66.7992 19.5215 71.4464 19.5215H96.2858C100.933 19.5215 104.714 23.2704 104.714 27.8787C104.714 32.4869 100.933 36.2354 96.2858 36.2354ZM71.4464 19.647C66.8691 19.647 63.1451 23.3397 63.1451 27.8787C63.1451 32.4176 66.8691 36.1098 71.4464 36.1098H96.2858C100.863 36.1098 104.587 32.4171 104.587 27.8787C104.587 23.3402 100.863 19.647 96.2858 19.647H71.4464Z" fill="white"/>
<path d="M81.6046 26.5308L80.6237 27.0422L80.8113 25.9594L80.0176 25.1922L81.1144 25.0342L81.6046 24.0488L82.0953 25.0342L83.1917 25.1922L82.3984 25.9594L82.5856 27.0422L81.6046 26.5308Z" fill="#F7BC14"/>
<path d="M85.2365 26.5308L84.2555 27.0422L84.4427 25.9594L83.6494 25.1922L84.7457 25.0342L85.2365 24.0488L85.7267 25.0342L86.8235 25.1922L86.0297 25.9594L86.2169 27.0422L85.2365 26.5308Z" fill="#F7BC14"/>
<path d="M88.8683 26.5308L87.8873 27.0422L88.0745 25.9594L87.2812 25.1922L88.3776 25.0342L88.8683 24.0488L89.3585 25.0342L90.4553 25.1922L89.6616 25.9594L89.8492 27.0422L88.8683 26.5308Z" fill="#F7BC14"/>
<path d="M92.507 26.5308L91.526 27.0422L91.7137 25.9594L90.9199 25.1922L92.0167 25.0342L92.507 24.0488L92.9977 25.0342L94.094 25.1922L93.3007 25.9594L93.4879 27.0422L92.507 26.5308Z" fill="#F7BC14"/>
<path d="M96.1388 26.5308L95.1583 27.0422L95.3455 25.9594L94.5518 25.1922L95.6486 25.0342L96.1388 24.0488L96.6295 25.0342L97.7258 25.1922L96.9326 25.9594L97.1198 27.0422L96.1388 26.5308Z" fill="#F7BC14"/>
<path d="M98.392 29.6405H80.4922C80.2312 29.6405 80.0176 29.4286 80.0176 29.1698C80.0176 28.911 80.2312 28.6992 80.4922 28.6992H98.392C98.653 28.6992 98.8665 28.911 98.8665 29.1698C98.8665 29.4286 98.653 29.6405 98.392 29.6405Z" fill="white"/>
<path d="M89.1547 31.7098H80.4922C80.2312 31.7098 80.0176 31.498 80.0176 31.2392C80.0176 30.9804 80.2312 30.7686 80.4922 30.7686H89.1547C89.4157 30.7686 89.6293 30.9804 89.6293 31.2392C89.6293 31.498 89.4157 31.7098 89.1547 31.7098Z" fill="white"/>
<path d="M71.5477 34.4836C75.227 34.4836 78.2096 31.526 78.2096 27.8775C78.2096 24.2291 75.227 21.2715 71.5477 21.2715C67.8684 21.2715 64.8857 24.2291 64.8857 27.8775C64.8857 31.526 67.8684 34.4836 71.5477 34.4836Z" fill="white"/>
<mask id="mask5_5481_4061" style="mask-type:luminance" maskUnits="userSpaceOnUse" x="64" y="21" width="15" height="14">
<path d="M71.5477 34.4836C75.227 34.4836 78.2096 31.526 78.2096 27.8775C78.2096 24.2291 75.227 21.2715 71.5477 21.2715C67.8684 21.2715 64.8857 24.2291 64.8857 27.8775C64.8857 31.526 67.8684 34.4836 71.5477 34.4836Z" fill="white"/>
</mask>
<g mask="url(#mask5_5481_4061)">
<path d="M69.283 34.0605C71.0362 34.0605 72.4575 32.6511 72.4575 30.9126C72.4575 29.174 71.0362 27.7646 69.283 27.7646C67.5297 27.7646 66.1084 29.174 66.1084 30.9126C66.1084 32.6511 67.5297 34.0605 69.283 34.0605Z" fill="#011721"/>
<path d="M71.796 29.0244C73.1854 29.0244 74.3117 27.9075 74.3117 26.5298C74.3117 25.152 73.1854 24.0352 71.796 24.0352C70.4066 24.0352 69.2803 25.152 69.2803 26.5298C69.2803 27.9075 70.4066 29.0244 71.796 29.0244Z" fill="#011721"/>
<path d="M78.465 35.7822C78.465 39.2806 75.6051 42.1164 72.0772 42.1164C68.5492 42.1164 65.6895 39.2806 65.6895 35.7822C65.6895 32.58 67.8171 29.7495 71.1974 29.6618C71.4873 29.654 71.8436 29.6875 72.1417 29.6875C72.4624 29.6875 72.6158 29.5212 72.9267 29.5406C76.2841 29.7495 78.4645 32.6023 78.4645 35.7822H78.465Z" fill="#FFC5C5"/>
<path d="M72.9251 29.5353L72.8219 29.2939L73.6401 29.4248C73.8259 29.4543 74.0121 29.3778 74.1221 29.2265L74.7633 28.3454L73.775 26.6025C73.775 26.6025 73.4476 27.9998 72.0125 27.9998L71.4905 27.4047C71.4905 27.4047 70.9426 27.948 71.4905 28.4138C71.4905 28.4138 71.6802 29.2687 71.1953 29.656L72.2975 31.3785L72.9246 29.5348L72.9251 29.5353Z" fill="#FD9680"/>
<path d="M72.8253 29.2979L71.7383 30.5027L72.3013 31.3829L72.9284 29.5392L72.8253 29.2979Z" fill="url(#paint5_linear_5481_4061)"/>
</g>
<g style="mix-blend-mode:multiply" opacity="0.54">
<path d="M53.9528 39.3424L56.2783 38.3076C56.2783 38.3076 57.0833 41.1458 52.4019 42.4176C52.4019 42.4176 44.9579 50.9032 40.5697 55.0132L34.8154 59.3438L38.358 50.4302L53.9523 39.3424H53.9528Z" fill="#35325C"/>
</g>
<path d="M12.4596 67.5572C11.5563 77.0926 8.09729 99.6778 6.99609 128.834H11.0969C18.3918 104.563 21.3361 88.2522 21.8743 82.662C21.8958 82.4361 22.2189 82.4366 22.2404 82.662C22.8948 89.5157 25.6461 111.546 32.3139 128.834H36.4895C34.5833 84.8362 30.1497 67.7952 30.1497 67.7952C30.1497 67.7952 12.8579 63.3546 12.4596 67.5567V67.5572Z" fill="#1A3A35"/>
<path d="M21.0876 66.1453L20.7079 60.1456L13.1891 59.6338C13.1891 59.6338 12.171 67.2286 12.4369 68.2028C13.1358 70.7647 18.2718 70.7119 21.3169 70.7119C23.8849 70.7119 28.6215 69.5913 29.9774 68.1548C30.3586 67.7511 30.2144 66.1449 30.2144 66.1449H21.0881L21.0876 66.1453Z" fill="#E09927"/>
<path d="M4.54903 58.6544C11.295 60.3168 19.5817 60.2524 19.5817 60.2524L19.6608 58.5269L35.0762 58.2788C35.0762 58.2788 35.6759 50.541 37.7527 50.4766C42.3765 50.3331 52.1314 40.9252 52.1314 40.9252L51.0839 38.7441C51.0839 38.7441 38.2151 45.1534 37.5797 44.8098C36.0244 43.9689 25.0681 39.7552 22.4405 39.3965C20.852 39.1794 20.9761 38.5871 19.4947 38.9603C17.0762 39.5695 16.4736 39.5807 14.2037 40.6799C9.65033 42.8852 6.618 47.4479 4.58471 52.2485C3.74891 54.2216 2.70147 58.1988 4.54952 58.6539L4.54903 58.6544ZM13.515 49.8339L13.3914 55.0669L10.1631 54.0893L13.515 49.8339Z" fill="#FFBD39"/>
<path d="M10.1571 54.091L9.31641 53.8249L13.5091 49.1357L19.6999 57.616L13.3854 55.0686L13.5091 49.8356L10.1571 54.091Z" fill="#E09927"/>
<path d="M25.3603 35.3276C23.2542 36.4521 22.3412 40.4724 20.0669 39.7372C19.389 39.5176 18.518 37.1011 18.1856 35.618C17.667 33.3022 19.1627 30.13 21.9883 31.571C23.262 32.2204 22.9771 31.948 24.4981 32.8781C25.0499 33.2154 26.1858 32.5742 26.2983 32.7778C26.5377 33.2111 25.8926 35.0441 25.3603 35.3281V35.3276Z" fill="#011721"/>
<path d="M17.8526 33.3475C19.503 33.3475 20.8409 32.0207 20.8409 30.3842C20.8409 28.7476 19.503 27.4209 17.8526 27.4209C16.2022 27.4209 14.8643 28.7476 14.8643 30.3842C14.8643 32.0207 16.2022 33.3475 17.8526 33.3475Z" fill="#011721"/>
<path d="M22.4338 39.3977L22.3526 38.9324L23.6772 39.4597C23.9773 39.5794 24.3199 39.5208 24.5624 39.308L25.9759 38.0692L24.9822 34.7705C24.9822 34.7705 23.8986 36.9942 21.488 36.4552L20.8389 35.2595C20.8389 35.2595 19.7108 35.9662 20.4533 36.9544C20.4533 36.9544 20.356 38.739 19.3467 38.9968L21.009 42.7201L22.4333 39.3977H22.4338Z" fill="#FD9680"/>
<path d="M52.1238 40.9257L51.8007 40.2529C50.593 41.2577 41.8298 48.044 37.8414 49.0061L29.2102 46.1024L28.9453 47.5545L32.4087 52.8655L35.8257 53.5562C36.2422 51.9311 36.859 50.5047 37.7451 50.4771C42.3689 50.3336 52.1238 40.9257 52.1238 40.9257Z" fill="#E09927"/>
<path d="M35.5693 46.7488H34.7502C34.7868 46.6751 34.8215 46.6 34.8494 46.5234C35.1959 45.5783 34.7037 44.8115 33.7506 44.8115C32.7975 44.8115 31.7437 45.5778 31.3972 46.5234C31.3693 46.6 31.3483 46.6746 31.3312 46.7488H30.512L30.2148 47.5596H31.3718C31.537 47.9696 31.9358 48.2352 32.4959 48.2352C33.0561 48.2352 33.6499 47.9696 34.1152 47.5596H35.2722L35.5693 46.7488Z" fill="white"/>
<path d="M32.3407 66.832H18.3155C17.9655 66.832 17.7847 66.5504 17.9117 66.2034L24.6842 47.7224C24.8112 47.3753 25.1983 47.0938 25.5483 47.0938H39.5736C39.9235 47.0938 40.1044 47.3753 39.9773 47.7224L33.2049 66.2034C33.0778 66.5504 32.6907 66.832 32.3407 66.832Z" fill="#19A147"/>
<path d="M19.7003 57.613L20.6104 56.5652L21.5562 56.2686L21.2854 57.0072C21.2307 57.157 21.3499 57.2999 21.5591 57.4051L22.5176 57.678C23.4766 57.8374 23.5963 57.613 24.0299 58.3274C24.5308 59.1533 24.1481 59.1431 23.3847 60.0945C23.1432 60.3955 21.8328 60.7299 21.4487 60.6771L19.5767 60.2511C19.5767 60.2511 19.3777 59.8561 19.3968 58.9769C19.4159 58.0836 19.498 57.9499 19.7003 57.6125V57.613Z" fill="#FD9680"/>
<path d="M51.0723 38.7409L51.8998 38.0444C52.2981 37.709 52.7864 37.4963 53.305 37.4318L54.1623 37.2942L56.1657 36.9152C56.3021 36.8628 56.4546 36.9379 56.4947 37.0775C56.526 37.1866 56.4781 37.3029 56.3788 37.3591L54.4164 38.4709L54.194 39.8682C54.1261 40.2948 53.804 40.6374 53.3798 40.7344L52.061 41.0363C52.061 41.0363 51.1392 39.9526 51.0728 38.7409H51.0723Z" fill="#FD9680"/>
<path d="M8.19043 128.833H11.0972C18.3921 104.561 21.3364 88.2506 21.8745 82.6604C21.8961 82.4346 22.2191 82.4351 22.2406 82.6604C22.8951 89.5142 25.6464 111.545 32.3142 128.833H34.8167L21.7308 76.0137L8.19043 128.833Z" fill="#0F211E"/>
<path d="M7.39577 128.299L5.95439 130.065C5.77305 130.287 5.6709 130.588 5.6709 130.902V131.431C5.6709 131.744 5.8796 131.999 6.1367 131.999H11.3626C11.6662 131.999 11.889 131.65 11.8143 131.291L11.1916 128.299C11.1916 128.299 9.44568 126.317 7.39577 128.299Z" fill="#700303"/>
<path d="M36.1723 128.299L37.6137 130.065C37.795 130.287 37.8972 130.588 37.8972 130.902V131.431C37.8972 131.744 37.6885 131.999 37.4314 131.999H32.2054C31.9019 131.999 31.679 131.65 31.7538 131.291L32.3765 128.299C32.3765 128.299 34.1224 126.317 36.1723 128.299Z" fill="#700303"/>
<path d="M14.7364 23.3814H9.37707C9.13757 23.3814 8.91469 23.5016 8.78468 23.7008L8.33012 24.3968C8.03051 24.8558 7.33939 24.8117 7.10135 24.3188L6.84084 23.7793C6.72353 23.5365 6.47573 23.3819 6.20446 23.3819H3.89648C1.74442 23.3819 0 21.6521 0 19.5181V14.8638C0 12.7298 1.74442 11 3.89648 11H14.7369C16.889 11 18.6334 12.7298 18.6334 14.8638V19.5181C18.6334 21.6521 16.889 23.3819 14.7369 23.3819L14.7364 23.3814Z" fill="#D29B2C"/>
<path d="M14.7369 11H3.89648C1.74442 11 0 12.7303 0 14.8638V19.5181C0 19.6601 0.0083091 19.7997 0.023461 19.9378C0.574306 19.82 1.09925 19.6344 1.36758 19.5452C2.57729 19.1415 3.7127 18.541 4.79093 17.8697C5.52507 17.4127 6.40681 16.9033 7.20302 17.244C7.62922 17.4267 7.9308 17.8261 8.35456 18.0137C8.68057 18.1581 9.04959 18.1644 9.40689 18.1688C9.87464 18.1741 10.3673 18.1736 10.774 17.9448C11.1362 17.7413 11.3791 17.3851 11.6308 17.056C12.036 16.5267 12.4969 16.0396 13.0037 15.6049C13.3444 15.3126 13.7213 15.0368 14.1616 14.9428C14.4852 14.8735 14.822 14.9074 15.1519 14.8779C15.9799 14.8037 16.736 14.3214 17.2585 13.6802C17.5234 13.3555 17.7331 12.9925 17.9007 12.6096C17.1935 11.6349 16.0405 11 14.7369 11Z" fill="#FFBD39"/>
<path d="M7.34674 17.8846C7.63764 17.5961 7.63764 17.1285 7.34675 16.84C7.05585 16.5516 6.58421 16.5516 6.29332 16.84C6.00242 17.1285 6.00242 17.5961 6.29332 17.8846C6.58421 18.1731 7.05585 18.1731 7.34674 17.8846Z" fill="white"/>
<path d="M10.0543 17.4808C10.1198 17.0781 9.84376 16.6989 9.43763 16.6339C9.0315 16.5689 8.64911 16.8427 8.58355 17.2454C8.51799 17.6481 8.79408 18.0273 9.20021 18.0923C9.60634 18.1573 9.98873 17.8836 10.0543 17.4808Z" fill="white"/>
<path d="M12.5365 17.531C12.6303 17.1338 12.3817 16.7364 11.9812 16.6433C11.5807 16.5502 11.1799 16.7968 11.086 17.1939C10.9921 17.5911 11.2407 17.9885 11.6413 18.0816C12.0418 18.1747 12.4426 17.9282 12.5365 17.531Z" fill="white"/>
<g style="mix-blend-mode:multiply">
<path d="M106.225 16.2441C106.225 12.1937 103.726 8.72447 100.174 7.26367C99.9645 7.99019 99.8457 8.75452 99.8457 9.54744V15.6989C99.8457 16.8926 100.822 17.8605 102.026 17.8605H106.225V16.2441Z" fill="#2E7567"/>
</g>
<path d="M107.617 16.627H101.414C100.21 16.627 99.2332 15.6581 99.2332 14.4653V8.31388C99.2332 3.7255 102.99 0.000806808 107.617 0.000806808C112.244 0.000806808 116 3.72599 116 8.31388C116 12.9018 112.244 16.627 107.617 16.627Z" fill="#0F211E"/>
<path d="M111.225 5.15058C110.718 4.81519 110.027 4.95187 109.688 5.45447L107.279 9.03182L105.234 7.67765C104.727 7.34226 104.036 7.47894 103.697 7.98154C103.359 8.48415 103.497 9.16995 104.004 9.50583L106.97 11.4702C107.477 11.8056 108.169 11.6689 108.508 11.1663L111.532 6.67487C111.87 6.17227 111.732 5.48646 111.225 5.15058Z" fill="white"/>
<defs>
<filter id="filter0_d_5481_4061" x="25.6189" y="2.72051" width="84.8057" height="80.9922" filterUnits="userSpaceOnUse" color-interpolation-filters="sRGB">
<feFlood flood-opacity="0" result="BackgroundImageFix"/>
<feColorMatrix in="SourceAlpha" type="matrix" values="0 0 0 0 0 0 0 0 0 0 0 0 0 0 0 0 0 0 127 0" result="hardAlpha"/>
<feOffset dx="0.2" dy="0.2"/>
<feGaussianBlur stdDeviation="2"/>
<feComposite in2="hardAlpha" operator="out"/>
<feColorMatrix type="matrix" values="0 0 0 0 0 0 0 0 0 0 0 0 0 0 0 0 0 0 0.15 0"/>
<feBlend mode="normal" in2="BackgroundImageFix" result="effect1_dropShadow_5481_4061"/>
<feBlend mode="normal" in="SourceGraphic" in2="effect1_dropShadow_5481_4061" result="shape"/>
</filter>
<linearGradient id="paint0_linear_5481_4061" x1="42.7199" y1="69.9705" x2="43.05" y2="68.7938" gradientUnits="userSpaceOnUse">
<stop stop-color="#EDAC80"/>
<stop offset="0.27" stop-color="#E6A579"/>
<stop offset="0.65" stop-color="#D39367"/>
<stop offset="1" stop-color="#BD7E52"/>
</linearGradient>
<linearGradient id="paint1_linear_5481_4061" x1="42.7189" y1="53.5384" x2="43.049" y2="52.3616" gradientUnits="userSpaceOnUse">
<stop stop-color="#EDAC80"/>
<stop offset="0.27" stop-color="#E6A579"/>
<stop offset="0.65" stop-color="#D39367"/>
<stop offset="1" stop-color="#BD7E52"/>
</linearGradient>
<linearGradient id="paint2_linear_5481_4061" x1="42.7189" y1="36.9798" x2="43.049" y2="35.8035" gradientUnits="userSpaceOnUse">
<stop stop-color="#EDAC80"/>
<stop offset="0.27" stop-color="#E6A579"/>
<stop offset="0.65" stop-color="#D39367"/>
<stop offset="1" stop-color="#BD7E52"/>
</linearGradient>
<linearGradient id="paint3_linear_5481_4061" x1="76.0929" y1="53.3763" x2="76.423" y2="52.2" gradientUnits="userSpaceOnUse">
<stop stop-color="#EDAC80"/>
<stop offset="0.27" stop-color="#E6A579"/>
<stop offset="0.65" stop-color="#D39367"/>
<stop offset="1" stop-color="#BD7E52"/>
</linearGradient>
<linearGradient id="paint4_linear_5481_4061" x1="76.3258" y1="69.9696" x2="76.6564" y2="68.7928" gradientUnits="userSpaceOnUse">
<stop stop-color="#EDAC80"/>
<stop offset="0.27" stop-color="#E6A579"/>
<stop offset="0.65" stop-color="#D39367"/>
<stop offset="1" stop-color="#BD7E52"/>
</linearGradient>
<linearGradient id="paint5_linear_5481_4061" x1="71.9392" y1="31.4028" x2="72.4141" y2="29.7106" gradientUnits="userSpaceOnUse">
<stop stop-color="#EDAC80"/>
<stop offset="0.27" stop-color="#E6A579"/>
<stop offset="0.65" stop-color="#D39367"/>
<stop offset="1" stop-color="#BD7E52"/>
</linearGradient>
</defs>
</svg>
